<?xml version="1.0" encoding="UTF-8" standalone="no"?>
<!DOCTYPE svg PUBLIC "-//W3C//DTD SVG 1.1//EN"
 "http://www.w3.org/Graphics/SVG/1.1/DTD/svg11.dtd">
<!-- Generated by graphviz version 2.47.3 (20210619.1520)
 -->
<!-- Title: dependencies Pages: 1 -->
<svg width="770pt" height="174pt"
 viewBox="0.00 0.00 770.00 173.80" xmlns="http://www.w3.org/2000/svg" xmlns:xlink="http://www.w3.org/1999/xlink">
<g id="graph0" class="graph" transform="scale(1 1) rotate(0) translate(4 169.8)">
<title>dependencies</title>
<polygon fill="white" stroke="transparent" points="-4,4 -4,-169.8 766,-169.8 766,4 -4,4"/>
<text text-anchor="middle" x="381" y="-8.2" font-family="sans-serif" font-size="14.00">dependencies</text>
<g id="clust1" class="cluster">
<title>cluster_ProductOverviewPageModule</title>
<polygon fill="none" stroke="black" stroke-dasharray="1,5" points="8,-32.8 8,-157.8 754,-157.8 754,-32.8 8,-32.8"/>
</g>
<g id="clust4" class="cluster">
<title>cluster_ProductOverviewPageModule_imports</title>
<polygon fill="none" stroke="black" points="248,-40.8 248,-92.8 746,-92.8 746,-40.8 248,-40.8"/>
</g>
<g id="clust2" class="cluster">
<title>cluster_ProductOverviewPageModule_declarations</title>
<polygon fill="none" stroke="black" points="16,-40.8 16,-92.8 240,-92.8 240,-40.8 16,-40.8"/>
</g>
<!-- ProductOverviewPageComponent -->
<g id="node1" class="node">
<title>ProductOverviewPageComponent</title>
<polygon fill="#ffffb3" stroke="black" points="231.79,-84.8 24.21,-84.8 24.21,-48.8 231.79,-48.8 231.79,-84.8"/>
<text text-anchor="middle" x="128" y="-62.6" font-family="Times,serif" font-size="14.00">ProductOverviewPageComponent</text>
</g>
<!-- ProductOverviewPageModule -->
<g id="node2" class="node">
<title>ProductOverviewPageModule</title>
<polygon fill="#8dd3c7" stroke="black" points="492.5,-149.8 489.5,-153.8 468.5,-153.8 465.5,-149.8 307.5,-149.8 307.5,-113.8 492.5,-113.8 492.5,-149.8"/>
<text text-anchor="middle" x="400" y="-127.6" font-family="Times,serif" font-size="14.00">ProductOverviewPageModule</text>
</g>
<!-- ProductOverviewPageComponent&#45;&gt;ProductOverviewPageModule -->
<g id="edge1" class="edge">
<title>ProductOverviewPageComponent&#45;&gt;ProductOverviewPageModule</title>
<path fill="none" stroke="black" d="M128,-84.91C128,-104.14 128,-131.8 128,-131.8 128,-131.8 297.15,-131.8 297.15,-131.8"/>
<polygon fill="black" stroke="black" points="297.15,-135.3 307.15,-131.8 297.15,-128.3 297.15,-135.3"/>
</g>
<!-- CommonModule -->
<g id="node3" class="node">
<title>CommonModule</title>
<polygon fill="#8dd3c7" stroke="black" points="737.67,-84.8 734.67,-88.8 713.67,-88.8 710.67,-84.8 626.33,-84.8 626.33,-48.8 737.67,-48.8 737.67,-84.8"/>
<text text-anchor="middle" x="682" y="-62.6" font-family="Times,serif" font-size="14.00">CommonModule</text>
</g>
<!-- CommonModule&#45;&gt;ProductOverviewPageModule -->
<g id="edge2" class="edge">
<title>CommonModule&#45;&gt;ProductOverviewPageModule</title>
<path fill="none" stroke="black" d="M682,-84.91C682,-104.14 682,-131.8 682,-131.8 682,-131.8 502.73,-131.8 502.73,-131.8"/>
<polygon fill="black" stroke="black" points="502.73,-128.3 492.73,-131.8 502.73,-135.3 502.73,-128.3"/>
</g>
<!-- ProductOverviewPageRoutingModule -->
<g id="node4" class="node">
<title>ProductOverviewPageRoutingModule</title>
<polygon fill="#8dd3c7" stroke="black" points="608.12,-84.8 605.12,-88.8 584.12,-88.8 581.12,-84.8 377.88,-84.8 377.88,-48.8 608.12,-48.8 608.12,-84.8"/>
<text text-anchor="middle" x="493" y="-62.6" font-family="Times,serif" font-size="14.00">ProductOverviewPageRoutingModule</text>
</g>
<!-- ProductOverviewPageRoutingModule&#45;&gt;ProductOverviewPageModule -->
<g id="edge3" class="edge">
<title>ProductOverviewPageRoutingModule&#45;&gt;ProductOverviewPageModule</title>
<path fill="none" stroke="black" d="M435.22,-84.91C435.22,-84.91 435.22,-103.79 435.22,-103.79"/>
<polygon fill="black" stroke="black" points="431.72,-103.79 435.22,-113.79 438.72,-103.79 431.72,-103.79"/>
</g>
<!-- ProductModule -->
<g id="node5" class="node">
<title>ProductModule</title>
<polygon fill="#8dd3c7" stroke="black" points="359.6,-84.8 356.6,-88.8 335.6,-88.8 332.6,-84.8 256.4,-84.8 256.4,-48.8 359.6,-48.8 359.6,-84.8"/>
<text text-anchor="middle" x="308" y="-62.6" font-family="Times,serif" font-size="14.00">ProductModule</text>
</g>
<!-- ProductModule&#45;&gt;ProductOverviewPageModule -->
<g id="edge4" class="edge">
<title>ProductModule&#45;&gt;ProductOverviewPageModule</title>
<path fill="none" stroke="black" d="M333.4,-84.91C333.4,-84.91 333.4,-103.79 333.4,-103.79"/>
<polygon fill="black" stroke="black" points="329.9,-103.79 333.4,-113.79 336.9,-103.79 329.9,-103.79"/>
</g>
</g>
</svg>
