<?xml version="1.0" encoding="UTF-8" standalone="no"?>
<!DOCTYPE svg PUBLIC "-//W3C//DTD SVG 1.1//EN"
 "http://www.w3.org/Graphics/SVG/1.1/DTD/svg11.dtd">
<!-- Generated by graphviz version 2.47.3 (20210619.1520)
 -->
<!-- Title: dependencies Pages: 1 -->
<svg width="334pt" height="247pt"
 viewBox="0.00 0.00 334.00 246.80" xmlns="http://www.w3.org/2000/svg" xmlns:xlink="http://www.w3.org/1999/xlink">
<g id="graph0" class="graph" transform="scale(1 1) rotate(0) translate(4 242.8)">
<title>dependencies</title>
<polygon fill="white" stroke="transparent" points="-4,4 -4,-242.8 330,-242.8 330,4 -4,4"/>
<text text-anchor="middle" x="163" y="-8.2" font-family="sans-serif" font-size="14.00">dependencies</text>
<g id="clust1" class="cluster">
<title>cluster_ShopifyPaginationModule</title>
<polygon fill="none" stroke="black" stroke-dasharray="1,5" points="8,-32.8 8,-230.8 318,-230.8 318,-32.8 8,-32.8"/>
</g>
<g id="clust5" class="cluster">
<title>cluster_ShopifyPaginationModule_exports</title>
<polygon fill="none" stroke="black" points="83,-170.8 83,-222.8 243,-222.8 243,-170.8 83,-170.8"/>
</g>
<g id="clust4" class="cluster">
<title>cluster_ShopifyPaginationModule_imports</title>
<polygon fill="none" stroke="black" points="182,-40.8 182,-92.8 310,-92.8 310,-40.8 182,-40.8"/>
</g>
<g id="clust2" class="cluster">
<title>cluster_ShopifyPaginationModule_declarations</title>
<polygon fill="none" stroke="black" points="16,-40.8 16,-92.8 174,-92.8 174,-40.8 16,-40.8"/>
</g>
<!-- PaginationComponent -->
<g id="node1" class="node">
<title>PaginationComponent</title>
<polygon fill="#ffffb3" stroke="black" points="165.72,-84.8 24.28,-84.8 24.28,-48.8 165.72,-48.8 165.72,-84.8"/>
<text text-anchor="middle" x="95" y="-62.6" font-family="Times,serif" font-size="14.00">PaginationComponent</text>
</g>
<!-- ShopifyPaginationModule -->
<g id="node2" class="node">
<title>ShopifyPaginationModule</title>
<polygon fill="#8dd3c7" stroke="black" points="244.77,-149.8 241.77,-153.8 220.77,-153.8 217.77,-149.8 81.23,-149.8 81.23,-113.8 244.77,-113.8 244.77,-149.8"/>
<text text-anchor="middle" x="163" y="-127.6" font-family="Times,serif" font-size="14.00">ShopifyPaginationModule</text>
</g>
<!-- PaginationComponent&#45;&gt;ShopifyPaginationModule -->
<g id="edge1" class="edge">
<title>PaginationComponent&#45;&gt;ShopifyPaginationModule</title>
<path fill="none" stroke="black" d="M123.36,-84.91C123.36,-84.91 123.36,-103.79 123.36,-103.79"/>
<polygon fill="black" stroke="black" points="119.86,-103.79 123.36,-113.79 126.86,-103.79 119.86,-103.79"/>
</g>
<!-- PaginationComponent  -->
<g id="node4" class="node">
<title>PaginationComponent </title>
<polygon fill="#fb8072" stroke="black" points="235.22,-214.8 90.78,-214.8 90.78,-178.8 235.22,-178.8 235.22,-214.8"/>
<text text-anchor="middle" x="163" y="-192.6" font-family="Times,serif" font-size="14.00">PaginationComponent </text>
</g>
<!-- ShopifyPaginationModule&#45;&gt;PaginationComponent  -->
<g id="edge3" class="edge">
<title>ShopifyPaginationModule&#45;&gt;PaginationComponent </title>
<path fill="none" stroke="black" stroke-dasharray="5,2" d="M163,-149.91C163,-149.91 163,-168.79 163,-168.79"/>
<polygon fill="black" stroke="black" points="159.5,-168.79 163,-178.79 166.5,-168.79 159.5,-168.79"/>
</g>
<!-- CommonModule -->
<g id="node3" class="node">
<title>CommonModule</title>
<polygon fill="#8dd3c7" stroke="black" points="301.67,-84.8 298.67,-88.8 277.67,-88.8 274.67,-84.8 190.33,-84.8 190.33,-48.8 301.67,-48.8 301.67,-84.8"/>
<text text-anchor="middle" x="246" y="-62.6" font-family="Times,serif" font-size="14.00">CommonModule</text>
</g>
<!-- CommonModule&#45;&gt;ShopifyPaginationModule -->
<g id="edge2" class="edge">
<title>CommonModule&#45;&gt;ShopifyPaginationModule</title>
<path fill="none" stroke="black" d="M217.52,-84.91C217.52,-84.91 217.52,-103.79 217.52,-103.79"/>
<polygon fill="black" stroke="black" points="214.02,-103.79 217.52,-113.79 221.02,-103.79 214.02,-103.79"/>
</g>
</g>
</svg>
