<?xml version="1.0" encoding="UTF-8" standalone="no"?>
<!DOCTYPE svg PUBLIC "-//W3C//DTD SVG 1.1//EN"
 "http://www.w3.org/Graphics/SVG/1.1/DTD/svg11.dtd">
<!-- Generated by graphviz version 2.47.3 (20210619.1520)
 -->
<!-- Title: dependencies Pages: 1 -->
<svg width="583pt" height="247pt"
 viewBox="0.00 0.00 583.00 246.80" xmlns="http://www.w3.org/2000/svg" xmlns:xlink="http://www.w3.org/1999/xlink">
<g id="graph0" class="graph" transform="scale(1 1) rotate(0) translate(4 242.8)">
<title>dependencies</title>
<polygon fill="white" stroke="transparent" points="-4,4 -4,-242.8 579,-242.8 579,4 -4,4"/>
<text text-anchor="middle" x="287.5" y="-8.2" font-family="sans-serif" font-size="14.00">dependencies</text>
<g id="clust1" class="cluster">
<title>cluster_OrderModule</title>
<polygon fill="none" stroke="black" stroke-dasharray="1,5" points="8,-32.8 8,-230.8 567,-230.8 567,-32.8 8,-32.8"/>
</g>
<g id="clust5" class="cluster">
<title>cluster_OrderModule_imports</title>
<polygon fill="none" stroke="black" points="431,-40.8 431,-92.8 559,-92.8 559,-40.8 431,-40.8"/>
</g>
<g id="clust2" class="cluster">
<title>cluster_OrderModule_declarations</title>
<polygon fill="none" stroke="black" points="16,-40.8 16,-92.8 423,-92.8 423,-40.8 16,-40.8"/>
</g>
<g id="clust6" class="cluster">
<title>cluster_OrderModule_exports</title>
<polygon fill="none" stroke="black" points="232,-170.8 232,-222.8 424,-222.8 424,-170.8 232,-170.8"/>
</g>
<!-- OrdersListTableComponent -->
<g id="node1" class="node">
<title>OrdersListTableComponent</title>
<polygon fill="#ffffb3" stroke="black" points="414.57,-84.8 241.43,-84.8 241.43,-48.8 414.57,-48.8 414.57,-84.8"/>
<text text-anchor="middle" x="328" y="-62.6" font-family="Times,serif" font-size="14.00">OrdersListTableComponent</text>
</g>
<!-- OrderModule -->
<g id="node3" class="node">
<title>OrderModule</title>
<polygon fill="#8dd3c7" stroke="black" points="374.19,-149.8 371.19,-153.8 350.19,-153.8 347.19,-149.8 281.81,-149.8 281.81,-113.8 374.19,-113.8 374.19,-149.8"/>
<text text-anchor="middle" x="328" y="-127.6" font-family="Times,serif" font-size="14.00">OrderModule</text>
</g>
<!-- OrdersListTableComponent&#45;&gt;OrderModule -->
<g id="edge1" class="edge">
<title>OrdersListTableComponent&#45;&gt;OrderModule</title>
<path fill="none" stroke="black" d="M328,-84.91C328,-84.91 328,-103.79 328,-103.79"/>
<polygon fill="black" stroke="black" points="324.5,-103.79 328,-113.79 331.5,-103.79 324.5,-103.79"/>
</g>
<!-- OrdersListTableRowComponent -->
<g id="node2" class="node">
<title>OrdersListTableRowComponent</title>
<polygon fill="#ffffb3" stroke="black" points="223.51,-84.8 24.49,-84.8 24.49,-48.8 223.51,-48.8 223.51,-84.8"/>
<text text-anchor="middle" x="124" y="-62.6" font-family="Times,serif" font-size="14.00">OrdersListTableRowComponent</text>
</g>
<!-- OrdersListTableRowComponent&#45;&gt;OrderModule -->
<g id="edge2" class="edge">
<title>OrdersListTableRowComponent&#45;&gt;OrderModule</title>
<path fill="none" stroke="black" d="M124,-84.91C124,-104.14 124,-131.8 124,-131.8 124,-131.8 271.71,-131.8 271.71,-131.8"/>
<polygon fill="black" stroke="black" points="271.71,-135.3 281.71,-131.8 271.71,-128.3 271.71,-135.3"/>
</g>
<!-- OrdersListTableComponent  -->
<g id="node5" class="node">
<title>OrdersListTableComponent </title>
<polygon fill="#fb8072" stroke="black" points="416.07,-214.8 239.93,-214.8 239.93,-178.8 416.07,-178.8 416.07,-214.8"/>
<text text-anchor="middle" x="328" y="-192.6" font-family="Times,serif" font-size="14.00">OrdersListTableComponent </text>
</g>
<!-- OrderModule&#45;&gt;OrdersListTableComponent  -->
<g id="edge4" class="edge">
<title>OrderModule&#45;&gt;OrdersListTableComponent </title>
<path fill="none" stroke="black" stroke-dasharray="5,2" d="M328,-149.91C328,-149.91 328,-168.79 328,-168.79"/>
<polygon fill="black" stroke="black" points="324.5,-168.79 328,-178.79 331.5,-168.79 324.5,-168.79"/>
</g>
<!-- CommonModule -->
<g id="node4" class="node">
<title>CommonModule</title>
<polygon fill="#8dd3c7" stroke="black" points="550.67,-84.8 547.67,-88.8 526.67,-88.8 523.67,-84.8 439.33,-84.8 439.33,-48.8 550.67,-48.8 550.67,-84.8"/>
<text text-anchor="middle" x="495" y="-62.6" font-family="Times,serif" font-size="14.00">CommonModule</text>
</g>
<!-- CommonModule&#45;&gt;OrderModule -->
<g id="edge3" class="edge">
<title>CommonModule&#45;&gt;OrderModule</title>
<path fill="none" stroke="black" d="M495,-84.91C495,-104.14 495,-131.8 495,-131.8 495,-131.8 384.52,-131.8 384.52,-131.8"/>
<polygon fill="black" stroke="black" points="384.52,-128.3 374.52,-131.8 384.52,-135.3 384.52,-128.3"/>
</g>
</g>
</svg>
