<?xml version="1.0" encoding="UTF-8" standalone="no"?>
<!DOCTYPE svg PUBLIC "-//W3C//DTD SVG 1.1//EN"
 "http://www.w3.org/Graphics/SVG/1.1/DTD/svg11.dtd">
<!-- Generated by graphviz version 2.47.3 (20210619.1520)
 -->
<!-- Title: dependencies Pages: 1 -->
<svg width="583pt" height="247pt"
 viewBox="0.00 0.00 583.00 246.80" xmlns="http://www.w3.org/2000/svg" xmlns:xlink="http://www.w3.org/1999/xlink">
<g id="graph0" class="graph" transform="scale(1 1) rotate(0) translate(4 242.8)">
<title>dependencies</title>
<polygon fill="white" stroke="transparent" points="-4,4 -4,-242.8 579,-242.8 579,4 -4,4"/>
<text text-anchor="middle" x="287.5" y="-8.2" font-family="sans-serif" font-size="14.00">dependencies</text>
<g id="clust1" class="cluster">
<title>cluster_OrderModule</title>
<polygon fill="none" stroke="black" stroke-dasharray="1,5" points="8,-32.8 8,-230.8 567,-230.8 567,-32.8 8,-32.8"/>
</g>
<g id="clust2" class="cluster">
<title>cluster_OrderModule_declarations</title>
<polygon fill="none" stroke="black" points="152,-40.8 152,-92.8 559,-92.8 559,-40.8 152,-40.8"/>
</g>
<g id="clust5" class="cluster">
<title>cluster_OrderModule_imports</title>
<polygon fill="none" stroke="black" points="16,-40.8 16,-92.8 144,-92.8 144,-40.8 16,-40.8"/>
</g>
<g id="clust6" class="cluster">
<title>cluster_OrderModule_exports</title>
<polygon fill="none" stroke="black" points="164,-170.8 164,-222.8 356,-222.8 356,-170.8 164,-170.8"/>
</g>
<!-- OrdersListTableComponent -->
<g id="node1" class="node">
<title>OrdersListTableComponent</title>
<polygon fill="#ffffb3" stroke="black" points="550.57,-84.8 377.43,-84.8 377.43,-48.8 550.57,-48.8 550.57,-84.8"/>
<text text-anchor="middle" x="464" y="-62.6" font-family="Times,serif" font-size="14.00">OrdersListTableComponent</text>
</g>
<!-- OrderModule -->
<g id="node3" class="node">
<title>OrderModule</title>
<polygon fill="#8dd3c7" stroke="black" points="306.19,-149.8 303.19,-153.8 282.19,-153.8 279.19,-149.8 213.81,-149.8 213.81,-113.8 306.19,-113.8 306.19,-149.8"/>
<text text-anchor="middle" x="260" y="-127.6" font-family="Times,serif" font-size="14.00">OrderModule</text>
</g>
<!-- OrdersListTableComponent&#45;&gt;OrderModule -->
<g id="edge1" class="edge">
<title>OrdersListTableComponent&#45;&gt;OrderModule</title>
<path fill="none" stroke="black" d="M464,-84.91C464,-104.14 464,-131.8 464,-131.8 464,-131.8 316.29,-131.8 316.29,-131.8"/>
<polygon fill="black" stroke="black" points="316.29,-128.3 306.29,-131.8 316.29,-135.3 316.29,-128.3"/>
</g>
<!-- OrdersListTableRowComponent -->
<g id="node2" class="node">
<title>OrdersListTableRowComponent</title>
<polygon fill="#ffffb3" stroke="black" points="359.51,-84.8 160.49,-84.8 160.49,-48.8 359.51,-48.8 359.51,-84.8"/>
<text text-anchor="middle" x="260" y="-62.6" font-family="Times,serif" font-size="14.00">OrdersListTableRowComponent</text>
</g>
<!-- OrdersListTableRowComponent&#45;&gt;OrderModule -->
<g id="edge2" class="edge">
<title>OrdersListTableRowComponent&#45;&gt;OrderModule</title>
<path fill="none" stroke="black" d="M260,-84.91C260,-84.91 260,-103.79 260,-103.79"/>
<polygon fill="black" stroke="black" points="256.5,-103.79 260,-113.79 263.5,-103.79 256.5,-103.79"/>
</g>
<!-- OrdersListTableComponent  -->
<g id="node5" class="node">
<title>OrdersListTableComponent </title>
<polygon fill="#fb8072" stroke="black" points="348.07,-214.8 171.93,-214.8 171.93,-178.8 348.07,-178.8 348.07,-214.8"/>
<text text-anchor="middle" x="260" y="-192.6" font-family="Times,serif" font-size="14.00">OrdersListTableComponent </text>
</g>
<!-- OrderModule&#45;&gt;OrdersListTableComponent  -->
<g id="edge4" class="edge">
<title>OrderModule&#45;&gt;OrdersListTableComponent </title>
<path fill="none" stroke="black" stroke-dasharray="5,2" d="M260,-149.91C260,-149.91 260,-168.79 260,-168.79"/>
<polygon fill="black" stroke="black" points="256.5,-168.79 260,-178.79 263.5,-168.79 256.5,-168.79"/>
</g>
<!-- CommonModule -->
<g id="node4" class="node">
<title>CommonModule</title>
<polygon fill="#8dd3c7" stroke="black" points="135.67,-84.8 132.67,-88.8 111.67,-88.8 108.67,-84.8 24.33,-84.8 24.33,-48.8 135.67,-48.8 135.67,-84.8"/>
<text text-anchor="middle" x="80" y="-62.6" font-family="Times,serif" font-size="14.00">CommonModule</text>
</g>
<!-- CommonModule&#45;&gt;OrderModule -->
<g id="edge3" class="edge">
<title>CommonModule&#45;&gt;OrderModule</title>
<path fill="none" stroke="black" d="M80,-84.91C80,-104.14 80,-131.8 80,-131.8 80,-131.8 203.65,-131.8 203.65,-131.8"/>
<polygon fill="black" stroke="black" points="203.65,-135.3 213.65,-131.8 203.65,-128.3 203.65,-135.3"/>
</g>
</g>
</svg>
