<?xml version="1.0" encoding="UTF-8" standalone="no"?>
<!DOCTYPE svg PUBLIC "-//W3C//DTD SVG 1.1//EN"
 "http://www.w3.org/Graphics/SVG/1.1/DTD/svg11.dtd">
<!-- Generated by graphviz version 2.47.3 (20210619.1520)
 -->
<!-- Title: dependencies Pages: 1 -->
<svg width="564pt" height="174pt"
 viewBox="0.00 0.00 564.00 173.80" xmlns="http://www.w3.org/2000/svg" xmlns:xlink="http://www.w3.org/1999/xlink">
<g id="graph0" class="graph" transform="scale(1 1) rotate(0) translate(4 169.8)">
<title>dependencies</title>
<polygon fill="white" stroke="transparent" points="-4,4 -4,-169.8 560,-169.8 560,4 -4,4"/>
<text text-anchor="middle" x="278" y="-8.2" font-family="sans-serif" font-size="14.00">dependencies</text>
<g id="clust1" class="cluster">
<title>cluster_NotFoundPageModule</title>
<polygon fill="none" stroke="black" stroke-dasharray="1,5" points="8,-32.8 8,-157.8 548,-157.8 548,-32.8 8,-32.8"/>
</g>
<g id="clust2" class="cluster">
<title>cluster_NotFoundPageModule_declarations</title>
<polygon fill="none" stroke="black" points="358,-40.8 358,-92.8 540,-92.8 540,-40.8 358,-40.8"/>
</g>
<g id="clust4" class="cluster">
<title>cluster_NotFoundPageModule_imports</title>
<polygon fill="none" stroke="black" points="16,-40.8 16,-92.8 350,-92.8 350,-40.8 16,-40.8"/>
</g>
<!-- NotFoundPageComponent -->
<g id="node1" class="node">
<title>NotFoundPageComponent</title>
<polygon fill="#ffffb3" stroke="black" points="531.82,-84.8 366.18,-84.8 366.18,-48.8 531.82,-48.8 531.82,-84.8"/>
<text text-anchor="middle" x="449" y="-62.6" font-family="Times,serif" font-size="14.00">NotFoundPageComponent</text>
</g>
<!-- NotFoundPageModule -->
<g id="node2" class="node">
<title>NotFoundPageModule</title>
<polygon fill="#8dd3c7" stroke="black" points="357.54,-149.8 354.54,-153.8 333.54,-153.8 330.54,-149.8 214.46,-149.8 214.46,-113.8 357.54,-113.8 357.54,-149.8"/>
<text text-anchor="middle" x="286" y="-127.6" font-family="Times,serif" font-size="14.00">NotFoundPageModule</text>
</g>
<!-- NotFoundPageComponent&#45;&gt;NotFoundPageModule -->
<g id="edge1" class="edge">
<title>NotFoundPageComponent&#45;&gt;NotFoundPageModule</title>
<path fill="none" stroke="black" d="M366.18,-66.8C356.4,-66.8 349.8,-66.8 349.8,-66.8 349.8,-66.8 349.8,-103.69 349.8,-103.69"/>
<polygon fill="black" stroke="black" points="346.3,-103.69 349.8,-113.69 353.3,-103.69 346.3,-103.69"/>
</g>
<!-- CommonModule -->
<g id="node3" class="node">
<title>CommonModule</title>
<polygon fill="#8dd3c7" stroke="black" points="341.67,-84.8 338.67,-88.8 317.67,-88.8 314.67,-84.8 230.33,-84.8 230.33,-48.8 341.67,-48.8 341.67,-84.8"/>
<text text-anchor="middle" x="286" y="-62.6" font-family="Times,serif" font-size="14.00">CommonModule</text>
</g>
<!-- CommonModule&#45;&gt;NotFoundPageModule -->
<g id="edge2" class="edge">
<title>CommonModule&#45;&gt;NotFoundPageModule</title>
<path fill="none" stroke="black" d="M286,-84.91C286,-84.91 286,-103.79 286,-103.79"/>
<polygon fill="black" stroke="black" points="282.5,-103.79 286,-113.79 289.5,-103.79 282.5,-103.79"/>
</g>
<!-- NotFoundPageRoutingModule -->
<g id="node4" class="node">
<title>NotFoundPageRoutingModule</title>
<polygon fill="#8dd3c7" stroke="black" points="212.16,-84.8 209.16,-88.8 188.16,-88.8 185.16,-84.8 23.84,-84.8 23.84,-48.8 212.16,-48.8 212.16,-84.8"/>
<text text-anchor="middle" x="118" y="-62.6" font-family="Times,serif" font-size="14.00">NotFoundPageRoutingModule</text>
</g>
<!-- NotFoundPageRoutingModule&#45;&gt;NotFoundPageModule -->
<g id="edge3" class="edge">
<title>NotFoundPageRoutingModule&#45;&gt;NotFoundPageModule</title>
<path fill="none" stroke="black" d="M212.21,-66.8C218.38,-66.8 222.2,-66.8 222.2,-66.8 222.2,-66.8 222.2,-103.69 222.2,-103.69"/>
<polygon fill="black" stroke="black" points="218.7,-103.69 222.2,-113.69 225.7,-103.69 218.7,-103.69"/>
</g>
</g>
</svg>
