<?xml version="1.0" encoding="UTF-8" standalone="no"?>
<!DOCTYPE svg PUBLIC "-//W3C//DTD SVG 1.1//EN"
 "http://www.w3.org/Graphics/SVG/1.1/DTD/svg11.dtd">
<!-- Generated by graphviz version 2.47.3 (20210619.1520)
 -->
<!-- Title: dependencies Pages: 1 -->
<svg width="564pt" height="174pt"
 viewBox="0.00 0.00 564.00 173.80" xmlns="http://www.w3.org/2000/svg" xmlns:xlink="http://www.w3.org/1999/xlink">
<g id="graph0" class="graph" transform="scale(1 1) rotate(0) translate(4 169.8)">
<title>dependencies</title>
<polygon fill="white" stroke="transparent" points="-4,4 -4,-169.8 560,-169.8 560,4 -4,4"/>
<text text-anchor="middle" x="278" y="-8.2" font-family="sans-serif" font-size="14.00">dependencies</text>
<g id="clust1" class="cluster">
<title>cluster_NotFoundPageModule</title>
<polygon fill="none" stroke="black" stroke-dasharray="1,5" points="8,-32.8 8,-157.8 548,-157.8 548,-32.8 8,-32.8"/>
</g>
<g id="clust4" class="cluster">
<title>cluster_NotFoundPageModule_imports</title>
<polygon fill="none" stroke="black" points="206,-40.8 206,-92.8 540,-92.8 540,-40.8 206,-40.8"/>
</g>
<g id="clust2" class="cluster">
<title>cluster_NotFoundPageModule_declarations</title>
<polygon fill="none" stroke="black" points="16,-40.8 16,-92.8 198,-92.8 198,-40.8 16,-40.8"/>
</g>
<!-- NotFoundPageComponent -->
<g id="node1" class="node">
<title>NotFoundPageComponent</title>
<polygon fill="#ffffb3" stroke="black" points="189.82,-84.8 24.18,-84.8 24.18,-48.8 189.82,-48.8 189.82,-84.8"/>
<text text-anchor="middle" x="107" y="-62.6" font-family="Times,serif" font-size="14.00">NotFoundPageComponent</text>
</g>
<!-- NotFoundPageModule -->
<g id="node2" class="node">
<title>NotFoundPageModule</title>
<polygon fill="#8dd3c7" stroke="black" points="379.54,-149.8 376.54,-153.8 355.54,-153.8 352.54,-149.8 236.46,-149.8 236.46,-113.8 379.54,-113.8 379.54,-149.8"/>
<text text-anchor="middle" x="308" y="-127.6" font-family="Times,serif" font-size="14.00">NotFoundPageModule</text>
</g>
<!-- NotFoundPageComponent&#45;&gt;NotFoundPageModule -->
<g id="edge1" class="edge">
<title>NotFoundPageComponent&#45;&gt;NotFoundPageModule</title>
<path fill="none" stroke="black" d="M107,-84.91C107,-104.14 107,-131.8 107,-131.8 107,-131.8 226.29,-131.8 226.29,-131.8"/>
<polygon fill="black" stroke="black" points="226.29,-135.3 236.29,-131.8 226.29,-128.3 226.29,-135.3"/>
</g>
<!-- CommonModule -->
<g id="node3" class="node">
<title>CommonModule</title>
<polygon fill="#8dd3c7" stroke="black" points="531.67,-84.8 528.67,-88.8 507.67,-88.8 504.67,-84.8 420.33,-84.8 420.33,-48.8 531.67,-48.8 531.67,-84.8"/>
<text text-anchor="middle" x="476" y="-62.6" font-family="Times,serif" font-size="14.00">CommonModule</text>
</g>
<!-- CommonModule&#45;&gt;NotFoundPageModule -->
<g id="edge2" class="edge">
<title>CommonModule&#45;&gt;NotFoundPageModule</title>
<path fill="none" stroke="black" d="M476,-84.91C476,-104.14 476,-131.8 476,-131.8 476,-131.8 389.73,-131.8 389.73,-131.8"/>
<polygon fill="black" stroke="black" points="389.73,-128.3 379.73,-131.8 389.73,-135.3 389.73,-128.3"/>
</g>
<!-- NotFoundPageRoutingModule -->
<g id="node4" class="node">
<title>NotFoundPageRoutingModule</title>
<polygon fill="#8dd3c7" stroke="black" points="402.16,-84.8 399.16,-88.8 378.16,-88.8 375.16,-84.8 213.84,-84.8 213.84,-48.8 402.16,-48.8 402.16,-84.8"/>
<text text-anchor="middle" x="308" y="-62.6" font-family="Times,serif" font-size="14.00">NotFoundPageRoutingModule</text>
</g>
<!-- NotFoundPageRoutingModule&#45;&gt;NotFoundPageModule -->
<g id="edge3" class="edge">
<title>NotFoundPageRoutingModule&#45;&gt;NotFoundPageModule</title>
<path fill="none" stroke="black" d="M308,-84.91C308,-84.91 308,-103.79 308,-103.79"/>
<polygon fill="black" stroke="black" points="304.5,-103.79 308,-113.79 311.5,-103.79 304.5,-103.79"/>
</g>
</g>
</svg>
