<?xml version="1.0" encoding="UTF-8" standalone="no"?>
<!DOCTYPE svg PUBLIC "-//W3C//DTD SVG 1.1//EN"
 "http://www.w3.org/Graphics/SVG/1.1/DTD/svg11.dtd">
<!-- Generated by graphviz version 2.47.3 (20210619.1520)
 -->
<!-- Title: dependencies Pages: 1 -->
<svg width="638pt" height="174pt"
 viewBox="0.00 0.00 638.00 173.80" xmlns="http://www.w3.org/2000/svg" xmlns:xlink="http://www.w3.org/1999/xlink">
<g id="graph0" class="graph" transform="scale(1 1) rotate(0) translate(4 169.8)">
<title>dependencies</title>
<polygon fill="white" stroke="transparent" points="-4,4 -4,-169.8 634,-169.8 634,4 -4,4"/>
<text text-anchor="middle" x="315" y="-8.2" font-family="sans-serif" font-size="14.00">dependencies</text>
<g id="clust1" class="cluster">
<title>cluster_DashboardModule</title>
<polygon fill="none" stroke="black" stroke-dasharray="1,5" points="8,-32.8 8,-157.8 622,-157.8 622,-32.8 8,-32.8"/>
</g>
<g id="clust2" class="cluster">
<title>cluster_DashboardModule_declarations</title>
<polygon fill="none" stroke="black" points="456,-40.8 456,-92.8 614,-92.8 614,-40.8 456,-40.8"/>
</g>
<g id="clust4" class="cluster">
<title>cluster_DashboardModule_imports</title>
<polygon fill="none" stroke="black" points="16,-40.8 16,-92.8 448,-92.8 448,-40.8 16,-40.8"/>
</g>
<!-- DashboardComponent -->
<g id="node1" class="node">
<title>DashboardComponent</title>
<polygon fill="#ffffb3" stroke="black" points="605.97,-84.8 464.03,-84.8 464.03,-48.8 605.97,-48.8 605.97,-84.8"/>
<text text-anchor="middle" x="535" y="-62.6" font-family="Times,serif" font-size="14.00">DashboardComponent</text>
</g>
<!-- DashboardModule -->
<g id="node2" class="node">
<title>DashboardModule</title>
<polygon fill="#8dd3c7" stroke="black" points="366.19,-149.8 363.19,-153.8 342.19,-153.8 339.19,-149.8 245.81,-149.8 245.81,-113.8 366.19,-113.8 366.19,-149.8"/>
<text text-anchor="middle" x="306" y="-127.6" font-family="Times,serif" font-size="14.00">DashboardModule</text>
</g>
<!-- DashboardComponent&#45;&gt;DashboardModule -->
<g id="edge1" class="edge">
<title>DashboardComponent&#45;&gt;DashboardModule</title>
<path fill="none" stroke="black" d="M535,-84.91C535,-104.14 535,-131.8 535,-131.8 535,-131.8 376.17,-131.8 376.17,-131.8"/>
<polygon fill="black" stroke="black" points="376.17,-128.3 366.17,-131.8 376.17,-135.3 376.17,-128.3"/>
</g>
<!-- CommonModule -->
<g id="node3" class="node">
<title>CommonModule</title>
<polygon fill="#8dd3c7" stroke="black" points="439.67,-84.8 436.67,-88.8 415.67,-88.8 412.67,-84.8 328.33,-84.8 328.33,-48.8 439.67,-48.8 439.67,-84.8"/>
<text text-anchor="middle" x="384" y="-62.6" font-family="Times,serif" font-size="14.00">CommonModule</text>
</g>
<!-- CommonModule&#45;&gt;DashboardModule -->
<g id="edge2" class="edge">
<title>CommonModule&#45;&gt;DashboardModule</title>
<path fill="none" stroke="black" d="M347.13,-84.91C347.13,-84.91 347.13,-103.79 347.13,-103.79"/>
<polygon fill="black" stroke="black" points="343.63,-103.79 347.13,-113.79 350.63,-103.79 343.63,-103.79"/>
</g>
<!-- DashboardRoutingModule -->
<g id="node4" class="node">
<title>DashboardRoutingModule</title>
<polygon fill="#8dd3c7" stroke="black" points="310.81,-84.8 307.81,-88.8 286.81,-88.8 283.81,-84.8 145.19,-84.8 145.19,-48.8 310.81,-48.8 310.81,-84.8"/>
<text text-anchor="middle" x="228" y="-62.6" font-family="Times,serif" font-size="14.00">DashboardRoutingModule</text>
</g>
<!-- DashboardRoutingModule&#45;&gt;DashboardModule -->
<g id="edge3" class="edge">
<title>DashboardRoutingModule&#45;&gt;DashboardModule</title>
<path fill="none" stroke="black" d="M278.28,-84.91C278.28,-84.91 278.28,-103.79 278.28,-103.79"/>
<polygon fill="black" stroke="black" points="274.78,-103.79 278.28,-113.79 281.78,-103.79 274.78,-103.79"/>
</g>
<!-- ProductModule -->
<g id="node5" class="node">
<title>ProductModule</title>
<polygon fill="#8dd3c7" stroke="black" points="127.6,-84.8 124.6,-88.8 103.6,-88.8 100.6,-84.8 24.4,-84.8 24.4,-48.8 127.6,-48.8 127.6,-84.8"/>
<text text-anchor="middle" x="76" y="-62.6" font-family="Times,serif" font-size="14.00">ProductModule</text>
</g>
<!-- ProductModule&#45;&gt;DashboardModule -->
<g id="edge4" class="edge">
<title>ProductModule&#45;&gt;DashboardModule</title>
<path fill="none" stroke="black" d="M76,-84.91C76,-104.14 76,-131.8 76,-131.8 76,-131.8 235.87,-131.8 235.87,-131.8"/>
<polygon fill="black" stroke="black" points="235.87,-135.3 245.87,-131.8 235.87,-128.3 235.87,-135.3"/>
</g>
</g>
</svg>
