<?xml version="1.0" encoding="UTF-8" standalone="no"?>
<!DOCTYPE svg PUBLIC "-//W3C//DTD SVG 1.1//EN"
 "http://www.w3.org/Graphics/SVG/1.1/DTD/svg11.dtd">
<!-- Generated by graphviz version 2.47.3 (20210619.1520)
 -->
<!-- Title: dependencies Pages: 1 -->
<svg width="922pt" height="174pt"
 viewBox="0.00 0.00 922.00 173.80" xmlns="http://www.w3.org/2000/svg" xmlns:xlink="http://www.w3.org/1999/xlink">
<g id="graph0" class="graph" transform="scale(1 1) rotate(0) translate(4 169.8)">
<title>dependencies</title>
<polygon fill="white" stroke="transparent" points="-4,4 -4,-169.8 918,-169.8 918,4 -4,4"/>
<text text-anchor="middle" x="457" y="-8.2" font-family="sans-serif" font-size="14.00">dependencies</text>
<g id="clust1" class="cluster">
<title>cluster_ProductsPageModule</title>
<polygon fill="none" stroke="black" stroke-dasharray="1,5" points="8,-32.8 8,-157.8 906,-157.8 906,-32.8 8,-32.8"/>
</g>
<g id="clust4" class="cluster">
<title>cluster_ProductsPageModule_imports</title>
<polygon fill="none" stroke="black" points="198,-40.8 198,-92.8 898,-92.8 898,-40.8 198,-40.8"/>
</g>
<g id="clust2" class="cluster">
<title>cluster_ProductsPageModule_declarations</title>
<polygon fill="none" stroke="black" points="16,-40.8 16,-92.8 190,-92.8 190,-40.8 16,-40.8"/>
</g>
<!-- ProductsPageComponent -->
<g id="node1" class="node">
<title>ProductsPageComponent</title>
<polygon fill="#ffffb3" stroke="black" points="181.54,-84.8 24.46,-84.8 24.46,-48.8 181.54,-48.8 181.54,-84.8"/>
<text text-anchor="middle" x="103" y="-62.6" font-family="Times,serif" font-size="14.00">ProductsPageComponent</text>
</g>
<!-- ProductsPageModule -->
<g id="node2" class="node">
<title>ProductsPageModule</title>
<polygon fill="#8dd3c7" stroke="black" points="512.75,-149.8 509.75,-153.8 488.75,-153.8 485.75,-149.8 377.25,-149.8 377.25,-113.8 512.75,-113.8 512.75,-149.8"/>
<text text-anchor="middle" x="445" y="-127.6" font-family="Times,serif" font-size="14.00">ProductsPageModule</text>
</g>
<!-- ProductsPageComponent&#45;&gt;ProductsPageModule -->
<g id="edge1" class="edge">
<title>ProductsPageComponent&#45;&gt;ProductsPageModule</title>
<path fill="none" stroke="black" d="M103,-85.08C103,-106.12 103,-137.8 103,-137.8 103,-137.8 367.02,-137.8 367.02,-137.8"/>
<polygon fill="black" stroke="black" points="367.02,-141.3 377.02,-137.8 367.02,-134.3 367.02,-141.3"/>
</g>
<!-- CommonModule -->
<g id="node3" class="node">
<title>CommonModule</title>
<polygon fill="#8dd3c7" stroke="black" points="889.67,-84.8 886.67,-88.8 865.67,-88.8 862.67,-84.8 778.33,-84.8 778.33,-48.8 889.67,-48.8 889.67,-84.8"/>
<text text-anchor="middle" x="834" y="-62.6" font-family="Times,serif" font-size="14.00">CommonModule</text>
</g>
<!-- CommonModule&#45;&gt;ProductsPageModule -->
<g id="edge2" class="edge">
<title>CommonModule&#45;&gt;ProductsPageModule</title>
<path fill="none" stroke="black" d="M834,-85.08C834,-106.12 834,-137.8 834,-137.8 834,-137.8 522.76,-137.8 522.76,-137.8"/>
<polygon fill="black" stroke="black" points="522.76,-134.3 512.76,-137.8 522.76,-141.3 522.76,-134.3"/>
</g>
<!-- ProductsPageRoutingModule -->
<g id="node4" class="node">
<title>ProductsPageRoutingModule</title>
<polygon fill="#8dd3c7" stroke="black" points="760.37,-84.8 757.37,-88.8 736.37,-88.8 733.37,-84.8 579.63,-84.8 579.63,-48.8 760.37,-48.8 760.37,-84.8"/>
<text text-anchor="middle" x="670" y="-62.6" font-family="Times,serif" font-size="14.00">ProductsPageRoutingModule</text>
</g>
<!-- ProductsPageRoutingModule&#45;&gt;ProductsPageModule -->
<g id="edge3" class="edge">
<title>ProductsPageRoutingModule&#45;&gt;ProductsPageModule</title>
<path fill="none" stroke="black" d="M670,-84.82C670,-102.17 670,-125.8 670,-125.8 670,-125.8 522.81,-125.8 522.81,-125.8"/>
<polygon fill="black" stroke="black" points="522.81,-122.3 512.81,-125.8 522.81,-129.3 522.81,-122.3"/>
</g>
<!-- ProductModule -->
<g id="node5" class="node">
<title>ProductModule</title>
<polygon fill="#8dd3c7" stroke="black" points="561.6,-84.8 558.6,-88.8 537.6,-88.8 534.6,-84.8 458.4,-84.8 458.4,-48.8 561.6,-48.8 561.6,-84.8"/>
<text text-anchor="middle" x="510" y="-62.6" font-family="Times,serif" font-size="14.00">ProductModule</text>
</g>
<!-- ProductModule&#45;&gt;ProductsPageModule -->
<g id="edge4" class="edge">
<title>ProductModule&#45;&gt;ProductsPageModule</title>
<path fill="none" stroke="black" d="M485.66,-84.91C485.66,-84.91 485.66,-103.79 485.66,-103.79"/>
<polygon fill="black" stroke="black" points="482.16,-103.79 485.66,-113.79 489.16,-103.79 482.16,-103.79"/>
</g>
<!-- HttpClientModule -->
<g id="node6" class="node">
<title>HttpClientModule</title>
<polygon fill="#8dd3c7" stroke="black" points="440.16,-84.8 437.16,-88.8 416.16,-88.8 413.16,-84.8 321.84,-84.8 321.84,-48.8 440.16,-48.8 440.16,-84.8"/>
<text text-anchor="middle" x="381" y="-62.6" font-family="Times,serif" font-size="14.00">HttpClientModule</text>
</g>
<!-- HttpClientModule&#45;&gt;ProductsPageModule -->
<g id="edge5" class="edge">
<title>HttpClientModule&#45;&gt;ProductsPageModule</title>
<path fill="none" stroke="black" d="M408.73,-84.91C408.73,-84.91 408.73,-103.79 408.73,-103.79"/>
<polygon fill="black" stroke="black" points="405.23,-103.79 408.73,-113.79 412.23,-103.79 405.23,-103.79"/>
</g>
<!-- RouterModule -->
<g id="node7" class="node">
<title>RouterModule</title>
<polygon fill="#8dd3c7" stroke="black" points="303.65,-84.8 300.65,-88.8 279.65,-88.8 276.65,-84.8 206.35,-84.8 206.35,-48.8 303.65,-48.8 303.65,-84.8"/>
<text text-anchor="middle" x="255" y="-62.6" font-family="Times,serif" font-size="14.00">RouterModule</text>
</g>
<!-- RouterModule&#45;&gt;ProductsPageModule -->
<g id="edge6" class="edge">
<title>RouterModule&#45;&gt;ProductsPageModule</title>
<path fill="none" stroke="black" d="M255,-84.82C255,-102.17 255,-125.8 255,-125.8 255,-125.8 367.21,-125.8 367.21,-125.8"/>
<polygon fill="black" stroke="black" points="367.21,-129.3 377.21,-125.8 367.21,-122.3 367.21,-129.3"/>
</g>
</g>
</svg>
