<?xml version="1.0" encoding="UTF-8" standalone="no"?>
<!DOCTYPE svg PUBLIC "-//W3C//DTD SVG 1.1//EN"
 "http://www.w3.org/Graphics/SVG/1.1/DTD/svg11.dtd">
<!-- Generated by graphviz version 2.47.3 (20210619.1520)
 -->
<!-- Title: dependencies Pages: 1 -->
<svg width="670pt" height="174pt"
 viewBox="0.00 0.00 670.00 173.80" xmlns="http://www.w3.org/2000/svg" xmlns:xlink="http://www.w3.org/1999/xlink">
<g id="graph0" class="graph" transform="scale(1 1) rotate(0) translate(4 169.8)">
<title>dependencies</title>
<polygon fill="white" stroke="transparent" points="-4,4 -4,-169.8 666,-169.8 666,4 -4,4"/>
<text text-anchor="middle" x="331" y="-8.2" font-family="sans-serif" font-size="14.00">dependencies</text>
<g id="clust1" class="cluster">
<title>cluster_ProductsPageModule</title>
<polygon fill="none" stroke="black" stroke-dasharray="1,5" points="8,-32.8 8,-157.8 654,-157.8 654,-32.8 8,-32.8"/>
</g>
<g id="clust4" class="cluster">
<title>cluster_ProductsPageModule_imports</title>
<polygon fill="none" stroke="black" points="198,-40.8 198,-92.8 646,-92.8 646,-40.8 198,-40.8"/>
</g>
<g id="clust2" class="cluster">
<title>cluster_ProductsPageModule_declarations</title>
<polygon fill="none" stroke="black" points="16,-40.8 16,-92.8 190,-92.8 190,-40.8 16,-40.8"/>
</g>
<!-- ProductsPageComponent -->
<g id="node1" class="node">
<title>ProductsPageComponent</title>
<polygon fill="#ffffb3" stroke="black" points="181.54,-84.8 24.46,-84.8 24.46,-48.8 181.54,-48.8 181.54,-84.8"/>
<text text-anchor="middle" x="103" y="-62.6" font-family="Times,serif" font-size="14.00">ProductsPageComponent</text>
</g>
<!-- ProductsPageModule -->
<g id="node2" class="node">
<title>ProductsPageModule</title>
<polygon fill="#8dd3c7" stroke="black" points="405.75,-149.8 402.75,-153.8 381.75,-153.8 378.75,-149.8 270.25,-149.8 270.25,-113.8 405.75,-113.8 405.75,-149.8"/>
<text text-anchor="middle" x="338" y="-127.6" font-family="Times,serif" font-size="14.00">ProductsPageModule</text>
</g>
<!-- ProductsPageComponent&#45;&gt;ProductsPageModule -->
<g id="edge1" class="edge">
<title>ProductsPageComponent&#45;&gt;ProductsPageModule</title>
<path fill="none" stroke="black" d="M103,-84.91C103,-104.14 103,-131.8 103,-131.8 103,-131.8 260.03,-131.8 260.03,-131.8"/>
<polygon fill="black" stroke="black" points="260.03,-135.3 270.03,-131.8 260.03,-128.3 260.03,-135.3"/>
</g>
<!-- CommonModule -->
<g id="node3" class="node">
<title>CommonModule</title>
<polygon fill="#8dd3c7" stroke="black" points="637.67,-84.8 634.67,-88.8 613.67,-88.8 610.67,-84.8 526.33,-84.8 526.33,-48.8 637.67,-48.8 637.67,-84.8"/>
<text text-anchor="middle" x="582" y="-62.6" font-family="Times,serif" font-size="14.00">CommonModule</text>
</g>
<!-- CommonModule&#45;&gt;ProductsPageModule -->
<g id="edge2" class="edge">
<title>CommonModule&#45;&gt;ProductsPageModule</title>
<path fill="none" stroke="black" d="M582,-84.91C582,-104.14 582,-131.8 582,-131.8 582,-131.8 415.97,-131.8 415.97,-131.8"/>
<polygon fill="black" stroke="black" points="415.97,-128.3 405.97,-131.8 415.97,-135.3 415.97,-128.3"/>
</g>
<!-- ProductsPageRoutingModule -->
<g id="node4" class="node">
<title>ProductsPageRoutingModule</title>
<polygon fill="#8dd3c7" stroke="black" points="508.37,-84.8 505.37,-88.8 484.37,-88.8 481.37,-84.8 327.63,-84.8 327.63,-48.8 508.37,-48.8 508.37,-84.8"/>
<text text-anchor="middle" x="418" y="-62.6" font-family="Times,serif" font-size="14.00">ProductsPageRoutingModule</text>
</g>
<!-- ProductsPageRoutingModule&#45;&gt;ProductsPageModule -->
<g id="edge3" class="edge">
<title>ProductsPageRoutingModule&#45;&gt;ProductsPageModule</title>
<path fill="none" stroke="black" d="M366.72,-84.91C366.72,-84.91 366.72,-103.79 366.72,-103.79"/>
<polygon fill="black" stroke="black" points="363.22,-103.79 366.72,-113.79 370.22,-103.79 363.22,-103.79"/>
</g>
<!-- ProductModule -->
<g id="node5" class="node">
<title>ProductModule</title>
<polygon fill="#8dd3c7" stroke="black" points="309.6,-84.8 306.6,-88.8 285.6,-88.8 282.6,-84.8 206.4,-84.8 206.4,-48.8 309.6,-48.8 309.6,-84.8"/>
<text text-anchor="middle" x="258" y="-62.6" font-family="Times,serif" font-size="14.00">ProductModule</text>
</g>
<!-- ProductModule&#45;&gt;ProductsPageModule -->
<g id="edge4" class="edge">
<title>ProductModule&#45;&gt;ProductsPageModule</title>
<path fill="none" stroke="black" d="M289.84,-84.91C289.84,-84.91 289.84,-103.79 289.84,-103.79"/>
<polygon fill="black" stroke="black" points="286.34,-103.79 289.84,-113.79 293.34,-103.79 286.34,-103.79"/>
</g>
</g>
</svg>
