<?xml version="1.0" encoding="UTF-8" standalone="no"?>
<!DOCTYPE svg PUBLIC "-//W3C//DTD SVG 1.1//EN"
 "http://www.w3.org/Graphics/SVG/1.1/DTD/svg11.dtd">
<!-- Generated by graphviz version 2.47.3 (20210619.1520)
 -->
<!-- Title: dependencies Pages: 1 -->
<svg width="670pt" height="174pt"
 viewBox="0.00 0.00 670.00 173.80" xmlns="http://www.w3.org/2000/svg" xmlns:xlink="http://www.w3.org/1999/xlink">
<g id="graph0" class="graph" transform="scale(1 1) rotate(0) translate(4 169.8)">
<title>dependencies</title>
<polygon fill="white" stroke="transparent" points="-4,4 -4,-169.8 666,-169.8 666,4 -4,4"/>
<text text-anchor="middle" x="331" y="-8.2" font-family="sans-serif" font-size="14.00">dependencies</text>
<g id="clust1" class="cluster">
<title>cluster_ProductsPageModule</title>
<polygon fill="none" stroke="black" stroke-dasharray="1,5" points="8,-32.8 8,-157.8 654,-157.8 654,-32.8 8,-32.8"/>
</g>
<g id="clust2" class="cluster">
<title>cluster_ProductsPageModule_declarations</title>
<polygon fill="none" stroke="black" points="472,-40.8 472,-92.8 646,-92.8 646,-40.8 472,-40.8"/>
</g>
<g id="clust4" class="cluster">
<title>cluster_ProductsPageModule_imports</title>
<polygon fill="none" stroke="black" points="16,-40.8 16,-92.8 464,-92.8 464,-40.8 16,-40.8"/>
</g>
<!-- ProductsPageComponent -->
<g id="node1" class="node">
<title>ProductsPageComponent</title>
<polygon fill="#ffffb3" stroke="black" points="637.54,-84.8 480.46,-84.8 480.46,-48.8 637.54,-48.8 637.54,-84.8"/>
<text text-anchor="middle" x="559" y="-62.6" font-family="Times,serif" font-size="14.00">ProductsPageComponent</text>
</g>
<!-- ProductsPageModule -->
<g id="node2" class="node">
<title>ProductsPageModule</title>
<polygon fill="#8dd3c7" stroke="black" points="385.75,-149.8 382.75,-153.8 361.75,-153.8 358.75,-149.8 250.25,-149.8 250.25,-113.8 385.75,-113.8 385.75,-149.8"/>
<text text-anchor="middle" x="318" y="-127.6" font-family="Times,serif" font-size="14.00">ProductsPageModule</text>
</g>
<!-- ProductsPageComponent&#45;&gt;ProductsPageModule -->
<g id="edge1" class="edge">
<title>ProductsPageComponent&#45;&gt;ProductsPageModule</title>
<path fill="none" stroke="black" d="M559,-84.91C559,-104.14 559,-131.8 559,-131.8 559,-131.8 395.77,-131.8 395.77,-131.8"/>
<polygon fill="black" stroke="black" points="395.77,-128.3 385.77,-131.8 395.77,-135.3 395.77,-128.3"/>
</g>
<!-- CommonModule -->
<g id="node3" class="node">
<title>CommonModule</title>
<polygon fill="#8dd3c7" stroke="black" points="455.67,-84.8 452.67,-88.8 431.67,-88.8 428.67,-84.8 344.33,-84.8 344.33,-48.8 455.67,-48.8 455.67,-84.8"/>
<text text-anchor="middle" x="400" y="-62.6" font-family="Times,serif" font-size="14.00">CommonModule</text>
</g>
<!-- CommonModule&#45;&gt;ProductsPageModule -->
<g id="edge2" class="edge">
<title>CommonModule&#45;&gt;ProductsPageModule</title>
<path fill="none" stroke="black" d="M365.02,-84.91C365.02,-84.91 365.02,-103.79 365.02,-103.79"/>
<polygon fill="black" stroke="black" points="361.52,-103.79 365.02,-113.79 368.52,-103.79 361.52,-103.79"/>
</g>
<!-- ProductsPageRoutingModule -->
<g id="node4" class="node">
<title>ProductsPageRoutingModule</title>
<polygon fill="#8dd3c7" stroke="black" points="326.37,-84.8 323.37,-88.8 302.37,-88.8 299.37,-84.8 145.63,-84.8 145.63,-48.8 326.37,-48.8 326.37,-84.8"/>
<text text-anchor="middle" x="236" y="-62.6" font-family="Times,serif" font-size="14.00">ProductsPageRoutingModule</text>
</g>
<!-- ProductsPageRoutingModule&#45;&gt;ProductsPageModule -->
<g id="edge3" class="edge">
<title>ProductsPageRoutingModule&#45;&gt;ProductsPageModule</title>
<path fill="none" stroke="black" d="M288.28,-84.91C288.28,-84.91 288.28,-103.79 288.28,-103.79"/>
<polygon fill="black" stroke="black" points="284.78,-103.79 288.28,-113.79 291.78,-103.79 284.78,-103.79"/>
</g>
<!-- ProductModule -->
<g id="node5" class="node">
<title>ProductModule</title>
<polygon fill="#8dd3c7" stroke="black" points="127.6,-84.8 124.6,-88.8 103.6,-88.8 100.6,-84.8 24.4,-84.8 24.4,-48.8 127.6,-48.8 127.6,-84.8"/>
<text text-anchor="middle" x="76" y="-62.6" font-family="Times,serif" font-size="14.00">ProductModule</text>
</g>
<!-- ProductModule&#45;&gt;ProductsPageModule -->
<g id="edge4" class="edge">
<title>ProductModule&#45;&gt;ProductsPageModule</title>
<path fill="none" stroke="black" d="M76,-84.91C76,-104.14 76,-131.8 76,-131.8 76,-131.8 239.95,-131.8 239.95,-131.8"/>
<polygon fill="black" stroke="black" points="239.95,-135.3 249.95,-131.8 239.95,-128.3 239.95,-135.3"/>
</g>
</g>
</svg>
