<?xml version="1.0" encoding="UTF-8" standalone="no"?>
<!DOCTYPE svg PUBLIC "-//W3C//DTD SVG 1.1//EN"
 "http://www.w3.org/Graphics/SVG/1.1/DTD/svg11.dtd">
<!-- Generated by graphviz version 2.47.3 (20210619.1520)
 -->
<!-- Title: dependencies Pages: 1 -->
<svg width="548pt" height="174pt"
 viewBox="0.00 0.00 548.00 173.80" xmlns="http://www.w3.org/2000/svg" xmlns:xlink="http://www.w3.org/1999/xlink">
<g id="graph0" class="graph" transform="scale(1 1) rotate(0) translate(4 169.8)">
<title>dependencies</title>
<polygon fill="white" stroke="transparent" points="-4,4 -4,-169.8 544,-169.8 544,4 -4,4"/>
<text text-anchor="middle" x="270" y="-8.2" font-family="sans-serif" font-size="14.00">dependencies</text>
<g id="clust1" class="cluster">
<title>cluster_ProductsPageModule</title>
<polygon fill="none" stroke="black" stroke-dasharray="1,5" points="8,-32.8 8,-157.8 532,-157.8 532,-32.8 8,-32.8"/>
</g>
<g id="clust4" class="cluster">
<title>cluster_ProductsPageModule_imports</title>
<polygon fill="none" stroke="black" points="198,-40.8 198,-92.8 524,-92.8 524,-40.8 198,-40.8"/>
</g>
<g id="clust2" class="cluster">
<title>cluster_ProductsPageModule_declarations</title>
<polygon fill="none" stroke="black" points="16,-40.8 16,-92.8 190,-92.8 190,-40.8 16,-40.8"/>
</g>
<!-- ProductsPageComponent -->
<g id="node1" class="node">
<title>ProductsPageComponent</title>
<polygon fill="#ffffb3" stroke="black" points="181.54,-84.8 24.46,-84.8 24.46,-48.8 181.54,-48.8 181.54,-84.8"/>
<text text-anchor="middle" x="103" y="-62.6" font-family="Times,serif" font-size="14.00">ProductsPageComponent</text>
</g>
<!-- ProductsPageModule -->
<g id="node2" class="node">
<title>ProductsPageModule</title>
<polygon fill="#8dd3c7" stroke="black" points="363.75,-149.8 360.75,-153.8 339.75,-153.8 336.75,-149.8 228.25,-149.8 228.25,-113.8 363.75,-113.8 363.75,-149.8"/>
<text text-anchor="middle" x="296" y="-127.6" font-family="Times,serif" font-size="14.00">ProductsPageModule</text>
</g>
<!-- ProductsPageComponent&#45;&gt;ProductsPageModule -->
<g id="edge1" class="edge">
<title>ProductsPageComponent&#45;&gt;ProductsPageModule</title>
<path fill="none" stroke="black" d="M103,-84.91C103,-104.14 103,-131.8 103,-131.8 103,-131.8 218.23,-131.8 218.23,-131.8"/>
<polygon fill="black" stroke="black" points="218.23,-135.3 228.23,-131.8 218.23,-128.3 218.23,-135.3"/>
</g>
<!-- CommonModule -->
<g id="node3" class="node">
<title>CommonModule</title>
<polygon fill="#8dd3c7" stroke="black" points="515.67,-84.8 512.67,-88.8 491.67,-88.8 488.67,-84.8 404.33,-84.8 404.33,-48.8 515.67,-48.8 515.67,-84.8"/>
<text text-anchor="middle" x="460" y="-62.6" font-family="Times,serif" font-size="14.00">CommonModule</text>
</g>
<!-- CommonModule&#45;&gt;ProductsPageModule -->
<g id="edge2" class="edge">
<title>CommonModule&#45;&gt;ProductsPageModule</title>
<path fill="none" stroke="black" d="M460,-84.91C460,-104.14 460,-131.8 460,-131.8 460,-131.8 374.13,-131.8 374.13,-131.8"/>
<polygon fill="black" stroke="black" points="374.13,-128.3 364.13,-131.8 374.13,-135.3 374.13,-128.3"/>
</g>
<!-- ProductsPageRoutingModule -->
<g id="node4" class="node">
<title>ProductsPageRoutingModule</title>
<polygon fill="#8dd3c7" stroke="black" points="386.37,-84.8 383.37,-88.8 362.37,-88.8 359.37,-84.8 205.63,-84.8 205.63,-48.8 386.37,-48.8 386.37,-84.8"/>
<text text-anchor="middle" x="296" y="-62.6" font-family="Times,serif" font-size="14.00">ProductsPageRoutingModule</text>
</g>
<!-- ProductsPageRoutingModule&#45;&gt;ProductsPageModule -->
<g id="edge3" class="edge">
<title>ProductsPageRoutingModule&#45;&gt;ProductsPageModule</title>
<path fill="none" stroke="black" d="M296,-84.91C296,-84.91 296,-103.79 296,-103.79"/>
<polygon fill="black" stroke="black" points="292.5,-103.79 296,-113.79 299.5,-103.79 292.5,-103.79"/>
</g>
</g>
</svg>
