<?xml version="1.0" encoding="UTF-8" standalone="no"?>
<!DOCTYPE svg PUBLIC "-//W3C//DTD SVG 1.1//EN"
 "http://www.w3.org/Graphics/SVG/1.1/DTD/svg11.dtd">
<!-- Generated by graphviz version 2.47.3 (20210619.1520)
 -->
<!-- Title: dependencies Pages: 1 -->
<svg width="922pt" height="174pt"
 viewBox="0.00 0.00 922.00 173.80" xmlns="http://www.w3.org/2000/svg" xmlns:xlink="http://www.w3.org/1999/xlink">
<g id="graph0" class="graph" transform="scale(1 1) rotate(0) translate(4 169.8)">
<title>dependencies</title>
<polygon fill="white" stroke="transparent" points="-4,4 -4,-169.8 918,-169.8 918,4 -4,4"/>
<text text-anchor="middle" x="457" y="-8.2" font-family="sans-serif" font-size="14.00">dependencies</text>
<g id="clust1" class="cluster">
<title>cluster_ProductsPageModule</title>
<polygon fill="none" stroke="black" stroke-dasharray="1,5" points="8,-32.8 8,-157.8 906,-157.8 906,-32.8 8,-32.8"/>
</g>
<g id="clust2" class="cluster">
<title>cluster_ProductsPageModule_declarations</title>
<polygon fill="none" stroke="black" points="724,-40.8 724,-92.8 898,-92.8 898,-40.8 724,-40.8"/>
</g>
<g id="clust4" class="cluster">
<title>cluster_ProductsPageModule_imports</title>
<polygon fill="none" stroke="black" points="16,-40.8 16,-92.8 716,-92.8 716,-40.8 16,-40.8"/>
</g>
<!-- ProductsPageComponent -->
<g id="node1" class="node">
<title>ProductsPageComponent</title>
<polygon fill="#ffffb3" stroke="black" points="889.54,-84.8 732.46,-84.8 732.46,-48.8 889.54,-48.8 889.54,-84.8"/>
<text text-anchor="middle" x="811" y="-62.6" font-family="Times,serif" font-size="14.00">ProductsPageComponent</text>
</g>
<!-- ProductsPageModule -->
<g id="node2" class="node">
<title>ProductsPageModule</title>
<polygon fill="#8dd3c7" stroke="black" points="475.75,-149.8 472.75,-153.8 451.75,-153.8 448.75,-149.8 340.25,-149.8 340.25,-113.8 475.75,-113.8 475.75,-149.8"/>
<text text-anchor="middle" x="408" y="-127.6" font-family="Times,serif" font-size="14.00">ProductsPageModule</text>
</g>
<!-- ProductsPageComponent&#45;&gt;ProductsPageModule -->
<g id="edge1" class="edge">
<title>ProductsPageComponent&#45;&gt;ProductsPageModule</title>
<path fill="none" stroke="black" d="M811,-85.08C811,-106.12 811,-137.8 811,-137.8 811,-137.8 485.91,-137.8 485.91,-137.8"/>
<polygon fill="black" stroke="black" points="485.91,-134.3 475.91,-137.8 485.91,-141.3 485.91,-134.3"/>
</g>
<!-- CommonModule -->
<g id="node3" class="node">
<title>CommonModule</title>
<polygon fill="#8dd3c7" stroke="black" points="707.67,-84.8 704.67,-88.8 683.67,-88.8 680.67,-84.8 596.33,-84.8 596.33,-48.8 707.67,-48.8 707.67,-84.8"/>
<text text-anchor="middle" x="652" y="-62.6" font-family="Times,serif" font-size="14.00">CommonModule</text>
</g>
<!-- CommonModule&#45;&gt;ProductsPageModule -->
<g id="edge2" class="edge">
<title>CommonModule&#45;&gt;ProductsPageModule</title>
<path fill="none" stroke="black" d="M652,-84.82C652,-102.17 652,-125.8 652,-125.8 652,-125.8 485.97,-125.8 485.97,-125.8"/>
<polygon fill="black" stroke="black" points="485.97,-122.3 475.97,-125.8 485.97,-129.3 485.97,-122.3"/>
</g>
<!-- ProductsPageRoutingModule -->
<g id="node4" class="node">
<title>ProductsPageRoutingModule</title>
<polygon fill="#8dd3c7" stroke="black" points="578.37,-84.8 575.37,-88.8 554.37,-88.8 551.37,-84.8 397.63,-84.8 397.63,-48.8 578.37,-48.8 578.37,-84.8"/>
<text text-anchor="middle" x="488" y="-62.6" font-family="Times,serif" font-size="14.00">ProductsPageRoutingModule</text>
</g>
<!-- ProductsPageRoutingModule&#45;&gt;ProductsPageModule -->
<g id="edge3" class="edge">
<title>ProductsPageRoutingModule&#45;&gt;ProductsPageModule</title>
<path fill="none" stroke="black" d="M436.72,-84.91C436.72,-84.91 436.72,-103.79 436.72,-103.79"/>
<polygon fill="black" stroke="black" points="433.22,-103.79 436.72,-113.79 440.22,-103.79 433.22,-103.79"/>
</g>
<!-- ProductModule -->
<g id="node5" class="node">
<title>ProductModule</title>
<polygon fill="#8dd3c7" stroke="black" points="379.6,-84.8 376.6,-88.8 355.6,-88.8 352.6,-84.8 276.4,-84.8 276.4,-48.8 379.6,-48.8 379.6,-84.8"/>
<text text-anchor="middle" x="328" y="-62.6" font-family="Times,serif" font-size="14.00">ProductModule</text>
</g>
<!-- ProductModule&#45;&gt;ProductsPageModule -->
<g id="edge4" class="edge">
<title>ProductModule&#45;&gt;ProductsPageModule</title>
<path fill="none" stroke="black" d="M359.84,-84.91C359.84,-84.91 359.84,-103.79 359.84,-103.79"/>
<polygon fill="black" stroke="black" points="356.34,-103.79 359.84,-113.79 363.34,-103.79 356.34,-103.79"/>
</g>
<!-- HttpClientModule -->
<g id="node6" class="node">
<title>HttpClientModule</title>
<polygon fill="#8dd3c7" stroke="black" points="258.16,-84.8 255.16,-88.8 234.16,-88.8 231.16,-84.8 139.84,-84.8 139.84,-48.8 258.16,-48.8 258.16,-84.8"/>
<text text-anchor="middle" x="199" y="-62.6" font-family="Times,serif" font-size="14.00">HttpClientModule</text>
</g>
<!-- HttpClientModule&#45;&gt;ProductsPageModule -->
<g id="edge5" class="edge">
<title>HttpClientModule&#45;&gt;ProductsPageModule</title>
<path fill="none" stroke="black" d="M199,-84.82C199,-102.17 199,-125.8 199,-125.8 199,-125.8 330.14,-125.8 330.14,-125.8"/>
<polygon fill="black" stroke="black" points="330.14,-129.3 340.14,-125.8 330.14,-122.3 330.14,-129.3"/>
</g>
<!-- RouterModule -->
<g id="node7" class="node">
<title>RouterModule</title>
<polygon fill="#8dd3c7" stroke="black" points="121.65,-84.8 118.65,-88.8 97.65,-88.8 94.65,-84.8 24.35,-84.8 24.35,-48.8 121.65,-48.8 121.65,-84.8"/>
<text text-anchor="middle" x="73" y="-62.6" font-family="Times,serif" font-size="14.00">RouterModule</text>
</g>
<!-- RouterModule&#45;&gt;ProductsPageModule -->
<g id="edge6" class="edge">
<title>RouterModule&#45;&gt;ProductsPageModule</title>
<path fill="none" stroke="black" d="M73,-85.08C73,-106.12 73,-137.8 73,-137.8 73,-137.8 330.21,-137.8 330.21,-137.8"/>
<polygon fill="black" stroke="black" points="330.21,-141.3 340.21,-137.8 330.21,-134.3 330.21,-141.3"/>
</g>
</g>
</svg>
