<?xml version="1.0" encoding="UTF-8" standalone="no"?>
<!DOCTYPE svg PUBLIC "-//W3C//DTD SVG 1.1//EN"
 "http://www.w3.org/Graphics/SVG/1.1/DTD/svg11.dtd">
<!-- Generated by graphviz version 2.47.3 (20210619.1520)
 -->
<!-- Title: dependencies Pages: 1 -->
<svg width="706pt" height="174pt"
 viewBox="0.00 0.00 706.00 173.80" xmlns="http://www.w3.org/2000/svg" xmlns:xlink="http://www.w3.org/1999/xlink">
<g id="graph0" class="graph" transform="scale(1 1) rotate(0) translate(4 169.8)">
<title>dependencies</title>
<polygon fill="white" stroke="transparent" points="-4,4 -4,-169.8 702,-169.8 702,4 -4,4"/>
<text text-anchor="middle" x="349" y="-8.2" font-family="sans-serif" font-size="14.00">dependencies</text>
<g id="clust1" class="cluster">
<title>cluster_ProductsManageModule</title>
<polygon fill="none" stroke="black" stroke-dasharray="1,5" points="8,-32.8 8,-157.8 690,-157.8 690,-32.8 8,-32.8"/>
</g>
<g id="clust4" class="cluster">
<title>cluster_ProductsManageModule_imports</title>
<polygon fill="none" stroke="black" points="216,-40.8 216,-92.8 682,-92.8 682,-40.8 216,-40.8"/>
</g>
<g id="clust2" class="cluster">
<title>cluster_ProductsManageModule_declarations</title>
<polygon fill="none" stroke="black" points="16,-40.8 16,-92.8 208,-92.8 208,-40.8 16,-40.8"/>
</g>
<!-- ProductsManageComponent -->
<g id="node1" class="node">
<title>ProductsManageComponent</title>
<polygon fill="#ffffb3" stroke="black" points="199.91,-84.8 24.09,-84.8 24.09,-48.8 199.91,-48.8 199.91,-84.8"/>
<text text-anchor="middle" x="112" y="-62.6" font-family="Times,serif" font-size="14.00">ProductsManageComponent</text>
</g>
<!-- ProductsManageModule -->
<g id="node2" class="node">
<title>ProductsManageModule</title>
<polygon fill="#8dd3c7" stroke="black" points="436.63,-149.8 433.63,-153.8 412.63,-153.8 409.63,-149.8 283.37,-149.8 283.37,-113.8 436.63,-113.8 436.63,-149.8"/>
<text text-anchor="middle" x="360" y="-127.6" font-family="Times,serif" font-size="14.00">ProductsManageModule</text>
</g>
<!-- ProductsManageComponent&#45;&gt;ProductsManageModule -->
<g id="edge1" class="edge">
<title>ProductsManageComponent&#45;&gt;ProductsManageModule</title>
<path fill="none" stroke="black" d="M112,-84.91C112,-104.14 112,-131.8 112,-131.8 112,-131.8 273.23,-131.8 273.23,-131.8"/>
<polygon fill="black" stroke="black" points="273.23,-135.3 283.23,-131.8 273.23,-128.3 273.23,-135.3"/>
</g>
<!-- CommonModule -->
<g id="node3" class="node">
<title>CommonModule</title>
<polygon fill="#8dd3c7" stroke="black" points="673.67,-84.8 670.67,-88.8 649.67,-88.8 646.67,-84.8 562.33,-84.8 562.33,-48.8 673.67,-48.8 673.67,-84.8"/>
<text text-anchor="middle" x="618" y="-62.6" font-family="Times,serif" font-size="14.00">CommonModule</text>
</g>
<!-- CommonModule&#45;&gt;ProductsManageModule -->
<g id="edge2" class="edge">
<title>CommonModule&#45;&gt;ProductsManageModule</title>
<path fill="none" stroke="black" d="M618,-84.91C618,-104.14 618,-131.8 618,-131.8 618,-131.8 446.71,-131.8 446.71,-131.8"/>
<polygon fill="black" stroke="black" points="446.71,-128.3 436.71,-131.8 446.71,-135.3 446.71,-128.3"/>
</g>
<!-- ProductsManageRoutingModule -->
<g id="node4" class="node">
<title>ProductsManageRoutingModule</title>
<polygon fill="#8dd3c7" stroke="black" points="544.25,-84.8 541.25,-88.8 520.25,-88.8 517.25,-84.8 345.75,-84.8 345.75,-48.8 544.25,-48.8 544.25,-84.8"/>
<text text-anchor="middle" x="445" y="-62.6" font-family="Times,serif" font-size="14.00">ProductsManageRoutingModule</text>
</g>
<!-- ProductsManageRoutingModule&#45;&gt;ProductsManageModule -->
<g id="edge3" class="edge">
<title>ProductsManageRoutingModule&#45;&gt;ProductsManageModule</title>
<path fill="none" stroke="black" d="M391.22,-84.91C391.22,-84.91 391.22,-103.79 391.22,-103.79"/>
<polygon fill="black" stroke="black" points="387.72,-103.79 391.22,-113.79 394.72,-103.79 387.72,-103.79"/>
</g>
<!-- ProductModule -->
<g id="node5" class="node">
<title>ProductModule</title>
<polygon fill="#8dd3c7" stroke="black" points="327.6,-84.8 324.6,-88.8 303.6,-88.8 300.6,-84.8 224.4,-84.8 224.4,-48.8 327.6,-48.8 327.6,-84.8"/>
<text text-anchor="middle" x="276" y="-62.6" font-family="Times,serif" font-size="14.00">ProductModule</text>
</g>
<!-- ProductModule&#45;&gt;ProductsManageModule -->
<g id="edge4" class="edge">
<title>ProductModule&#45;&gt;ProductsManageModule</title>
<path fill="none" stroke="black" d="M305.37,-84.91C305.37,-84.91 305.37,-103.79 305.37,-103.79"/>
<polygon fill="black" stroke="black" points="301.87,-103.79 305.37,-113.79 308.87,-103.79 301.87,-103.79"/>
</g>
</g>
</svg>
