<?xml version="1.0" encoding="UTF-8" standalone="no"?>
<!DOCTYPE svg PUBLIC "-//W3C//DTD SVG 1.1//EN"
 "http://www.w3.org/Graphics/SVG/1.1/DTD/svg11.dtd">
<!-- Generated by graphviz version 2.47.3 (20210619.1520)
 -->
<!-- Title: dependencies Pages: 1 -->
<svg width="871pt" height="174pt"
 viewBox="0.00 0.00 871.00 173.80" xmlns="http://www.w3.org/2000/svg" xmlns:xlink="http://www.w3.org/1999/xlink">
<g id="graph0" class="graph" transform="scale(1 1) rotate(0) translate(4 169.8)">
<title>dependencies</title>
<polygon fill="white" stroke="transparent" points="-4,4 -4,-169.8 867,-169.8 867,4 -4,4"/>
<text text-anchor="middle" x="431.5" y="-8.2" font-family="sans-serif" font-size="14.00">dependencies</text>
<g id="clust1" class="cluster">
<title>cluster_ProductsManageModule</title>
<polygon fill="none" stroke="black" stroke-dasharray="1,5" points="8,-32.8 8,-157.8 855,-157.8 855,-32.8 8,-32.8"/>
</g>
<g id="clust4" class="cluster">
<title>cluster_ProductsManageModule_imports</title>
<polygon fill="none" stroke="black" points="216,-40.8 216,-92.8 847,-92.8 847,-40.8 216,-40.8"/>
</g>
<g id="clust2" class="cluster">
<title>cluster_ProductsManageModule_declarations</title>
<polygon fill="none" stroke="black" points="16,-40.8 16,-92.8 208,-92.8 208,-40.8 16,-40.8"/>
</g>
<!-- ProductsManageComponent -->
<g id="node1" class="node">
<title>ProductsManageComponent</title>
<polygon fill="#ffffb3" stroke="black" points="199.91,-84.8 24.09,-84.8 24.09,-48.8 199.91,-48.8 199.91,-84.8"/>
<text text-anchor="middle" x="112" y="-62.6" font-family="Times,serif" font-size="14.00">ProductsManageComponent</text>
</g>
<!-- ProductsManageModule -->
<g id="node2" class="node">
<title>ProductsManageModule</title>
<polygon fill="#8dd3c7" stroke="black" points="517.63,-149.8 514.63,-153.8 493.63,-153.8 490.63,-149.8 364.37,-149.8 364.37,-113.8 517.63,-113.8 517.63,-149.8"/>
<text text-anchor="middle" x="441" y="-127.6" font-family="Times,serif" font-size="14.00">ProductsManageModule</text>
</g>
<!-- ProductsManageComponent&#45;&gt;ProductsManageModule -->
<g id="edge1" class="edge">
<title>ProductsManageComponent&#45;&gt;ProductsManageModule</title>
<path fill="none" stroke="black" d="M112,-84.91C112,-104.14 112,-131.8 112,-131.8 112,-131.8 354.28,-131.8 354.28,-131.8"/>
<polygon fill="black" stroke="black" points="354.28,-135.3 364.28,-131.8 354.28,-128.3 354.28,-135.3"/>
</g>
<!-- CommonModule -->
<g id="node3" class="node">
<title>CommonModule</title>
<polygon fill="#8dd3c7" stroke="black" points="838.67,-84.8 835.67,-88.8 814.67,-88.8 811.67,-84.8 727.33,-84.8 727.33,-48.8 838.67,-48.8 838.67,-84.8"/>
<text text-anchor="middle" x="783" y="-62.6" font-family="Times,serif" font-size="14.00">CommonModule</text>
</g>
<!-- CommonModule&#45;&gt;ProductsManageModule -->
<g id="edge2" class="edge">
<title>CommonModule&#45;&gt;ProductsManageModule</title>
<path fill="none" stroke="black" d="M783,-84.91C783,-104.14 783,-131.8 783,-131.8 783,-131.8 527.75,-131.8 527.75,-131.8"/>
<polygon fill="black" stroke="black" points="527.75,-128.3 517.75,-131.8 527.75,-135.3 527.75,-128.3"/>
</g>
<!-- ProductsManageRoutingModule -->
<g id="node4" class="node">
<title>ProductsManageRoutingModule</title>
<polygon fill="#8dd3c7" stroke="black" points="709.25,-84.8 706.25,-88.8 685.25,-88.8 682.25,-84.8 510.75,-84.8 510.75,-48.8 709.25,-48.8 709.25,-84.8"/>
<text text-anchor="middle" x="610" y="-62.6" font-family="Times,serif" font-size="14.00">ProductsManageRoutingModule</text>
</g>
<!-- ProductsManageRoutingModule&#45;&gt;ProductsManageModule -->
<g id="edge3" class="edge">
<title>ProductsManageRoutingModule&#45;&gt;ProductsManageModule</title>
<path fill="none" stroke="black" d="M514.22,-84.91C514.22,-84.91 514.22,-103.79 514.22,-103.79"/>
<polygon fill="black" stroke="black" points="510.72,-103.79 514.22,-113.79 517.72,-103.79 510.72,-103.79"/>
</g>
<!-- ProductModule -->
<g id="node5" class="node">
<title>ProductModule</title>
<polygon fill="#8dd3c7" stroke="black" points="492.6,-84.8 489.6,-88.8 468.6,-88.8 465.6,-84.8 389.4,-84.8 389.4,-48.8 492.6,-48.8 492.6,-84.8"/>
<text text-anchor="middle" x="441" y="-62.6" font-family="Times,serif" font-size="14.00">ProductModule</text>
</g>
<!-- ProductModule&#45;&gt;ProductsManageModule -->
<g id="edge4" class="edge">
<title>ProductModule&#45;&gt;ProductsManageModule</title>
<path fill="none" stroke="black" d="M441,-84.91C441,-84.91 441,-103.79 441,-103.79"/>
<polygon fill="black" stroke="black" points="437.5,-103.79 441,-113.79 444.5,-103.79 437.5,-103.79"/>
</g>
<!-- ShopifyButtonsModule -->
<g id="node6" class="node">
<title>ShopifyButtonsModule</title>
<polygon fill="#8dd3c7" stroke="black" points="371.95,-84.8 368.95,-88.8 347.95,-88.8 344.95,-84.8 224.05,-84.8 224.05,-48.8 371.95,-48.8 371.95,-84.8"/>
<text text-anchor="middle" x="298" y="-62.6" font-family="Times,serif" font-size="14.00">ShopifyButtonsModule</text>
</g>
<!-- ShopifyButtonsModule&#45;&gt;ProductsManageModule -->
<g id="edge5" class="edge">
<title>ShopifyButtonsModule&#45;&gt;ProductsManageModule</title>
<path fill="none" stroke="black" d="M367.95,-84.91C367.95,-84.91 367.95,-103.79 367.95,-103.79"/>
<polygon fill="black" stroke="black" points="364.45,-103.79 367.95,-113.79 371.45,-103.79 364.45,-103.79"/>
</g>
</g>
</svg>
