<?xml version="1.0" encoding="UTF-8" standalone="no"?>
<!DOCTYPE svg PUBLIC "-//W3C//DTD SVG 1.1//EN"
 "http://www.w3.org/Graphics/SVG/1.1/DTD/svg11.dtd">
<!-- Generated by graphviz version 2.47.3 (20210619.1520)
 -->
<!-- Title: dependencies Pages: 1 -->
<svg width="957pt" height="247pt"
 viewBox="0.00 0.00 957.00 246.80" xmlns="http://www.w3.org/2000/svg" xmlns:xlink="http://www.w3.org/1999/xlink">
<g id="graph0" class="graph" transform="scale(1 1) rotate(0) translate(4 242.8)">
<title>dependencies</title>
<polygon fill="white" stroke="transparent" points="-4,4 -4,-242.8 953,-242.8 953,4 -4,4"/>
<text text-anchor="middle" x="474.5" y="-8.2" font-family="sans-serif" font-size="14.00">dependencies</text>
<g id="clust1" class="cluster">
<title>cluster_AppModule</title>
<polygon fill="none" stroke="black" stroke-dasharray="1,5" points="8,-32.8 8,-230.8 941,-230.8 941,-32.8 8,-32.8"/>
</g>
<g id="clust6" class="cluster">
<title>cluster_AppModule_bootstrap</title>
<polygon fill="none" stroke="black" points="428,-170.8 428,-222.8 552,-222.8 552,-170.8 428,-170.8"/>
</g>
<g id="clust2" class="cluster">
<title>cluster_AppModule_declarations</title>
<polygon fill="none" stroke="black" points="811,-40.8 811,-92.8 933,-92.8 933,-40.8 811,-40.8"/>
</g>
<g id="clust4" class="cluster">
<title>cluster_AppModule_imports</title>
<polygon fill="none" stroke="black" points="16,-40.8 16,-92.8 803,-92.8 803,-40.8 16,-40.8"/>
</g>
<!-- AppComponent -->
<g id="node1" class="node">
<title>AppComponent</title>
<polygon fill="#ffffb3" stroke="black" points="924.94,-84.8 819.06,-84.8 819.06,-48.8 924.94,-48.8 924.94,-84.8"/>
<text text-anchor="middle" x="872" y="-62.6" font-family="Times,serif" font-size="14.00">AppComponent</text>
</g>
<!-- AppModule -->
<g id="node2" class="node">
<title>AppModule</title>
<polygon fill="#8dd3c7" stroke="black" points="531.66,-149.8 528.66,-153.8 507.66,-153.8 504.66,-149.8 448.34,-149.8 448.34,-113.8 531.66,-113.8 531.66,-149.8"/>
<text text-anchor="middle" x="490" y="-127.6" font-family="Times,serif" font-size="14.00">AppModule</text>
</g>
<!-- AppComponent&#45;&gt;AppModule -->
<g id="edge1" class="edge">
<title>AppComponent&#45;&gt;AppModule</title>
<path fill="none" stroke="black" d="M872,-85.09C872,-107.01 872,-140.8 872,-140.8 872,-140.8 541.97,-140.8 541.97,-140.8"/>
<polygon fill="black" stroke="black" points="541.97,-137.3 531.97,-140.8 541.97,-144.3 541.97,-137.3"/>
</g>
<!-- AppComponent  -->
<g id="node9" class="node">
<title>AppComponent </title>
<polygon fill="#80b1d3" stroke="black" points="544.44,-214.8 435.56,-214.8 435.56,-178.8 544.44,-178.8 544.44,-214.8"/>
<text text-anchor="middle" x="490" y="-192.6" font-family="Times,serif" font-size="14.00">AppComponent </text>
</g>
<!-- AppModule&#45;&gt;AppComponent  -->
<g id="edge8" class="edge">
<title>AppModule&#45;&gt;AppComponent </title>
<path fill="none" stroke="black" stroke-dasharray="1,5" d="M490,-149.91C490,-149.91 490,-168.79 490,-168.79"/>
<polygon fill="black" stroke="black" points="486.5,-168.79 490,-178.79 493.5,-168.79 486.5,-168.79"/>
</g>
<!-- BrowserModule -->
<g id="node3" class="node">
<title>BrowserModule</title>
<polygon fill="#8dd3c7" stroke="black" points="795.47,-84.8 792.47,-88.8 771.47,-88.8 768.47,-84.8 688.53,-84.8 688.53,-48.8 795.47,-48.8 795.47,-84.8"/>
<text text-anchor="middle" x="742" y="-62.6" font-family="Times,serif" font-size="14.00">BrowserModule</text>
</g>
<!-- BrowserModule&#45;&gt;AppModule -->
<g id="edge2" class="edge">
<title>BrowserModule&#45;&gt;AppModule</title>
<path fill="none" stroke="black" d="M742,-84.91C742,-104.14 742,-131.8 742,-131.8 742,-131.8 541.9,-131.8 541.9,-131.8"/>
<polygon fill="black" stroke="black" points="541.9,-128.3 531.9,-131.8 541.9,-135.3 541.9,-128.3"/>
</g>
<!-- HttpClientModule -->
<g id="node4" class="node">
<title>HttpClientModule</title>
<polygon fill="#8dd3c7" stroke="black" points="670.16,-84.8 667.16,-88.8 646.16,-88.8 643.16,-84.8 551.84,-84.8 551.84,-48.8 670.16,-48.8 670.16,-84.8"/>
<text text-anchor="middle" x="611" y="-62.6" font-family="Times,serif" font-size="14.00">HttpClientModule</text>
</g>
<!-- HttpClientModule&#45;&gt;AppModule -->
<g id="edge3" class="edge">
<title>HttpClientModule&#45;&gt;AppModule</title>
<path fill="none" stroke="black" d="M611,-84.83C611,-101.2 611,-122.8 611,-122.8 611,-122.8 541.98,-122.8 541.98,-122.8"/>
<polygon fill="black" stroke="black" points="541.98,-119.3 531.98,-122.8 541.98,-126.3 541.98,-119.3"/>
</g>
<!-- CoreModule -->
<g id="node5" class="node">
<title>CoreModule</title>
<polygon fill="#8dd3c7" stroke="black" points="533.26,-84.8 530.26,-88.8 509.26,-88.8 506.26,-84.8 446.74,-84.8 446.74,-48.8 533.26,-48.8 533.26,-84.8"/>
<text text-anchor="middle" x="490" y="-62.6" font-family="Times,serif" font-size="14.00">CoreModule</text>
</g>
<!-- CoreModule&#45;&gt;AppModule -->
<g id="edge4" class="edge">
<title>CoreModule&#45;&gt;AppModule</title>
<path fill="none" stroke="black" d="M490,-84.91C490,-84.91 490,-103.79 490,-103.79"/>
<polygon fill="black" stroke="black" points="486.5,-103.79 490,-113.79 493.5,-103.79 486.5,-103.79"/>
</g>
<!-- AppRoutingModule -->
<g id="node6" class="node">
<title>AppRoutingModule</title>
<polygon fill="#8dd3c7" stroke="black" points="428.27,-84.8 425.27,-88.8 404.27,-88.8 401.27,-84.8 299.73,-84.8 299.73,-48.8 428.27,-48.8 428.27,-84.8"/>
<text text-anchor="middle" x="364" y="-62.6" font-family="Times,serif" font-size="14.00">AppRoutingModule</text>
</g>
<!-- AppRoutingModule&#45;&gt;AppModule -->
<g id="edge5" class="edge">
<title>AppRoutingModule&#45;&gt;AppModule</title>
<path fill="none" stroke="black" d="M364,-84.83C364,-101.2 364,-122.8 364,-122.8 364,-122.8 438.04,-122.8 438.04,-122.8"/>
<polygon fill="black" stroke="black" points="438.04,-126.3 448.04,-122.8 438.04,-119.3 438.04,-126.3"/>
</g>
<!-- LayoutModule -->
<g id="node7" class="node">
<title>LayoutModule</title>
<polygon fill="#8dd3c7" stroke="black" points="281.71,-84.8 278.71,-88.8 257.71,-88.8 254.71,-84.8 182.29,-84.8 182.29,-48.8 281.71,-48.8 281.71,-84.8"/>
<text text-anchor="middle" x="232" y="-62.6" font-family="Times,serif" font-size="14.00">LayoutModule</text>
</g>
<!-- LayoutModule&#45;&gt;AppModule -->
<g id="edge6" class="edge">
<title>LayoutModule&#45;&gt;AppModule</title>
<path fill="none" stroke="black" d="M232,-84.91C232,-104.14 232,-131.8 232,-131.8 232,-131.8 438.26,-131.8 438.26,-131.8"/>
<polygon fill="black" stroke="black" points="438.26,-135.3 448.26,-131.8 438.26,-128.3 438.26,-135.3"/>
</g>
<!-- ShopifyFooterModule -->
<g id="node8" class="node">
<title>ShopifyFooterModule</title>
<polygon fill="#8dd3c7" stroke="black" points="164.43,-84.8 161.43,-88.8 140.43,-88.8 137.43,-84.8 23.57,-84.8 23.57,-48.8 164.43,-48.8 164.43,-84.8"/>
<text text-anchor="middle" x="94" y="-62.6" font-family="Times,serif" font-size="14.00">ShopifyFooterModule</text>
</g>
<!-- ShopifyFooterModule&#45;&gt;AppModule -->
<g id="edge7" class="edge">
<title>ShopifyFooterModule&#45;&gt;AppModule</title>
<path fill="none" stroke="black" d="M94,-85.09C94,-107.01 94,-140.8 94,-140.8 94,-140.8 438,-140.8 438,-140.8"/>
<polygon fill="black" stroke="black" points="438,-144.3 448,-140.8 438,-137.3 438,-144.3"/>
</g>
</g>
</svg>
