<?xml version="1.0" encoding="UTF-8" standalone="no"?>
<!DOCTYPE svg PUBLIC "-//W3C//DTD SVG 1.1//EN"
 "http://www.w3.org/Graphics/SVG/1.1/DTD/svg11.dtd">
<!-- Generated by graphviz version 2.47.3 (20210619.1520)
 -->
<!-- Title: dependencies Pages: 1 -->
<svg width="557pt" height="247pt"
 viewBox="0.00 0.00 557.00 246.80" xmlns="http://www.w3.org/2000/svg" xmlns:xlink="http://www.w3.org/1999/xlink">
<g id="graph0" class="graph" transform="scale(1 1) rotate(0) translate(4 242.8)">
<title>dependencies</title>
<polygon fill="white" stroke="transparent" points="-4,4 -4,-242.8 553,-242.8 553,4 -4,4"/>
<text text-anchor="middle" x="274.5" y="-8.2" font-family="sans-serif" font-size="14.00">dependencies</text>
<g id="clust1" class="cluster">
<title>cluster_AppModule</title>
<polygon fill="none" stroke="black" stroke-dasharray="1,5" points="8,-32.8 8,-230.8 541,-230.8 541,-32.8 8,-32.8"/>
</g>
<g id="clust6" class="cluster">
<title>cluster_AppModule_bootstrap</title>
<polygon fill="none" stroke="black" points="212,-170.8 212,-222.8 336,-222.8 336,-170.8 212,-170.8"/>
</g>
<g id="clust2" class="cluster">
<title>cluster_AppModule_declarations</title>
<polygon fill="none" stroke="black" points="411,-40.8 411,-92.8 533,-92.8 533,-40.8 411,-40.8"/>
</g>
<g id="clust4" class="cluster">
<title>cluster_AppModule_imports</title>
<polygon fill="none" stroke="black" points="16,-40.8 16,-92.8 403,-92.8 403,-40.8 16,-40.8"/>
</g>
<!-- AppComponent -->
<g id="node1" class="node">
<title>AppComponent</title>
<polygon fill="#ffffb3" stroke="black" points="524.94,-84.8 419.06,-84.8 419.06,-48.8 524.94,-48.8 524.94,-84.8"/>
<text text-anchor="middle" x="472" y="-62.6" font-family="Times,serif" font-size="14.00">AppComponent</text>
</g>
<!-- AppModule -->
<g id="node2" class="node">
<title>AppModule</title>
<polygon fill="#8dd3c7" stroke="black" points="315.66,-149.8 312.66,-153.8 291.66,-153.8 288.66,-149.8 232.34,-149.8 232.34,-113.8 315.66,-113.8 315.66,-149.8"/>
<text text-anchor="middle" x="274" y="-127.6" font-family="Times,serif" font-size="14.00">AppModule</text>
</g>
<!-- AppComponent&#45;&gt;AppModule -->
<g id="edge1" class="edge">
<title>AppComponent&#45;&gt;AppModule</title>
<path fill="none" stroke="black" d="M472,-84.91C472,-104.14 472,-131.8 472,-131.8 472,-131.8 325.99,-131.8 325.99,-131.8"/>
<polygon fill="black" stroke="black" points="325.99,-128.3 315.99,-131.8 325.99,-135.3 325.99,-128.3"/>
</g>
<!-- AppComponent  -->
<g id="node6" class="node">
<title>AppComponent </title>
<polygon fill="#80b1d3" stroke="black" points="328.44,-214.8 219.56,-214.8 219.56,-178.8 328.44,-178.8 328.44,-214.8"/>
<text text-anchor="middle" x="274" y="-192.6" font-family="Times,serif" font-size="14.00">AppComponent </text>
</g>
<!-- AppModule&#45;&gt;AppComponent  -->
<g id="edge5" class="edge">
<title>AppModule&#45;&gt;AppComponent </title>
<path fill="none" stroke="black" stroke-dasharray="1,5" d="M274,-149.91C274,-149.91 274,-168.79 274,-168.79"/>
<polygon fill="black" stroke="black" points="270.5,-168.79 274,-178.79 277.5,-168.79 270.5,-168.79"/>
</g>
<!-- BrowserModule -->
<g id="node3" class="node">
<title>BrowserModule</title>
<polygon fill="#8dd3c7" stroke="black" points="395.47,-84.8 392.47,-88.8 371.47,-88.8 368.47,-84.8 288.53,-84.8 288.53,-48.8 395.47,-48.8 395.47,-84.8"/>
<text text-anchor="middle" x="342" y="-62.6" font-family="Times,serif" font-size="14.00">BrowserModule</text>
</g>
<!-- BrowserModule&#45;&gt;AppModule -->
<g id="edge2" class="edge">
<title>BrowserModule&#45;&gt;AppModule</title>
<path fill="none" stroke="black" d="M302.17,-84.91C302.17,-84.91 302.17,-103.79 302.17,-103.79"/>
<polygon fill="black" stroke="black" points="298.67,-103.79 302.17,-113.79 305.67,-103.79 298.67,-103.79"/>
</g>
<!-- AppRoutingModule -->
<g id="node4" class="node">
<title>AppRoutingModule</title>
<polygon fill="#8dd3c7" stroke="black" points="270.27,-84.8 267.27,-88.8 246.27,-88.8 243.27,-84.8 141.73,-84.8 141.73,-48.8 270.27,-48.8 270.27,-84.8"/>
<text text-anchor="middle" x="206" y="-62.6" font-family="Times,serif" font-size="14.00">AppRoutingModule</text>
</g>
<!-- AppRoutingModule&#45;&gt;AppModule -->
<g id="edge3" class="edge">
<title>AppRoutingModule&#45;&gt;AppModule</title>
<path fill="none" stroke="black" d="M251.28,-84.91C251.28,-84.91 251.28,-103.79 251.28,-103.79"/>
<polygon fill="black" stroke="black" points="247.78,-103.79 251.28,-113.79 254.78,-103.79 247.78,-103.79"/>
</g>
<!-- LayoutModule -->
<g id="node5" class="node">
<title>LayoutModule</title>
<polygon fill="#8dd3c7" stroke="black" points="123.71,-84.8 120.71,-88.8 99.71,-88.8 96.71,-84.8 24.29,-84.8 24.29,-48.8 123.71,-48.8 123.71,-84.8"/>
<text text-anchor="middle" x="74" y="-62.6" font-family="Times,serif" font-size="14.00">LayoutModule</text>
</g>
<!-- LayoutModule&#45;&gt;AppModule -->
<g id="edge4" class="edge">
<title>LayoutModule&#45;&gt;AppModule</title>
<path fill="none" stroke="black" d="M74,-84.91C74,-104.14 74,-131.8 74,-131.8 74,-131.8 222.07,-131.8 222.07,-131.8"/>
<polygon fill="black" stroke="black" points="222.07,-135.3 232.07,-131.8 222.07,-128.3 222.07,-135.3"/>
</g>
</g>
</svg>
