<?xml version="1.0" encoding="UTF-8" standalone="no"?>
<!DOCTYPE svg PUBLIC "-//W3C//DTD SVG 1.1//EN"
 "http://www.w3.org/Graphics/SVG/1.1/DTD/svg11.dtd">
<!-- Generated by graphviz version 2.47.3 (20210619.1520)
 -->
<!-- Title: dependencies Pages: 1 -->
<svg width="957pt" height="247pt"
 viewBox="0.00 0.00 957.00 246.80" xmlns="http://www.w3.org/2000/svg" xmlns:xlink="http://www.w3.org/1999/xlink">
<g id="graph0" class="graph" transform="scale(1 1) rotate(0) translate(4 242.8)">
<title>dependencies</title>
<polygon fill="white" stroke="transparent" points="-4,4 -4,-242.8 953,-242.8 953,4 -4,4"/>
<text text-anchor="middle" x="474.5" y="-8.2" font-family="sans-serif" font-size="14.00">dependencies</text>
<g id="clust1" class="cluster">
<title>cluster_AppModule</title>
<polygon fill="none" stroke="black" stroke-dasharray="1,5" points="8,-32.8 8,-230.8 941,-230.8 941,-32.8 8,-32.8"/>
</g>
<g id="clust6" class="cluster">
<title>cluster_AppModule_bootstrap</title>
<polygon fill="none" stroke="black" points="432,-170.8 432,-222.8 556,-222.8 556,-170.8 432,-170.8"/>
</g>
<g id="clust4" class="cluster">
<title>cluster_AppModule_imports</title>
<polygon fill="none" stroke="black" points="146,-40.8 146,-92.8 933,-92.8 933,-40.8 146,-40.8"/>
</g>
<g id="clust2" class="cluster">
<title>cluster_AppModule_declarations</title>
<polygon fill="none" stroke="black" points="16,-40.8 16,-92.8 138,-92.8 138,-40.8 16,-40.8"/>
</g>
<!-- AppComponent -->
<g id="node1" class="node">
<title>AppComponent</title>
<polygon fill="#ffffb3" stroke="black" points="129.94,-84.8 24.06,-84.8 24.06,-48.8 129.94,-48.8 129.94,-84.8"/>
<text text-anchor="middle" x="77" y="-62.6" font-family="Times,serif" font-size="14.00">AppComponent</text>
</g>
<!-- AppModule -->
<g id="node2" class="node">
<title>AppModule</title>
<polygon fill="#8dd3c7" stroke="black" points="535.66,-149.8 532.66,-153.8 511.66,-153.8 508.66,-149.8 452.34,-149.8 452.34,-113.8 535.66,-113.8 535.66,-149.8"/>
<text text-anchor="middle" x="494" y="-127.6" font-family="Times,serif" font-size="14.00">AppModule</text>
</g>
<!-- AppComponent&#45;&gt;AppModule -->
<g id="edge1" class="edge">
<title>AppComponent&#45;&gt;AppModule</title>
<path fill="none" stroke="black" d="M77,-85.09C77,-107.01 77,-140.8 77,-140.8 77,-140.8 442.11,-140.8 442.11,-140.8"/>
<polygon fill="black" stroke="black" points="442.11,-144.3 452.11,-140.8 442.11,-137.3 442.11,-144.3"/>
</g>
<!-- AppComponent  -->
<g id="node9" class="node">
<title>AppComponent </title>
<polygon fill="#80b1d3" stroke="black" points="548.44,-214.8 439.56,-214.8 439.56,-178.8 548.44,-178.8 548.44,-214.8"/>
<text text-anchor="middle" x="494" y="-192.6" font-family="Times,serif" font-size="14.00">AppComponent </text>
</g>
<!-- AppModule&#45;&gt;AppComponent  -->
<g id="edge8" class="edge">
<title>AppModule&#45;&gt;AppComponent </title>
<path fill="none" stroke="black" stroke-dasharray="1,5" d="M494,-149.91C494,-149.91 494,-168.79 494,-168.79"/>
<polygon fill="black" stroke="black" points="490.5,-168.79 494,-178.79 497.5,-168.79 490.5,-168.79"/>
</g>
<!-- BrowserModule -->
<g id="node3" class="node">
<title>BrowserModule</title>
<polygon fill="#8dd3c7" stroke="black" points="925.47,-84.8 922.47,-88.8 901.47,-88.8 898.47,-84.8 818.53,-84.8 818.53,-48.8 925.47,-48.8 925.47,-84.8"/>
<text text-anchor="middle" x="872" y="-62.6" font-family="Times,serif" font-size="14.00">BrowserModule</text>
</g>
<!-- BrowserModule&#45;&gt;AppModule -->
<g id="edge2" class="edge">
<title>BrowserModule&#45;&gt;AppModule</title>
<path fill="none" stroke="black" d="M872,-85.09C872,-107.01 872,-140.8 872,-140.8 872,-140.8 545.9,-140.8 545.9,-140.8"/>
<polygon fill="black" stroke="black" points="545.9,-137.3 535.9,-140.8 545.9,-144.3 545.9,-137.3"/>
</g>
<!-- HttpClientModule -->
<g id="node4" class="node">
<title>HttpClientModule</title>
<polygon fill="#8dd3c7" stroke="black" points="800.16,-84.8 797.16,-88.8 776.16,-88.8 773.16,-84.8 681.84,-84.8 681.84,-48.8 800.16,-48.8 800.16,-84.8"/>
<text text-anchor="middle" x="741" y="-62.6" font-family="Times,serif" font-size="14.00">HttpClientModule</text>
</g>
<!-- HttpClientModule&#45;&gt;AppModule -->
<g id="edge3" class="edge">
<title>HttpClientModule&#45;&gt;AppModule</title>
<path fill="none" stroke="black" d="M741,-84.91C741,-104.14 741,-131.8 741,-131.8 741,-131.8 545.9,-131.8 545.9,-131.8"/>
<polygon fill="black" stroke="black" points="545.9,-128.3 535.9,-131.8 545.9,-135.3 545.9,-128.3"/>
</g>
<!-- CoreModule -->
<g id="node5" class="node">
<title>CoreModule</title>
<polygon fill="#8dd3c7" stroke="black" points="663.26,-84.8 660.26,-88.8 639.26,-88.8 636.26,-84.8 576.74,-84.8 576.74,-48.8 663.26,-48.8 663.26,-84.8"/>
<text text-anchor="middle" x="620" y="-62.6" font-family="Times,serif" font-size="14.00">CoreModule</text>
</g>
<!-- CoreModule&#45;&gt;AppModule -->
<g id="edge4" class="edge">
<title>CoreModule&#45;&gt;AppModule</title>
<path fill="none" stroke="black" d="M620,-84.83C620,-101.2 620,-122.8 620,-122.8 620,-122.8 545.96,-122.8 545.96,-122.8"/>
<polygon fill="black" stroke="black" points="545.96,-119.3 535.96,-122.8 545.96,-126.3 545.96,-119.3"/>
</g>
<!-- AppRoutingModule -->
<g id="node6" class="node">
<title>AppRoutingModule</title>
<polygon fill="#8dd3c7" stroke="black" points="558.27,-84.8 555.27,-88.8 534.27,-88.8 531.27,-84.8 429.73,-84.8 429.73,-48.8 558.27,-48.8 558.27,-84.8"/>
<text text-anchor="middle" x="494" y="-62.6" font-family="Times,serif" font-size="14.00">AppRoutingModule</text>
</g>
<!-- AppRoutingModule&#45;&gt;AppModule -->
<g id="edge5" class="edge">
<title>AppRoutingModule&#45;&gt;AppModule</title>
<path fill="none" stroke="black" d="M494,-84.91C494,-84.91 494,-103.79 494,-103.79"/>
<polygon fill="black" stroke="black" points="490.5,-103.79 494,-113.79 497.5,-103.79 490.5,-103.79"/>
</g>
<!-- LayoutModule -->
<g id="node7" class="node">
<title>LayoutModule</title>
<polygon fill="#8dd3c7" stroke="black" points="411.71,-84.8 408.71,-88.8 387.71,-88.8 384.71,-84.8 312.29,-84.8 312.29,-48.8 411.71,-48.8 411.71,-84.8"/>
<text text-anchor="middle" x="362" y="-62.6" font-family="Times,serif" font-size="14.00">LayoutModule</text>
</g>
<!-- LayoutModule&#45;&gt;AppModule -->
<g id="edge6" class="edge">
<title>LayoutModule&#45;&gt;AppModule</title>
<path fill="none" stroke="black" d="M362,-84.83C362,-101.2 362,-122.8 362,-122.8 362,-122.8 442.23,-122.8 442.23,-122.8"/>
<polygon fill="black" stroke="black" points="442.23,-126.3 452.23,-122.8 442.23,-119.3 442.23,-126.3"/>
</g>
<!-- ShopifyFooterModule -->
<g id="node8" class="node">
<title>ShopifyFooterModule</title>
<polygon fill="#8dd3c7" stroke="black" points="294.43,-84.8 291.43,-88.8 270.43,-88.8 267.43,-84.8 153.57,-84.8 153.57,-48.8 294.43,-48.8 294.43,-84.8"/>
<text text-anchor="middle" x="224" y="-62.6" font-family="Times,serif" font-size="14.00">ShopifyFooterModule</text>
</g>
<!-- ShopifyFooterModule&#45;&gt;AppModule -->
<g id="edge7" class="edge">
<title>ShopifyFooterModule&#45;&gt;AppModule</title>
<path fill="none" stroke="black" d="M224,-84.91C224,-104.14 224,-131.8 224,-131.8 224,-131.8 442.11,-131.8 442.11,-131.8"/>
<polygon fill="black" stroke="black" points="442.11,-135.3 452.11,-131.8 442.11,-128.3 442.11,-135.3"/>
</g>
</g>
</svg>
