<?xml version="1.0" encoding="UTF-8" standalone="no"?>
<!DOCTYPE svg PUBLIC "-//W3C//DTD SVG 1.1//EN"
 "http://www.w3.org/Graphics/SVG/1.1/DTD/svg11.dtd">
<!-- Generated by graphviz version 2.47.3 (20210619.1520)
 -->
<!-- Title: dependencies Pages: 1 -->
<svg width="820pt" height="247pt"
 viewBox="0.00 0.00 820.00 246.80" xmlns="http://www.w3.org/2000/svg" xmlns:xlink="http://www.w3.org/1999/xlink">
<g id="graph0" class="graph" transform="scale(1 1) rotate(0) translate(4 242.8)">
<title>dependencies</title>
<polygon fill="white" stroke="transparent" points="-4,4 -4,-242.8 816,-242.8 816,4 -4,4"/>
<text text-anchor="middle" x="406" y="-8.2" font-family="sans-serif" font-size="14.00">dependencies</text>
<g id="clust1" class="cluster">
<title>cluster_AppModule</title>
<polygon fill="none" stroke="black" stroke-dasharray="1,5" points="8,-32.8 8,-230.8 804,-230.8 804,-32.8 8,-32.8"/>
</g>
<g id="clust6" class="cluster">
<title>cluster_AppModule_bootstrap</title>
<polygon fill="none" stroke="black" points="366,-170.8 366,-222.8 490,-222.8 490,-170.8 366,-170.8"/>
</g>
<g id="clust4" class="cluster">
<title>cluster_AppModule_imports</title>
<polygon fill="none" stroke="black" points="146,-40.8 146,-92.8 796,-92.8 796,-40.8 146,-40.8"/>
</g>
<g id="clust2" class="cluster">
<title>cluster_AppModule_declarations</title>
<polygon fill="none" stroke="black" points="16,-40.8 16,-92.8 138,-92.8 138,-40.8 16,-40.8"/>
</g>
<!-- AppComponent -->
<g id="node1" class="node">
<title>AppComponent</title>
<polygon fill="#ffffb3" stroke="black" points="129.94,-84.8 24.06,-84.8 24.06,-48.8 129.94,-48.8 129.94,-84.8"/>
<text text-anchor="middle" x="77" y="-62.6" font-family="Times,serif" font-size="14.00">AppComponent</text>
</g>
<!-- AppModule -->
<g id="node2" class="node">
<title>AppModule</title>
<polygon fill="#8dd3c7" stroke="black" points="469.66,-149.8 466.66,-153.8 445.66,-153.8 442.66,-149.8 386.34,-149.8 386.34,-113.8 469.66,-113.8 469.66,-149.8"/>
<text text-anchor="middle" x="428" y="-127.6" font-family="Times,serif" font-size="14.00">AppModule</text>
</g>
<!-- AppComponent&#45;&gt;AppModule -->
<g id="edge1" class="edge">
<title>AppComponent&#45;&gt;AppModule</title>
<path fill="none" stroke="black" d="M77,-85.08C77,-106.12 77,-137.8 77,-137.8 77,-137.8 376.01,-137.8 376.01,-137.8"/>
<polygon fill="black" stroke="black" points="376.01,-141.3 386.01,-137.8 376.01,-134.3 376.01,-141.3"/>
</g>
<!-- AppComponent  -->
<g id="node8" class="node">
<title>AppComponent </title>
<polygon fill="#80b1d3" stroke="black" points="482.44,-214.8 373.56,-214.8 373.56,-178.8 482.44,-178.8 482.44,-214.8"/>
<text text-anchor="middle" x="428" y="-192.6" font-family="Times,serif" font-size="14.00">AppComponent </text>
</g>
<!-- AppModule&#45;&gt;AppComponent  -->
<g id="edge7" class="edge">
<title>AppModule&#45;&gt;AppComponent </title>
<path fill="none" stroke="black" stroke-dasharray="1,5" d="M428,-149.91C428,-149.91 428,-168.79 428,-168.79"/>
<polygon fill="black" stroke="black" points="424.5,-168.79 428,-178.79 431.5,-168.79 424.5,-168.79"/>
</g>
<!-- BrowserModule -->
<g id="node3" class="node">
<title>BrowserModule</title>
<polygon fill="#8dd3c7" stroke="black" points="788.47,-84.8 785.47,-88.8 764.47,-88.8 761.47,-84.8 681.53,-84.8 681.53,-48.8 788.47,-48.8 788.47,-84.8"/>
<text text-anchor="middle" x="735" y="-62.6" font-family="Times,serif" font-size="14.00">BrowserModule</text>
</g>
<!-- BrowserModule&#45;&gt;AppModule -->
<g id="edge2" class="edge">
<title>BrowserModule&#45;&gt;AppModule</title>
<path fill="none" stroke="black" d="M735,-85.08C735,-106.12 735,-137.8 735,-137.8 735,-137.8 479.72,-137.8 479.72,-137.8"/>
<polygon fill="black" stroke="black" points="479.72,-134.3 469.72,-137.8 479.72,-141.3 479.72,-134.3"/>
</g>
<!-- CoreModule -->
<g id="node4" class="node">
<title>CoreModule</title>
<polygon fill="#8dd3c7" stroke="black" points="663.26,-84.8 660.26,-88.8 639.26,-88.8 636.26,-84.8 576.74,-84.8 576.74,-48.8 663.26,-48.8 663.26,-84.8"/>
<text text-anchor="middle" x="620" y="-62.6" font-family="Times,serif" font-size="14.00">CoreModule</text>
</g>
<!-- CoreModule&#45;&gt;AppModule -->
<g id="edge3" class="edge">
<title>CoreModule&#45;&gt;AppModule</title>
<path fill="none" stroke="black" d="M620,-84.82C620,-102.17 620,-125.8 620,-125.8 620,-125.8 479.66,-125.8 479.66,-125.8"/>
<polygon fill="black" stroke="black" points="479.66,-122.3 469.66,-125.8 479.66,-129.3 479.66,-122.3"/>
</g>
<!-- AppRoutingModule -->
<g id="node5" class="node">
<title>AppRoutingModule</title>
<polygon fill="#8dd3c7" stroke="black" points="558.27,-84.8 555.27,-88.8 534.27,-88.8 531.27,-84.8 429.73,-84.8 429.73,-48.8 558.27,-48.8 558.27,-84.8"/>
<text text-anchor="middle" x="494" y="-62.6" font-family="Times,serif" font-size="14.00">AppRoutingModule</text>
</g>
<!-- AppRoutingModule&#45;&gt;AppModule -->
<g id="edge4" class="edge">
<title>AppRoutingModule&#45;&gt;AppModule</title>
<path fill="none" stroke="black" d="M449.72,-84.91C449.72,-84.91 449.72,-103.79 449.72,-103.79"/>
<polygon fill="black" stroke="black" points="446.22,-103.79 449.72,-113.79 453.22,-103.79 446.22,-103.79"/>
</g>
<!-- LayoutModule -->
<g id="node6" class="node">
<title>LayoutModule</title>
<polygon fill="#8dd3c7" stroke="black" points="411.71,-84.8 408.71,-88.8 387.71,-88.8 384.71,-84.8 312.29,-84.8 312.29,-48.8 411.71,-48.8 411.71,-84.8"/>
<text text-anchor="middle" x="362" y="-62.6" font-family="Times,serif" font-size="14.00">LayoutModule</text>
</g>
<!-- LayoutModule&#45;&gt;AppModule -->
<g id="edge5" class="edge">
<title>LayoutModule&#45;&gt;AppModule</title>
<path fill="none" stroke="black" d="M398.89,-84.91C398.89,-84.91 398.89,-103.79 398.89,-103.79"/>
<polygon fill="black" stroke="black" points="395.39,-103.79 398.89,-113.79 402.39,-103.79 395.39,-103.79"/>
</g>
<!-- ShopifyFooterModule -->
<g id="node7" class="node">
<title>ShopifyFooterModule</title>
<polygon fill="#8dd3c7" stroke="black" points="294.43,-84.8 291.43,-88.8 270.43,-88.8 267.43,-84.8 153.57,-84.8 153.57,-48.8 294.43,-48.8 294.43,-84.8"/>
<text text-anchor="middle" x="224" y="-62.6" font-family="Times,serif" font-size="14.00">ShopifyFooterModule</text>
</g>
<!-- ShopifyFooterModule&#45;&gt;AppModule -->
<g id="edge6" class="edge">
<title>ShopifyFooterModule&#45;&gt;AppModule</title>
<path fill="none" stroke="black" d="M224,-84.82C224,-102.17 224,-125.8 224,-125.8 224,-125.8 376.23,-125.8 376.23,-125.8"/>
<polygon fill="black" stroke="black" points="376.23,-129.3 386.23,-125.8 376.23,-122.3 376.23,-129.3"/>
</g>
</g>
</svg>
