<?xml version="1.0" encoding="UTF-8" standalone="no"?>
<!DOCTYPE svg PUBLIC "-//W3C//DTD SVG 1.1//EN"
 "http://www.w3.org/Graphics/SVG/1.1/DTD/svg11.dtd">
<!-- Generated by graphviz version 2.47.3 (20210619.1520)
 -->
<!-- Title: dependencies Pages: 1 -->
<svg width="1050pt" height="247pt"
 viewBox="0.00 0.00 1050.00 246.80" xmlns="http://www.w3.org/2000/svg" xmlns:xlink="http://www.w3.org/1999/xlink">
<g id="graph0" class="graph" transform="scale(1 1) rotate(0) translate(4 242.8)">
<title>dependencies</title>
<polygon fill="white" stroke="transparent" points="-4,4 -4,-242.8 1046,-242.8 1046,4 -4,4"/>
<text text-anchor="middle" x="521" y="-8.2" font-family="sans-serif" font-size="14.00">dependencies</text>
<g id="clust1" class="cluster">
<title>cluster_StatusWidgetModule</title>
<polygon fill="none" stroke="black" stroke-dasharray="1,5" points="8,-32.8 8,-230.8 1034,-230.8 1034,-32.8 8,-32.8"/>
</g>
<g id="clust2" class="cluster">
<title>cluster_StatusWidgetModule_declarations</title>
<polygon fill="none" stroke="black" points="152,-40.8 152,-92.8 1026,-92.8 1026,-40.8 152,-40.8"/>
</g>
<g id="clust7" class="cluster">
<title>cluster_StatusWidgetModule_imports</title>
<polygon fill="none" stroke="black" points="16,-40.8 16,-92.8 144,-92.8 144,-40.8 16,-40.8"/>
</g>
<g id="clust8" class="cluster">
<title>cluster_StatusWidgetModule_exports</title>
<polygon fill="none" stroke="black" points="77,-170.8 77,-222.8 965,-222.8 965,-170.8 77,-170.8"/>
</g>
<!-- StatusWidgetSuccessComponent -->
<g id="node1" class="node">
<title>StatusWidgetSuccessComponent</title>
<polygon fill="#ffffb3" stroke="black" points="1017.58,-84.8 816.42,-84.8 816.42,-48.8 1017.58,-48.8 1017.58,-84.8"/>
<text text-anchor="middle" x="917" y="-62.6" font-family="Times,serif" font-size="14.00">StatusWidgetSuccessComponent</text>
</g>
<!-- StatusWidgetModule -->
<g id="node5" class="node">
<title>StatusWidgetModule</title>
<polygon fill="#8dd3c7" stroke="black" points="550.48,-149.8 547.48,-153.8 526.48,-153.8 523.48,-149.8 415.52,-149.8 415.52,-113.8 550.48,-113.8 550.48,-149.8"/>
<text text-anchor="middle" x="483" y="-127.6" font-family="Times,serif" font-size="14.00">StatusWidgetModule</text>
</g>
<!-- StatusWidgetSuccessComponent&#45;&gt;StatusWidgetModule -->
<g id="edge1" class="edge">
<title>StatusWidgetSuccessComponent&#45;&gt;StatusWidgetModule</title>
<path fill="none" stroke="black" d="M886.88,-84.91C886.88,-104.14 886.88,-131.8 886.88,-131.8 886.88,-131.8 560.6,-131.8 560.6,-131.8"/>
<polygon fill="black" stroke="black" points="560.6,-128.3 550.6,-131.8 560.6,-135.3 560.6,-128.3"/>
</g>
<!-- StatusWidgetDangerComponent -->
<g id="node2" class="node">
<title>StatusWidgetDangerComponent</title>
<polygon fill="#ffffb3" stroke="black" points="797.96,-84.8 600.04,-84.8 600.04,-48.8 797.96,-48.8 797.96,-84.8"/>
<text text-anchor="middle" x="699" y="-62.6" font-family="Times,serif" font-size="14.00">StatusWidgetDangerComponent</text>
</g>
<!-- StatusWidgetDangerComponent&#45;&gt;StatusWidgetModule -->
<g id="edge2" class="edge">
<title>StatusWidgetDangerComponent&#45;&gt;StatusWidgetModule</title>
<path fill="none" stroke="black" d="M667.38,-84.83C667.38,-101.2 667.38,-122.8 667.38,-122.8 667.38,-122.8 560.61,-122.8 560.61,-122.8"/>
<polygon fill="black" stroke="black" points="560.61,-119.3 550.61,-122.8 560.61,-126.3 560.61,-119.3"/>
</g>
<!-- StatusWidgetNeutralComponent -->
<g id="node3" class="node">
<title>StatusWidgetNeutralComponent</title>
<polygon fill="#ffffb3" stroke="black" points="582.24,-84.8 383.76,-84.8 383.76,-48.8 582.24,-48.8 582.24,-84.8"/>
<text text-anchor="middle" x="483" y="-62.6" font-family="Times,serif" font-size="14.00">StatusWidgetNeutralComponent</text>
</g>
<!-- StatusWidgetNeutralComponent&#45;&gt;StatusWidgetModule -->
<g id="edge3" class="edge">
<title>StatusWidgetNeutralComponent&#45;&gt;StatusWidgetModule</title>
<path fill="none" stroke="black" d="M483,-84.91C483,-84.91 483,-103.79 483,-103.79"/>
<polygon fill="black" stroke="black" points="479.5,-103.79 483,-113.79 486.5,-103.79 479.5,-103.79"/>
</g>
<!-- StatusWidgetWarningComponent -->
<g id="node4" class="node">
<title>StatusWidgetWarningComponent</title>
<polygon fill="#ffffb3" stroke="black" points="365.75,-84.8 160.25,-84.8 160.25,-48.8 365.75,-48.8 365.75,-84.8"/>
<text text-anchor="middle" x="263" y="-62.6" font-family="Times,serif" font-size="14.00">StatusWidgetWarningComponent</text>
</g>
<!-- StatusWidgetWarningComponent&#45;&gt;StatusWidgetModule -->
<g id="edge4" class="edge">
<title>StatusWidgetWarningComponent&#45;&gt;StatusWidgetModule</title>
<path fill="none" stroke="black" d="M339.38,-84.83C339.38,-101.2 339.38,-122.8 339.38,-122.8 339.38,-122.8 405.39,-122.8 405.39,-122.8"/>
<polygon fill="black" stroke="black" points="405.39,-126.3 415.39,-122.8 405.39,-119.3 405.39,-126.3"/>
</g>
<!-- StatusWidgetSuccessComponent  -->
<g id="node7" class="node">
<title>StatusWidgetSuccessComponent </title>
<polygon fill="#fb8072" stroke="black" points="957.08,-214.8 752.92,-214.8 752.92,-178.8 957.08,-178.8 957.08,-214.8"/>
<text text-anchor="middle" x="855" y="-192.6" font-family="Times,serif" font-size="14.00">StatusWidgetSuccessComponent </text>
</g>
<!-- StatusWidgetModule&#45;&gt;StatusWidgetSuccessComponent  -->
<g id="edge6" class="edge">
<title>StatusWidgetModule&#45;&gt;StatusWidgetSuccessComponent </title>
<path fill="none" stroke="black" stroke-dasharray="5,2" d="M550.8,-140.8C637.17,-140.8 775.35,-140.8 775.35,-140.8 775.35,-140.8 775.35,-168.77 775.35,-168.77"/>
<polygon fill="black" stroke="black" points="771.85,-168.77 775.35,-178.77 778.85,-168.77 771.85,-168.77"/>
</g>
<!-- StatusWidgetDangerComponent  -->
<g id="node8" class="node">
<title>StatusWidgetDangerComponent </title>
<polygon fill="#fb8072" stroke="black" points="734.96,-214.8 533.04,-214.8 533.04,-178.8 734.96,-178.8 734.96,-214.8"/>
<text text-anchor="middle" x="634" y="-192.6" font-family="Times,serif" font-size="14.00">StatusWidgetDangerComponent </text>
</g>
<!-- StatusWidgetModule&#45;&gt;StatusWidgetDangerComponent  -->
<g id="edge7" class="edge">
<title>StatusWidgetModule&#45;&gt;StatusWidgetDangerComponent </title>
<path fill="none" stroke="black" stroke-dasharray="5,2" d="M541.88,-149.91C541.88,-149.91 541.88,-168.79 541.88,-168.79"/>
<polygon fill="black" stroke="black" points="538.38,-168.79 541.88,-178.79 545.38,-168.79 538.38,-168.79"/>
</g>
<!-- StatusWidgetNeutralComponent  -->
<g id="node9" class="node">
<title>StatusWidgetNeutralComponent </title>
<polygon fill="#fb8072" stroke="black" points="515.24,-214.8 312.76,-214.8 312.76,-178.8 515.24,-178.8 515.24,-214.8"/>
<text text-anchor="middle" x="414" y="-192.6" font-family="Times,serif" font-size="14.00">StatusWidgetNeutralComponent </text>
</g>
<!-- StatusWidgetModule&#45;&gt;StatusWidgetNeutralComponent  -->
<g id="edge8" class="edge">
<title>StatusWidgetModule&#45;&gt;StatusWidgetNeutralComponent </title>
<path fill="none" stroke="black" stroke-dasharray="5,2" d="M465.32,-149.91C465.32,-149.91 465.32,-168.79 465.32,-168.79"/>
<polygon fill="black" stroke="black" points="461.82,-168.79 465.32,-178.79 468.82,-168.79 461.82,-168.79"/>
</g>
<!-- StatusWidgetWarningComponent  -->
<g id="node10" class="node">
<title>StatusWidgetWarningComponent </title>
<polygon fill="#fb8072" stroke="black" points="294.75,-214.8 85.25,-214.8 85.25,-178.8 294.75,-178.8 294.75,-214.8"/>
<text text-anchor="middle" x="190" y="-192.6" font-family="Times,serif" font-size="14.00">StatusWidgetWarningComponent </text>
</g>
<!-- StatusWidgetModule&#45;&gt;StatusWidgetWarningComponent  -->
<g id="edge9" class="edge">
<title>StatusWidgetModule&#45;&gt;StatusWidgetWarningComponent </title>
<path fill="none" stroke="black" stroke-dasharray="5,2" d="M415.5,-140.8C339.77,-140.8 227.38,-140.8 227.38,-140.8 227.38,-140.8 227.38,-168.77 227.38,-168.77"/>
<polygon fill="black" stroke="black" points="223.88,-168.77 227.38,-178.77 230.88,-168.77 223.88,-168.77"/>
</g>
<!-- CommonModule -->
<g id="node6" class="node">
<title>CommonModule</title>
<polygon fill="#8dd3c7" stroke="black" points="135.67,-84.8 132.67,-88.8 111.67,-88.8 108.67,-84.8 24.33,-84.8 24.33,-48.8 135.67,-48.8 135.67,-84.8"/>
<text text-anchor="middle" x="80" y="-62.6" font-family="Times,serif" font-size="14.00">CommonModule</text>
</g>
<!-- CommonModule&#45;&gt;StatusWidgetModule -->
<g id="edge5" class="edge">
<title>CommonModule&#45;&gt;StatusWidgetModule</title>
<path fill="none" stroke="black" d="M110.61,-84.91C110.61,-104.14 110.61,-131.8 110.61,-131.8 110.61,-131.8 405.13,-131.8 405.13,-131.8"/>
<polygon fill="black" stroke="black" points="405.13,-135.3 415.13,-131.8 405.13,-128.3 405.13,-135.3"/>
</g>
</g>
</svg>
