<?xml version="1.0" encoding="UTF-8" standalone="no"?>
<!DOCTYPE svg PUBLIC "-//W3C//DTD SVG 1.1//EN"
 "http://www.w3.org/Graphics/SVG/1.1/DTD/svg11.dtd">
<!-- Generated by graphviz version 2.47.3 (20210619.1520)
 -->
<!-- Title: dependencies Pages: 1 -->
<svg width="815pt" height="247pt"
 viewBox="0.00 0.00 815.00 246.80" xmlns="http://www.w3.org/2000/svg" xmlns:xlink="http://www.w3.org/1999/xlink">
<g id="graph0" class="graph" transform="scale(1 1) rotate(0) translate(4 242.8)">
<title>dependencies</title>
<polygon fill="white" stroke="transparent" points="-4,4 -4,-242.8 811,-242.8 811,4 -4,4"/>
<text text-anchor="middle" x="403.5" y="-8.2" font-family="sans-serif" font-size="14.00">dependencies</text>
<g id="clust1" class="cluster">
<title>cluster_StatusWidgetModule</title>
<polygon fill="none" stroke="black" stroke-dasharray="1,5" points="8,-32.8 8,-230.8 799,-230.8 799,-32.8 8,-32.8"/>
</g>
<g id="clust6" class="cluster">
<title>cluster_StatusWidgetModule_imports</title>
<polygon fill="none" stroke="black" points="663,-40.8 663,-92.8 791,-92.8 791,-40.8 663,-40.8"/>
</g>
<g id="clust2" class="cluster">
<title>cluster_StatusWidgetModule_declarations</title>
<polygon fill="none" stroke="black" points="16,-40.8 16,-92.8 655,-92.8 655,-40.8 16,-40.8"/>
</g>
<g id="clust7" class="cluster">
<title>cluster_StatusWidgetModule_exports</title>
<polygon fill="none" stroke="black" points="79,-170.8 79,-222.8 727,-222.8 727,-170.8 79,-170.8"/>
</g>
<!-- StatusWidgetSuccessComponent -->
<g id="node1" class="node">
<title>StatusWidgetSuccessComponent</title>
<polygon fill="#ffffb3" stroke="black" points="646.58,-84.8 445.42,-84.8 445.42,-48.8 646.58,-48.8 646.58,-84.8"/>
<text text-anchor="middle" x="546" y="-62.6" font-family="Times,serif" font-size="14.00">StatusWidgetSuccessComponent</text>
</g>
<!-- StatusWidgetModule -->
<g id="node4" class="node">
<title>StatusWidgetModule</title>
<polygon fill="#8dd3c7" stroke="black" points="469.48,-149.8 466.48,-153.8 445.48,-153.8 442.48,-149.8 334.52,-149.8 334.52,-113.8 469.48,-113.8 469.48,-149.8"/>
<text text-anchor="middle" x="402" y="-127.6" font-family="Times,serif" font-size="14.00">StatusWidgetModule</text>
</g>
<!-- StatusWidgetSuccessComponent&#45;&gt;StatusWidgetModule -->
<g id="edge1" class="edge">
<title>StatusWidgetSuccessComponent&#45;&gt;StatusWidgetModule</title>
<path fill="none" stroke="black" d="M457.48,-84.91C457.48,-84.91 457.48,-103.79 457.48,-103.79"/>
<polygon fill="black" stroke="black" points="453.98,-103.79 457.48,-113.79 460.98,-103.79 453.98,-103.79"/>
</g>
<!-- StatusWidgetErrorComponent -->
<g id="node2" class="node">
<title>StatusWidgetErrorComponent</title>
<polygon fill="#ffffb3" stroke="black" points="427.3,-84.8 240.7,-84.8 240.7,-48.8 427.3,-48.8 427.3,-84.8"/>
<text text-anchor="middle" x="334" y="-62.6" font-family="Times,serif" font-size="14.00">StatusWidgetErrorComponent</text>
</g>
<!-- StatusWidgetErrorComponent&#45;&gt;StatusWidgetModule -->
<g id="edge2" class="edge">
<title>StatusWidgetErrorComponent&#45;&gt;StatusWidgetModule</title>
<path fill="none" stroke="black" d="M380.83,-84.91C380.83,-84.91 380.83,-103.79 380.83,-103.79"/>
<polygon fill="black" stroke="black" points="377.33,-103.79 380.83,-113.79 384.33,-103.79 377.33,-103.79"/>
</g>
<!-- StatusWidgetNeutralComponent -->
<g id="node3" class="node">
<title>StatusWidgetNeutralComponent</title>
<polygon fill="#ffffb3" stroke="black" points="222.24,-84.8 23.76,-84.8 23.76,-48.8 222.24,-48.8 222.24,-84.8"/>
<text text-anchor="middle" x="123" y="-62.6" font-family="Times,serif" font-size="14.00">StatusWidgetNeutralComponent</text>
</g>
<!-- StatusWidgetNeutralComponent&#45;&gt;StatusWidgetModule -->
<g id="edge3" class="edge">
<title>StatusWidgetNeutralComponent&#45;&gt;StatusWidgetModule</title>
<path fill="none" stroke="black" d="M154.62,-84.82C154.62,-102.17 154.62,-125.8 154.62,-125.8 154.62,-125.8 324.4,-125.8 324.4,-125.8"/>
<polygon fill="black" stroke="black" points="324.4,-129.3 334.4,-125.8 324.4,-122.3 324.4,-129.3"/>
</g>
<!-- StatusWidgetSuccessComponent  -->
<g id="node6" class="node">
<title>StatusWidgetSuccessComponent </title>
<polygon fill="#fb8072" stroke="black" points="719.08,-214.8 514.92,-214.8 514.92,-178.8 719.08,-178.8 719.08,-214.8"/>
<text text-anchor="middle" x="617" y="-192.6" font-family="Times,serif" font-size="14.00">StatusWidgetSuccessComponent </text>
</g>
<!-- StatusWidgetModule&#45;&gt;StatusWidgetSuccessComponent  -->
<g id="edge5" class="edge">
<title>StatusWidgetModule&#45;&gt;StatusWidgetSuccessComponent </title>
<path fill="none" stroke="black" stroke-dasharray="5,2" d="M469.53,-137.8C520.11,-137.8 580.62,-137.8 580.62,-137.8 580.62,-137.8 580.62,-168.78 580.62,-168.78"/>
<polygon fill="black" stroke="black" points="577.13,-168.78 580.62,-178.78 584.13,-168.78 577.13,-168.78"/>
</g>
<!-- StatusWidgetErrorComponent  -->
<g id="node7" class="node">
<title>StatusWidgetErrorComponent </title>
<polygon fill="#fb8072" stroke="black" points="496.8,-214.8 307.2,-214.8 307.2,-178.8 496.8,-178.8 496.8,-214.8"/>
<text text-anchor="middle" x="402" y="-192.6" font-family="Times,serif" font-size="14.00">StatusWidgetErrorComponent </text>
</g>
<!-- StatusWidgetModule&#45;&gt;StatusWidgetErrorComponent  -->
<g id="edge6" class="edge">
<title>StatusWidgetModule&#45;&gt;StatusWidgetErrorComponent </title>
<path fill="none" stroke="black" stroke-dasharray="5,2" d="M402,-149.91C402,-149.91 402,-168.79 402,-168.79"/>
<polygon fill="black" stroke="black" points="398.5,-168.79 402,-178.79 405.5,-168.79 398.5,-168.79"/>
</g>
<!-- StatusWidgetNeutralComponent  -->
<g id="node8" class="node">
<title>StatusWidgetNeutralComponent </title>
<polygon fill="#fb8072" stroke="black" points="289.24,-214.8 86.76,-214.8 86.76,-178.8 289.24,-178.8 289.24,-214.8"/>
<text text-anchor="middle" x="188" y="-192.6" font-family="Times,serif" font-size="14.00">StatusWidgetNeutralComponent </text>
</g>
<!-- StatusWidgetModule&#45;&gt;StatusWidgetNeutralComponent  -->
<g id="edge7" class="edge">
<title>StatusWidgetModule&#45;&gt;StatusWidgetNeutralComponent </title>
<path fill="none" stroke="black" stroke-dasharray="5,2" d="M334.3,-137.8C299.78,-137.8 264.99,-137.8 264.99,-137.8 264.99,-137.8 264.99,-168.78 264.99,-168.78"/>
<polygon fill="black" stroke="black" points="261.49,-168.78 264.99,-178.78 268.49,-168.78 261.49,-168.78"/>
</g>
<!-- CommonModule -->
<g id="node5" class="node">
<title>CommonModule</title>
<polygon fill="#8dd3c7" stroke="black" points="782.67,-84.8 779.67,-88.8 758.67,-88.8 755.67,-84.8 671.33,-84.8 671.33,-48.8 782.67,-48.8 782.67,-84.8"/>
<text text-anchor="middle" x="727" y="-62.6" font-family="Times,serif" font-size="14.00">CommonModule</text>
</g>
<!-- CommonModule&#45;&gt;StatusWidgetModule -->
<g id="edge4" class="edge">
<title>CommonModule&#45;&gt;StatusWidgetModule</title>
<path fill="none" stroke="black" d="M695.23,-84.82C695.23,-102.17 695.23,-125.8 695.23,-125.8 695.23,-125.8 479.64,-125.8 479.64,-125.8"/>
<polygon fill="black" stroke="black" points="479.64,-122.3 469.64,-125.8 479.64,-129.3 479.64,-122.3"/>
</g>
</g>
</svg>
