<?xml version="1.0" encoding="UTF-8" standalone="no"?>
<!DOCTYPE svg PUBLIC "-//W3C//DTD SVG 1.1//EN"
 "http://www.w3.org/Graphics/SVG/1.1/DTD/svg11.dtd">
<!-- Generated by graphviz version 2.47.3 (20210619.1520)
 -->
<!-- Title: dependencies Pages: 1 -->
<svg width="1050pt" height="247pt"
 viewBox="0.00 0.00 1050.00 246.80" xmlns="http://www.w3.org/2000/svg" xmlns:xlink="http://www.w3.org/1999/xlink">
<g id="graph0" class="graph" transform="scale(1 1) rotate(0) translate(4 242.8)">
<title>dependencies</title>
<polygon fill="white" stroke="transparent" points="-4,4 -4,-242.8 1046,-242.8 1046,4 -4,4"/>
<text text-anchor="middle" x="521" y="-8.2" font-family="sans-serif" font-size="14.00">dependencies</text>
<g id="clust1" class="cluster">
<title>cluster_StatusWidgetModule</title>
<polygon fill="none" stroke="black" stroke-dasharray="1,5" points="8,-32.8 8,-230.8 1034,-230.8 1034,-32.8 8,-32.8"/>
</g>
<g id="clust7" class="cluster">
<title>cluster_StatusWidgetModule_imports</title>
<polygon fill="none" stroke="black" points="898,-40.8 898,-92.8 1026,-92.8 1026,-40.8 898,-40.8"/>
</g>
<g id="clust8" class="cluster">
<title>cluster_StatusWidgetModule_exports</title>
<polygon fill="none" stroke="black" points="77,-170.8 77,-222.8 965,-222.8 965,-170.8 77,-170.8"/>
</g>
<g id="clust2" class="cluster">
<title>cluster_StatusWidgetModule_declarations</title>
<polygon fill="none" stroke="black" points="16,-40.8 16,-92.8 890,-92.8 890,-40.8 16,-40.8"/>
</g>
<!-- StatusWidgetSuccessComponent -->
<g id="node1" class="node">
<title>StatusWidgetSuccessComponent</title>
<polygon fill="#ffffb3" stroke="black" points="881.58,-84.8 680.42,-84.8 680.42,-48.8 881.58,-48.8 881.58,-84.8"/>
<text text-anchor="middle" x="781" y="-62.6" font-family="Times,serif" font-size="14.00">StatusWidgetSuccessComponent</text>
</g>
<!-- StatusWidgetModule -->
<g id="node5" class="node">
<title>StatusWidgetModule</title>
<polygon fill="#8dd3c7" stroke="black" points="630.48,-149.8 627.48,-153.8 606.48,-153.8 603.48,-149.8 495.52,-149.8 495.52,-113.8 630.48,-113.8 630.48,-149.8"/>
<text text-anchor="middle" x="563" y="-127.6" font-family="Times,serif" font-size="14.00">StatusWidgetModule</text>
</g>
<!-- StatusWidgetSuccessComponent&#45;&gt;StatusWidgetModule -->
<g id="edge1" class="edge">
<title>StatusWidgetSuccessComponent&#45;&gt;StatusWidgetModule</title>
<path fill="none" stroke="black" d="M707.6,-84.83C707.6,-101.2 707.6,-122.8 707.6,-122.8 707.6,-122.8 640.64,-122.8 640.64,-122.8"/>
<polygon fill="black" stroke="black" points="640.64,-119.3 630.64,-122.8 640.64,-126.3 640.64,-119.3"/>
</g>
<!-- StatusWidgetDangerComponent -->
<g id="node2" class="node">
<title>StatusWidgetDangerComponent</title>
<polygon fill="#ffffb3" stroke="black" points="661.96,-84.8 464.04,-84.8 464.04,-48.8 661.96,-48.8 661.96,-84.8"/>
<text text-anchor="middle" x="563" y="-62.6" font-family="Times,serif" font-size="14.00">StatusWidgetDangerComponent</text>
</g>
<!-- StatusWidgetDangerComponent&#45;&gt;StatusWidgetModule -->
<g id="edge2" class="edge">
<title>StatusWidgetDangerComponent&#45;&gt;StatusWidgetModule</title>
<path fill="none" stroke="black" d="M563,-84.91C563,-84.91 563,-103.79 563,-103.79"/>
<polygon fill="black" stroke="black" points="559.5,-103.79 563,-113.79 566.5,-103.79 559.5,-103.79"/>
</g>
<!-- StatusWidgetNeutralComponent -->
<g id="node3" class="node">
<title>StatusWidgetNeutralComponent</title>
<polygon fill="#ffffb3" stroke="black" points="446.24,-84.8 247.76,-84.8 247.76,-48.8 446.24,-48.8 446.24,-84.8"/>
<text text-anchor="middle" x="347" y="-62.6" font-family="Times,serif" font-size="14.00">StatusWidgetNeutralComponent</text>
</g>
<!-- StatusWidgetNeutralComponent&#45;&gt;StatusWidgetModule -->
<g id="edge3" class="edge">
<title>StatusWidgetNeutralComponent&#45;&gt;StatusWidgetModule</title>
<path fill="none" stroke="black" d="M379.62,-84.83C379.62,-101.2 379.62,-122.8 379.62,-122.8 379.62,-122.8 485.5,-122.8 485.5,-122.8"/>
<polygon fill="black" stroke="black" points="485.5,-126.3 495.5,-122.8 485.5,-119.3 485.5,-126.3"/>
</g>
<!-- StatusWidgetWarningComponent -->
<g id="node4" class="node">
<title>StatusWidgetWarningComponent</title>
<polygon fill="#ffffb3" stroke="black" points="229.75,-84.8 24.25,-84.8 24.25,-48.8 229.75,-48.8 229.75,-84.8"/>
<text text-anchor="middle" x="127" y="-62.6" font-family="Times,serif" font-size="14.00">StatusWidgetWarningComponent</text>
</g>
<!-- StatusWidgetWarningComponent&#45;&gt;StatusWidgetModule -->
<g id="edge4" class="edge">
<title>StatusWidgetWarningComponent&#45;&gt;StatusWidgetModule</title>
<path fill="none" stroke="black" d="M157.62,-84.91C157.62,-104.14 157.62,-131.8 157.62,-131.8 157.62,-131.8 485.15,-131.8 485.15,-131.8"/>
<polygon fill="black" stroke="black" points="485.15,-135.3 495.15,-131.8 485.15,-128.3 485.15,-135.3"/>
</g>
<!-- StatusWidgetSuccessComponent  -->
<g id="node7" class="node">
<title>StatusWidgetSuccessComponent </title>
<polygon fill="#fb8072" stroke="black" points="957.08,-214.8 752.92,-214.8 752.92,-178.8 957.08,-178.8 957.08,-214.8"/>
<text text-anchor="middle" x="855" y="-192.6" font-family="Times,serif" font-size="14.00">StatusWidgetSuccessComponent </text>
</g>
<!-- StatusWidgetModule&#45;&gt;StatusWidgetSuccessComponent  -->
<g id="edge6" class="edge">
<title>StatusWidgetModule&#45;&gt;StatusWidgetSuccessComponent </title>
<path fill="none" stroke="black" stroke-dasharray="5,2" d="M630.77,-140.8C706.05,-140.8 817.12,-140.8 817.12,-140.8 817.12,-140.8 817.12,-168.77 817.12,-168.77"/>
<polygon fill="black" stroke="black" points="813.63,-168.77 817.12,-178.77 820.63,-168.77 813.63,-168.77"/>
</g>
<!-- StatusWidgetDangerComponent  -->
<g id="node8" class="node">
<title>StatusWidgetDangerComponent </title>
<polygon fill="#fb8072" stroke="black" points="734.96,-214.8 533.04,-214.8 533.04,-178.8 734.96,-178.8 734.96,-214.8"/>
<text text-anchor="middle" x="634" y="-192.6" font-family="Times,serif" font-size="14.00">StatusWidgetDangerComponent </text>
</g>
<!-- StatusWidgetModule&#45;&gt;StatusWidgetDangerComponent  -->
<g id="edge7" class="edge">
<title>StatusWidgetModule&#45;&gt;StatusWidgetDangerComponent </title>
<path fill="none" stroke="black" stroke-dasharray="5,2" d="M581.88,-149.91C581.88,-149.91 581.88,-168.79 581.88,-168.79"/>
<polygon fill="black" stroke="black" points="578.38,-168.79 581.88,-178.79 585.38,-168.79 578.38,-168.79"/>
</g>
<!-- StatusWidgetNeutralComponent  -->
<g id="node9" class="node">
<title>StatusWidgetNeutralComponent </title>
<polygon fill="#fb8072" stroke="black" points="515.24,-214.8 312.76,-214.8 312.76,-178.8 515.24,-178.8 515.24,-214.8"/>
<text text-anchor="middle" x="414" y="-192.6" font-family="Times,serif" font-size="14.00">StatusWidgetNeutralComponent </text>
</g>
<!-- StatusWidgetModule&#45;&gt;StatusWidgetNeutralComponent  -->
<g id="edge8" class="edge">
<title>StatusWidgetModule&#45;&gt;StatusWidgetNeutralComponent </title>
<path fill="none" stroke="black" stroke-dasharray="5,2" d="M505.32,-149.91C505.32,-149.91 505.32,-168.79 505.32,-168.79"/>
<polygon fill="black" stroke="black" points="501.82,-168.79 505.32,-178.79 508.82,-168.79 501.82,-168.79"/>
</g>
<!-- StatusWidgetWarningComponent  -->
<g id="node10" class="node">
<title>StatusWidgetWarningComponent </title>
<polygon fill="#fb8072" stroke="black" points="294.75,-214.8 85.25,-214.8 85.25,-178.8 294.75,-178.8 294.75,-214.8"/>
<text text-anchor="middle" x="190" y="-192.6" font-family="Times,serif" font-size="14.00">StatusWidgetWarningComponent </text>
</g>
<!-- StatusWidgetModule&#45;&gt;StatusWidgetWarningComponent  -->
<g id="edge9" class="edge">
<title>StatusWidgetModule&#45;&gt;StatusWidgetWarningComponent </title>
<path fill="none" stroke="black" stroke-dasharray="5,2" d="M495.3,-140.8C409.08,-140.8 271.13,-140.8 271.13,-140.8 271.13,-140.8 271.13,-168.77 271.13,-168.77"/>
<polygon fill="black" stroke="black" points="267.63,-168.77 271.13,-178.77 274.63,-168.77 267.63,-168.77"/>
</g>
<!-- CommonModule -->
<g id="node6" class="node">
<title>CommonModule</title>
<polygon fill="#8dd3c7" stroke="black" points="1017.67,-84.8 1014.67,-88.8 993.67,-88.8 990.67,-84.8 906.33,-84.8 906.33,-48.8 1017.67,-48.8 1017.67,-84.8"/>
<text text-anchor="middle" x="962" y="-62.6" font-family="Times,serif" font-size="14.00">CommonModule</text>
</g>
<!-- CommonModule&#45;&gt;StatusWidgetModule -->
<g id="edge5" class="edge">
<title>CommonModule&#45;&gt;StatusWidgetModule</title>
<path fill="none" stroke="black" d="M931.73,-84.91C931.73,-104.14 931.73,-131.8 931.73,-131.8 931.73,-131.8 640.63,-131.8 640.63,-131.8"/>
<polygon fill="black" stroke="black" points="640.63,-128.3 630.63,-131.8 640.63,-135.3 640.63,-128.3"/>
</g>
</g>
</svg>
