<?xml version="1.0" encoding="UTF-8" standalone="no"?>
<!DOCTYPE svg PUBLIC "-//W3C//DTD SVG 1.1//EN"
 "http://www.w3.org/Graphics/SVG/1.1/DTD/svg11.dtd">
<!-- Generated by graphviz version 2.47.3 (20210619.1520)
 -->
<!-- Title: dependencies Pages: 1 -->
<svg width="270pt" height="247pt"
 viewBox="0.00 0.00 270.00 246.80" xmlns="http://www.w3.org/2000/svg" xmlns:xlink="http://www.w3.org/1999/xlink">
<g id="graph0" class="graph" transform="scale(1 1) rotate(0) translate(4 242.8)">
<title>dependencies</title>
<polygon fill="white" stroke="transparent" points="-4,4 -4,-242.8 266,-242.8 266,4 -4,4"/>
<text text-anchor="middle" x="131" y="-8.2" font-family="sans-serif" font-size="14.00">dependencies</text>
<g id="clust1" class="cluster">
<title>cluster_ProductOverviewPageRoutingModule</title>
<polygon fill="none" stroke="black" stroke-dasharray="1,5" points="8,-32.8 8,-230.8 254,-230.8 254,-32.8 8,-32.8"/>
</g>
<g id="clust4" class="cluster">
<title>cluster_ProductOverviewPageRoutingModule_exports</title>
<polygon fill="none" stroke="black" points="72,-170.8 72,-222.8 190,-222.8 190,-170.8 72,-170.8"/>
</g>
<g id="clust3" class="cluster">
<title>cluster_ProductOverviewPageRoutingModule_imports</title>
<polygon fill="none" stroke="black" points="32,-40.8 32,-92.8 230,-92.8 230,-40.8 32,-40.8"/>
</g>
<!-- RouterModule.forChild(args) -->
<g id="node1" class="node">
<title>RouterModule.forChild(args)</title>
<polygon fill="#8dd3c7" stroke="black" points="221.73,-84.8 218.73,-88.8 197.73,-88.8 194.73,-84.8 40.27,-84.8 40.27,-48.8 221.73,-48.8 221.73,-84.8"/>
<text text-anchor="middle" x="131" y="-62.6" font-family="Times,serif" font-size="14.00">RouterModule.forChild(args)</text>
</g>
<!-- ProductOverviewPageRoutingModule -->
<g id="node2" class="node">
<title>ProductOverviewPageRoutingModule</title>
<polygon fill="#8dd3c7" stroke="black" points="246.12,-149.8 243.12,-153.8 222.12,-153.8 219.12,-149.8 15.88,-149.8 15.88,-113.8 246.12,-113.8 246.12,-149.8"/>
<text text-anchor="middle" x="131" y="-127.6" font-family="Times,serif" font-size="14.00">ProductOverviewPageRoutingModule</text>
</g>
<!-- RouterModule.forChild(args)&#45;&gt;ProductOverviewPageRoutingModule -->
<g id="edge1" class="edge">
<title>RouterModule.forChild(args)&#45;&gt;ProductOverviewPageRoutingModule</title>
<path fill="none" stroke="black" d="M131,-84.91C131,-84.91 131,-103.79 131,-103.79"/>
<polygon fill="black" stroke="black" points="127.5,-103.79 131,-113.79 134.5,-103.79 127.5,-103.79"/>
</g>
<!-- RouterModule  -->
<g id="node3" class="node">
<title>RouterModule </title>
<polygon fill="#fb8072" stroke="black" points="181.65,-214.8 80.35,-214.8 80.35,-178.8 181.65,-178.8 181.65,-214.8"/>
<text text-anchor="middle" x="131" y="-192.6" font-family="Times,serif" font-size="14.00">RouterModule </text>
</g>
<!-- ProductOverviewPageRoutingModule&#45;&gt;RouterModule  -->
<g id="edge2" class="edge">
<title>ProductOverviewPageRoutingModule&#45;&gt;RouterModule </title>
<path fill="none" stroke="black" stroke-dasharray="5,2" d="M131,-149.91C131,-149.91 131,-168.79 131,-168.79"/>
<polygon fill="black" stroke="black" points="127.5,-168.79 131,-178.79 134.5,-168.79 127.5,-168.79"/>
</g>
</g>
</svg>
