<?xml version="1.0" encoding="UTF-8" standalone="no"?>
<!DOCTYPE svg PUBLIC "-//W3C//DTD SVG 1.1//EN"
 "http://www.w3.org/Graphics/SVG/1.1/DTD/svg11.dtd">
<!-- Generated by graphviz version 2.47.3 (20210619.1520)
 -->
<!-- Title: dependencies Pages: 1 -->
<svg width="672pt" height="174pt"
 viewBox="0.00 0.00 672.00 173.80" xmlns="http://www.w3.org/2000/svg" xmlns:xlink="http://www.w3.org/1999/xlink">
<g id="graph0" class="graph" transform="scale(1 1) rotate(0) translate(4 169.8)">
<title>dependencies</title>
<polygon fill="white" stroke="transparent" points="-4,4 -4,-169.8 668,-169.8 668,4 -4,4"/>
<text text-anchor="middle" x="332" y="-8.2" font-family="sans-serif" font-size="14.00">dependencies</text>
<g id="clust1" class="cluster">
<title>cluster_OrdersManageModule</title>
<polygon fill="none" stroke="black" stroke-dasharray="1,5" points="8,-32.8 8,-157.8 656,-157.8 656,-32.8 8,-32.8"/>
</g>
<g id="clust2" class="cluster">
<title>cluster_OrdersManageModule_declarations</title>
<polygon fill="none" stroke="black" points="468,-40.8 468,-92.8 648,-92.8 648,-40.8 468,-40.8"/>
</g>
<g id="clust4" class="cluster">
<title>cluster_OrdersManageModule_imports</title>
<polygon fill="none" stroke="black" points="16,-40.8 16,-92.8 460,-92.8 460,-40.8 16,-40.8"/>
</g>
<!-- OrdersManageComponent -->
<g id="node1" class="node">
<title>OrdersManageComponent</title>
<polygon fill="#ffffb3" stroke="black" points="640.01,-84.8 475.99,-84.8 475.99,-48.8 640.01,-48.8 640.01,-84.8"/>
<text text-anchor="middle" x="558" y="-62.6" font-family="Times,serif" font-size="14.00">OrdersManageComponent</text>
</g>
<!-- OrdersManageModule -->
<g id="node2" class="node">
<title>OrdersManageModule</title>
<polygon fill="#8dd3c7" stroke="black" points="383.23,-149.8 380.23,-153.8 359.23,-153.8 356.23,-149.8 240.77,-149.8 240.77,-113.8 383.23,-113.8 383.23,-149.8"/>
<text text-anchor="middle" x="312" y="-127.6" font-family="Times,serif" font-size="14.00">OrdersManageModule</text>
</g>
<!-- OrdersManageComponent&#45;&gt;OrdersManageModule -->
<g id="edge1" class="edge">
<title>OrdersManageComponent&#45;&gt;OrdersManageModule</title>
<path fill="none" stroke="black" d="M558,-84.91C558,-104.14 558,-131.8 558,-131.8 558,-131.8 393.48,-131.8 393.48,-131.8"/>
<polygon fill="black" stroke="black" points="393.48,-128.3 383.48,-131.8 393.48,-135.3 393.48,-128.3"/>
</g>
<!-- CommonModule -->
<g id="node3" class="node">
<title>CommonModule</title>
<polygon fill="#8dd3c7" stroke="black" points="451.67,-84.8 448.67,-88.8 427.67,-88.8 424.67,-84.8 340.33,-84.8 340.33,-48.8 451.67,-48.8 451.67,-84.8"/>
<text text-anchor="middle" x="396" y="-62.6" font-family="Times,serif" font-size="14.00">CommonModule</text>
</g>
<!-- CommonModule&#45;&gt;OrdersManageModule -->
<g id="edge2" class="edge">
<title>CommonModule&#45;&gt;OrdersManageModule</title>
<path fill="none" stroke="black" d="M361.76,-84.91C361.76,-84.91 361.76,-103.79 361.76,-103.79"/>
<polygon fill="black" stroke="black" points="358.26,-103.79 361.76,-113.79 365.26,-103.79 358.26,-103.79"/>
</g>
<!-- OrdersManageRoutingModule -->
<g id="node4" class="node">
<title>OrdersManageRoutingModule</title>
<polygon fill="#8dd3c7" stroke="black" points="321.84,-84.8 318.84,-88.8 297.84,-88.8 294.84,-84.8 134.16,-84.8 134.16,-48.8 321.84,-48.8 321.84,-84.8"/>
<text text-anchor="middle" x="228" y="-62.6" font-family="Times,serif" font-size="14.00">OrdersManageRoutingModule</text>
</g>
<!-- OrdersManageRoutingModule&#45;&gt;OrdersManageModule -->
<g id="edge3" class="edge">
<title>OrdersManageRoutingModule&#45;&gt;OrdersManageModule</title>
<path fill="none" stroke="black" d="M281.28,-84.91C281.28,-84.91 281.28,-103.79 281.28,-103.79"/>
<polygon fill="black" stroke="black" points="277.78,-103.79 281.28,-113.79 284.78,-103.79 277.78,-103.79"/>
</g>
<!-- OrderModule -->
<g id="node5" class="node">
<title>OrderModule</title>
<polygon fill="#8dd3c7" stroke="black" points="116.19,-84.8 113.19,-88.8 92.19,-88.8 89.19,-84.8 23.81,-84.8 23.81,-48.8 116.19,-48.8 116.19,-84.8"/>
<text text-anchor="middle" x="70" y="-62.6" font-family="Times,serif" font-size="14.00">OrderModule</text>
</g>
<!-- OrderModule&#45;&gt;OrdersManageModule -->
<g id="edge4" class="edge">
<title>OrderModule&#45;&gt;OrdersManageModule</title>
<path fill="none" stroke="black" d="M70,-84.91C70,-104.14 70,-131.8 70,-131.8 70,-131.8 230.7,-131.8 230.7,-131.8"/>
<polygon fill="black" stroke="black" points="230.7,-135.3 240.7,-131.8 230.7,-128.3 230.7,-135.3"/>
</g>
</g>
</svg>
