<?xml version="1.0" encoding="UTF-8" standalone="no"?>
<!DOCTYPE svg PUBLIC "-//W3C//DTD SVG 1.1//EN"
 "http://www.w3.org/Graphics/SVG/1.1/DTD/svg11.dtd">
<!-- Generated by graphviz version 2.47.3 (20210619.1520)
 -->
<!-- Title: dependencies Pages: 1 -->
<svg width="672pt" height="174pt"
 viewBox="0.00 0.00 672.00 173.80" xmlns="http://www.w3.org/2000/svg" xmlns:xlink="http://www.w3.org/1999/xlink">
<g id="graph0" class="graph" transform="scale(1 1) rotate(0) translate(4 169.8)">
<title>dependencies</title>
<polygon fill="white" stroke="transparent" points="-4,4 -4,-169.8 668,-169.8 668,4 -4,4"/>
<text text-anchor="middle" x="332" y="-8.2" font-family="sans-serif" font-size="14.00">dependencies</text>
<g id="clust1" class="cluster">
<title>cluster_OrdersManageModule</title>
<polygon fill="none" stroke="black" stroke-dasharray="1,5" points="8,-32.8 8,-157.8 656,-157.8 656,-32.8 8,-32.8"/>
</g>
<g id="clust4" class="cluster">
<title>cluster_OrdersManageModule_imports</title>
<polygon fill="none" stroke="black" points="204,-40.8 204,-92.8 648,-92.8 648,-40.8 204,-40.8"/>
</g>
<g id="clust2" class="cluster">
<title>cluster_OrdersManageModule_declarations</title>
<polygon fill="none" stroke="black" points="16,-40.8 16,-92.8 196,-92.8 196,-40.8 16,-40.8"/>
</g>
<!-- OrdersManageComponent -->
<g id="node1" class="node">
<title>OrdersManageComponent</title>
<polygon fill="#ffffb3" stroke="black" points="188.01,-84.8 23.99,-84.8 23.99,-48.8 188.01,-48.8 188.01,-84.8"/>
<text text-anchor="middle" x="106" y="-62.6" font-family="Times,serif" font-size="14.00">OrdersManageComponent</text>
</g>
<!-- OrdersManageModule -->
<g id="node2" class="node">
<title>OrdersManageModule</title>
<polygon fill="#8dd3c7" stroke="black" points="408.23,-149.8 405.23,-153.8 384.23,-153.8 381.23,-149.8 265.77,-149.8 265.77,-113.8 408.23,-113.8 408.23,-149.8"/>
<text text-anchor="middle" x="337" y="-127.6" font-family="Times,serif" font-size="14.00">OrdersManageModule</text>
</g>
<!-- OrdersManageComponent&#45;&gt;OrdersManageModule -->
<g id="edge1" class="edge">
<title>OrdersManageComponent&#45;&gt;OrdersManageModule</title>
<path fill="none" stroke="black" d="M106,-84.91C106,-104.14 106,-131.8 106,-131.8 106,-131.8 255.49,-131.8 255.49,-131.8"/>
<polygon fill="black" stroke="black" points="255.49,-135.3 265.49,-131.8 255.49,-128.3 255.49,-135.3"/>
</g>
<!-- CommonModule -->
<g id="node3" class="node">
<title>CommonModule</title>
<polygon fill="#8dd3c7" stroke="black" points="639.67,-84.8 636.67,-88.8 615.67,-88.8 612.67,-84.8 528.33,-84.8 528.33,-48.8 639.67,-48.8 639.67,-84.8"/>
<text text-anchor="middle" x="584" y="-62.6" font-family="Times,serif" font-size="14.00">CommonModule</text>
</g>
<!-- CommonModule&#45;&gt;OrdersManageModule -->
<g id="edge2" class="edge">
<title>CommonModule&#45;&gt;OrdersManageModule</title>
<path fill="none" stroke="black" d="M584,-84.91C584,-104.14 584,-131.8 584,-131.8 584,-131.8 418.44,-131.8 418.44,-131.8"/>
<polygon fill="black" stroke="black" points="418.44,-128.3 408.44,-131.8 418.44,-135.3 418.44,-128.3"/>
</g>
<!-- OrdersManageRoutingModule -->
<g id="node4" class="node">
<title>OrdersManageRoutingModule</title>
<polygon fill="#8dd3c7" stroke="black" points="509.84,-84.8 506.84,-88.8 485.84,-88.8 482.84,-84.8 322.16,-84.8 322.16,-48.8 509.84,-48.8 509.84,-84.8"/>
<text text-anchor="middle" x="416" y="-62.6" font-family="Times,serif" font-size="14.00">OrdersManageRoutingModule</text>
</g>
<!-- OrdersManageRoutingModule&#45;&gt;OrdersManageModule -->
<g id="edge3" class="edge">
<title>OrdersManageRoutingModule&#45;&gt;OrdersManageModule</title>
<path fill="none" stroke="black" d="M365.22,-84.91C365.22,-84.91 365.22,-103.79 365.22,-103.79"/>
<polygon fill="black" stroke="black" points="361.72,-103.79 365.22,-113.79 368.72,-103.79 361.72,-103.79"/>
</g>
<!-- OrderModule -->
<g id="node5" class="node">
<title>OrderModule</title>
<polygon fill="#8dd3c7" stroke="black" points="304.19,-84.8 301.19,-88.8 280.19,-88.8 277.19,-84.8 211.81,-84.8 211.81,-48.8 304.19,-48.8 304.19,-84.8"/>
<text text-anchor="middle" x="258" y="-62.6" font-family="Times,serif" font-size="14.00">OrderModule</text>
</g>
<!-- OrderModule&#45;&gt;OrdersManageModule -->
<g id="edge4" class="edge">
<title>OrderModule&#45;&gt;OrdersManageModule</title>
<path fill="none" stroke="black" d="M284.87,-84.91C284.87,-84.91 284.87,-103.79 284.87,-103.79"/>
<polygon fill="black" stroke="black" points="281.37,-103.79 284.87,-113.79 288.37,-103.79 281.37,-103.79"/>
</g>
</g>
</svg>
