<?xml version="1.0" encoding="UTF-8" standalone="no"?>
<!DOCTYPE svg PUBLIC "-//W3C//DTD SVG 1.1//EN"
 "http://www.w3.org/Graphics/SVG/1.1/DTD/svg11.dtd">
<!-- Generated by graphviz version 2.47.3 (20210619.1520)
 -->
<!-- Title: dependencies Pages: 1 -->
<svg width="518pt" height="174pt"
 viewBox="0.00 0.00 518.00 173.80" xmlns="http://www.w3.org/2000/svg" xmlns:xlink="http://www.w3.org/1999/xlink">
<g id="graph0" class="graph" transform="scale(1 1) rotate(0) translate(4 169.8)">
<title>dependencies</title>
<polygon fill="white" stroke="transparent" points="-4,4 -4,-169.8 514,-169.8 514,4 -4,4"/>
<text text-anchor="middle" x="255" y="-8.2" font-family="sans-serif" font-size="14.00">dependencies</text>
<g id="clust1" class="cluster">
<title>cluster_HomePageModule</title>
<polygon fill="none" stroke="black" stroke-dasharray="1,5" points="8,-32.8 8,-157.8 502,-157.8 502,-32.8 8,-32.8"/>
</g>
<g id="clust4" class="cluster">
<title>cluster_HomePageModule_imports</title>
<polygon fill="none" stroke="black" points="182,-40.8 182,-92.8 494,-92.8 494,-40.8 182,-40.8"/>
</g>
<g id="clust2" class="cluster">
<title>cluster_HomePageModule_declarations</title>
<polygon fill="none" stroke="black" points="16,-40.8 16,-92.8 174,-92.8 174,-40.8 16,-40.8"/>
</g>
<!-- HomePageComponent -->
<g id="node1" class="node">
<title>HomePageComponent</title>
<polygon fill="#ffffb3" stroke="black" points="166.26,-84.8 23.74,-84.8 23.74,-48.8 166.26,-48.8 166.26,-84.8"/>
<text text-anchor="middle" x="95" y="-62.6" font-family="Times,serif" font-size="14.00">HomePageComponent</text>
</g>
<!-- HomePageModule -->
<g id="node2" class="node">
<title>HomePageModule</title>
<polygon fill="#8dd3c7" stroke="black" points="333.47,-149.8 330.47,-153.8 309.47,-153.8 306.47,-149.8 212.53,-149.8 212.53,-113.8 333.47,-113.8 333.47,-149.8"/>
<text text-anchor="middle" x="273" y="-127.6" font-family="Times,serif" font-size="14.00">HomePageModule</text>
</g>
<!-- HomePageComponent&#45;&gt;HomePageModule -->
<g id="edge1" class="edge">
<title>HomePageComponent&#45;&gt;HomePageModule</title>
<path fill="none" stroke="black" d="M95,-84.91C95,-104.14 95,-131.8 95,-131.8 95,-131.8 202.24,-131.8 202.24,-131.8"/>
<polygon fill="black" stroke="black" points="202.24,-135.3 212.24,-131.8 202.24,-128.3 202.24,-135.3"/>
</g>
<!-- CommonModule -->
<g id="node3" class="node">
<title>CommonModule</title>
<polygon fill="#8dd3c7" stroke="black" points="485.67,-84.8 482.67,-88.8 461.67,-88.8 458.67,-84.8 374.33,-84.8 374.33,-48.8 485.67,-48.8 485.67,-84.8"/>
<text text-anchor="middle" x="430" y="-62.6" font-family="Times,serif" font-size="14.00">CommonModule</text>
</g>
<!-- CommonModule&#45;&gt;HomePageModule -->
<g id="edge2" class="edge">
<title>CommonModule&#45;&gt;HomePageModule</title>
<path fill="none" stroke="black" d="M430,-84.91C430,-104.14 430,-131.8 430,-131.8 430,-131.8 343.7,-131.8 343.7,-131.8"/>
<polygon fill="black" stroke="black" points="343.7,-128.3 333.7,-131.8 343.7,-135.3 343.7,-128.3"/>
</g>
<!-- HomePageRoutingModule -->
<g id="node4" class="node">
<title>HomePageRoutingModule</title>
<polygon fill="#8dd3c7" stroke="black" points="356.09,-84.8 353.09,-88.8 332.09,-88.8 329.09,-84.8 189.91,-84.8 189.91,-48.8 356.09,-48.8 356.09,-84.8"/>
<text text-anchor="middle" x="273" y="-62.6" font-family="Times,serif" font-size="14.00">HomePageRoutingModule</text>
</g>
<!-- HomePageRoutingModule&#45;&gt;HomePageModule -->
<g id="edge3" class="edge">
<title>HomePageRoutingModule&#45;&gt;HomePageModule</title>
<path fill="none" stroke="black" d="M273,-84.91C273,-84.91 273,-103.79 273,-103.79"/>
<polygon fill="black" stroke="black" points="269.5,-103.79 273,-113.79 276.5,-103.79 269.5,-103.79"/>
</g>
</g>
</svg>
