<?xml version="1.0" encoding="UTF-8" standalone="no"?>
<!DOCTYPE svg PUBLIC "-//W3C//DTD SVG 1.1//EN"
 "http://www.w3.org/Graphics/SVG/1.1/DTD/svg11.dtd">
<!-- Generated by graphviz version 2.47.3 (20210619.1520)
 -->
<!-- Title: dependencies Pages: 1 -->
<svg width="518pt" height="174pt"
 viewBox="0.00 0.00 518.00 173.80" xmlns="http://www.w3.org/2000/svg" xmlns:xlink="http://www.w3.org/1999/xlink">
<g id="graph0" class="graph" transform="scale(1 1) rotate(0) translate(4 169.8)">
<title>dependencies</title>
<polygon fill="white" stroke="transparent" points="-4,4 -4,-169.8 514,-169.8 514,4 -4,4"/>
<text text-anchor="middle" x="255" y="-8.2" font-family="sans-serif" font-size="14.00">dependencies</text>
<g id="clust1" class="cluster">
<title>cluster_HomePageModule</title>
<polygon fill="none" stroke="black" stroke-dasharray="1,5" points="8,-32.8 8,-157.8 502,-157.8 502,-32.8 8,-32.8"/>
</g>
<g id="clust2" class="cluster">
<title>cluster_HomePageModule_declarations</title>
<polygon fill="none" stroke="black" points="336,-40.8 336,-92.8 494,-92.8 494,-40.8 336,-40.8"/>
</g>
<g id="clust4" class="cluster">
<title>cluster_HomePageModule_imports</title>
<polygon fill="none" stroke="black" points="16,-40.8 16,-92.8 328,-92.8 328,-40.8 16,-40.8"/>
</g>
<!-- HomePageComponent -->
<g id="node1" class="node">
<title>HomePageComponent</title>
<polygon fill="#ffffb3" stroke="black" points="486.26,-84.8 343.74,-84.8 343.74,-48.8 486.26,-48.8 486.26,-84.8"/>
<text text-anchor="middle" x="415" y="-62.6" font-family="Times,serif" font-size="14.00">HomePageComponent</text>
</g>
<!-- HomePageModule -->
<g id="node2" class="node">
<title>HomePageModule</title>
<polygon fill="#8dd3c7" stroke="black" points="324.47,-149.8 321.47,-153.8 300.47,-153.8 297.47,-149.8 203.53,-149.8 203.53,-113.8 324.47,-113.8 324.47,-149.8"/>
<text text-anchor="middle" x="264" y="-127.6" font-family="Times,serif" font-size="14.00">HomePageModule</text>
</g>
<!-- HomePageComponent&#45;&gt;HomePageModule -->
<g id="edge1" class="edge">
<title>HomePageComponent&#45;&gt;HomePageModule</title>
<path fill="none" stroke="black" d="M415,-84.91C415,-104.14 415,-131.8 415,-131.8 415,-131.8 334.55,-131.8 334.55,-131.8"/>
<polygon fill="black" stroke="black" points="334.55,-128.3 324.55,-131.8 334.55,-135.3 334.55,-128.3"/>
</g>
<!-- CommonModule -->
<g id="node3" class="node">
<title>CommonModule</title>
<polygon fill="#8dd3c7" stroke="black" points="319.67,-84.8 316.67,-88.8 295.67,-88.8 292.67,-84.8 208.33,-84.8 208.33,-48.8 319.67,-48.8 319.67,-84.8"/>
<text text-anchor="middle" x="264" y="-62.6" font-family="Times,serif" font-size="14.00">CommonModule</text>
</g>
<!-- CommonModule&#45;&gt;HomePageModule -->
<g id="edge2" class="edge">
<title>CommonModule&#45;&gt;HomePageModule</title>
<path fill="none" stroke="black" d="M264,-84.91C264,-84.91 264,-103.79 264,-103.79"/>
<polygon fill="black" stroke="black" points="260.5,-103.79 264,-113.79 267.5,-103.79 260.5,-103.79"/>
</g>
<!-- HomePageRoutingModule -->
<g id="node4" class="node">
<title>HomePageRoutingModule</title>
<polygon fill="#8dd3c7" stroke="black" points="190.09,-84.8 187.09,-88.8 166.09,-88.8 163.09,-84.8 23.91,-84.8 23.91,-48.8 190.09,-48.8 190.09,-84.8"/>
<text text-anchor="middle" x="107" y="-62.6" font-family="Times,serif" font-size="14.00">HomePageRoutingModule</text>
</g>
<!-- HomePageRoutingModule&#45;&gt;HomePageModule -->
<g id="edge3" class="edge">
<title>HomePageRoutingModule&#45;&gt;HomePageModule</title>
<path fill="none" stroke="black" d="M107,-84.91C107,-104.14 107,-131.8 107,-131.8 107,-131.8 193.3,-131.8 193.3,-131.8"/>
<polygon fill="black" stroke="black" points="193.3,-135.3 203.3,-131.8 193.3,-128.3 193.3,-135.3"/>
</g>
</g>
</svg>
