<?xml version="1.0" encoding="UTF-8" standalone="no"?>
<!DOCTYPE svg PUBLIC "-//W3C//DTD SVG 1.1//EN"
 "http://www.w3.org/Graphics/SVG/1.1/DTD/svg11.dtd">
<!-- Generated by graphviz version 2.47.3 (20210619.1520)
 -->
<!-- Title: dependencies Pages: 1 -->
<svg width="362pt" height="174pt"
 viewBox="0.00 0.00 362.00 173.80" xmlns="http://www.w3.org/2000/svg" xmlns:xlink="http://www.w3.org/1999/xlink">
<g id="graph0" class="graph" transform="scale(1 1) rotate(0) translate(4 169.8)">
<title>dependencies</title>
<polygon fill="white" stroke="transparent" points="-4,4 -4,-169.8 358,-169.8 358,4 -4,4"/>
<text text-anchor="middle" x="177" y="-8.2" font-family="sans-serif" font-size="14.00">dependencies</text>
<g id="clust1" class="cluster">
<title>cluster_AdminPagesModule</title>
<polygon fill="none" stroke="black" stroke-dasharray="1,5" points="8,-32.8 8,-157.8 346,-157.8 346,-32.8 8,-32.8"/>
</g>
<g id="clust3" class="cluster">
<title>cluster_AdminPagesModule_imports</title>
<polygon fill="none" stroke="black" points="16,-40.8 16,-92.8 338,-92.8 338,-40.8 16,-40.8"/>
</g>
<!-- CommonModule -->
<g id="node1" class="node">
<title>CommonModule</title>
<polygon fill="#8dd3c7" stroke="black" points="329.67,-84.8 326.67,-88.8 305.67,-88.8 302.67,-84.8 218.33,-84.8 218.33,-48.8 329.67,-48.8 329.67,-84.8"/>
<text text-anchor="middle" x="274" y="-62.6" font-family="Times,serif" font-size="14.00">CommonModule</text>
</g>
<!-- AdminPagesModule -->
<g id="node3" class="node">
<title>AdminPagesModule</title>
<polygon fill="#8dd3c7" stroke="black" points="257.59,-149.8 254.59,-153.8 233.59,-153.8 230.59,-149.8 126.41,-149.8 126.41,-113.8 257.59,-113.8 257.59,-149.8"/>
<text text-anchor="middle" x="192" y="-127.6" font-family="Times,serif" font-size="14.00">AdminPagesModule</text>
</g>
<!-- CommonModule&#45;&gt;AdminPagesModule -->
<g id="edge1" class="edge">
<title>CommonModule&#45;&gt;AdminPagesModule</title>
<path fill="none" stroke="black" d="M237.86,-84.91C237.86,-84.91 237.86,-103.79 237.86,-103.79"/>
<polygon fill="black" stroke="black" points="234.36,-103.79 237.86,-113.79 241.36,-103.79 234.36,-103.79"/>
</g>
<!-- AdminPagesRoutingModule -->
<g id="node2" class="node">
<title>AdminPagesRoutingModule</title>
<polygon fill="#8dd3c7" stroke="black" points="200.21,-84.8 197.21,-88.8 176.21,-88.8 173.21,-84.8 23.79,-84.8 23.79,-48.8 200.21,-48.8 200.21,-84.8"/>
<text text-anchor="middle" x="112" y="-62.6" font-family="Times,serif" font-size="14.00">AdminPagesRoutingModule</text>
</g>
<!-- AdminPagesRoutingModule&#45;&gt;AdminPagesModule -->
<g id="edge2" class="edge">
<title>AdminPagesRoutingModule&#45;&gt;AdminPagesModule</title>
<path fill="none" stroke="black" d="M163.28,-84.91C163.28,-84.91 163.28,-103.79 163.28,-103.79"/>
<polygon fill="black" stroke="black" points="159.78,-103.79 163.28,-113.79 166.78,-103.79 159.78,-103.79"/>
</g>
</g>
</svg>
