<?xml version="1.0" encoding="UTF-8" standalone="no"?>
<!DOCTYPE svg PUBLIC "-//W3C//DTD SVG 1.1//EN"
 "http://www.w3.org/Graphics/SVG/1.1/DTD/svg11.dtd">
<!-- Generated by graphviz version 2.47.3 (20210619.1520)
 -->
<!-- Title: dependencies Pages: 1 -->
<svg width="1608pt" height="247pt"
 viewBox="0.00 0.00 1608.00 246.80" xmlns="http://www.w3.org/2000/svg" xmlns:xlink="http://www.w3.org/1999/xlink">
<g id="graph0" class="graph" transform="scale(1 1) rotate(0) translate(4 242.8)">
<title>dependencies</title>
<polygon fill="white" stroke="transparent" points="-4,4 -4,-242.8 1604,-242.8 1604,4 -4,4"/>
<text text-anchor="middle" x="800" y="-8.2" font-family="sans-serif" font-size="14.00">dependencies</text>
<g id="clust1" class="cluster">
<title>cluster_LayoutModule</title>
<polygon fill="none" stroke="black" stroke-dasharray="1,5" points="8,-32.8 8,-230.8 1592,-230.8 1592,-32.8 8,-32.8"/>
</g>
<g id="clust2" class="cluster">
<title>cluster_LayoutModule_declarations</title>
<polygon fill="none" stroke="black" points="268,-40.8 268,-92.8 1584,-92.8 1584,-40.8 268,-40.8"/>
</g>
<g id="clust11" class="cluster">
<title>cluster_LayoutModule_exports</title>
<polygon fill="none" stroke="black" points="641,-170.8 641,-222.8 793,-222.8 793,-170.8 641,-170.8"/>
</g>
<g id="clust10" class="cluster">
<title>cluster_LayoutModule_imports</title>
<polygon fill="none" stroke="black" points="16,-40.8 16,-92.8 260,-92.8 260,-40.8 16,-40.8"/>
</g>
<!-- StructureComponent -->
<g id="node1" class="node">
<title>StructureComponent</title>
<polygon fill="#ffffb3" stroke="black" points="1576.15,-84.8 1443.85,-84.8 1443.85,-48.8 1576.15,-48.8 1576.15,-84.8"/>
<text text-anchor="middle" x="1510" y="-62.6" font-family="Times,serif" font-size="14.00">StructureComponent</text>
</g>
<!-- LayoutModule -->
<g id="node8" class="node">
<title>LayoutModule</title>
<polygon fill="#8dd3c7" stroke="black" points="766.71,-149.8 763.71,-153.8 742.71,-153.8 739.71,-149.8 667.29,-149.8 667.29,-113.8 766.71,-113.8 766.71,-149.8"/>
<text text-anchor="middle" x="717" y="-127.6" font-family="Times,serif" font-size="14.00">LayoutModule</text>
</g>
<!-- StructureComponent&#45;&gt;LayoutModule -->
<g id="edge1" class="edge">
<title>StructureComponent&#45;&gt;LayoutModule</title>
<path fill="none" stroke="black" d="M1510,-84.81C1510,-107.29 1510,-142.8 1510,-142.8 1510,-142.8 776.61,-142.8 776.61,-142.8"/>
<polygon fill="black" stroke="black" points="776.61,-139.3 766.61,-142.8 776.61,-146.3 776.61,-139.3"/>
</g>
<!-- MobileMenuComponent -->
<g id="node2" class="node">
<title>MobileMenuComponent</title>
<polygon fill="#ffffb3" stroke="black" points="1425.43,-84.8 1270.57,-84.8 1270.57,-48.8 1425.43,-48.8 1425.43,-84.8"/>
<text text-anchor="middle" x="1348" y="-62.6" font-family="Times,serif" font-size="14.00">MobileMenuComponent</text>
</g>
<!-- MobileMenuComponent&#45;&gt;LayoutModule -->
<g id="edge2" class="edge">
<title>MobileMenuComponent&#45;&gt;LayoutModule</title>
<path fill="none" stroke="black" d="M1348,-84.93C1348,-105.37 1348,-135.8 1348,-135.8 1348,-135.8 776.78,-135.8 776.78,-135.8"/>
<polygon fill="black" stroke="black" points="776.78,-132.3 766.78,-135.8 776.78,-139.3 776.78,-132.3"/>
</g>
<!-- MobileMenuOpenBtnComponent -->
<g id="node3" class="node">
<title>MobileMenuOpenBtnComponent</title>
<polygon fill="#ffffb3" stroke="black" points="1252.48,-84.8 1047.52,-84.8 1047.52,-48.8 1252.48,-48.8 1252.48,-84.8"/>
<text text-anchor="middle" x="1150" y="-62.6" font-family="Times,serif" font-size="14.00">MobileMenuOpenBtnComponent</text>
</g>
<!-- MobileMenuOpenBtnComponent&#45;&gt;LayoutModule -->
<g id="edge3" class="edge">
<title>MobileMenuOpenBtnComponent&#45;&gt;LayoutModule</title>
<path fill="none" stroke="black" d="M1150,-85.07C1150,-103.36 1150,-128.8 1150,-128.8 1150,-128.8 776.67,-128.8 776.67,-128.8"/>
<polygon fill="black" stroke="black" points="776.67,-125.3 766.67,-128.8 776.67,-132.3 776.67,-125.3"/>
</g>
<!-- MobileMenuCloseBtnComponent -->
<g id="node4" class="node">
<title>MobileMenuCloseBtnComponent</title>
<polygon fill="#ffffb3" stroke="black" points="1029.05,-84.8 822.95,-84.8 822.95,-48.8 1029.05,-48.8 1029.05,-84.8"/>
<text text-anchor="middle" x="926" y="-62.6" font-family="Times,serif" font-size="14.00">MobileMenuCloseBtnComponent</text>
</g>
<!-- MobileMenuCloseBtnComponent&#45;&gt;LayoutModule -->
<g id="edge4" class="edge">
<title>MobileMenuCloseBtnComponent&#45;&gt;LayoutModule</title>
<path fill="none" stroke="black" d="M926,-84.81C926,-100.85 926,-121.8 926,-121.8 926,-121.8 776.8,-121.8 776.8,-121.8"/>
<polygon fill="black" stroke="black" points="776.8,-118.3 766.8,-121.8 776.8,-125.3 776.8,-118.3"/>
</g>
<!-- MenFlyoutMenuComponent -->
<g id="node5" class="node">
<title>MenFlyoutMenuComponent</title>
<polygon fill="#ffffb3" stroke="black" points="805.21,-84.8 628.79,-84.8 628.79,-48.8 805.21,-48.8 805.21,-84.8"/>
<text text-anchor="middle" x="717" y="-62.6" font-family="Times,serif" font-size="14.00">MenFlyoutMenuComponent</text>
</g>
<!-- MenFlyoutMenuComponent&#45;&gt;LayoutModule -->
<g id="edge5" class="edge">
<title>MenFlyoutMenuComponent&#45;&gt;LayoutModule</title>
<path fill="none" stroke="black" d="M717,-84.91C717,-84.91 717,-103.79 717,-103.79"/>
<polygon fill="black" stroke="black" points="713.5,-103.79 717,-113.79 720.5,-103.79 713.5,-103.79"/>
</g>
<!-- WomenFlyoutMenuComponent -->
<g id="node6" class="node">
<title>WomenFlyoutMenuComponent</title>
<polygon fill="#ffffb3" stroke="black" points="610.38,-84.8 415.62,-84.8 415.62,-48.8 610.38,-48.8 610.38,-84.8"/>
<text text-anchor="middle" x="513" y="-62.6" font-family="Times,serif" font-size="14.00">WomenFlyoutMenuComponent</text>
</g>
<!-- WomenFlyoutMenuComponent&#45;&gt;LayoutModule -->
<g id="edge6" class="edge">
<title>WomenFlyoutMenuComponent&#45;&gt;LayoutModule</title>
<path fill="none" stroke="black" d="M513,-84.81C513,-100.85 513,-121.8 513,-121.8 513,-121.8 657.36,-121.8 657.36,-121.8"/>
<polygon fill="black" stroke="black" points="657.36,-125.3 667.36,-121.8 657.36,-118.3 657.36,-125.3"/>
</g>
<!-- BannerComponent -->
<g id="node7" class="node">
<title>BannerComponent</title>
<polygon fill="#ffffb3" stroke="black" points="397.76,-84.8 276.24,-84.8 276.24,-48.8 397.76,-48.8 397.76,-84.8"/>
<text text-anchor="middle" x="337" y="-62.6" font-family="Times,serif" font-size="14.00">BannerComponent</text>
</g>
<!-- BannerComponent&#45;&gt;LayoutModule -->
<g id="edge7" class="edge">
<title>BannerComponent&#45;&gt;LayoutModule</title>
<path fill="none" stroke="black" d="M337,-85.07C337,-103.36 337,-128.8 337,-128.8 337,-128.8 657.32,-128.8 657.32,-128.8"/>
<polygon fill="black" stroke="black" points="657.32,-132.3 667.32,-128.8 657.32,-125.3 657.32,-132.3"/>
</g>
<!-- StructureComponent  -->
<g id="node11" class="node">
<title>StructureComponent </title>
<polygon fill="#fb8072" stroke="black" points="785.15,-214.8 648.85,-214.8 648.85,-178.8 785.15,-178.8 785.15,-214.8"/>
<text text-anchor="middle" x="717" y="-192.6" font-family="Times,serif" font-size="14.00">StructureComponent </text>
</g>
<!-- LayoutModule&#45;&gt;StructureComponent  -->
<g id="edge10" class="edge">
<title>LayoutModule&#45;&gt;StructureComponent </title>
<path fill="none" stroke="black" stroke-dasharray="5,2" d="M717,-149.91C717,-149.91 717,-168.79 717,-168.79"/>
<polygon fill="black" stroke="black" points="713.5,-168.79 717,-178.79 720.5,-168.79 713.5,-168.79"/>
</g>
<!-- CommonModule -->
<g id="node9" class="node">
<title>CommonModule</title>
<polygon fill="#8dd3c7" stroke="black" points="251.67,-84.8 248.67,-88.8 227.67,-88.8 224.67,-84.8 140.33,-84.8 140.33,-48.8 251.67,-48.8 251.67,-84.8"/>
<text text-anchor="middle" x="196" y="-62.6" font-family="Times,serif" font-size="14.00">CommonModule</text>
</g>
<!-- CommonModule&#45;&gt;LayoutModule -->
<g id="edge8" class="edge">
<title>CommonModule&#45;&gt;LayoutModule</title>
<path fill="none" stroke="black" d="M196,-84.93C196,-105.37 196,-135.8 196,-135.8 196,-135.8 657.04,-135.8 657.04,-135.8"/>
<polygon fill="black" stroke="black" points="657.04,-139.3 667.04,-135.8 657.04,-132.3 657.04,-139.3"/>
</g>
<!-- RouterModule -->
<g id="node10" class="node">
<title>RouterModule</title>
<polygon fill="#8dd3c7" stroke="black" points="121.65,-84.8 118.65,-88.8 97.65,-88.8 94.65,-84.8 24.35,-84.8 24.35,-48.8 121.65,-48.8 121.65,-84.8"/>
<text text-anchor="middle" x="73" y="-62.6" font-family="Times,serif" font-size="14.00">RouterModule</text>
</g>
<!-- RouterModule&#45;&gt;LayoutModule -->
<g id="edge9" class="edge">
<title>RouterModule&#45;&gt;LayoutModule</title>
<path fill="none" stroke="black" d="M73,-84.81C73,-107.29 73,-142.8 73,-142.8 73,-142.8 657.27,-142.8 657.27,-142.8"/>
<polygon fill="black" stroke="black" points="657.27,-146.3 667.27,-142.8 657.27,-139.3 657.27,-146.3"/>
</g>
</g>
</svg>
