<?xml version="1.0" encoding="UTF-8" standalone="no"?>
<!DOCTYPE svg PUBLIC "-//W3C//DTD SVG 1.1//EN"
 "http://www.w3.org/Graphics/SVG/1.1/DTD/svg11.dtd">
<!-- Generated by graphviz version 2.47.3 (20210619.1520)
 -->
<!-- Title: dependencies Pages: 1 -->
<svg width="1352pt" height="247pt"
 viewBox="0.00 0.00 1352.00 246.80" xmlns="http://www.w3.org/2000/svg" xmlns:xlink="http://www.w3.org/1999/xlink">
<g id="graph0" class="graph" transform="scale(1 1) rotate(0) translate(4 242.8)">
<title>dependencies</title>
<polygon fill="white" stroke="transparent" points="-4,4 -4,-242.8 1348,-242.8 1348,4 -4,4"/>
<text text-anchor="middle" x="672" y="-8.2" font-family="sans-serif" font-size="14.00">dependencies</text>
<g id="clust1" class="cluster">
<title>cluster_LayoutModule</title>
<polygon fill="none" stroke="black" stroke-dasharray="1,5" points="8,-32.8 8,-230.8 1336,-230.8 1336,-32.8 8,-32.8"/>
</g>
<g id="clust10" class="cluster">
<title>cluster_LayoutModule_exports</title>
<polygon fill="none" stroke="black" points="594,-170.8 594,-222.8 746,-222.8 746,-170.8 594,-170.8"/>
</g>
<g id="clust2" class="cluster">
<title>cluster_LayoutModule_declarations</title>
<polygon fill="none" stroke="black" points="152,-40.8 152,-92.8 1328,-92.8 1328,-40.8 152,-40.8"/>
</g>
<g id="clust9" class="cluster">
<title>cluster_LayoutModule_imports</title>
<polygon fill="none" stroke="black" points="16,-40.8 16,-92.8 144,-92.8 144,-40.8 16,-40.8"/>
</g>
<!-- StructureComponent -->
<g id="node1" class="node">
<title>StructureComponent</title>
<polygon fill="#ffffb3" stroke="black" points="1320.15,-84.8 1187.85,-84.8 1187.85,-48.8 1320.15,-48.8 1320.15,-84.8"/>
<text text-anchor="middle" x="1254" y="-62.6" font-family="Times,serif" font-size="14.00">StructureComponent</text>
</g>
<!-- LayoutModule -->
<g id="node7" class="node">
<title>LayoutModule</title>
<polygon fill="#8dd3c7" stroke="black" points="719.71,-149.8 716.71,-153.8 695.71,-153.8 692.71,-149.8 620.29,-149.8 620.29,-113.8 719.71,-113.8 719.71,-149.8"/>
<text text-anchor="middle" x="670" y="-127.6" font-family="Times,serif" font-size="14.00">LayoutModule</text>
</g>
<!-- StructureComponent&#45;&gt;LayoutModule -->
<g id="edge1" class="edge">
<title>StructureComponent&#45;&gt;LayoutModule</title>
<path fill="none" stroke="black" d="M1254,-85.09C1254,-107.01 1254,-140.8 1254,-140.8 1254,-140.8 729.79,-140.8 729.79,-140.8"/>
<polygon fill="black" stroke="black" points="729.79,-137.3 719.79,-140.8 729.79,-144.3 729.79,-137.3"/>
</g>
<!-- MobileMenuComponent -->
<g id="node2" class="node">
<title>MobileMenuComponent</title>
<polygon fill="#ffffb3" stroke="black" points="1169.43,-84.8 1014.57,-84.8 1014.57,-48.8 1169.43,-48.8 1169.43,-84.8"/>
<text text-anchor="middle" x="1092" y="-62.6" font-family="Times,serif" font-size="14.00">MobileMenuComponent</text>
</g>
<!-- MobileMenuComponent&#45;&gt;LayoutModule -->
<g id="edge2" class="edge">
<title>MobileMenuComponent&#45;&gt;LayoutModule</title>
<path fill="none" stroke="black" d="M1092,-84.91C1092,-104.14 1092,-131.8 1092,-131.8 1092,-131.8 729.65,-131.8 729.65,-131.8"/>
<polygon fill="black" stroke="black" points="729.65,-128.3 719.65,-131.8 729.65,-135.3 729.65,-128.3"/>
</g>
<!-- MobileMenuOpenBtnComponent -->
<g id="node3" class="node">
<title>MobileMenuOpenBtnComponent</title>
<polygon fill="#ffffb3" stroke="black" points="996.48,-84.8 791.52,-84.8 791.52,-48.8 996.48,-48.8 996.48,-84.8"/>
<text text-anchor="middle" x="894" y="-62.6" font-family="Times,serif" font-size="14.00">MobileMenuOpenBtnComponent</text>
</g>
<!-- MobileMenuOpenBtnComponent&#45;&gt;LayoutModule -->
<g id="edge3" class="edge">
<title>MobileMenuOpenBtnComponent&#45;&gt;LayoutModule</title>
<path fill="none" stroke="black" d="M894,-84.83C894,-101.2 894,-122.8 894,-122.8 894,-122.8 729.71,-122.8 729.71,-122.8"/>
<polygon fill="black" stroke="black" points="729.71,-119.3 719.71,-122.8 729.71,-126.3 729.71,-119.3"/>
</g>
<!-- MobileMenuCloseBtnComponent -->
<g id="node4" class="node">
<title>MobileMenuCloseBtnComponent</title>
<polygon fill="#ffffb3" stroke="black" points="773.05,-84.8 566.95,-84.8 566.95,-48.8 773.05,-48.8 773.05,-84.8"/>
<text text-anchor="middle" x="670" y="-62.6" font-family="Times,serif" font-size="14.00">MobileMenuCloseBtnComponent</text>
</g>
<!-- MobileMenuCloseBtnComponent&#45;&gt;LayoutModule -->
<g id="edge4" class="edge">
<title>MobileMenuCloseBtnComponent&#45;&gt;LayoutModule</title>
<path fill="none" stroke="black" d="M670,-84.91C670,-84.91 670,-103.79 670,-103.79"/>
<polygon fill="black" stroke="black" points="666.5,-103.79 670,-113.79 673.5,-103.79 666.5,-103.79"/>
</g>
<!-- MenFlyoutMenuComponent -->
<g id="node5" class="node">
<title>MenFlyoutMenuComponent</title>
<polygon fill="#ffffb3" stroke="black" points="549.21,-84.8 372.79,-84.8 372.79,-48.8 549.21,-48.8 549.21,-84.8"/>
<text text-anchor="middle" x="461" y="-62.6" font-family="Times,serif" font-size="14.00">MenFlyoutMenuComponent</text>
</g>
<!-- MenFlyoutMenuComponent&#45;&gt;LayoutModule -->
<g id="edge5" class="edge">
<title>MenFlyoutMenuComponent&#45;&gt;LayoutModule</title>
<path fill="none" stroke="black" d="M461,-84.83C461,-101.2 461,-122.8 461,-122.8 461,-122.8 610.2,-122.8 610.2,-122.8"/>
<polygon fill="black" stroke="black" points="610.2,-126.3 620.2,-122.8 610.2,-119.3 610.2,-126.3"/>
</g>
<!-- WomenFlyoutMenuComponent -->
<g id="node6" class="node">
<title>WomenFlyoutMenuComponent</title>
<polygon fill="#ffffb3" stroke="black" points="354.38,-84.8 159.62,-84.8 159.62,-48.8 354.38,-48.8 354.38,-84.8"/>
<text text-anchor="middle" x="257" y="-62.6" font-family="Times,serif" font-size="14.00">WomenFlyoutMenuComponent</text>
</g>
<!-- WomenFlyoutMenuComponent&#45;&gt;LayoutModule -->
<g id="edge6" class="edge">
<title>WomenFlyoutMenuComponent&#45;&gt;LayoutModule</title>
<path fill="none" stroke="black" d="M257,-84.91C257,-104.14 257,-131.8 257,-131.8 257,-131.8 610.18,-131.8 610.18,-131.8"/>
<polygon fill="black" stroke="black" points="610.18,-135.3 620.18,-131.8 610.18,-128.3 610.18,-135.3"/>
</g>
<!-- StructureComponent  -->
<g id="node9" class="node">
<title>StructureComponent </title>
<polygon fill="#fb8072" stroke="black" points="738.15,-214.8 601.85,-214.8 601.85,-178.8 738.15,-178.8 738.15,-214.8"/>
<text text-anchor="middle" x="670" y="-192.6" font-family="Times,serif" font-size="14.00">StructureComponent </text>
</g>
<!-- LayoutModule&#45;&gt;StructureComponent  -->
<g id="edge8" class="edge">
<title>LayoutModule&#45;&gt;StructureComponent </title>
<path fill="none" stroke="black" stroke-dasharray="5,2" d="M670,-149.91C670,-149.91 670,-168.79 670,-168.79"/>
<polygon fill="black" stroke="black" points="666.5,-168.79 670,-178.79 673.5,-168.79 666.5,-168.79"/>
</g>
<!-- CommonModule -->
<g id="node8" class="node">
<title>CommonModule</title>
<polygon fill="#8dd3c7" stroke="black" points="135.67,-84.8 132.67,-88.8 111.67,-88.8 108.67,-84.8 24.33,-84.8 24.33,-48.8 135.67,-48.8 135.67,-84.8"/>
<text text-anchor="middle" x="80" y="-62.6" font-family="Times,serif" font-size="14.00">CommonModule</text>
</g>
<!-- CommonModule&#45;&gt;LayoutModule -->
<g id="edge7" class="edge">
<title>CommonModule&#45;&gt;LayoutModule</title>
<path fill="none" stroke="black" d="M80,-85.09C80,-107.01 80,-140.8 80,-140.8 80,-140.8 610.21,-140.8 610.21,-140.8"/>
<polygon fill="black" stroke="black" points="610.21,-144.3 620.21,-140.8 610.21,-137.3 610.21,-144.3"/>
</g>
</g>
</svg>
