<?xml version="1.0" encoding="UTF-8" standalone="no"?>
<!DOCTYPE svg PUBLIC "-//W3C//DTD SVG 1.1//EN"
 "http://www.w3.org/Graphics/SVG/1.1/DTD/svg11.dtd">
<!-- Generated by graphviz version 2.47.3 (20210619.1520)
 -->
<!-- Title: dependencies Pages: 1 -->
<svg width="816pt" height="174pt"
 viewBox="0.00 0.00 816.00 173.80" xmlns="http://www.w3.org/2000/svg" xmlns:xlink="http://www.w3.org/1999/xlink">
<g id="graph0" class="graph" transform="scale(1 1) rotate(0) translate(4 169.8)">
<title>dependencies</title>
<polygon fill="white" stroke="transparent" points="-4,4 -4,-169.8 812,-169.8 812,4 -4,4"/>
<text text-anchor="middle" x="404" y="-8.2" font-family="sans-serif" font-size="14.00">dependencies</text>
<g id="clust1" class="cluster">
<title>cluster_EditProductModule</title>
<polygon fill="none" stroke="black" stroke-dasharray="1,5" points="8,-32.8 8,-157.8 800,-157.8 800,-32.8 8,-32.8"/>
</g>
<g id="clust4" class="cluster">
<title>cluster_EditProductModule_imports</title>
<polygon fill="none" stroke="black" points="188,-40.8 188,-92.8 792,-92.8 792,-40.8 188,-40.8"/>
</g>
<g id="clust2" class="cluster">
<title>cluster_EditProductModule_declarations</title>
<polygon fill="none" stroke="black" points="16,-40.8 16,-92.8 180,-92.8 180,-40.8 16,-40.8"/>
</g>
<!-- EditProductComponent -->
<g id="node1" class="node">
<title>EditProductComponent</title>
<polygon fill="#ffffb3" stroke="black" points="172.21,-84.8 23.79,-84.8 23.79,-48.8 172.21,-48.8 172.21,-84.8"/>
<text text-anchor="middle" x="98" y="-62.6" font-family="Times,serif" font-size="14.00">EditProductComponent</text>
</g>
<!-- EditProductModule -->
<g id="node2" class="node">
<title>EditProductModule</title>
<polygon fill="#8dd3c7" stroke="black" points="476.43,-149.8 473.43,-153.8 452.43,-153.8 449.43,-149.8 349.57,-149.8 349.57,-113.8 476.43,-113.8 476.43,-149.8"/>
<text text-anchor="middle" x="413" y="-127.6" font-family="Times,serif" font-size="14.00">EditProductModule</text>
</g>
<!-- EditProductComponent&#45;&gt;EditProductModule -->
<g id="edge1" class="edge">
<title>EditProductComponent&#45;&gt;EditProductModule</title>
<path fill="none" stroke="black" d="M98,-84.91C98,-104.14 98,-131.8 98,-131.8 98,-131.8 339.63,-131.8 339.63,-131.8"/>
<polygon fill="black" stroke="black" points="339.63,-135.3 349.63,-131.8 339.63,-128.3 339.63,-135.3"/>
</g>
<!-- CommonModule -->
<g id="node3" class="node">
<title>CommonModule</title>
<polygon fill="#8dd3c7" stroke="black" points="783.67,-84.8 780.67,-88.8 759.67,-88.8 756.67,-84.8 672.33,-84.8 672.33,-48.8 783.67,-48.8 783.67,-84.8"/>
<text text-anchor="middle" x="728" y="-62.6" font-family="Times,serif" font-size="14.00">CommonModule</text>
</g>
<!-- CommonModule&#45;&gt;EditProductModule -->
<g id="edge2" class="edge">
<title>CommonModule&#45;&gt;EditProductModule</title>
<path fill="none" stroke="black" d="M728,-84.91C728,-104.14 728,-131.8 728,-131.8 728,-131.8 486.37,-131.8 486.37,-131.8"/>
<polygon fill="black" stroke="black" points="486.37,-128.3 476.37,-131.8 486.37,-135.3 486.37,-128.3"/>
</g>
<!-- EditProductRoutingModule -->
<g id="node4" class="node">
<title>EditProductRoutingModule</title>
<polygon fill="#8dd3c7" stroke="black" points="653.55,-84.8 650.55,-88.8 629.55,-88.8 626.55,-84.8 482.45,-84.8 482.45,-48.8 653.55,-48.8 653.55,-84.8"/>
<text text-anchor="middle" x="568" y="-62.6" font-family="Times,serif" font-size="14.00">EditProductRoutingModule</text>
</g>
<!-- EditProductRoutingModule&#45;&gt;EditProductModule -->
<g id="edge3" class="edge">
<title>EditProductRoutingModule&#45;&gt;EditProductModule</title>
<path fill="none" stroke="black" d="M482.35,-66.8C475.05,-66.8 470.38,-66.8 470.38,-66.8 470.38,-66.8 470.38,-103.69 470.38,-103.69"/>
<polygon fill="black" stroke="black" points="466.88,-103.69 470.38,-113.69 473.88,-103.69 466.88,-103.69"/>
</g>
<!-- ProductModule -->
<g id="node5" class="node">
<title>ProductModule</title>
<polygon fill="#8dd3c7" stroke="black" points="464.6,-84.8 461.6,-88.8 440.6,-88.8 437.6,-84.8 361.4,-84.8 361.4,-48.8 464.6,-48.8 464.6,-84.8"/>
<text text-anchor="middle" x="413" y="-62.6" font-family="Times,serif" font-size="14.00">ProductModule</text>
</g>
<!-- ProductModule&#45;&gt;EditProductModule -->
<g id="edge4" class="edge">
<title>ProductModule&#45;&gt;EditProductModule</title>
<path fill="none" stroke="black" d="M413,-84.91C413,-84.91 413,-103.79 413,-103.79"/>
<polygon fill="black" stroke="black" points="409.5,-103.79 413,-113.79 416.5,-103.79 409.5,-103.79"/>
</g>
<!-- ShopifyButtonsModule -->
<g id="node6" class="node">
<title>ShopifyButtonsModule</title>
<polygon fill="#8dd3c7" stroke="black" points="343.95,-84.8 340.95,-88.8 319.95,-88.8 316.95,-84.8 196.05,-84.8 196.05,-48.8 343.95,-48.8 343.95,-84.8"/>
<text text-anchor="middle" x="270" y="-62.6" font-family="Times,serif" font-size="14.00">ShopifyButtonsModule</text>
</g>
<!-- ShopifyButtonsModule&#45;&gt;EditProductModule -->
<g id="edge5" class="edge">
<title>ShopifyButtonsModule&#45;&gt;EditProductModule</title>
<path fill="none" stroke="black" d="M344.07,-66.8C351.07,-66.8 355.62,-66.8 355.62,-66.8 355.62,-66.8 355.62,-103.69 355.62,-103.69"/>
<polygon fill="black" stroke="black" points="352.12,-103.69 355.62,-113.69 359.12,-103.69 352.12,-103.69"/>
</g>
</g>
</svg>
