<?xml version="1.0" encoding="UTF-8" standalone="no"?>
<!DOCTYPE svg PUBLIC "-//W3C//DTD SVG 1.1//EN"
 "http://www.w3.org/Graphics/SVG/1.1/DTD/svg11.dtd">
<!-- Generated by graphviz version 2.47.3 (20210619.1520)
 -->
<!-- Title: dependencies Pages: 1 -->
<svg width="525pt" height="174pt"
 viewBox="0.00 0.00 525.00 173.80" xmlns="http://www.w3.org/2000/svg" xmlns:xlink="http://www.w3.org/1999/xlink">
<g id="graph0" class="graph" transform="scale(1 1) rotate(0) translate(4 169.8)">
<title>dependencies</title>
<polygon fill="white" stroke="transparent" points="-4,4 -4,-169.8 521,-169.8 521,4 -4,4"/>
<text text-anchor="middle" x="258.5" y="-8.2" font-family="sans-serif" font-size="14.00">dependencies</text>
<g id="clust1" class="cluster">
<title>cluster_SignInPageModule</title>
<polygon fill="none" stroke="black" stroke-dasharray="1,5" points="8,-32.8 8,-157.8 509,-157.8 509,-32.8 8,-32.8"/>
</g>
<g id="clust4" class="cluster">
<title>cluster_SignInPageModule_imports</title>
<polygon fill="none" stroke="black" points="186,-40.8 186,-92.8 501,-92.8 501,-40.8 186,-40.8"/>
</g>
<g id="clust2" class="cluster">
<title>cluster_SignInPageModule_declarations</title>
<polygon fill="none" stroke="black" points="16,-40.8 16,-92.8 178,-92.8 178,-40.8 16,-40.8"/>
</g>
<!-- SignInPageComponent -->
<g id="node1" class="node">
<title>SignInPageComponent</title>
<polygon fill="#ffffb3" stroke="black" points="169.88,-84.8 24.12,-84.8 24.12,-48.8 169.88,-48.8 169.88,-84.8"/>
<text text-anchor="middle" x="97" y="-62.6" font-family="Times,serif" font-size="14.00">SignInPageComponent</text>
</g>
<!-- SignInPageModule -->
<g id="node2" class="node">
<title>SignInPageModule</title>
<polygon fill="#8dd3c7" stroke="black" points="341.1,-149.8 338.1,-153.8 317.1,-153.8 314.1,-149.8 216.9,-149.8 216.9,-113.8 341.1,-113.8 341.1,-149.8"/>
<text text-anchor="middle" x="279" y="-127.6" font-family="Times,serif" font-size="14.00">SignInPageModule</text>
</g>
<!-- SignInPageComponent&#45;&gt;SignInPageModule -->
<g id="edge1" class="edge">
<title>SignInPageComponent&#45;&gt;SignInPageModule</title>
<path fill="none" stroke="black" d="M97,-84.91C97,-104.14 97,-131.8 97,-131.8 97,-131.8 206.87,-131.8 206.87,-131.8"/>
<polygon fill="black" stroke="black" points="206.87,-135.3 216.87,-131.8 206.87,-128.3 206.87,-135.3"/>
</g>
<!-- CommonModule -->
<g id="node3" class="node">
<title>CommonModule</title>
<polygon fill="#8dd3c7" stroke="black" points="492.67,-84.8 489.67,-88.8 468.67,-88.8 465.67,-84.8 381.33,-84.8 381.33,-48.8 492.67,-48.8 492.67,-84.8"/>
<text text-anchor="middle" x="437" y="-62.6" font-family="Times,serif" font-size="14.00">CommonModule</text>
</g>
<!-- CommonModule&#45;&gt;SignInPageModule -->
<g id="edge2" class="edge">
<title>CommonModule&#45;&gt;SignInPageModule</title>
<path fill="none" stroke="black" d="M437,-84.91C437,-104.14 437,-131.8 437,-131.8 437,-131.8 351.45,-131.8 351.45,-131.8"/>
<polygon fill="black" stroke="black" points="351.45,-128.3 341.45,-131.8 351.45,-135.3 351.45,-128.3"/>
</g>
<!-- SignInPageRoutingModule -->
<g id="node4" class="node">
<title>SignInPageRoutingModule</title>
<polygon fill="#8dd3c7" stroke="black" points="363.71,-84.8 360.71,-88.8 339.71,-88.8 336.71,-84.8 194.29,-84.8 194.29,-48.8 363.71,-48.8 363.71,-84.8"/>
<text text-anchor="middle" x="279" y="-62.6" font-family="Times,serif" font-size="14.00">SignInPageRoutingModule</text>
</g>
<!-- SignInPageRoutingModule&#45;&gt;SignInPageModule -->
<g id="edge3" class="edge">
<title>SignInPageRoutingModule&#45;&gt;SignInPageModule</title>
<path fill="none" stroke="black" d="M279,-84.91C279,-84.91 279,-103.79 279,-103.79"/>
<polygon fill="black" stroke="black" points="275.5,-103.79 279,-113.79 282.5,-103.79 275.5,-103.79"/>
</g>
</g>
</svg>
