<?xml version="1.0" encoding="UTF-8" standalone="no"?>
<!DOCTYPE svg PUBLIC "-//W3C//DTD SVG 1.1//EN"
 "http://www.w3.org/Graphics/SVG/1.1/DTD/svg11.dtd">
<!-- Generated by graphviz version 2.47.3 (20210619.1520)
 -->
<!-- Title: dependencies Pages: 1 -->
<svg width="525pt" height="174pt"
 viewBox="0.00 0.00 525.00 173.80" xmlns="http://www.w3.org/2000/svg" xmlns:xlink="http://www.w3.org/1999/xlink">
<g id="graph0" class="graph" transform="scale(1 1) rotate(0) translate(4 169.8)">
<title>dependencies</title>
<polygon fill="white" stroke="transparent" points="-4,4 -4,-169.8 521,-169.8 521,4 -4,4"/>
<text text-anchor="middle" x="258.5" y="-8.2" font-family="sans-serif" font-size="14.00">dependencies</text>
<g id="clust1" class="cluster">
<title>cluster_SignInPageModule</title>
<polygon fill="none" stroke="black" stroke-dasharray="1,5" points="8,-32.8 8,-157.8 509,-157.8 509,-32.8 8,-32.8"/>
</g>
<g id="clust2" class="cluster">
<title>cluster_SignInPageModule_declarations</title>
<polygon fill="none" stroke="black" points="339,-40.8 339,-92.8 501,-92.8 501,-40.8 339,-40.8"/>
</g>
<g id="clust4" class="cluster">
<title>cluster_SignInPageModule_imports</title>
<polygon fill="none" stroke="black" points="16,-40.8 16,-92.8 331,-92.8 331,-40.8 16,-40.8"/>
</g>
<!-- SignInPageComponent -->
<g id="node1" class="node">
<title>SignInPageComponent</title>
<polygon fill="#ffffb3" stroke="black" points="492.88,-84.8 347.12,-84.8 347.12,-48.8 492.88,-48.8 492.88,-84.8"/>
<text text-anchor="middle" x="420" y="-62.6" font-family="Times,serif" font-size="14.00">SignInPageComponent</text>
</g>
<!-- SignInPageModule -->
<g id="node2" class="node">
<title>SignInPageModule</title>
<polygon fill="#8dd3c7" stroke="black" points="329.1,-149.8 326.1,-153.8 305.1,-153.8 302.1,-149.8 204.9,-149.8 204.9,-113.8 329.1,-113.8 329.1,-149.8"/>
<text text-anchor="middle" x="267" y="-127.6" font-family="Times,serif" font-size="14.00">SignInPageModule</text>
</g>
<!-- SignInPageComponent&#45;&gt;SignInPageModule -->
<g id="edge1" class="edge">
<title>SignInPageComponent&#45;&gt;SignInPageModule</title>
<path fill="none" stroke="black" d="M420,-84.91C420,-104.14 420,-131.8 420,-131.8 420,-131.8 339.23,-131.8 339.23,-131.8"/>
<polygon fill="black" stroke="black" points="339.23,-128.3 329.23,-131.8 339.23,-135.3 339.23,-128.3"/>
</g>
<!-- CommonModule -->
<g id="node3" class="node">
<title>CommonModule</title>
<polygon fill="#8dd3c7" stroke="black" points="322.67,-84.8 319.67,-88.8 298.67,-88.8 295.67,-84.8 211.33,-84.8 211.33,-48.8 322.67,-48.8 322.67,-84.8"/>
<text text-anchor="middle" x="267" y="-62.6" font-family="Times,serif" font-size="14.00">CommonModule</text>
</g>
<!-- CommonModule&#45;&gt;SignInPageModule -->
<g id="edge2" class="edge">
<title>CommonModule&#45;&gt;SignInPageModule</title>
<path fill="none" stroke="black" d="M267,-84.91C267,-84.91 267,-103.79 267,-103.79"/>
<polygon fill="black" stroke="black" points="263.5,-103.79 267,-113.79 270.5,-103.79 263.5,-103.79"/>
</g>
<!-- SignInPageRoutingModule -->
<g id="node4" class="node">
<title>SignInPageRoutingModule</title>
<polygon fill="#8dd3c7" stroke="black" points="193.71,-84.8 190.71,-88.8 169.71,-88.8 166.71,-84.8 24.29,-84.8 24.29,-48.8 193.71,-48.8 193.71,-84.8"/>
<text text-anchor="middle" x="109" y="-62.6" font-family="Times,serif" font-size="14.00">SignInPageRoutingModule</text>
</g>
<!-- SignInPageRoutingModule&#45;&gt;SignInPageModule -->
<g id="edge3" class="edge">
<title>SignInPageRoutingModule&#45;&gt;SignInPageModule</title>
<path fill="none" stroke="black" d="M109,-84.91C109,-104.14 109,-131.8 109,-131.8 109,-131.8 194.55,-131.8 194.55,-131.8"/>
<polygon fill="black" stroke="black" points="194.55,-135.3 204.55,-131.8 194.55,-128.3 194.55,-135.3"/>
</g>
</g>
</svg>
