<?xml version="1.0" encoding="UTF-8" standalone="no"?>
<!DOCTYPE svg PUBLIC "-//W3C//DTD SVG 1.1//EN"
 "http://www.w3.org/Graphics/SVG/1.1/DTD/svg11.dtd">
<!-- Generated by graphviz version 2.47.3 (20210619.1520)
 -->
<!-- Title: dependencies Pages: 1 -->
<svg width="526pt" height="247pt"
 viewBox="0.00 0.00 526.00 246.80" xmlns="http://www.w3.org/2000/svg" xmlns:xlink="http://www.w3.org/1999/xlink">
<g id="graph0" class="graph" transform="scale(1 1) rotate(0) translate(4 242.8)">
<title>dependencies</title>
<polygon fill="white" stroke="transparent" points="-4,4 -4,-242.8 522,-242.8 522,4 -4,4"/>
<text text-anchor="middle" x="259" y="-8.2" font-family="sans-serif" font-size="14.00">dependencies</text>
<g id="clust1" class="cluster">
<title>cluster_ShopifyButtonsModule</title>
<polygon fill="none" stroke="black" stroke-dasharray="1,5" points="8,-32.8 8,-230.8 510,-230.8 510,-32.8 8,-32.8"/>
</g>
<g id="clust2" class="cluster">
<title>cluster_ShopifyButtonsModule_declarations</title>
<polygon fill="none" stroke="black" points="152,-40.8 152,-92.8 502,-92.8 502,-40.8 152,-40.8"/>
</g>
<g id="clust6" class="cluster">
<title>cluster_ShopifyButtonsModule_exports</title>
<polygon fill="none" stroke="black" points="81,-170.8 81,-222.8 438,-222.8 438,-170.8 81,-170.8"/>
</g>
<g id="clust5" class="cluster">
<title>cluster_ShopifyButtonsModule_imports</title>
<polygon fill="none" stroke="black" points="16,-40.8 16,-92.8 144,-92.8 144,-40.8 16,-40.8"/>
</g>
<!-- PreviousPageComponent -->
<g id="node1" class="node">
<title>PreviousPageComponent</title>
<polygon fill="#ffffb3" stroke="black" points="493.54,-84.8 336.46,-84.8 336.46,-48.8 493.54,-48.8 493.54,-84.8"/>
<text text-anchor="middle" x="415" y="-62.6" font-family="Times,serif" font-size="14.00">PreviousPageComponent</text>
</g>
<!-- ShopifyButtonsModule -->
<g id="node3" class="node">
<title>ShopifyButtonsModule</title>
<polygon fill="#8dd3c7" stroke="black" points="312.95,-149.8 309.95,-153.8 288.95,-153.8 285.95,-149.8 165.05,-149.8 165.05,-113.8 312.95,-113.8 312.95,-149.8"/>
<text text-anchor="middle" x="239" y="-127.6" font-family="Times,serif" font-size="14.00">ShopifyButtonsModule</text>
</g>
<!-- PreviousPageComponent&#45;&gt;ShopifyButtonsModule -->
<g id="edge1" class="edge">
<title>PreviousPageComponent&#45;&gt;ShopifyButtonsModule</title>
<path fill="none" stroke="black" d="M382.88,-84.91C382.88,-104.14 382.88,-131.8 382.88,-131.8 382.88,-131.8 323.04,-131.8 323.04,-131.8"/>
<polygon fill="black" stroke="black" points="323.04,-128.3 313.04,-131.8 323.04,-135.3 323.04,-128.3"/>
</g>
<!-- SwitchButtonComponent -->
<g id="node2" class="node">
<title>SwitchButtonComponent</title>
<polygon fill="#ffffb3" stroke="black" points="318.34,-84.8 159.66,-84.8 159.66,-48.8 318.34,-48.8 318.34,-84.8"/>
<text text-anchor="middle" x="239" y="-62.6" font-family="Times,serif" font-size="14.00">SwitchButtonComponent</text>
</g>
<!-- SwitchButtonComponent&#45;&gt;ShopifyButtonsModule -->
<g id="edge2" class="edge">
<title>SwitchButtonComponent&#45;&gt;ShopifyButtonsModule</title>
<path fill="none" stroke="black" d="M239,-84.91C239,-84.91 239,-103.79 239,-103.79"/>
<polygon fill="black" stroke="black" points="235.5,-103.79 239,-113.79 242.5,-103.79 235.5,-103.79"/>
</g>
<!-- PreviousPageComponent  -->
<g id="node5" class="node">
<title>PreviousPageComponent </title>
<polygon fill="#fb8072" stroke="black" points="429.54,-214.8 268.46,-214.8 268.46,-178.8 429.54,-178.8 429.54,-214.8"/>
<text text-anchor="middle" x="349" y="-192.6" font-family="Times,serif" font-size="14.00">PreviousPageComponent </text>
</g>
<!-- ShopifyButtonsModule&#45;&gt;PreviousPageComponent  -->
<g id="edge4" class="edge">
<title>ShopifyButtonsModule&#45;&gt;PreviousPageComponent </title>
<path fill="none" stroke="black" stroke-dasharray="5,2" d="M290.6,-149.91C290.6,-149.91 290.6,-168.79 290.6,-168.79"/>
<polygon fill="black" stroke="black" points="287.1,-168.79 290.6,-178.79 294.1,-168.79 287.1,-168.79"/>
</g>
<!-- SwitchButtonComponent  -->
<g id="node6" class="node">
<title>SwitchButtonComponent </title>
<polygon fill="#fb8072" stroke="black" points="250.84,-214.8 89.16,-214.8 89.16,-178.8 250.84,-178.8 250.84,-214.8"/>
<text text-anchor="middle" x="170" y="-192.6" font-family="Times,serif" font-size="14.00">SwitchButtonComponent </text>
</g>
<!-- ShopifyButtonsModule&#45;&gt;SwitchButtonComponent  -->
<g id="edge5" class="edge">
<title>ShopifyButtonsModule&#45;&gt;SwitchButtonComponent </title>
<path fill="none" stroke="black" stroke-dasharray="5,2" d="M208.1,-149.91C208.1,-149.91 208.1,-168.79 208.1,-168.79"/>
<polygon fill="black" stroke="black" points="204.6,-168.79 208.1,-178.79 211.6,-168.79 204.6,-168.79"/>
</g>
<!-- CommonModule -->
<g id="node4" class="node">
<title>CommonModule</title>
<polygon fill="#8dd3c7" stroke="black" points="135.67,-84.8 132.67,-88.8 111.67,-88.8 108.67,-84.8 24.33,-84.8 24.33,-48.8 135.67,-48.8 135.67,-84.8"/>
<text text-anchor="middle" x="80" y="-62.6" font-family="Times,serif" font-size="14.00">CommonModule</text>
</g>
<!-- CommonModule&#45;&gt;ShopifyButtonsModule -->
<g id="edge3" class="edge">
<title>CommonModule&#45;&gt;ShopifyButtonsModule</title>
<path fill="none" stroke="black" d="M112.46,-84.91C112.46,-104.14 112.46,-131.8 112.46,-131.8 112.46,-131.8 155.02,-131.8 155.02,-131.8"/>
<polygon fill="black" stroke="black" points="155.02,-135.3 165.02,-131.8 155.02,-128.3 155.02,-135.3"/>
</g>
</g>
</svg>
