<?xml version="1.0" encoding="UTF-8" standalone="no"?>
<!DOCTYPE svg PUBLIC "-//W3C//DTD SVG 1.1//EN"
 "http://www.w3.org/Graphics/SVG/1.1/DTD/svg11.dtd">
<!-- Generated by graphviz version 2.47.3 (20210619.1520)
 -->
<!-- Title: dependencies Pages: 1 -->
<svg width="843pt" height="174pt"
 viewBox="0.00 0.00 843.00 173.80" xmlns="http://www.w3.org/2000/svg" xmlns:xlink="http://www.w3.org/1999/xlink">
<g id="graph0" class="graph" transform="scale(1 1) rotate(0) translate(4 169.8)">
<title>dependencies</title>
<polygon fill="white" stroke="transparent" points="-4,4 -4,-169.8 839,-169.8 839,4 -4,4"/>
<text text-anchor="middle" x="417.5" y="-8.2" font-family="sans-serif" font-size="14.00">dependencies</text>
<g id="clust1" class="cluster">
<title>cluster_CreateProductModule</title>
<polygon fill="none" stroke="black" stroke-dasharray="1,5" points="8,-32.8 8,-157.8 827,-157.8 827,-32.8 8,-32.8"/>
</g>
<g id="clust2" class="cluster">
<title>cluster_CreateProductModule_declarations</title>
<polygon fill="none" stroke="black" points="641,-40.8 641,-92.8 819,-92.8 819,-40.8 641,-40.8"/>
</g>
<g id="clust4" class="cluster">
<title>cluster_CreateProductModule_imports</title>
<polygon fill="none" stroke="black" points="16,-40.8 16,-92.8 633,-92.8 633,-40.8 16,-40.8"/>
</g>
<!-- CreateProductComponent -->
<g id="node1" class="node">
<title>CreateProductComponent</title>
<polygon fill="#ffffb3" stroke="black" points="810.91,-84.8 649.09,-84.8 649.09,-48.8 810.91,-48.8 810.91,-84.8"/>
<text text-anchor="middle" x="730" y="-62.6" font-family="Times,serif" font-size="14.00">CreateProductComponent</text>
</g>
<!-- CreateProductModule -->
<g id="node2" class="node">
<title>CreateProductModule</title>
<polygon fill="#8dd3c7" stroke="black" points="472.63,-149.8 469.63,-153.8 448.63,-153.8 445.63,-149.8 333.37,-149.8 333.37,-113.8 472.63,-113.8 472.63,-149.8"/>
<text text-anchor="middle" x="403" y="-127.6" font-family="Times,serif" font-size="14.00">CreateProductModule</text>
</g>
<!-- CreateProductComponent&#45;&gt;CreateProductModule -->
<g id="edge1" class="edge">
<title>CreateProductComponent&#45;&gt;CreateProductModule</title>
<path fill="none" stroke="black" d="M730,-85.08C730,-106.12 730,-137.8 730,-137.8 730,-137.8 482.75,-137.8 482.75,-137.8"/>
<polygon fill="black" stroke="black" points="482.75,-134.3 472.75,-137.8 482.75,-141.3 482.75,-134.3"/>
</g>
<!-- CommonModule -->
<g id="node3" class="node">
<title>CommonModule</title>
<polygon fill="#8dd3c7" stroke="black" points="624.67,-84.8 621.67,-88.8 600.67,-88.8 597.67,-84.8 513.33,-84.8 513.33,-48.8 624.67,-48.8 624.67,-84.8"/>
<text text-anchor="middle" x="569" y="-62.6" font-family="Times,serif" font-size="14.00">CommonModule</text>
</g>
<!-- CommonModule&#45;&gt;CreateProductModule -->
<g id="edge2" class="edge">
<title>CommonModule&#45;&gt;CreateProductModule</title>
<path fill="none" stroke="black" d="M569,-84.82C569,-102.17 569,-125.8 569,-125.8 569,-125.8 482.92,-125.8 482.92,-125.8"/>
<polygon fill="black" stroke="black" points="482.92,-122.3 472.92,-125.8 482.92,-129.3 482.92,-122.3"/>
</g>
<!-- CreateProductRoutingModule -->
<g id="node4" class="node">
<title>CreateProductRoutingModule</title>
<polygon fill="#8dd3c7" stroke="black" points="495.25,-84.8 492.25,-88.8 471.25,-88.8 468.25,-84.8 310.75,-84.8 310.75,-48.8 495.25,-48.8 495.25,-84.8"/>
<text text-anchor="middle" x="403" y="-62.6" font-family="Times,serif" font-size="14.00">CreateProductRoutingModule</text>
</g>
<!-- CreateProductRoutingModule&#45;&gt;CreateProductModule -->
<g id="edge3" class="edge">
<title>CreateProductRoutingModule&#45;&gt;CreateProductModule</title>
<path fill="none" stroke="black" d="M403,-84.91C403,-84.91 403,-103.79 403,-103.79"/>
<polygon fill="black" stroke="black" points="399.5,-103.79 403,-113.79 406.5,-103.79 399.5,-103.79"/>
</g>
<!-- ProductModule -->
<g id="node5" class="node">
<title>ProductModule</title>
<polygon fill="#8dd3c7" stroke="black" points="292.6,-84.8 289.6,-88.8 268.6,-88.8 265.6,-84.8 189.4,-84.8 189.4,-48.8 292.6,-48.8 292.6,-84.8"/>
<text text-anchor="middle" x="241" y="-62.6" font-family="Times,serif" font-size="14.00">ProductModule</text>
</g>
<!-- ProductModule&#45;&gt;CreateProductModule -->
<g id="edge4" class="edge">
<title>ProductModule&#45;&gt;CreateProductModule</title>
<path fill="none" stroke="black" d="M241,-84.82C241,-102.17 241,-125.8 241,-125.8 241,-125.8 323.36,-125.8 323.36,-125.8"/>
<polygon fill="black" stroke="black" points="323.36,-129.3 333.36,-125.8 323.36,-122.3 323.36,-129.3"/>
</g>
<!-- ShopifyButtonsModule -->
<g id="node6" class="node">
<title>ShopifyButtonsModule</title>
<polygon fill="#8dd3c7" stroke="black" points="171.95,-84.8 168.95,-88.8 147.95,-88.8 144.95,-84.8 24.05,-84.8 24.05,-48.8 171.95,-48.8 171.95,-84.8"/>
<text text-anchor="middle" x="98" y="-62.6" font-family="Times,serif" font-size="14.00">ShopifyButtonsModule</text>
</g>
<!-- ShopifyButtonsModule&#45;&gt;CreateProductModule -->
<g id="edge5" class="edge">
<title>ShopifyButtonsModule&#45;&gt;CreateProductModule</title>
<path fill="none" stroke="black" d="M98,-85.08C98,-106.12 98,-137.8 98,-137.8 98,-137.8 323.03,-137.8 323.03,-137.8"/>
<polygon fill="black" stroke="black" points="323.03,-141.3 333.03,-137.8 323.03,-134.3 323.03,-141.3"/>
</g>
</g>
</svg>
