<?xml version="1.0" encoding="UTF-8" standalone="no"?>
<!DOCTYPE svg PUBLIC "-//W3C//DTD SVG 1.1//EN"
 "http://www.w3.org/Graphics/SVG/1.1/DTD/svg11.dtd">
<!-- Generated by graphviz version 2.47.3 (20210619.1520)
 -->
<!-- Title: dependencies Pages: 1 -->
<svg width="843pt" height="174pt"
 viewBox="0.00 0.00 843.00 173.80" xmlns="http://www.w3.org/2000/svg" xmlns:xlink="http://www.w3.org/1999/xlink">
<g id="graph0" class="graph" transform="scale(1 1) rotate(0) translate(4 169.8)">
<title>dependencies</title>
<polygon fill="white" stroke="transparent" points="-4,4 -4,-169.8 839,-169.8 839,4 -4,4"/>
<text text-anchor="middle" x="417.5" y="-8.2" font-family="sans-serif" font-size="14.00">dependencies</text>
<g id="clust1" class="cluster">
<title>cluster_CreateProductModule</title>
<polygon fill="none" stroke="black" stroke-dasharray="1,5" points="8,-32.8 8,-157.8 827,-157.8 827,-32.8 8,-32.8"/>
</g>
<g id="clust4" class="cluster">
<title>cluster_CreateProductModule_imports</title>
<polygon fill="none" stroke="black" points="202,-40.8 202,-92.8 819,-92.8 819,-40.8 202,-40.8"/>
</g>
<g id="clust2" class="cluster">
<title>cluster_CreateProductModule_declarations</title>
<polygon fill="none" stroke="black" points="16,-40.8 16,-92.8 194,-92.8 194,-40.8 16,-40.8"/>
</g>
<!-- CreateProductComponent -->
<g id="node1" class="node">
<title>CreateProductComponent</title>
<polygon fill="#ffffb3" stroke="black" points="185.91,-84.8 24.09,-84.8 24.09,-48.8 185.91,-48.8 185.91,-84.8"/>
<text text-anchor="middle" x="105" y="-62.6" font-family="Times,serif" font-size="14.00">CreateProductComponent</text>
</g>
<!-- CreateProductModule -->
<g id="node2" class="node">
<title>CreateProductModule</title>
<polygon fill="#8dd3c7" stroke="black" points="496.63,-149.8 493.63,-153.8 472.63,-153.8 469.63,-149.8 357.37,-149.8 357.37,-113.8 496.63,-113.8 496.63,-149.8"/>
<text text-anchor="middle" x="427" y="-127.6" font-family="Times,serif" font-size="14.00">CreateProductModule</text>
</g>
<!-- CreateProductComponent&#45;&gt;CreateProductModule -->
<g id="edge1" class="edge">
<title>CreateProductComponent&#45;&gt;CreateProductModule</title>
<path fill="none" stroke="black" d="M105,-84.91C105,-104.14 105,-131.8 105,-131.8 105,-131.8 347.13,-131.8 347.13,-131.8"/>
<polygon fill="black" stroke="black" points="347.13,-135.3 357.13,-131.8 347.13,-128.3 347.13,-135.3"/>
</g>
<!-- CommonModule -->
<g id="node3" class="node">
<title>CommonModule</title>
<polygon fill="#8dd3c7" stroke="black" points="810.67,-84.8 807.67,-88.8 786.67,-88.8 783.67,-84.8 699.33,-84.8 699.33,-48.8 810.67,-48.8 810.67,-84.8"/>
<text text-anchor="middle" x="755" y="-62.6" font-family="Times,serif" font-size="14.00">CommonModule</text>
</g>
<!-- CommonModule&#45;&gt;CreateProductModule -->
<g id="edge2" class="edge">
<title>CommonModule&#45;&gt;CreateProductModule</title>
<path fill="none" stroke="black" d="M755,-84.91C755,-104.14 755,-131.8 755,-131.8 755,-131.8 506.96,-131.8 506.96,-131.8"/>
<polygon fill="black" stroke="black" points="506.96,-128.3 496.96,-131.8 506.96,-135.3 506.96,-128.3"/>
</g>
<!-- CreateProductRoutingModule -->
<g id="node4" class="node">
<title>CreateProductRoutingModule</title>
<polygon fill="#8dd3c7" stroke="black" points="681.25,-84.8 678.25,-88.8 657.25,-88.8 654.25,-84.8 496.75,-84.8 496.75,-48.8 681.25,-48.8 681.25,-84.8"/>
<text text-anchor="middle" x="589" y="-62.6" font-family="Times,serif" font-size="14.00">CreateProductRoutingModule</text>
</g>
<!-- CreateProductRoutingModule&#45;&gt;CreateProductModule -->
<g id="edge3" class="edge">
<title>CreateProductRoutingModule&#45;&gt;CreateProductModule</title>
<path fill="none" stroke="black" d="M496.59,-66.8C491.01,-66.8 487.59,-66.8 487.59,-66.8 487.59,-66.8 487.59,-103.69 487.59,-103.69"/>
<polygon fill="black" stroke="black" points="484.09,-103.69 487.59,-113.69 491.09,-103.69 484.09,-103.69"/>
</g>
<!-- ProductModule -->
<g id="node5" class="node">
<title>ProductModule</title>
<polygon fill="#8dd3c7" stroke="black" points="478.6,-84.8 475.6,-88.8 454.6,-88.8 451.6,-84.8 375.4,-84.8 375.4,-48.8 478.6,-48.8 478.6,-84.8"/>
<text text-anchor="middle" x="427" y="-62.6" font-family="Times,serif" font-size="14.00">ProductModule</text>
</g>
<!-- ProductModule&#45;&gt;CreateProductModule -->
<g id="edge4" class="edge">
<title>ProductModule&#45;&gt;CreateProductModule</title>
<path fill="none" stroke="black" d="M427,-84.91C427,-84.91 427,-103.79 427,-103.79"/>
<polygon fill="black" stroke="black" points="423.5,-103.79 427,-113.79 430.5,-103.79 423.5,-103.79"/>
</g>
<!-- ShopifyButtonsModule -->
<g id="node6" class="node">
<title>ShopifyButtonsModule</title>
<polygon fill="#8dd3c7" stroke="black" points="357.95,-84.8 354.95,-88.8 333.95,-88.8 330.95,-84.8 210.05,-84.8 210.05,-48.8 357.95,-48.8 357.95,-84.8"/>
<text text-anchor="middle" x="284" y="-62.6" font-family="Times,serif" font-size="14.00">ShopifyButtonsModule</text>
</g>
<!-- ShopifyButtonsModule&#45;&gt;CreateProductModule -->
<g id="edge5" class="edge">
<title>ShopifyButtonsModule&#45;&gt;CreateProductModule</title>
<path fill="none" stroke="black" d="M357.75,-66.8C363.18,-66.8 366.59,-66.8 366.59,-66.8 366.59,-66.8 366.59,-103.69 366.59,-103.69"/>
<polygon fill="black" stroke="black" points="363.09,-103.69 366.59,-113.69 370.09,-103.69 363.09,-103.69"/>
</g>
</g>
</svg>
