<?xml version="1.0" encoding="UTF-8" standalone="no"?>
<!DOCTYPE svg PUBLIC "-//W3C//DTD SVG 1.1//EN"
 "http://www.w3.org/Graphics/SVG/1.1/DTD/svg11.dtd">
<!-- Generated by graphviz version 2.47.3 (20210619.1520)
 -->
<!-- Title: dependencies Pages: 1 -->
<svg width="728pt" height="174pt"
 viewBox="0.00 0.00 728.00 173.80" xmlns="http://www.w3.org/2000/svg" xmlns:xlink="http://www.w3.org/1999/xlink">
<g id="graph0" class="graph" transform="scale(1 1) rotate(0) translate(4 169.8)">
<title>dependencies</title>
<polygon fill="white" stroke="transparent" points="-4,4 -4,-169.8 724,-169.8 724,4 -4,4"/>
<text text-anchor="middle" x="360" y="-8.2" font-family="sans-serif" font-size="14.00">dependencies</text>
<g id="clust1" class="cluster">
<title>cluster_ProductDetailsModule</title>
<polygon fill="none" stroke="black" stroke-dasharray="1,5" points="8,-32.8 8,-157.8 712,-157.8 712,-32.8 8,-32.8"/>
</g>
<g id="clust4" class="cluster">
<title>cluster_ProductDetailsModule_imports</title>
<polygon fill="none" stroke="black" points="204,-40.8 204,-92.8 704,-92.8 704,-40.8 204,-40.8"/>
</g>
<g id="clust2" class="cluster">
<title>cluster_ProductDetailsModule_declarations</title>
<polygon fill="none" stroke="black" points="16,-40.8 16,-92.8 196,-92.8 196,-40.8 16,-40.8"/>
</g>
<!-- ProductDetailsComponent -->
<g id="node1" class="node">
<title>ProductDetailsComponent</title>
<polygon fill="#ffffb3" stroke="black" points="188.03,-84.8 23.97,-84.8 23.97,-48.8 188.03,-48.8 188.03,-84.8"/>
<text text-anchor="middle" x="106" y="-62.6" font-family="Times,serif" font-size="14.00">ProductDetailsComponent</text>
</g>
<!-- ProductDetailsModule -->
<g id="node2" class="node">
<title>ProductDetailsModule</title>
<polygon fill="#8dd3c7" stroke="black" points="450.25,-149.8 447.25,-153.8 426.25,-153.8 423.25,-149.8 307.75,-149.8 307.75,-113.8 450.25,-113.8 450.25,-149.8"/>
<text text-anchor="middle" x="379" y="-127.6" font-family="Times,serif" font-size="14.00">ProductDetailsModule</text>
</g>
<!-- ProductDetailsComponent&#45;&gt;ProductDetailsModule -->
<g id="edge1" class="edge">
<title>ProductDetailsComponent&#45;&gt;ProductDetailsModule</title>
<path fill="none" stroke="black" d="M106,-84.91C106,-104.14 106,-131.8 106,-131.8 106,-131.8 297.63,-131.8 297.63,-131.8"/>
<polygon fill="black" stroke="black" points="297.63,-135.3 307.63,-131.8 297.63,-128.3 297.63,-135.3"/>
</g>
<!-- CommonModule -->
<g id="node3" class="node">
<title>CommonModule</title>
<polygon fill="#8dd3c7" stroke="black" points="695.67,-84.8 692.67,-88.8 671.67,-88.8 668.67,-84.8 584.33,-84.8 584.33,-48.8 695.67,-48.8 695.67,-84.8"/>
<text text-anchor="middle" x="640" y="-62.6" font-family="Times,serif" font-size="14.00">CommonModule</text>
</g>
<!-- CommonModule&#45;&gt;ProductDetailsModule -->
<g id="edge2" class="edge">
<title>CommonModule&#45;&gt;ProductDetailsModule</title>
<path fill="none" stroke="black" d="M640,-84.91C640,-104.14 640,-131.8 640,-131.8 640,-131.8 460.32,-131.8 460.32,-131.8"/>
<polygon fill="black" stroke="black" points="460.32,-128.3 450.32,-131.8 460.32,-135.3 460.32,-128.3"/>
</g>
<!-- ProductDetailsRoutingModule -->
<g id="node4" class="node">
<title>ProductDetailsRoutingModule</title>
<polygon fill="#8dd3c7" stroke="black" points="565.87,-84.8 562.87,-88.8 541.87,-88.8 538.87,-84.8 378.13,-84.8 378.13,-48.8 565.87,-48.8 565.87,-84.8"/>
<text text-anchor="middle" x="472" y="-62.6" font-family="Times,serif" font-size="14.00">ProductDetailsRoutingModule</text>
</g>
<!-- ProductDetailsRoutingModule&#45;&gt;ProductDetailsModule -->
<g id="edge3" class="edge">
<title>ProductDetailsRoutingModule&#45;&gt;ProductDetailsModule</title>
<path fill="none" stroke="black" d="M414.22,-84.91C414.22,-84.91 414.22,-103.79 414.22,-103.79"/>
<polygon fill="black" stroke="black" points="410.72,-103.79 414.22,-113.79 417.72,-103.79 410.72,-103.79"/>
</g>
<!-- ShopifyButtonsModule -->
<g id="node5" class="node">
<title>ShopifyButtonsModule</title>
<polygon fill="#8dd3c7" stroke="black" points="359.95,-84.8 356.95,-88.8 335.95,-88.8 332.95,-84.8 212.05,-84.8 212.05,-48.8 359.95,-48.8 359.95,-84.8"/>
<text text-anchor="middle" x="286" y="-62.6" font-family="Times,serif" font-size="14.00">ShopifyButtonsModule</text>
</g>
<!-- ShopifyButtonsModule&#45;&gt;ProductDetailsModule -->
<g id="edge4" class="edge">
<title>ShopifyButtonsModule&#45;&gt;ProductDetailsModule</title>
<path fill="none" stroke="black" d="M333.67,-84.91C333.67,-84.91 333.67,-103.79 333.67,-103.79"/>
<polygon fill="black" stroke="black" points="330.17,-103.79 333.67,-113.79 337.17,-103.79 330.17,-103.79"/>
</g>
</g>
</svg>
