<?xml version="1.0" encoding="UTF-8" standalone="no"?>
<!DOCTYPE svg PUBLIC "-//W3C//DTD SVG 1.1//EN"
 "http://www.w3.org/Graphics/SVG/1.1/DTD/svg11.dtd">
<!-- Generated by graphviz version 2.47.3 (20210619.1520)
 -->
<!-- Title: dependencies Pages: 1 -->
<svg width="849pt" height="174pt"
 viewBox="0.00 0.00 849.00 173.80" xmlns="http://www.w3.org/2000/svg" xmlns:xlink="http://www.w3.org/1999/xlink">
<g id="graph0" class="graph" transform="scale(1 1) rotate(0) translate(4 169.8)">
<title>dependencies</title>
<polygon fill="white" stroke="transparent" points="-4,4 -4,-169.8 845,-169.8 845,4 -4,4"/>
<text text-anchor="middle" x="420.5" y="-8.2" font-family="sans-serif" font-size="14.00">dependencies</text>
<g id="clust1" class="cluster">
<title>cluster_ProductDetailsModule</title>
<polygon fill="none" stroke="black" stroke-dasharray="1,5" points="8,-32.8 8,-157.8 833,-157.8 833,-32.8 8,-32.8"/>
</g>
<g id="clust2" class="cluster">
<title>cluster_ProductDetailsModule_declarations</title>
<polygon fill="none" stroke="black" points="645,-40.8 645,-92.8 825,-92.8 825,-40.8 645,-40.8"/>
</g>
<g id="clust4" class="cluster">
<title>cluster_ProductDetailsModule_imports</title>
<polygon fill="none" stroke="black" points="16,-40.8 16,-92.8 637,-92.8 637,-40.8 16,-40.8"/>
</g>
<!-- ProductDetailsComponent -->
<g id="node1" class="node">
<title>ProductDetailsComponent</title>
<polygon fill="#ffffb3" stroke="black" points="817.03,-84.8 652.97,-84.8 652.97,-48.8 817.03,-48.8 817.03,-84.8"/>
<text text-anchor="middle" x="735" y="-62.6" font-family="Times,serif" font-size="14.00">ProductDetailsComponent</text>
</g>
<!-- ProductDetailsModule -->
<g id="node2" class="node">
<title>ProductDetailsModule</title>
<polygon fill="#8dd3c7" stroke="black" points="476.25,-149.8 473.25,-153.8 452.25,-153.8 449.25,-149.8 333.75,-149.8 333.75,-113.8 476.25,-113.8 476.25,-149.8"/>
<text text-anchor="middle" x="405" y="-127.6" font-family="Times,serif" font-size="14.00">ProductDetailsModule</text>
</g>
<!-- ProductDetailsComponent&#45;&gt;ProductDetailsModule -->
<g id="edge1" class="edge">
<title>ProductDetailsComponent&#45;&gt;ProductDetailsModule</title>
<path fill="none" stroke="black" d="M735,-85.08C735,-106.12 735,-137.8 735,-137.8 735,-137.8 486.61,-137.8 486.61,-137.8"/>
<polygon fill="black" stroke="black" points="486.61,-134.3 476.61,-137.8 486.61,-141.3 486.61,-134.3"/>
</g>
<!-- CommonModule -->
<g id="node3" class="node">
<title>CommonModule</title>
<polygon fill="#8dd3c7" stroke="black" points="628.67,-84.8 625.67,-88.8 604.67,-88.8 601.67,-84.8 517.33,-84.8 517.33,-48.8 628.67,-48.8 628.67,-84.8"/>
<text text-anchor="middle" x="573" y="-62.6" font-family="Times,serif" font-size="14.00">CommonModule</text>
</g>
<!-- CommonModule&#45;&gt;ProductDetailsModule -->
<g id="edge2" class="edge">
<title>CommonModule&#45;&gt;ProductDetailsModule</title>
<path fill="none" stroke="black" d="M573,-84.82C573,-102.17 573,-125.8 573,-125.8 573,-125.8 486.73,-125.8 486.73,-125.8"/>
<polygon fill="black" stroke="black" points="486.73,-122.3 476.73,-125.8 486.73,-129.3 486.73,-122.3"/>
</g>
<!-- ProductDetailsRoutingModule -->
<g id="node4" class="node">
<title>ProductDetailsRoutingModule</title>
<polygon fill="#8dd3c7" stroke="black" points="498.87,-84.8 495.87,-88.8 474.87,-88.8 471.87,-84.8 311.13,-84.8 311.13,-48.8 498.87,-48.8 498.87,-84.8"/>
<text text-anchor="middle" x="405" y="-62.6" font-family="Times,serif" font-size="14.00">ProductDetailsRoutingModule</text>
</g>
<!-- ProductDetailsRoutingModule&#45;&gt;ProductDetailsModule -->
<g id="edge3" class="edge">
<title>ProductDetailsRoutingModule&#45;&gt;ProductDetailsModule</title>
<path fill="none" stroke="black" d="M405,-84.91C405,-84.91 405,-103.79 405,-103.79"/>
<polygon fill="black" stroke="black" points="401.5,-103.79 405,-113.79 408.5,-103.79 401.5,-103.79"/>
</g>
<!-- ShopifyButtonsModule -->
<g id="node5" class="node">
<title>ShopifyButtonsModule</title>
<polygon fill="#8dd3c7" stroke="black" points="292.95,-84.8 289.95,-88.8 268.95,-88.8 265.95,-84.8 145.05,-84.8 145.05,-48.8 292.95,-48.8 292.95,-84.8"/>
<text text-anchor="middle" x="219" y="-62.6" font-family="Times,serif" font-size="14.00">ShopifyButtonsModule</text>
</g>
<!-- ShopifyButtonsModule&#45;&gt;ProductDetailsModule -->
<g id="edge4" class="edge">
<title>ShopifyButtonsModule&#45;&gt;ProductDetailsModule</title>
<path fill="none" stroke="black" d="M219,-84.82C219,-102.17 219,-125.8 219,-125.8 219,-125.8 323.62,-125.8 323.62,-125.8"/>
<polygon fill="black" stroke="black" points="323.62,-129.3 333.62,-125.8 323.62,-122.3 323.62,-129.3"/>
</g>
<!-- ProductModule -->
<g id="node6" class="node">
<title>ProductModule</title>
<polygon fill="#8dd3c7" stroke="black" points="127.6,-84.8 124.6,-88.8 103.6,-88.8 100.6,-84.8 24.4,-84.8 24.4,-48.8 127.6,-48.8 127.6,-84.8"/>
<text text-anchor="middle" x="76" y="-62.6" font-family="Times,serif" font-size="14.00">ProductModule</text>
</g>
<!-- ProductModule&#45;&gt;ProductDetailsModule -->
<g id="edge5" class="edge">
<title>ProductModule&#45;&gt;ProductDetailsModule</title>
<path fill="none" stroke="black" d="M76,-85.08C76,-106.12 76,-137.8 76,-137.8 76,-137.8 323.61,-137.8 323.61,-137.8"/>
<polygon fill="black" stroke="black" points="323.61,-141.3 333.61,-137.8 323.61,-134.3 323.61,-141.3"/>
</g>
</g>
</svg>
