<?xml version="1.0" encoding="UTF-8" standalone="no"?>
<!DOCTYPE svg PUBLIC "-//W3C//DTD SVG 1.1//EN"
 "http://www.w3.org/Graphics/SVG/1.1/DTD/svg11.dtd">
<!-- Generated by graphviz version 2.47.3 (20210619.1520)
 -->
<!-- Title: dependencies Pages: 1 -->
<svg width="4470pt" height="329pt"
 viewBox="0.00 0.00 4470.00 328.80" xmlns="http://www.w3.org/2000/svg" xmlns:xlink="http://www.w3.org/1999/xlink">
<g id="graph0" class="graph" transform="scale(1 1) rotate(0) translate(4 324.8)">
<title>dependencies</title>
<polygon fill="white" stroke="transparent" points="-4,4 -4,-324.8 4466,-324.8 4466,4 -4,4"/>
<text text-anchor="middle" x="2231" y="-8.2" font-family="sans-serif" font-size="14.00">dependencies</text>
<g id="clust1" class="cluster">
<title>cluster_AppModule</title>
<polygon fill="none" stroke="black" stroke-dasharray="1,5" points="825,-108.8 825,-312.8 1622,-312.8 1622,-108.8 825,-108.8"/>
</g>
<g id="clust2" class="cluster">
<title>cluster_AppModule_declarations</title>
<polygon fill="none" stroke="black" points="1492,-116.8 1492,-168.8 1614,-168.8 1614,-116.8 1492,-116.8"/>
</g>
<g id="clust4" class="cluster">
<title>cluster_AppModule_imports</title>
<polygon fill="none" stroke="black" points="833,-116.8 833,-168.8 1484,-168.8 1484,-116.8 833,-116.8"/>
</g>
<g id="clust6" class="cluster">
<title>cluster_AppModule_bootstrap</title>
<polygon fill="none" stroke="black" points="1188,-252.8 1188,-304.8 1312,-304.8 1312,-252.8 1188,-252.8"/>
</g>
<g id="clust8" class="cluster">
<title>cluster_CoreModule</title>
<polygon fill="none" stroke="black" stroke-dasharray="1,5" points="2002,-32.8 2002,-100.8 2146,-100.8 2146,-32.8 2002,-32.8"/>
</g>
<g id="clust10" class="cluster">
<title>cluster_CoreModule_imports</title>
<polygon fill="none" stroke="black" points="2010,-40.8 2010,-92.8 2138,-92.8 2138,-40.8 2010,-40.8"/>
</g>
<g id="clust14" class="cluster">
<title>cluster_HomePageModule</title>
<polygon fill="none" stroke="black" stroke-dasharray="1,5" points="1630,-32.8 1630,-168.8 1994,-168.8 1994,-32.8 1630,-32.8"/>
</g>
<g id="clust15" class="cluster">
<title>cluster_HomePageModule_declarations</title>
<polygon fill="none" stroke="black" points="1828,-40.8 1828,-92.8 1986,-92.8 1986,-40.8 1828,-40.8"/>
</g>
<g id="clust17" class="cluster">
<title>cluster_HomePageModule_imports</title>
<polygon fill="none" stroke="black" points="1638,-40.8 1638,-92.8 1820,-92.8 1820,-40.8 1638,-40.8"/>
</g>
<g id="clust21" class="cluster">
<title>cluster_HomePageRoutingModule</title>
<polygon fill="none" stroke="black" stroke-dasharray="1,5" points="3960,-32.8 3960,-100.8 4300,-100.8 4300,-32.8 3960,-32.8"/>
</g>
<g id="clust23" class="cluster">
<title>cluster_HomePageRoutingModule_imports</title>
<polygon fill="none" stroke="black" points="4094,-40.8 4094,-92.8 4292,-92.8 4292,-40.8 4094,-40.8"/>
</g>
<g id="clust24" class="cluster">
<title>cluster_HomePageRoutingModule_exports</title>
<polygon fill="none" stroke="black" points="3968,-40.8 3968,-92.8 4086,-92.8 4086,-40.8 3968,-40.8"/>
</g>
<g id="clust27" class="cluster">
<title>cluster_LayoutModule</title>
<polygon fill="none" stroke="black" stroke-dasharray="1,5" points="8,-32.8 8,-100.8 1622,-100.8 1622,-32.8 8,-32.8"/>
</g>
<g id="clust28" class="cluster">
<title>cluster_LayoutModule_declarations</title>
<polygon fill="none" stroke="black" points="298,-40.8 298,-92.8 1614,-92.8 1614,-40.8 298,-40.8"/>
</g>
<g id="clust36" class="cluster">
<title>cluster_LayoutModule_imports</title>
<polygon fill="none" stroke="black" points="176,-40.8 176,-92.8 290,-92.8 290,-40.8 176,-40.8"/>
</g>
<g id="clust37" class="cluster">
<title>cluster_LayoutModule_exports</title>
<polygon fill="none" stroke="black" points="16,-40.8 16,-92.8 168,-92.8 168,-40.8 16,-40.8"/>
</g>
<g id="clust40" class="cluster">
<title>cluster_NotFoundPageModule</title>
<polygon fill="none" stroke="black" stroke-dasharray="1,5" points="2154,-32.8 2154,-168.8 2564,-168.8 2564,-32.8 2154,-32.8"/>
</g>
<g id="clust41" class="cluster">
<title>cluster_NotFoundPageModule_declarations</title>
<polygon fill="none" stroke="black" points="2374,-40.8 2374,-92.8 2556,-92.8 2556,-40.8 2374,-40.8"/>
</g>
<g id="clust43" class="cluster">
<title>cluster_NotFoundPageModule_imports</title>
<polygon fill="none" stroke="black" points="2162,-40.8 2162,-92.8 2366,-92.8 2366,-40.8 2162,-40.8"/>
</g>
<g id="clust53" class="cluster">
<title>cluster_ProductModule</title>
<polygon fill="none" stroke="black" stroke-dasharray="1,5" points="2974,-32.8 2974,-244.8 3572,-244.8 3572,-32.8 2974,-32.8"/>
</g>
<g id="clust54" class="cluster">
<title>cluster_ProductModule_declarations</title>
<polygon fill="none" stroke="black" points="2982,-40.8 2982,-92.8 3564,-92.8 3564,-40.8 2982,-40.8"/>
</g>
<g id="clust59" class="cluster">
<title>cluster_ProductModule_exports</title>
<polygon fill="none" stroke="black" points="3084,-184.8 3084,-236.8 3458,-236.8 3458,-184.8 3084,-184.8"/>
</g>
<g id="clust62" class="cluster">
<title>cluster_ProductOverviewPageModule</title>
<polygon fill="none" stroke="black" stroke-dasharray="1,5" points="3960,-108.8 3960,-236.8 4454,-236.8 4454,-108.8 3960,-108.8"/>
</g>
<g id="clust63" class="cluster">
<title>cluster_ProductOverviewPageModule_declarations</title>
<polygon fill="none" stroke="black" points="4222,-116.8 4222,-168.8 4446,-168.8 4446,-116.8 4222,-116.8"/>
</g>
<g id="clust65" class="cluster">
<title>cluster_ProductOverviewPageModule_imports</title>
<polygon fill="none" stroke="black" points="3968,-116.8 3968,-168.8 4214,-168.8 4214,-116.8 3968,-116.8"/>
</g>
<g id="clust75" class="cluster">
<title>cluster_ProductsPageModule</title>
<polygon fill="none" stroke="black" stroke-dasharray="1,5" points="2572,-108.8 2572,-236.8 2966,-236.8 2966,-108.8 2572,-108.8"/>
</g>
<g id="clust76" class="cluster">
<title>cluster_ProductsPageModule_declarations</title>
<polygon fill="none" stroke="black" points="2784,-116.8 2784,-168.8 2958,-168.8 2958,-116.8 2784,-116.8"/>
</g>
<g id="clust78" class="cluster">
<title>cluster_ProductsPageModule_imports</title>
<polygon fill="none" stroke="black" points="2580,-116.8 2580,-168.8 2776,-168.8 2776,-116.8 2580,-116.8"/>
</g>
<g id="clust82" class="cluster">
<title>cluster_ShopifyFooterModule</title>
<polygon fill="none" stroke="black" stroke-dasharray="1,5" points="433,-176.8 433,-244.8 817,-244.8 817,-176.8 433,-176.8"/>
</g>
<g id="clust83" class="cluster">
<title>cluster_ShopifyFooterModule_declarations</title>
<polygon fill="none" stroke="black" points="631,-184.8 631,-236.8 809,-236.8 809,-184.8 631,-184.8"/>
</g>
<g id="clust86" class="cluster">
<title>cluster_ShopifyFooterModule_exports</title>
<polygon fill="none" stroke="black" points="441,-184.8 441,-236.8 623,-236.8 623,-184.8 441,-184.8"/>
</g>
<g id="clust89" class="cluster">
<title>cluster_SignInPageModule</title>
<polygon fill="none" stroke="black" stroke-dasharray="1,5" points="3580,-32.8 3580,-168.8 3952,-168.8 3952,-32.8 3580,-32.8"/>
</g>
<g id="clust90" class="cluster">
<title>cluster_SignInPageModule_declarations</title>
<polygon fill="none" stroke="black" points="3782,-40.8 3782,-92.8 3944,-92.8 3944,-40.8 3782,-40.8"/>
</g>
<g id="clust92" class="cluster">
<title>cluster_SignInPageModule_imports</title>
<polygon fill="none" stroke="black" points="3588,-40.8 3588,-92.8 3774,-92.8 3774,-40.8 3588,-40.8"/>
</g>
<!-- AppComponent -->
<g id="node1" class="node">
<title>AppComponent</title>
<polygon fill="#ffffb3" stroke="black" points="1605.94,-160.8 1500.06,-160.8 1500.06,-124.8 1605.94,-124.8 1605.94,-160.8"/>
<text text-anchor="middle" x="1553" y="-138.6" font-family="Times,serif" font-size="14.00">AppComponent</text>
</g>
<!-- AppModule -->
<g id="node2" class="node">
<title>AppModule</title>
<polygon fill="#8dd3c7" stroke="black" points="1291.66,-228.8 1288.66,-232.8 1267.66,-232.8 1264.66,-228.8 1208.34,-228.8 1208.34,-192.8 1291.66,-192.8 1291.66,-228.8"/>
<text text-anchor="middle" x="1250" y="-206.6" font-family="Times,serif" font-size="14.00">AppModule</text>
</g>
<!-- AppComponent&#45;&gt;AppModule -->
<g id="edge1" class="edge">
<title>AppComponent&#45;&gt;AppModule</title>
<path fill="none" stroke="black" d="M1553,-161.05C1553,-183.82 1553,-219.8 1553,-219.8 1553,-219.8 1301.81,-219.8 1301.81,-219.8"/>
<polygon fill="black" stroke="black" points="1301.81,-216.3 1291.81,-219.8 1301.81,-223.3 1301.81,-216.3"/>
</g>
<!-- AppComponent  -->
<g id="node8" class="node">
<title>AppComponent </title>
<polygon fill="#80b1d3" stroke="black" points="1304.44,-296.8 1195.56,-296.8 1195.56,-260.8 1304.44,-260.8 1304.44,-296.8"/>
<text text-anchor="middle" x="1250" y="-274.6" font-family="Times,serif" font-size="14.00">AppComponent </text>
</g>
<!-- AppModule&#45;&gt;AppComponent  -->
<g id="edge7" class="edge">
<title>AppModule&#45;&gt;AppComponent </title>
<path fill="none" stroke="black" stroke-dasharray="1,5" d="M1250,-229.02C1250,-229.02 1250,-250.53 1250,-250.53"/>
<polygon fill="black" stroke="black" points="1246.5,-250.53 1250,-260.53 1253.5,-250.53 1246.5,-250.53"/>
</g>
<!-- BrowserModule -->
<g id="node3" class="node">
<title>BrowserModule</title>
<polygon fill="#8dd3c7" stroke="black" points="1371.47,-160.8 1368.47,-164.8 1347.47,-164.8 1344.47,-160.8 1264.53,-160.8 1264.53,-124.8 1371.47,-124.8 1371.47,-160.8"/>
<text text-anchor="middle" x="1318" y="-138.6" font-family="Times,serif" font-size="14.00">BrowserModule</text>
</g>
<!-- BrowserModule&#45;&gt;AppModule -->
<g id="edge2" class="edge">
<title>BrowserModule&#45;&gt;AppModule</title>
<path fill="none" stroke="black" d="M1278.17,-161.02C1278.17,-161.02 1278.17,-182.53 1278.17,-182.53"/>
<polygon fill="black" stroke="black" points="1274.67,-182.53 1278.17,-192.53 1281.67,-182.53 1274.67,-182.53"/>
</g>
<!-- CoreModule -->
<g id="node4" class="node">
<title>CoreModule</title>
<polygon fill="#8dd3c7" stroke="black" points="1476.26,-160.8 1473.26,-164.8 1452.26,-164.8 1449.26,-160.8 1389.74,-160.8 1389.74,-124.8 1476.26,-124.8 1476.26,-160.8"/>
<text text-anchor="middle" x="1433" y="-138.6" font-family="Times,serif" font-size="14.00">CoreModule</text>
</g>
<!-- CoreModule&#45;&gt;AppModule -->
<g id="edge3" class="edge">
<title>CoreModule&#45;&gt;AppModule</title>
<path fill="none" stroke="black" d="M1433,-161.02C1433,-181.17 1433,-210.8 1433,-210.8 1433,-210.8 1301.98,-210.8 1301.98,-210.8"/>
<polygon fill="black" stroke="black" points="1301.98,-207.3 1291.98,-210.8 1301.98,-214.3 1301.98,-207.3"/>
</g>
<!-- AppRoutingModule -->
<g id="node5" class="node">
<title>AppRoutingModule</title>
<polygon fill="#8dd3c7" stroke="black" points="1246.27,-160.8 1243.27,-164.8 1222.27,-164.8 1219.27,-160.8 1117.73,-160.8 1117.73,-124.8 1246.27,-124.8 1246.27,-160.8"/>
<text text-anchor="middle" x="1182" y="-138.6" font-family="Times,serif" font-size="14.00">AppRoutingModule</text>
</g>
<!-- AppRoutingModule&#45;&gt;AppModule -->
<g id="edge4" class="edge">
<title>AppRoutingModule&#45;&gt;AppModule</title>
<path fill="none" stroke="black" d="M1227.28,-161.02C1227.28,-161.02 1227.28,-182.53 1227.28,-182.53"/>
<polygon fill="black" stroke="black" points="1223.78,-182.53 1227.28,-192.53 1230.78,-182.53 1223.78,-182.53"/>
</g>
<!-- LayoutModule -->
<g id="node6" class="node">
<title>LayoutModule</title>
<polygon fill="#8dd3c7" stroke="black" points="940.71,-160.8 937.71,-164.8 916.71,-164.8 913.71,-160.8 841.29,-160.8 841.29,-124.8 940.71,-124.8 940.71,-160.8"/>
<text text-anchor="middle" x="891" y="-138.6" font-family="Times,serif" font-size="14.00">LayoutModule</text>
</g>
<!-- LayoutModule&#45;&gt;AppModule -->
<g id="edge5" class="edge">
<title>LayoutModule&#45;&gt;AppModule</title>
<path fill="none" stroke="black" d="M891,-161.05C891,-183.82 891,-219.8 891,-219.8 891,-219.8 1198.12,-219.8 1198.12,-219.8"/>
<polygon fill="black" stroke="black" points="1198.12,-223.3 1208.12,-219.8 1198.12,-216.3 1198.12,-223.3"/>
</g>
<!-- StructureComponent  -->
<g id="node23" class="node">
<title>StructureComponent </title>
<polygon fill="#fb8072" stroke="black" points="160.15,-84.8 23.85,-84.8 23.85,-48.8 160.15,-48.8 160.15,-84.8"/>
<text text-anchor="middle" x="92" y="-62.6" font-family="Times,serif" font-size="14.00">StructureComponent </text>
</g>
<!-- LayoutModule&#45;&gt;StructureComponent  -->
<g id="edge23" class="edge">
<title>LayoutModule&#45;&gt;StructureComponent </title>
<path fill="none" stroke="black" stroke-dasharray="5,2" d="M841.32,-153.8C666.76,-153.8 92,-153.8 92,-153.8 92,-153.8 92,-94.83 92,-94.83"/>
<polygon fill="black" stroke="black" points="95.5,-94.83 92,-84.83 88.5,-94.83 95.5,-94.83"/>
</g>
<!-- ShopifyFooterModule -->
<g id="node7" class="node">
<title>ShopifyFooterModule</title>
<polygon fill="#8dd3c7" stroke="black" points="1099.43,-160.8 1096.43,-164.8 1075.43,-164.8 1072.43,-160.8 958.57,-160.8 958.57,-124.8 1099.43,-124.8 1099.43,-160.8"/>
<text text-anchor="middle" x="1029" y="-138.6" font-family="Times,serif" font-size="14.00">ShopifyFooterModule</text>
</g>
<!-- ShopifyFooterModule&#45;&gt;AppModule -->
<g id="edge6" class="edge">
<title>ShopifyFooterModule&#45;&gt;AppModule</title>
<path fill="none" stroke="black" d="M1064.11,-161.02C1064.11,-181.17 1064.11,-210.8 1064.11,-210.8 1064.11,-210.8 1198.28,-210.8 1198.28,-210.8"/>
<polygon fill="black" stroke="black" points="1198.28,-214.3 1208.28,-210.8 1198.28,-207.3 1198.28,-214.3"/>
</g>
<!-- ShopifyFooterComponent  -->
<g id="node40" class="node">
<title>ShopifyFooterComponent </title>
<polygon fill="#fb8072" stroke="black" points="614.71,-228.8 449.29,-228.8 449.29,-192.8 614.71,-192.8 614.71,-228.8"/>
<text text-anchor="middle" x="532" y="-206.6" font-family="Times,serif" font-size="14.00">ShopifyFooterComponent </text>
</g>
<!-- ShopifyFooterModule&#45;&gt;ShopifyFooterComponent  -->
<g id="edge47" class="edge">
<title>ShopifyFooterModule&#45;&gt;ShopifyFooterComponent </title>
<path fill="none" stroke="black" stroke-dasharray="5,2" d="M993.89,-160.93C993.89,-171.51 993.89,-182.8 993.89,-182.8 993.89,-182.8 532,-182.8 532,-182.8 532,-182.8 532,-183.78 532,-183.78"/>
<polygon fill="black" stroke="black" points="528.5,-182.59 532,-192.59 535.5,-182.59 528.5,-182.59"/>
</g>
<!-- CommonModule -->
<g id="node9" class="node">
<title>CommonModule</title>
<polygon fill="#8dd3c7" stroke="black" points="2129.67,-84.8 2126.67,-88.8 2105.67,-88.8 2102.67,-84.8 2018.33,-84.8 2018.33,-48.8 2129.67,-48.8 2129.67,-84.8"/>
<text text-anchor="middle" x="2074" y="-62.6" font-family="Times,serif" font-size="14.00">CommonModule</text>
</g>
<!-- CommonModule&#45;&gt;CoreModule -->
<g id="edge8" class="edge">
<title>CommonModule&#45;&gt;CoreModule</title>
<path fill="none" stroke="black" d="M2051.67,-84.83C2051.67,-101.2 2051.67,-122.8 2051.67,-122.8 2051.67,-122.8 1464.45,-122.8 1464.45,-122.8 1464.45,-122.8 1464.45,-122.98 1464.45,-122.98"/>
<polygon fill="black" stroke="black" points="1460.95,-114.65 1464.45,-124.65 1467.95,-114.65 1460.95,-114.65"/>
</g>
<!-- CommonModule&#45;&gt;LayoutModule -->
<g id="edge21" class="edge">
<title>CommonModule&#45;&gt;LayoutModule</title>
<path fill="none" stroke="black" d="M2029.33,-84.85C2029.33,-99.17 2029.33,-116.8 2029.33,-116.8 2029.33,-116.8 925.96,-116.8 925.96,-116.8 925.96,-116.8 925.96,-117.59 925.96,-117.59"/>
<polygon fill="black" stroke="black" points="922.46,-114.74 925.96,-124.74 929.46,-114.74 922.46,-114.74"/>
</g>
<!-- CommonModule&#45;&gt;ShopifyFooterModule -->
<g id="edge46" class="edge">
<title>CommonModule&#45;&gt;ShopifyFooterModule</title>
<path fill="none" stroke="black" d="M2040.5,-85.04C2040.5,-100.37 2040.5,-119.8 2040.5,-119.8 2040.5,-119.8 1091.98,-119.8 1091.98,-119.8 1091.98,-119.8 1091.98,-120.29 1091.98,-120.29"/>
<polygon fill="black" stroke="black" points="1088.48,-114.68 1091.98,-124.68 1095.48,-114.68 1088.48,-114.68"/>
</g>
<!-- HomePageModule -->
<g id="node11" class="node">
<title>HomePageModule</title>
<polygon fill="#8dd3c7" stroke="black" points="1967.47,-160.8 1964.47,-164.8 1943.47,-164.8 1940.47,-160.8 1846.53,-160.8 1846.53,-124.8 1967.47,-124.8 1967.47,-160.8"/>
<text text-anchor="middle" x="1907" y="-138.6" font-family="Times,serif" font-size="14.00">HomePageModule</text>
</g>
<!-- CommonModule&#45;&gt;HomePageModule -->
<g id="edge10" class="edge">
<title>CommonModule&#45;&gt;HomePageModule</title>
<path fill="none" stroke="black" d="M2062.83,-85C2062.83,-109.16 2062.83,-148.8 2062.83,-148.8 2062.83,-148.8 1977.7,-148.8 1977.7,-148.8"/>
<polygon fill="black" stroke="black" points="1977.7,-145.3 1967.7,-148.8 1977.7,-152.3 1977.7,-145.3"/>
</g>
<!-- NotFoundPageModule -->
<g id="node25" class="node">
<title>NotFoundPageModule</title>
<polygon fill="#8dd3c7" stroke="black" points="2335.54,-160.8 2332.54,-164.8 2311.54,-164.8 2308.54,-160.8 2192.46,-160.8 2192.46,-124.8 2335.54,-124.8 2335.54,-160.8"/>
<text text-anchor="middle" x="2264" y="-138.6" font-family="Times,serif" font-size="14.00">NotFoundPageModule</text>
</g>
<!-- CommonModule&#45;&gt;NotFoundPageModule -->
<g id="edge25" class="edge">
<title>CommonModule&#45;&gt;NotFoundPageModule</title>
<path fill="none" stroke="black" d="M2118.67,-84.83C2118.67,-105.57 2118.67,-136.8 2118.67,-136.8 2118.67,-136.8 2182.19,-136.8 2182.19,-136.8"/>
<polygon fill="black" stroke="black" points="2182.19,-140.3 2192.19,-136.8 2182.19,-133.3 2182.19,-140.3"/>
</g>
<!-- ProductModule -->
<g id="node30" class="node">
<title>ProductModule</title>
<polygon fill="#8dd3c7" stroke="black" points="3286.6,-160.8 3283.6,-164.8 3262.6,-164.8 3259.6,-160.8 3183.4,-160.8 3183.4,-124.8 3286.6,-124.8 3286.6,-160.8"/>
<text text-anchor="middle" x="3235" y="-138.6" font-family="Times,serif" font-size="14.00">ProductModule</text>
</g>
<!-- CommonModule&#45;&gt;ProductModule -->
<g id="edge32" class="edge">
<title>CommonModule&#45;&gt;ProductModule</title>
<path fill="none" stroke="black" d="M2096.33,-84.93C2096.33,-95.51 2096.33,-106.8 2096.33,-106.8 2096.33,-106.8 3220.6,-106.8 3220.6,-106.8 3220.6,-106.8 3220.6,-114.38 3220.6,-114.38"/>
<polygon fill="black" stroke="black" points="3217.1,-114.38 3220.6,-124.38 3224.1,-114.38 3217.1,-114.38"/>
</g>
<!-- ProductOverviewPageModule -->
<g id="node34" class="node">
<title>ProductOverviewPageModule</title>
<polygon fill="#8dd3c7" stroke="black" points="4168.5,-228.8 4165.5,-232.8 4144.5,-232.8 4141.5,-228.8 3983.5,-228.8 3983.5,-192.8 4168.5,-192.8 4168.5,-228.8"/>
<text text-anchor="middle" x="4076" y="-206.6" font-family="Times,serif" font-size="14.00">ProductOverviewPageModule</text>
</g>
<!-- CommonModule&#45;&gt;ProductOverviewPageModule -->
<g id="edge36" class="edge">
<title>CommonModule&#45;&gt;ProductOverviewPageModule</title>
<path fill="none" stroke="black" d="M2085.17,-85.09C2085.17,-115.17 2085.17,-171.8 2085.17,-171.8 2085.17,-171.8 4045.08,-171.8 4045.08,-171.8 4045.08,-171.8 4045.08,-182.67 4045.08,-182.67"/>
<polygon fill="black" stroke="black" points="4041.58,-182.67 4045.08,-192.67 4048.58,-182.67 4041.58,-182.67"/>
</g>
<!-- ProductsPageModule -->
<g id="node37" class="node">
<title>ProductsPageModule</title>
<polygon fill="#8dd3c7" stroke="black" points="2841.75,-228.8 2838.75,-232.8 2817.75,-232.8 2814.75,-228.8 2706.25,-228.8 2706.25,-192.8 2841.75,-192.8 2841.75,-228.8"/>
<text text-anchor="middle" x="2774" y="-206.6" font-family="Times,serif" font-size="14.00">ProductsPageModule</text>
</g>
<!-- CommonModule&#45;&gt;ProductsPageModule -->
<g id="edge42" class="edge">
<title>CommonModule&#45;&gt;ProductsPageModule</title>
<path fill="none" stroke="black" d="M2074,-85.01C2074,-121.86 2074,-201.8 2074,-201.8 2074,-201.8 2696.25,-201.8 2696.25,-201.8"/>
<polygon fill="black" stroke="black" points="2696.25,-205.3 2706.25,-201.8 2696.24,-198.3 2696.25,-205.3"/>
</g>
<!-- SignInPageModule -->
<g id="node42" class="node">
<title>SignInPageModule</title>
<polygon fill="#8dd3c7" stroke="black" points="3743.1,-160.8 3740.1,-164.8 3719.1,-164.8 3716.1,-160.8 3618.9,-160.8 3618.9,-124.8 3743.1,-124.8 3743.1,-160.8"/>
<text text-anchor="middle" x="3681" y="-138.6" font-family="Times,serif" font-size="14.00">SignInPageModule</text>
</g>
<!-- CommonModule&#45;&gt;SignInPageModule -->
<g id="edge49" class="edge">
<title>CommonModule&#45;&gt;SignInPageModule</title>
<path fill="none" stroke="black" d="M2107.5,-84.87C2107.5,-94.26 2107.5,-103.8 2107.5,-103.8 2107.5,-103.8 3660.32,-103.8 3660.32,-103.8 3660.32,-103.8 3660.32,-114.67 3660.32,-114.67"/>
<polygon fill="black" stroke="black" points="3656.82,-114.67 3660.32,-124.67 3663.82,-114.67 3656.82,-114.67"/>
</g>
<!-- HomePageComponent -->
<g id="node10" class="node">
<title>HomePageComponent</title>
<polygon fill="#ffffb3" stroke="black" points="1978.26,-84.8 1835.74,-84.8 1835.74,-48.8 1978.26,-48.8 1978.26,-84.8"/>
<text text-anchor="middle" x="1907" y="-62.6" font-family="Times,serif" font-size="14.00">HomePageComponent</text>
</g>
<!-- HomePageComponent&#45;&gt;HomePageModule -->
<g id="edge9" class="edge">
<title>HomePageComponent&#45;&gt;HomePageModule</title>
<path fill="none" stroke="black" d="M1907,-84.81C1907,-84.81 1907,-114.65 1907,-114.65"/>
<polygon fill="black" stroke="black" points="1903.5,-114.65 1907,-124.65 1910.5,-114.65 1903.5,-114.65"/>
</g>
<!-- HomePageRoutingModule -->
<g id="node12" class="node">
<title>HomePageRoutingModule</title>
<polygon fill="#8dd3c7" stroke="black" points="1812.09,-84.8 1809.09,-88.8 1788.09,-88.8 1785.09,-84.8 1645.91,-84.8 1645.91,-48.8 1812.09,-48.8 1812.09,-84.8"/>
<text text-anchor="middle" x="1729" y="-62.6" font-family="Times,serif" font-size="14.00">HomePageRoutingModule</text>
</g>
<!-- HomePageRoutingModule&#45;&gt;HomePageModule -->
<g id="edge11" class="edge">
<title>HomePageRoutingModule&#45;&gt;HomePageModule</title>
<path fill="none" stroke="black" d="M1770.52,-84.81C1770.52,-107.29 1770.52,-142.8 1770.52,-142.8 1770.52,-142.8 1836.34,-142.8 1836.34,-142.8"/>
<polygon fill="black" stroke="black" points="1836.34,-146.3 1846.34,-142.8 1836.34,-139.3 1836.34,-146.3"/>
</g>
<!-- RouterModule  -->
<g id="node14" class="node">
<title>RouterModule </title>
<polygon fill="#fb8072" stroke="black" points="4077.65,-84.8 3976.35,-84.8 3976.35,-48.8 4077.65,-48.8 4077.65,-84.8"/>
<text text-anchor="middle" x="4027" y="-62.6" font-family="Times,serif" font-size="14.00">RouterModule </text>
</g>
<!-- HomePageRoutingModule&#45;&gt;RouterModule  -->
<g id="edge13" class="edge">
<title>HomePageRoutingModule&#45;&gt;RouterModule </title>
<path fill="none" stroke="black" stroke-dasharray="5,2" d="M1729,-84.86C1729,-89.29 1729,-92.8 1729,-92.8 1729,-92.8 4037.12,-92.8 4037.12,-92.8 4037.12,-92.8 4037.12,-92.01 4037.12,-92.01"/>
<polygon fill="black" stroke="black" points="4040.62,-94.86 4037.12,-84.86 4033.62,-94.86 4040.62,-94.86"/>
</g>
<!-- RouterModule.forChild(args) -->
<g id="node13" class="node">
<title>RouterModule.forChild(args)</title>
<polygon fill="#8dd3c7" stroke="black" points="4283.73,-84.8 4280.73,-88.8 4259.73,-88.8 4256.73,-84.8 4102.27,-84.8 4102.27,-48.8 4283.73,-48.8 4283.73,-84.8"/>
<text text-anchor="middle" x="4193" y="-62.6" font-family="Times,serif" font-size="14.00">RouterModule.forChild(args)</text>
</g>
<!-- RouterModule.forChild(args)&#45;&gt;HomePageRoutingModule -->
<g id="edge12" class="edge">
<title>RouterModule.forChild(args)&#45;&gt;HomePageRoutingModule</title>
<path fill="none" stroke="black" d="M4164.74,-84.99C4164.74,-93.08 4164.74,-100.8 4164.74,-100.8 4164.74,-100.8 1687.48,-100.8 1687.48,-100.8 1687.48,-100.8 1687.48,-94.99 1687.48,-94.99"/>
<polygon fill="black" stroke="black" points="1690.98,-94.99 1687.48,-84.99 1683.98,-94.99 1690.98,-94.99"/>
</g>
<!-- NotFoundPageRoutingModule -->
<g id="node26" class="node">
<title>NotFoundPageRoutingModule</title>
<polygon fill="#8dd3c7" stroke="black" points="2358.16,-84.8 2355.16,-88.8 2334.16,-88.8 2331.16,-84.8 2169.84,-84.8 2169.84,-48.8 2358.16,-48.8 2358.16,-84.8"/>
<text text-anchor="middle" x="2264" y="-62.6" font-family="Times,serif" font-size="14.00">NotFoundPageRoutingModule</text>
</g>
<!-- RouterModule.forChild(args)&#45;&gt;NotFoundPageRoutingModule -->
<g id="edge27" class="edge">
<title>RouterModule.forChild(args)&#45;&gt;NotFoundPageRoutingModule</title>
<path fill="none" stroke="black" d="M4143.95,-85.04C4143.95,-92.23 4143.95,-98.8 4143.95,-98.8 4143.95,-98.8 2343.29,-98.8 2343.29,-98.8 2343.29,-98.8 2343.29,-95.04 2343.29,-95.04"/>
<polygon fill="black" stroke="black" points="2346.79,-95.04 2343.29,-85.04 2339.79,-95.04 2346.79,-95.04"/>
</g>
<!-- ProductOverviewPageRoutingModule -->
<g id="node35" class="node">
<title>ProductOverviewPageRoutingModule</title>
<polygon fill="#8dd3c7" stroke="black" points="4206.12,-160.8 4203.12,-164.8 4182.12,-164.8 4179.12,-160.8 3975.88,-160.8 3975.88,-124.8 4206.12,-124.8 4206.12,-160.8"/>
<text text-anchor="middle" x="4091" y="-138.6" font-family="Times,serif" font-size="14.00">ProductOverviewPageRoutingModule</text>
</g>
<!-- RouterModule.forChild(args)&#45;&gt;ProductOverviewPageRoutingModule -->
<g id="edge39" class="edge">
<title>RouterModule.forChild(args)&#45;&gt;ProductOverviewPageRoutingModule</title>
<path fill="none" stroke="black" d="M4185.53,-84.81C4185.53,-84.81 4185.53,-114.65 4185.53,-114.65"/>
<polygon fill="black" stroke="black" points="4182.03,-114.65 4185.53,-124.65 4189.03,-114.65 4182.03,-114.65"/>
</g>
<!-- SignInPageRoutingModule -->
<g id="node43" class="node">
<title>SignInPageRoutingModule</title>
<polygon fill="#8dd3c7" stroke="black" points="3765.71,-84.8 3762.71,-88.8 3741.71,-88.8 3738.71,-84.8 3596.29,-84.8 3596.29,-48.8 3765.71,-48.8 3765.71,-84.8"/>
<text text-anchor="middle" x="3681" y="-62.6" font-family="Times,serif" font-size="14.00">SignInPageRoutingModule</text>
</g>
<!-- RouterModule.forChild(args)&#45;&gt;SignInPageRoutingModule -->
<g id="edge51" class="edge">
<title>RouterModule.forChild(args)&#45;&gt;SignInPageRoutingModule</title>
<path fill="none" stroke="black" d="M4123.17,-85C4123.17,-90.83 4123.17,-95.8 4123.17,-95.8 4123.17,-95.8 3750.57,-95.8 3750.57,-95.8 3750.57,-95.8 3750.57,-94.72 3750.57,-94.72"/>
<polygon fill="black" stroke="black" points="3754.07,-95 3750.57,-85 3747.07,-95 3754.07,-95"/>
</g>
<!-- StructureComponent -->
<g id="node15" class="node">
<title>StructureComponent</title>
<polygon fill="#ffffb3" stroke="black" points="1606.15,-84.8 1473.85,-84.8 1473.85,-48.8 1606.15,-48.8 1606.15,-84.8"/>
<text text-anchor="middle" x="1540" y="-62.6" font-family="Times,serif" font-size="14.00">StructureComponent</text>
</g>
<!-- StructureComponent&#45;&gt;LayoutModule -->
<g id="edge14" class="edge">
<title>StructureComponent&#45;&gt;LayoutModule</title>
<path fill="none" stroke="black" d="M1488.33,-84.95C1488.33,-98.54 1488.33,-114.8 1488.33,-114.8 1488.33,-114.8 911.31,-114.8 911.31,-114.8 911.31,-114.8 911.31,-115.78 911.31,-115.78"/>
<polygon fill="black" stroke="black" points="907.81,-114.59 911.31,-124.59 914.81,-114.59 907.81,-114.59"/>
</g>
<!-- MobileMenuComponent -->
<g id="node16" class="node">
<title>MobileMenuComponent</title>
<polygon fill="#ffffb3" stroke="black" points="1455.43,-84.8 1300.57,-84.8 1300.57,-48.8 1455.43,-48.8 1455.43,-84.8"/>
<text text-anchor="middle" x="1378" y="-62.6" font-family="Times,serif" font-size="14.00">MobileMenuComponent</text>
</g>
<!-- MobileMenuComponent&#45;&gt;LayoutModule -->
<g id="edge15" class="edge">
<title>MobileMenuComponent&#45;&gt;LayoutModule</title>
<path fill="none" stroke="black" d="M1336.14,-84.84C1336.14,-97.36 1336.14,-111.8 1336.14,-111.8 1336.14,-111.8 896.67,-111.8 896.67,-111.8 896.67,-111.8 896.67,-114.77 896.67,-114.77"/>
<polygon fill="black" stroke="black" points="893.17,-114.77 896.67,-124.77 900.17,-114.77 893.17,-114.77"/>
</g>
<!-- MobileMenuOpenBtnComponent -->
<g id="node17" class="node">
<title>MobileMenuOpenBtnComponent</title>
<polygon fill="#ffffb3" stroke="black" points="1282.48,-84.8 1077.52,-84.8 1077.52,-48.8 1282.48,-48.8 1282.48,-84.8"/>
<text text-anchor="middle" x="1180" y="-62.6" font-family="Times,serif" font-size="14.00">MobileMenuOpenBtnComponent</text>
</g>
<!-- MobileMenuOpenBtnComponent&#45;&gt;LayoutModule -->
<g id="edge16" class="edge">
<title>MobileMenuOpenBtnComponent&#45;&gt;LayoutModule</title>
<path fill="none" stroke="black" d="M1084.75,-84.86C1084.75,-96.24 1084.75,-108.8 1084.75,-108.8 1084.75,-108.8 882.02,-108.8 882.02,-108.8 882.02,-108.8 882.02,-114.61 882.02,-114.61"/>
<polygon fill="black" stroke="black" points="878.52,-114.61 882.02,-124.61 885.52,-114.61 878.52,-114.61"/>
</g>
<!-- MobileMenuCloseBtnComponent -->
<g id="node18" class="node">
<title>MobileMenuCloseBtnComponent</title>
<polygon fill="#ffffb3" stroke="black" points="1059.05,-84.8 852.95,-84.8 852.95,-48.8 1059.05,-48.8 1059.05,-84.8"/>
<text text-anchor="middle" x="956" y="-62.6" font-family="Times,serif" font-size="14.00">MobileMenuCloseBtnComponent</text>
</g>
<!-- MobileMenuCloseBtnComponent&#45;&gt;LayoutModule -->
<g id="edge17" class="edge">
<title>MobileMenuCloseBtnComponent&#45;&gt;LayoutModule</title>
<path fill="none" stroke="black" d="M867.37,-84.81C867.37,-84.81 867.37,-114.65 867.37,-114.65"/>
<polygon fill="black" stroke="black" points="863.87,-114.65 867.37,-124.65 870.87,-114.65 863.87,-114.65"/>
</g>
<!-- MenFlyoutMenuComponent -->
<g id="node19" class="node">
<title>MenFlyoutMenuComponent</title>
<polygon fill="#ffffb3" stroke="black" points="835.21,-84.8 658.79,-84.8 658.79,-48.8 835.21,-48.8 835.21,-84.8"/>
<text text-anchor="middle" x="747" y="-62.6" font-family="Times,serif" font-size="14.00">MenFlyoutMenuComponent</text>
</g>
<!-- MenFlyoutMenuComponent&#45;&gt;LayoutModule -->
<g id="edge18" class="edge">
<title>MenFlyoutMenuComponent&#45;&gt;LayoutModule</title>
<path fill="none" stroke="black" d="M835.19,-66.8C842.44,-66.8 847.06,-66.8 847.06,-66.8 847.06,-66.8 847.06,-114.79 847.06,-114.79"/>
<polygon fill="black" stroke="black" points="843.56,-114.79 847.06,-124.79 850.56,-114.79 843.56,-114.79"/>
</g>
<!-- WomenFlyoutMenuComponent -->
<g id="node20" class="node">
<title>WomenFlyoutMenuComponent</title>
<polygon fill="#ffffb3" stroke="black" points="640.38,-84.8 445.62,-84.8 445.62,-48.8 640.38,-48.8 640.38,-84.8"/>
<text text-anchor="middle" x="543" y="-62.6" font-family="Times,serif" font-size="14.00">WomenFlyoutMenuComponent</text>
</g>
<!-- WomenFlyoutMenuComponent&#45;&gt;LayoutModule -->
<g id="edge19" class="edge">
<title>WomenFlyoutMenuComponent&#45;&gt;LayoutModule</title>
<path fill="none" stroke="black" d="M626.88,-84.83C626.88,-104.38 626.88,-132.8 626.88,-132.8 626.88,-132.8 831.32,-132.8 831.32,-132.8"/>
<polygon fill="black" stroke="black" points="831.32,-136.3 841.32,-132.8 831.32,-129.3 831.32,-136.3"/>
</g>
<!-- BannerComponent -->
<g id="node21" class="node">
<title>BannerComponent</title>
<polygon fill="#ffffb3" stroke="black" points="427.76,-84.8 306.24,-84.8 306.24,-48.8 427.76,-48.8 427.76,-84.8"/>
<text text-anchor="middle" x="367" y="-62.6" font-family="Times,serif" font-size="14.00">BannerComponent</text>
</g>
<!-- BannerComponent&#45;&gt;LayoutModule -->
<g id="edge20" class="edge">
<title>BannerComponent&#45;&gt;LayoutModule</title>
<path fill="none" stroke="black" d="M367,-84.84C367,-106.46 367,-139.8 367,-139.8 367,-139.8 831.23,-139.8 831.23,-139.8"/>
<polygon fill="black" stroke="black" points="831.23,-143.3 841.23,-139.8 831.23,-136.3 831.23,-143.3"/>
</g>
<!-- RouterModule -->
<g id="node22" class="node">
<title>RouterModule</title>
<polygon fill="#8dd3c7" stroke="black" points="281.65,-84.8 278.65,-88.8 257.65,-88.8 254.65,-84.8 184.35,-84.8 184.35,-48.8 281.65,-48.8 281.65,-84.8"/>
<text text-anchor="middle" x="233" y="-62.6" font-family="Times,serif" font-size="14.00">RouterModule</text>
</g>
<!-- RouterModule&#45;&gt;LayoutModule -->
<g id="edge22" class="edge">
<title>RouterModule&#45;&gt;LayoutModule</title>
<path fill="none" stroke="black" d="M233,-84.95C233,-108.56 233,-146.8 233,-146.8 233,-146.8 831.27,-146.8 831.27,-146.8"/>
<polygon fill="black" stroke="black" points="831.27,-150.3 841.27,-146.8 831.27,-143.3 831.27,-150.3"/>
</g>
<!-- NotFoundPageComponent -->
<g id="node24" class="node">
<title>NotFoundPageComponent</title>
<polygon fill="#ffffb3" stroke="black" points="2547.82,-84.8 2382.18,-84.8 2382.18,-48.8 2547.82,-48.8 2547.82,-84.8"/>
<text text-anchor="middle" x="2465" y="-62.6" font-family="Times,serif" font-size="14.00">NotFoundPageComponent</text>
</g>
<!-- NotFoundPageComponent&#45;&gt;NotFoundPageModule -->
<g id="edge24" class="edge">
<title>NotFoundPageComponent&#45;&gt;NotFoundPageModule</title>
<path fill="none" stroke="black" d="M2465,-84.81C2465,-107.29 2465,-142.8 2465,-142.8 2465,-142.8 2345.71,-142.8 2345.71,-142.8"/>
<polygon fill="black" stroke="black" points="2345.71,-139.3 2335.71,-142.8 2345.71,-146.3 2345.71,-139.3"/>
</g>
<!-- NotFoundPageRoutingModule&#45;&gt;RouterModule  -->
<g id="edge28" class="edge">
<title>NotFoundPageRoutingModule&#45;&gt;RouterModule </title>
<path fill="none" stroke="black" stroke-dasharray="5,2" d="M2350.81,-84.99C2350.81,-88.34 2350.81,-90.8 2350.81,-90.8 2350.81,-90.8 4016.88,-90.8 4016.88,-90.8 4016.88,-90.8 4016.88,-90.22 4016.88,-90.22"/>
<polygon fill="black" stroke="black" points="4020.38,-94.99 4016.88,-84.99 4013.38,-94.99 4020.38,-94.99"/>
</g>
<!-- NotFoundPageRoutingModule&#45;&gt;NotFoundPageModule -->
<g id="edge26" class="edge">
<title>NotFoundPageRoutingModule&#45;&gt;NotFoundPageModule</title>
<path fill="none" stroke="black" d="M2264,-84.81C2264,-84.81 2264,-114.65 2264,-114.65"/>
<polygon fill="black" stroke="black" points="2260.5,-114.65 2264,-124.65 2267.5,-114.65 2260.5,-114.65"/>
</g>
<!-- ProductsListComponent -->
<g id="node27" class="node">
<title>ProductsListComponent</title>
<polygon fill="#ffffb3" stroke="black" points="3556.1,-84.8 3403.9,-84.8 3403.9,-48.8 3556.1,-48.8 3556.1,-84.8"/>
<text text-anchor="middle" x="3480" y="-62.6" font-family="Times,serif" font-size="14.00">ProductsListComponent</text>
</g>
<!-- ProductsListComponent&#45;&gt;ProductModule -->
<g id="edge29" class="edge">
<title>ProductsListComponent&#45;&gt;ProductModule</title>
<path fill="none" stroke="black" d="M3426.88,-84.83C3426.88,-105.57 3426.88,-136.8 3426.88,-136.8 3426.88,-136.8 3296.67,-136.8 3296.67,-136.8"/>
<polygon fill="black" stroke="black" points="3296.67,-133.3 3286.67,-136.8 3296.67,-140.3 3296.67,-133.3"/>
</g>
<!-- ProductsListElementComponent -->
<g id="node28" class="node">
<title>ProductsListElementComponent</title>
<polygon fill="#ffffb3" stroke="black" points="3386.26,-84.8 3187.74,-84.8 3187.74,-48.8 3386.26,-48.8 3386.26,-84.8"/>
<text text-anchor="middle" x="3287" y="-62.6" font-family="Times,serif" font-size="14.00">ProductsListElementComponent</text>
</g>
<!-- ProductsListElementComponent&#45;&gt;ProductModule -->
<g id="edge30" class="edge">
<title>ProductsListElementComponent&#45;&gt;ProductModule</title>
<path fill="none" stroke="black" d="M3253.57,-84.81C3253.57,-84.81 3253.57,-114.65 3253.57,-114.65"/>
<polygon fill="black" stroke="black" points="3250.07,-114.65 3253.57,-124.65 3257.07,-114.65 3250.07,-114.65"/>
</g>
<!-- ProductOverviewComponent -->
<g id="node29" class="node">
<title>ProductOverviewComponent</title>
<polygon fill="#ffffb3" stroke="black" points="3170.07,-84.8 2989.93,-84.8 2989.93,-48.8 3170.07,-48.8 3170.07,-84.8"/>
<text text-anchor="middle" x="3080" y="-62.6" font-family="Times,serif" font-size="14.00">ProductOverviewComponent</text>
</g>
<!-- ProductOverviewComponent&#45;&gt;ProductModule -->
<g id="edge31" class="edge">
<title>ProductOverviewComponent&#45;&gt;ProductModule</title>
<path fill="none" stroke="black" d="M3131.12,-84.83C3131.12,-105.57 3131.12,-136.8 3131.12,-136.8 3131.12,-136.8 3173.37,-136.8 3173.37,-136.8"/>
<polygon fill="black" stroke="black" points="3173.37,-140.3 3183.37,-136.8 3173.37,-133.3 3173.37,-140.3"/>
</g>
<!-- ProductsListComponent  -->
<g id="node31" class="node">
<title>ProductsListComponent </title>
<polygon fill="#fb8072" stroke="black" points="3449.6,-228.8 3294.4,-228.8 3294.4,-192.8 3449.6,-192.8 3449.6,-228.8"/>
<text text-anchor="middle" x="3372" y="-206.6" font-family="Times,serif" font-size="14.00">ProductsListComponent </text>
</g>
<!-- ProductModule&#45;&gt;ProductsListComponent  -->
<g id="edge33" class="edge">
<title>ProductModule&#45;&gt;ProductsListComponent </title>
<path fill="none" stroke="black" stroke-dasharray="5,2" d="M3281.17,-161.02C3281.17,-181.17 3281.17,-210.8 3281.17,-210.8 3281.17,-210.8 3284.18,-210.8 3284.18,-210.8"/>
<polygon fill="black" stroke="black" points="3284.18,-214.3 3294.18,-210.8 3284.18,-207.3 3284.18,-214.3"/>
</g>
<!-- ProductOverviewComponent  -->
<g id="node32" class="node">
<title>ProductOverviewComponent </title>
<polygon fill="#fb8072" stroke="black" points="3275.57,-228.8 3092.43,-228.8 3092.43,-192.8 3275.57,-192.8 3275.57,-228.8"/>
<text text-anchor="middle" x="3184" y="-206.6" font-family="Times,serif" font-size="14.00">ProductOverviewComponent </text>
</g>
<!-- ProductModule&#45;&gt;ProductOverviewComponent  -->
<g id="edge34" class="edge">
<title>ProductModule&#45;&gt;ProductOverviewComponent </title>
<path fill="none" stroke="black" stroke-dasharray="5,2" d="M3229.62,-161.02C3229.62,-161.02 3229.62,-182.53 3229.62,-182.53"/>
<polygon fill="black" stroke="black" points="3226.12,-182.53 3229.62,-192.53 3233.12,-182.53 3226.12,-182.53"/>
</g>
<!-- ProductModule&#45;&gt;ProductOverviewPageModule -->
<g id="edge38" class="edge">
<title>ProductModule&#45;&gt;ProductOverviewPageModule</title>
<path fill="none" stroke="black" d="M3286.66,-148.8C3364.52,-148.8 3502.93,-148.8 3502.93,-148.8 3502.93,-148.8 3502.93,-210.8 3502.93,-210.8 3502.93,-210.8 3973.29,-210.8 3973.29,-210.8"/>
<polygon fill="black" stroke="black" points="3973.29,-214.3 3983.29,-210.8 3973.29,-207.3 3973.29,-214.3"/>
</g>
<!-- ProductModule&#45;&gt;ProductsPageModule -->
<g id="edge44" class="edge">
<title>ProductModule&#45;&gt;ProductsPageModule</title>
<path fill="none" stroke="black" d="M3183.29,-148.8C3125.85,-148.8 3041.09,-148.8 3041.09,-148.8 3041.09,-148.8 3041.09,-210.8 3041.09,-210.8 3041.09,-210.8 2852.09,-210.8 2852.09,-210.8"/>
<polygon fill="black" stroke="black" points="2852.09,-207.3 2842.09,-210.8 2852.09,-214.3 2852.09,-207.3"/>
</g>
<!-- ProductOverviewPageComponent -->
<g id="node33" class="node">
<title>ProductOverviewPageComponent</title>
<polygon fill="#ffffb3" stroke="black" points="4437.79,-160.8 4230.21,-160.8 4230.21,-124.8 4437.79,-124.8 4437.79,-160.8"/>
<text text-anchor="middle" x="4334" y="-138.6" font-family="Times,serif" font-size="14.00">ProductOverviewPageComponent</text>
</g>
<!-- ProductOverviewPageComponent&#45;&gt;ProductOverviewPageModule -->
<g id="edge35" class="edge">
<title>ProductOverviewPageComponent&#45;&gt;ProductOverviewPageModule</title>
<path fill="none" stroke="black" d="M4334,-161.02C4334,-181.17 4334,-210.8 4334,-210.8 4334,-210.8 4178.78,-210.8 4178.78,-210.8"/>
<polygon fill="black" stroke="black" points="4178.78,-207.3 4168.78,-210.8 4178.78,-214.3 4178.78,-207.3"/>
</g>
<!-- ProductOverviewPageRoutingModule&#45;&gt;RouterModule  -->
<g id="edge40" class="edge">
<title>ProductOverviewPageRoutingModule&#45;&gt;RouterModule </title>
<path fill="none" stroke="black" stroke-dasharray="5,2" d="M4057.35,-124.79C4057.35,-124.79 4057.35,-94.95 4057.35,-94.95"/>
<polygon fill="black" stroke="black" points="4060.85,-94.95 4057.35,-84.95 4053.85,-94.95 4060.85,-94.95"/>
</g>
<!-- ProductOverviewPageRoutingModule&#45;&gt;ProductOverviewPageModule -->
<g id="edge37" class="edge">
<title>ProductOverviewPageRoutingModule&#45;&gt;ProductOverviewPageModule</title>
<path fill="none" stroke="black" d="M4106.92,-161.02C4106.92,-161.02 4106.92,-182.53 4106.92,-182.53"/>
<polygon fill="black" stroke="black" points="4103.42,-182.53 4106.92,-192.53 4110.42,-182.53 4103.42,-182.53"/>
</g>
<!-- ProductsPageComponent -->
<g id="node36" class="node">
<title>ProductsPageComponent</title>
<polygon fill="#ffffb3" stroke="black" points="2949.54,-160.8 2792.46,-160.8 2792.46,-124.8 2949.54,-124.8 2949.54,-160.8"/>
<text text-anchor="middle" x="2871" y="-138.6" font-family="Times,serif" font-size="14.00">ProductsPageComponent</text>
</g>
<!-- ProductsPageComponent&#45;&gt;ProductsPageModule -->
<g id="edge41" class="edge">
<title>ProductsPageComponent&#45;&gt;ProductsPageModule</title>
<path fill="none" stroke="black" d="M2817.05,-161.02C2817.05,-161.02 2817.05,-182.53 2817.05,-182.53"/>
<polygon fill="black" stroke="black" points="2813.55,-182.53 2817.05,-192.53 2820.55,-182.53 2813.55,-182.53"/>
</g>
<!-- ProductsPageRoutingModule -->
<g id="node38" class="node">
<title>ProductsPageRoutingModule</title>
<polygon fill="#8dd3c7" stroke="black" points="2768.37,-160.8 2765.37,-164.8 2744.37,-164.8 2741.37,-160.8 2587.63,-160.8 2587.63,-124.8 2768.37,-124.8 2768.37,-160.8"/>
<text text-anchor="middle" x="2678" y="-138.6" font-family="Times,serif" font-size="14.00">ProductsPageRoutingModule</text>
</g>
<!-- ProductsPageRoutingModule&#45;&gt;ProductsPageModule -->
<g id="edge43" class="edge">
<title>ProductsPageRoutingModule&#45;&gt;ProductsPageModule</title>
<path fill="none" stroke="black" d="M2737.28,-161.02C2737.28,-161.02 2737.28,-182.53 2737.28,-182.53"/>
<polygon fill="black" stroke="black" points="2733.78,-182.53 2737.28,-192.53 2740.78,-182.53 2733.78,-182.53"/>
</g>
<!-- ShopifyFooterComponent -->
<g id="node39" class="node">
<title>ShopifyFooterComponent</title>
<polygon fill="#ffffb3" stroke="black" points="801.21,-228.8 638.79,-228.8 638.79,-192.8 801.21,-192.8 801.21,-228.8"/>
<text text-anchor="middle" x="720" y="-206.6" font-family="Times,serif" font-size="14.00">ShopifyFooterComponent</text>
</g>
<!-- ShopifyFooterComponent&#45;&gt;ShopifyFooterModule -->
<g id="edge45" class="edge">
<title>ShopifyFooterComponent&#45;&gt;ShopifyFooterModule</title>
<path fill="none" stroke="black" d="M801.19,-201.8C892.74,-201.8 1029,-201.8 1029,-201.8 1029,-201.8 1029,-170.82 1029,-170.82"/>
<polygon fill="black" stroke="black" points="1032.5,-170.82 1029,-160.82 1025.5,-170.82 1032.5,-170.82"/>
</g>
<!-- SignInPageComponent -->
<g id="node41" class="node">
<title>SignInPageComponent</title>
<polygon fill="#ffffb3" stroke="black" points="3935.88,-84.8 3790.12,-84.8 3790.12,-48.8 3935.88,-48.8 3935.88,-84.8"/>
<text text-anchor="middle" x="3863" y="-62.6" font-family="Times,serif" font-size="14.00">SignInPageComponent</text>
</g>
<!-- SignInPageComponent&#45;&gt;SignInPageModule -->
<g id="edge48" class="edge">
<title>SignInPageComponent&#45;&gt;SignInPageModule</title>
<path fill="none" stroke="black" d="M3863,-84.81C3863,-107.29 3863,-142.8 3863,-142.8 3863,-142.8 3753.13,-142.8 3753.13,-142.8"/>
<polygon fill="black" stroke="black" points="3753.13,-139.3 3743.13,-142.8 3753.13,-146.3 3753.13,-139.3"/>
</g>
<!-- SignInPageRoutingModule&#45;&gt;RouterModule  -->
<g id="edge52" class="edge">
<title>SignInPageRoutingModule&#45;&gt;RouterModule </title>
<path fill="none" stroke="black" stroke-dasharray="5,2" d="M3758.09,-84.88C3758.09,-86.65 3758.09,-87.8 3758.09,-87.8 3758.09,-87.8 3996.65,-87.8 3996.65,-87.8 3996.65,-87.8 3996.65,-87.51 3996.65,-87.51"/>
<polygon fill="black" stroke="black" points="4000.15,-94.88 3996.65,-84.88 3993.15,-94.88 4000.15,-94.88"/>
</g>
<!-- SignInPageRoutingModule&#45;&gt;SignInPageModule -->
<g id="edge50" class="edge">
<title>SignInPageRoutingModule&#45;&gt;SignInPageModule</title>
<path fill="none" stroke="black" d="M3701.68,-84.81C3701.68,-84.81 3701.68,-114.65 3701.68,-114.65"/>
<polygon fill="black" stroke="black" points="3698.18,-114.65 3701.68,-124.65 3705.18,-114.65 3698.18,-114.65"/>
</g>
</g>
</svg>
