<?xml version="1.0" encoding="UTF-8" standalone="no"?>
<!DOCTYPE svg PUBLIC "-//W3C//DTD SVG 1.1//EN"
 "http://www.w3.org/Graphics/SVG/1.1/DTD/svg11.dtd">
<!-- Generated by graphviz version 2.47.3 (20210619.1520)
 -->
<!-- Title: dependencies Pages: 1 -->
<svg width="3769pt" height="329pt"
 viewBox="0.00 0.00 3769.00 328.80" xmlns="http://www.w3.org/2000/svg" xmlns:xlink="http://www.w3.org/1999/xlink">
<g id="graph0" class="graph" transform="scale(1 1) rotate(0) translate(4 324.8)">
<title>dependencies</title>
<polygon fill="white" stroke="transparent" points="-4,4 -4,-324.8 3765,-324.8 3765,4 -4,4"/>
<text text-anchor="middle" x="1880.5" y="-8.2" font-family="sans-serif" font-size="14.00">dependencies</text>
<g id="clust1" class="cluster">
<title>cluster_AppModule</title>
<polygon fill="none" stroke="black" stroke-dasharray="1,5" points="762,-108.8 762,-312.8 1559,-312.8 1559,-108.8 762,-108.8"/>
</g>
<g id="clust2" class="cluster">
<title>cluster_AppModule_declarations</title>
<polygon fill="none" stroke="black" points="770,-116.8 770,-168.8 892,-168.8 892,-116.8 770,-116.8"/>
</g>
<g id="clust4" class="cluster">
<title>cluster_AppModule_imports</title>
<polygon fill="none" stroke="black" points="900,-116.8 900,-168.8 1551,-168.8 1551,-116.8 900,-116.8"/>
</g>
<g id="clust6" class="cluster">
<title>cluster_AppModule_bootstrap</title>
<polygon fill="none" stroke="black" points="1074,-252.8 1074,-304.8 1198,-304.8 1198,-252.8 1074,-252.8"/>
</g>
<g id="clust8" class="cluster">
<title>cluster_CoreModule</title>
<polygon fill="none" stroke="black" stroke-dasharray="1,5" points="2001,-32.8 2001,-100.8 2145,-100.8 2145,-32.8 2001,-32.8"/>
</g>
<g id="clust10" class="cluster">
<title>cluster_CoreModule_imports</title>
<polygon fill="none" stroke="black" points="2009,-40.8 2009,-92.8 2137,-92.8 2137,-40.8 2009,-40.8"/>
</g>
<g id="clust14" class="cluster">
<title>cluster_HomePageModule</title>
<polygon fill="none" stroke="black" stroke-dasharray="1,5" points="1629,-32.8 1629,-168.8 1993,-168.8 1993,-32.8 1629,-32.8"/>
</g>
<g id="clust15" class="cluster">
<title>cluster_HomePageModule_declarations</title>
<polygon fill="none" stroke="black" points="1827,-40.8 1827,-92.8 1985,-92.8 1985,-40.8 1827,-40.8"/>
</g>
<g id="clust17" class="cluster">
<title>cluster_HomePageModule_imports</title>
<polygon fill="none" stroke="black" points="1637,-40.8 1637,-92.8 1819,-92.8 1819,-40.8 1637,-40.8"/>
</g>
<g id="clust21" class="cluster">
<title>cluster_HomePageRoutingModule</title>
<polygon fill="none" stroke="black" stroke-dasharray="1,5" points="3359,-32.8 3359,-100.8 3699,-100.8 3699,-32.8 3359,-32.8"/>
</g>
<g id="clust23" class="cluster">
<title>cluster_HomePageRoutingModule_imports</title>
<polygon fill="none" stroke="black" points="3493,-40.8 3493,-92.8 3691,-92.8 3691,-40.8 3493,-40.8"/>
</g>
<g id="clust24" class="cluster">
<title>cluster_HomePageRoutingModule_exports</title>
<polygon fill="none" stroke="black" points="3367,-40.8 3367,-92.8 3485,-92.8 3485,-40.8 3367,-40.8"/>
</g>
<g id="clust27" class="cluster">
<title>cluster_LayoutModule</title>
<polygon fill="none" stroke="black" stroke-dasharray="1,5" points="8,-32.8 8,-100.8 1621,-100.8 1621,-32.8 8,-32.8"/>
</g>
<g id="clust28" class="cluster">
<title>cluster_LayoutModule_declarations</title>
<polygon fill="none" stroke="black" points="298,-40.8 298,-92.8 1613,-92.8 1613,-40.8 298,-40.8"/>
</g>
<g id="clust36" class="cluster">
<title>cluster_LayoutModule_imports</title>
<polygon fill="none" stroke="black" points="176,-40.8 176,-92.8 290,-92.8 290,-40.8 176,-40.8"/>
</g>
<g id="clust37" class="cluster">
<title>cluster_LayoutModule_exports</title>
<polygon fill="none" stroke="black" points="16,-40.8 16,-92.8 168,-92.8 168,-40.8 16,-40.8"/>
</g>
<g id="clust40" class="cluster">
<title>cluster_NotFoundPageModule</title>
<polygon fill="none" stroke="black" stroke-dasharray="1,5" points="2153,-32.8 2153,-168.8 2563,-168.8 2563,-32.8 2153,-32.8"/>
</g>
<g id="clust41" class="cluster">
<title>cluster_NotFoundPageModule_declarations</title>
<polygon fill="none" stroke="black" points="2373,-40.8 2373,-92.8 2555,-92.8 2555,-40.8 2373,-40.8"/>
</g>
<g id="clust43" class="cluster">
<title>cluster_NotFoundPageModule_imports</title>
<polygon fill="none" stroke="black" points="2161,-40.8 2161,-92.8 2365,-92.8 2365,-40.8 2161,-40.8"/>
</g>
<g id="clust53" class="cluster">
<title>cluster_ProductModule</title>
<polygon fill="none" stroke="black" stroke-dasharray="1,5" points="2571,-32.8 2571,-244.8 2971,-244.8 2971,-32.8 2571,-32.8"/>
</g>
<g id="clust54" class="cluster">
<title>cluster_ProductModule_declarations</title>
<polygon fill="none" stroke="black" points="2579,-40.8 2579,-92.8 2963,-92.8 2963,-40.8 2579,-40.8"/>
</g>
<g id="clust58" class="cluster">
<title>cluster_ProductModule_exports</title>
<polygon fill="none" stroke="black" points="2695,-184.8 2695,-236.8 2867,-236.8 2867,-184.8 2695,-184.8"/>
</g>
<g id="clust61" class="cluster">
<title>cluster_ProductsPageModule</title>
<polygon fill="none" stroke="black" stroke-dasharray="1,5" points="3359,-108.8 3359,-236.8 3753,-236.8 3753,-108.8 3359,-108.8"/>
</g>
<g id="clust62" class="cluster">
<title>cluster_ProductsPageModule_declarations</title>
<polygon fill="none" stroke="black" points="3571,-116.8 3571,-168.8 3745,-168.8 3745,-116.8 3571,-116.8"/>
</g>
<g id="clust64" class="cluster">
<title>cluster_ProductsPageModule_imports</title>
<polygon fill="none" stroke="black" points="3367,-116.8 3367,-168.8 3563,-168.8 3563,-116.8 3367,-116.8"/>
</g>
<g id="clust74" class="cluster">
<title>cluster_ShopifyFooterModule</title>
<polygon fill="none" stroke="black" stroke-dasharray="1,5" points="1567,-176.8 1567,-244.8 1951,-244.8 1951,-176.8 1567,-176.8"/>
</g>
<g id="clust75" class="cluster">
<title>cluster_ShopifyFooterModule_declarations</title>
<polygon fill="none" stroke="black" points="1765,-184.8 1765,-236.8 1943,-236.8 1943,-184.8 1765,-184.8"/>
</g>
<g id="clust78" class="cluster">
<title>cluster_ShopifyFooterModule_exports</title>
<polygon fill="none" stroke="black" points="1575,-184.8 1575,-236.8 1757,-236.8 1757,-184.8 1575,-184.8"/>
</g>
<g id="clust81" class="cluster">
<title>cluster_SignInPageModule</title>
<polygon fill="none" stroke="black" stroke-dasharray="1,5" points="2979,-32.8 2979,-168.8 3351,-168.8 3351,-32.8 2979,-32.8"/>
</g>
<g id="clust82" class="cluster">
<title>cluster_SignInPageModule_declarations</title>
<polygon fill="none" stroke="black" points="3181,-40.8 3181,-92.8 3343,-92.8 3343,-40.8 3181,-40.8"/>
</g>
<g id="clust84" class="cluster">
<title>cluster_SignInPageModule_imports</title>
<polygon fill="none" stroke="black" points="2987,-40.8 2987,-92.8 3173,-92.8 3173,-40.8 2987,-40.8"/>
</g>
<!-- AppComponent -->
<g id="node1" class="node">
<title>AppComponent</title>
<polygon fill="#ffffb3" stroke="black" points="883.94,-160.8 778.06,-160.8 778.06,-124.8 883.94,-124.8 883.94,-160.8"/>
<text text-anchor="middle" x="831" y="-138.6" font-family="Times,serif" font-size="14.00">AppComponent</text>
</g>
<!-- AppModule -->
<g id="node2" class="node">
<title>AppModule</title>
<polygon fill="#8dd3c7" stroke="black" points="1177.66,-228.8 1174.66,-232.8 1153.66,-232.8 1150.66,-228.8 1094.34,-228.8 1094.34,-192.8 1177.66,-192.8 1177.66,-228.8"/>
<text text-anchor="middle" x="1136" y="-206.6" font-family="Times,serif" font-size="14.00">AppModule</text>
</g>
<!-- AppComponent&#45;&gt;AppModule -->
<g id="edge1" class="edge">
<title>AppComponent&#45;&gt;AppModule</title>
<path fill="none" stroke="black" d="M831,-161.09C831,-183.01 831,-216.8 831,-216.8 831,-216.8 1084.23,-216.8 1084.23,-216.8"/>
<polygon fill="black" stroke="black" points="1084.23,-220.3 1094.23,-216.8 1084.23,-213.3 1084.23,-220.3"/>
</g>
<!-- AppComponent  -->
<g id="node8" class="node">
<title>AppComponent </title>
<polygon fill="#80b1d3" stroke="black" points="1190.44,-296.8 1081.56,-296.8 1081.56,-260.8 1190.44,-260.8 1190.44,-296.8"/>
<text text-anchor="middle" x="1136" y="-274.6" font-family="Times,serif" font-size="14.00">AppComponent </text>
</g>
<!-- AppModule&#45;&gt;AppComponent  -->
<g id="edge7" class="edge">
<title>AppModule&#45;&gt;AppComponent </title>
<path fill="none" stroke="black" stroke-dasharray="1,5" d="M1136,-229.02C1136,-229.02 1136,-250.53 1136,-250.53"/>
<polygon fill="black" stroke="black" points="1132.5,-250.53 1136,-260.53 1139.5,-250.53 1132.5,-250.53"/>
</g>
<!-- BrowserModule -->
<g id="node3" class="node">
<title>BrowserModule</title>
<polygon fill="#8dd3c7" stroke="black" points="1132.47,-160.8 1129.47,-164.8 1108.47,-164.8 1105.47,-160.8 1025.53,-160.8 1025.53,-124.8 1132.47,-124.8 1132.47,-160.8"/>
<text text-anchor="middle" x="1079" y="-138.6" font-family="Times,serif" font-size="14.00">BrowserModule</text>
</g>
<!-- BrowserModule&#45;&gt;AppModule -->
<g id="edge2" class="edge">
<title>BrowserModule&#45;&gt;AppModule</title>
<path fill="none" stroke="black" d="M1113.33,-161.02C1113.33,-161.02 1113.33,-182.53 1113.33,-182.53"/>
<polygon fill="black" stroke="black" points="1109.83,-182.53 1113.33,-192.53 1116.83,-182.53 1109.83,-182.53"/>
</g>
<!-- CoreModule -->
<g id="node4" class="node">
<title>CoreModule</title>
<polygon fill="#8dd3c7" stroke="black" points="1237.26,-160.8 1234.26,-164.8 1213.26,-164.8 1210.26,-160.8 1150.74,-160.8 1150.74,-124.8 1237.26,-124.8 1237.26,-160.8"/>
<text text-anchor="middle" x="1194" y="-138.6" font-family="Times,serif" font-size="14.00">CoreModule</text>
</g>
<!-- CoreModule&#45;&gt;AppModule -->
<g id="edge3" class="edge">
<title>CoreModule&#45;&gt;AppModule</title>
<path fill="none" stroke="black" d="M1164.22,-161.02C1164.22,-161.02 1164.22,-182.53 1164.22,-182.53"/>
<polygon fill="black" stroke="black" points="1160.72,-182.53 1164.22,-192.53 1167.72,-182.53 1160.72,-182.53"/>
</g>
<!-- AppRoutingModule -->
<g id="node5" class="node">
<title>AppRoutingModule</title>
<polygon fill="#8dd3c7" stroke="black" points="1384.27,-160.8 1381.27,-164.8 1360.27,-164.8 1357.27,-160.8 1255.73,-160.8 1255.73,-124.8 1384.27,-124.8 1384.27,-160.8"/>
<text text-anchor="middle" x="1320" y="-138.6" font-family="Times,serif" font-size="14.00">AppRoutingModule</text>
</g>
<!-- AppRoutingModule&#45;&gt;AppModule -->
<g id="edge4" class="edge">
<title>AppRoutingModule&#45;&gt;AppModule</title>
<path fill="none" stroke="black" d="M1320,-161.07C1320,-179.36 1320,-204.8 1320,-204.8 1320,-204.8 1187.75,-204.8 1187.75,-204.8"/>
<polygon fill="black" stroke="black" points="1187.75,-201.3 1177.75,-204.8 1187.75,-208.3 1187.75,-201.3"/>
</g>
<!-- LayoutModule -->
<g id="node6" class="node">
<title>LayoutModule</title>
<polygon fill="#8dd3c7" stroke="black" points="1007.71,-160.8 1004.71,-164.8 983.71,-164.8 980.71,-160.8 908.29,-160.8 908.29,-124.8 1007.71,-124.8 1007.71,-160.8"/>
<text text-anchor="middle" x="958" y="-138.6" font-family="Times,serif" font-size="14.00">LayoutModule</text>
</g>
<!-- LayoutModule&#45;&gt;AppModule -->
<g id="edge5" class="edge">
<title>LayoutModule&#45;&gt;AppModule</title>
<path fill="none" stroke="black" d="M958,-161.07C958,-179.36 958,-204.8 958,-204.8 958,-204.8 1084.27,-204.8 1084.27,-204.8"/>
<polygon fill="black" stroke="black" points="1084.27,-208.3 1094.27,-204.8 1084.27,-201.3 1084.27,-208.3"/>
</g>
<!-- StructureComponent  -->
<g id="node23" class="node">
<title>StructureComponent </title>
<polygon fill="#fb8072" stroke="black" points="160.15,-84.8 23.85,-84.8 23.85,-48.8 160.15,-48.8 160.15,-84.8"/>
<text text-anchor="middle" x="92" y="-62.6" font-family="Times,serif" font-size="14.00">StructureComponent </text>
</g>
<!-- LayoutModule&#45;&gt;StructureComponent  -->
<g id="edge23" class="edge">
<title>LayoutModule&#45;&gt;StructureComponent </title>
<path fill="none" stroke="black" stroke-dasharray="5,2" d="M919.35,-124.65C919.35,-123.5 919.35,-122.8 919.35,-122.8 919.35,-122.8 92,-122.8 92,-122.8 92,-122.8 92,-94.83 92,-94.83"/>
<polygon fill="black" stroke="black" points="95.5,-94.83 92,-84.83 88.5,-94.83 95.5,-94.83"/>
</g>
<!-- ShopifyFooterModule -->
<g id="node7" class="node">
<title>ShopifyFooterModule</title>
<polygon fill="#8dd3c7" stroke="black" points="1543.43,-160.8 1540.43,-164.8 1519.43,-164.8 1516.43,-160.8 1402.57,-160.8 1402.57,-124.8 1543.43,-124.8 1543.43,-160.8"/>
<text text-anchor="middle" x="1473" y="-138.6" font-family="Times,serif" font-size="14.00">ShopifyFooterModule</text>
</g>
<!-- ShopifyFooterModule&#45;&gt;AppModule -->
<g id="edge6" class="edge">
<title>ShopifyFooterModule&#45;&gt;AppModule</title>
<path fill="none" stroke="black" d="M1473,-161.09C1473,-183.01 1473,-216.8 1473,-216.8 1473,-216.8 1187.66,-216.8 1187.66,-216.8"/>
<polygon fill="black" stroke="black" points="1187.66,-213.3 1177.66,-216.8 1187.66,-220.3 1187.66,-213.3"/>
</g>
<!-- ShopifyFooterComponent  -->
<g id="node35" class="node">
<title>ShopifyFooterComponent </title>
<polygon fill="#fb8072" stroke="black" points="1748.71,-228.8 1583.29,-228.8 1583.29,-192.8 1748.71,-192.8 1748.71,-228.8"/>
<text text-anchor="middle" x="1666" y="-206.6" font-family="Times,serif" font-size="14.00">ShopifyFooterComponent </text>
</g>
<!-- ShopifyFooterModule&#45;&gt;ShopifyFooterComponent  -->
<g id="edge41" class="edge">
<title>ShopifyFooterModule&#45;&gt;ShopifyFooterComponent </title>
<path fill="none" stroke="black" stroke-dasharray="5,2" d="M1543.49,-151.8C1570.15,-151.8 1594.18,-151.8 1594.18,-151.8 1594.18,-151.8 1594.18,-182.78 1594.18,-182.78"/>
<polygon fill="black" stroke="black" points="1590.68,-182.78 1594.18,-192.78 1597.68,-182.78 1590.68,-182.78"/>
</g>
<!-- CommonModule -->
<g id="node9" class="node">
<title>CommonModule</title>
<polygon fill="#8dd3c7" stroke="black" points="2128.67,-84.8 2125.67,-88.8 2104.67,-88.8 2101.67,-84.8 2017.33,-84.8 2017.33,-48.8 2128.67,-48.8 2128.67,-84.8"/>
<text text-anchor="middle" x="2073" y="-62.6" font-family="Times,serif" font-size="14.00">CommonModule</text>
</g>
<!-- CommonModule&#45;&gt;CoreModule -->
<g id="edge8" class="edge">
<title>CommonModule&#45;&gt;CoreModule</title>
<path fill="none" stroke="black" d="M2041.98,-84.96C2041.98,-89.84 2041.98,-93.8 2041.98,-93.8 2041.98,-93.8 1234.09,-93.8 1234.09,-93.8 1234.09,-93.8 1234.09,-114.55 1234.09,-114.55"/>
<polygon fill="black" stroke="black" points="1230.59,-114.55 1234.09,-124.55 1237.59,-114.55 1230.59,-114.55"/>
</g>
<!-- CommonModule&#45;&gt;LayoutModule -->
<g id="edge21" class="edge">
<title>CommonModule&#45;&gt;LayoutModule</title>
<path fill="none" stroke="black" d="M2029.57,-84.97C2029.57,-88.85 2029.57,-91.8 2029.57,-91.8 2029.57,-91.8 999.2,-91.8 999.2,-91.8 999.2,-91.8 999.2,-114.68 999.2,-114.68"/>
<polygon fill="black" stroke="black" points="995.7,-114.68 999.2,-124.68 1002.7,-114.68 995.7,-114.68"/>
</g>
<!-- CommonModule&#45;&gt;ShopifyFooterModule -->
<g id="edge40" class="edge">
<title>CommonModule&#45;&gt;ShopifyFooterModule</title>
<path fill="none" stroke="black" d="M2054.39,-85C2054.39,-90.83 2054.39,-95.8 2054.39,-95.8 2054.39,-95.8 1512.41,-95.8 1512.41,-95.8 1512.41,-95.8 1512.41,-114.76 1512.41,-114.76"/>
<polygon fill="black" stroke="black" points="1508.91,-114.76 1512.41,-124.76 1515.91,-114.76 1508.91,-114.76"/>
</g>
<!-- HomePageModule -->
<g id="node11" class="node">
<title>HomePageModule</title>
<polygon fill="#8dd3c7" stroke="black" points="1966.47,-160.8 1963.47,-164.8 1942.47,-164.8 1939.47,-160.8 1845.53,-160.8 1845.53,-124.8 1966.47,-124.8 1966.47,-160.8"/>
<text text-anchor="middle" x="1906" y="-138.6" font-family="Times,serif" font-size="14.00">HomePageModule</text>
</g>
<!-- CommonModule&#45;&gt;HomePageModule -->
<g id="edge10" class="edge">
<title>CommonModule&#45;&gt;HomePageModule</title>
<path fill="none" stroke="black" d="M2066.8,-85C2066.8,-109.16 2066.8,-148.8 2066.8,-148.8 2066.8,-148.8 1976.79,-148.8 1976.79,-148.8"/>
<polygon fill="black" stroke="black" points="1976.79,-145.3 1966.79,-148.8 1976.79,-152.3 1976.79,-145.3"/>
</g>
<!-- NotFoundPageModule -->
<g id="node25" class="node">
<title>NotFoundPageModule</title>
<polygon fill="#8dd3c7" stroke="black" points="2334.54,-160.8 2331.54,-164.8 2310.54,-164.8 2307.54,-160.8 2191.46,-160.8 2191.46,-124.8 2334.54,-124.8 2334.54,-160.8"/>
<text text-anchor="middle" x="2263" y="-138.6" font-family="Times,serif" font-size="14.00">NotFoundPageModule</text>
</g>
<!-- CommonModule&#45;&gt;NotFoundPageModule -->
<g id="edge25" class="edge">
<title>CommonModule&#45;&gt;NotFoundPageModule</title>
<path fill="none" stroke="black" d="M2116.43,-84.83C2116.43,-105.57 2116.43,-136.8 2116.43,-136.8 2116.43,-136.8 2181.43,-136.8 2181.43,-136.8"/>
<polygon fill="black" stroke="black" points="2181.43,-140.3 2191.43,-136.8 2181.43,-133.3 2181.43,-140.3"/>
</g>
<!-- ProductModule -->
<g id="node29" class="node">
<title>ProductModule</title>
<polygon fill="#8dd3c7" stroke="black" points="2832.6,-160.8 2829.6,-164.8 2808.6,-164.8 2805.6,-160.8 2729.4,-160.8 2729.4,-124.8 2832.6,-124.8 2832.6,-160.8"/>
<text text-anchor="middle" x="2781" y="-138.6" font-family="Times,serif" font-size="14.00">ProductModule</text>
</g>
<!-- CommonModule&#45;&gt;ProductModule -->
<g id="edge31" class="edge">
<title>CommonModule&#45;&gt;ProductModule</title>
<path fill="none" stroke="black" d="M2091.61,-84.98C2091.61,-97.84 2091.61,-112.8 2091.61,-112.8 2091.61,-112.8 2748.09,-112.8 2748.09,-112.8 2748.09,-112.8 2748.09,-114.66 2748.09,-114.66"/>
<polygon fill="black" stroke="black" points="2744.59,-114.66 2748.09,-124.66 2751.59,-114.66 2744.59,-114.66"/>
</g>
<!-- ProductsPageModule -->
<g id="node32" class="node">
<title>ProductsPageModule</title>
<polygon fill="#8dd3c7" stroke="black" points="3517.75,-228.8 3514.75,-232.8 3493.75,-232.8 3490.75,-228.8 3382.25,-228.8 3382.25,-192.8 3517.75,-192.8 3517.75,-228.8"/>
<text text-anchor="middle" x="3450" y="-206.6" font-family="Times,serif" font-size="14.00">ProductsPageModule</text>
</g>
<!-- CommonModule&#45;&gt;ProductsPageModule -->
<g id="edge34" class="edge">
<title>CommonModule&#45;&gt;ProductsPageModule</title>
<path fill="none" stroke="black" d="M2079.2,-84.96C2079.2,-116.21 2079.2,-176.8 2079.2,-176.8 2079.2,-176.8 3427.37,-176.8 3427.37,-176.8 3427.37,-176.8 3427.37,-182.61 3427.37,-182.61"/>
<polygon fill="black" stroke="black" points="3423.87,-182.61 3427.37,-192.61 3430.87,-182.61 3423.87,-182.61"/>
</g>
<!-- SignInPageModule -->
<g id="node37" class="node">
<title>SignInPageModule</title>
<polygon fill="#8dd3c7" stroke="black" points="3142.1,-160.8 3139.1,-164.8 3118.1,-164.8 3115.1,-160.8 3017.9,-160.8 3017.9,-124.8 3142.1,-124.8 3142.1,-160.8"/>
<text text-anchor="middle" x="3080" y="-138.6" font-family="Times,serif" font-size="14.00">SignInPageModule</text>
</g>
<!-- CommonModule&#45;&gt;SignInPageModule -->
<g id="edge43" class="edge">
<title>CommonModule&#45;&gt;SignInPageModule</title>
<path fill="none" stroke="black" d="M2104.02,-84.95C2104.02,-97.07 2104.02,-110.8 2104.02,-110.8 2104.02,-110.8 3059.32,-110.8 3059.32,-110.8 3059.32,-110.8 3059.32,-114.56 3059.32,-114.56"/>
<polygon fill="black" stroke="black" points="3055.82,-114.56 3059.32,-124.56 3062.82,-114.56 3055.82,-114.56"/>
</g>
<!-- HomePageComponent -->
<g id="node10" class="node">
<title>HomePageComponent</title>
<polygon fill="#ffffb3" stroke="black" points="1977.26,-84.8 1834.74,-84.8 1834.74,-48.8 1977.26,-48.8 1977.26,-84.8"/>
<text text-anchor="middle" x="1906" y="-62.6" font-family="Times,serif" font-size="14.00">HomePageComponent</text>
</g>
<!-- HomePageComponent&#45;&gt;HomePageModule -->
<g id="edge9" class="edge">
<title>HomePageComponent&#45;&gt;HomePageModule</title>
<path fill="none" stroke="black" d="M1906,-84.81C1906,-84.81 1906,-114.65 1906,-114.65"/>
<polygon fill="black" stroke="black" points="1902.5,-114.65 1906,-124.65 1909.5,-114.65 1902.5,-114.65"/>
</g>
<!-- HomePageRoutingModule -->
<g id="node12" class="node">
<title>HomePageRoutingModule</title>
<polygon fill="#8dd3c7" stroke="black" points="1811.09,-84.8 1808.09,-88.8 1787.09,-88.8 1784.09,-84.8 1644.91,-84.8 1644.91,-48.8 1811.09,-48.8 1811.09,-84.8"/>
<text text-anchor="middle" x="1728" y="-62.6" font-family="Times,serif" font-size="14.00">HomePageRoutingModule</text>
</g>
<!-- HomePageRoutingModule&#45;&gt;HomePageModule -->
<g id="edge11" class="edge">
<title>HomePageRoutingModule&#45;&gt;HomePageModule</title>
<path fill="none" stroke="black" d="M1803.42,-85.11C1803.42,-104.95 1803.42,-133.8 1803.42,-133.8 1803.42,-133.8 1835.44,-133.8 1835.44,-133.8"/>
<polygon fill="black" stroke="black" points="1835.44,-137.3 1845.44,-133.8 1835.44,-130.3 1835.44,-137.3"/>
</g>
<!-- RouterModule  -->
<g id="node14" class="node">
<title>RouterModule </title>
<polygon fill="#fb8072" stroke="black" points="3476.65,-84.8 3375.35,-84.8 3375.35,-48.8 3476.65,-48.8 3476.65,-84.8"/>
<text text-anchor="middle" x="3426" y="-62.6" font-family="Times,serif" font-size="14.00">RouterModule </text>
</g>
<!-- HomePageRoutingModule&#45;&gt;RouterModule  -->
<g id="edge13" class="edge">
<title>HomePageRoutingModule&#45;&gt;RouterModule </title>
<path fill="none" stroke="black" stroke-dasharray="5,2" d="M1788.15,-85.12C1788.15,-93.59 1788.15,-101.8 1788.15,-101.8 1788.15,-101.8 3436.12,-101.8 3436.12,-101.8 3436.12,-101.8 3436.12,-95.12 3436.12,-95.12"/>
<polygon fill="black" stroke="black" points="3439.62,-95.12 3436.12,-85.12 3432.62,-95.12 3439.62,-95.12"/>
</g>
<!-- RouterModule.forChild(args) -->
<g id="node13" class="node">
<title>RouterModule.forChild(args)</title>
<polygon fill="#8dd3c7" stroke="black" points="3682.73,-84.8 3679.73,-88.8 3658.73,-88.8 3655.73,-84.8 3501.27,-84.8 3501.27,-48.8 3682.73,-48.8 3682.73,-84.8"/>
<text text-anchor="middle" x="3592" y="-62.6" font-family="Times,serif" font-size="14.00">RouterModule.forChild(args)</text>
</g>
<!-- RouterModule.forChild(args)&#45;&gt;HomePageRoutingModule -->
<g id="edge12" class="edge">
<title>RouterModule.forChild(args)&#45;&gt;HomePageRoutingModule</title>
<path fill="none" stroke="black" d="M3533.82,-84.86C3533.82,-96.24 3533.82,-108.8 3533.82,-108.8 3533.82,-108.8 1780.52,-108.8 1780.52,-108.8 1780.52,-108.8 1780.52,-94.86 1780.52,-94.86"/>
<polygon fill="black" stroke="black" points="1784.02,-94.86 1780.52,-84.86 1777.02,-94.86 1784.02,-94.86"/>
</g>
<!-- NotFoundPageRoutingModule -->
<g id="node26" class="node">
<title>NotFoundPageRoutingModule</title>
<polygon fill="#8dd3c7" stroke="black" points="2357.16,-84.8 2354.16,-88.8 2333.16,-88.8 2330.16,-84.8 2168.84,-84.8 2168.84,-48.8 2357.16,-48.8 2357.16,-84.8"/>
<text text-anchor="middle" x="2263" y="-62.6" font-family="Times,serif" font-size="14.00">NotFoundPageRoutingModule</text>
</g>
<!-- RouterModule.forChild(args)&#45;&gt;NotFoundPageRoutingModule -->
<g id="edge27" class="edge">
<title>RouterModule.forChild(args)&#45;&gt;NotFoundPageRoutingModule</title>
<path fill="none" stroke="black" d="M3523,-84.93C3523,-95.51 3523,-106.8 3523,-106.8 3523,-106.8 2342.29,-106.8 2342.29,-106.8 2342.29,-106.8 2342.29,-94.93 2342.29,-94.93"/>
<polygon fill="black" stroke="black" points="2345.79,-94.93 2342.29,-84.93 2338.79,-94.93 2345.79,-94.93"/>
</g>
<!-- ProductsPageRoutingModule -->
<g id="node33" class="node">
<title>ProductsPageRoutingModule</title>
<polygon fill="#8dd3c7" stroke="black" points="3555.37,-160.8 3552.37,-164.8 3531.37,-164.8 3528.37,-160.8 3374.63,-160.8 3374.63,-124.8 3555.37,-124.8 3555.37,-160.8"/>
<text text-anchor="middle" x="3465" y="-138.6" font-family="Times,serif" font-size="14.00">ProductsPageRoutingModule</text>
</g>
<!-- RouterModule.forChild(args)&#45;&gt;ProductsPageRoutingModule -->
<g id="edge37" class="edge">
<title>RouterModule.forChild(args)&#45;&gt;ProductsPageRoutingModule</title>
<path fill="none" stroke="black" d="M3544.63,-84.81C3544.63,-84.81 3544.63,-114.65 3544.63,-114.65"/>
<polygon fill="black" stroke="black" points="3541.13,-114.65 3544.63,-124.65 3548.13,-114.65 3541.13,-114.65"/>
</g>
<!-- SignInPageRoutingModule -->
<g id="node38" class="node">
<title>SignInPageRoutingModule</title>
<polygon fill="#8dd3c7" stroke="black" points="3164.71,-84.8 3161.71,-88.8 3140.71,-88.8 3137.71,-84.8 2995.29,-84.8 2995.29,-48.8 3164.71,-48.8 3164.71,-84.8"/>
<text text-anchor="middle" x="3080" y="-62.6" font-family="Times,serif" font-size="14.00">SignInPageRoutingModule</text>
</g>
<!-- RouterModule.forChild(args)&#45;&gt;SignInPageRoutingModule -->
<g id="edge45" class="edge">
<title>RouterModule.forChild(args)&#45;&gt;SignInPageRoutingModule</title>
<path fill="none" stroke="black" d="M3512.19,-84.87C3512.19,-94.26 3512.19,-103.8 3512.19,-103.8 3512.19,-103.8 3149.57,-103.8 3149.57,-103.8 3149.57,-103.8 3149.57,-94.87 3149.57,-94.87"/>
<polygon fill="black" stroke="black" points="3153.07,-94.87 3149.57,-84.87 3146.07,-94.87 3153.07,-94.87"/>
</g>
<!-- StructureComponent -->
<g id="node15" class="node">
<title>StructureComponent</title>
<polygon fill="#ffffb3" stroke="black" points="438.15,-84.8 305.85,-84.8 305.85,-48.8 438.15,-48.8 438.15,-84.8"/>
<text text-anchor="middle" x="372" y="-62.6" font-family="Times,serif" font-size="14.00">StructureComponent</text>
</g>
<!-- StructureComponent&#45;&gt;LayoutModule -->
<g id="edge14" class="edge">
<title>StructureComponent&#45;&gt;LayoutModule</title>
<path fill="none" stroke="black" d="M372,-84.99C372,-99.98 372,-118.8 372,-118.8 372,-118.8 941.27,-118.8 941.27,-118.8 941.27,-118.8 941.27,-119.38 941.27,-119.38"/>
<polygon fill="black" stroke="black" points="937.77,-114.61 941.27,-124.61 944.77,-114.61 937.77,-114.61"/>
</g>
<!-- MobileMenuComponent -->
<g id="node16" class="node">
<title>MobileMenuComponent</title>
<polygon fill="#ffffb3" stroke="black" points="1605.43,-84.8 1450.57,-84.8 1450.57,-48.8 1605.43,-48.8 1605.43,-84.8"/>
<text text-anchor="middle" x="1528" y="-62.6" font-family="Times,serif" font-size="14.00">MobileMenuComponent</text>
</g>
<!-- MobileMenuComponent&#45;&gt;LayoutModule -->
<g id="edge15" class="edge">
<title>MobileMenuComponent&#45;&gt;LayoutModule</title>
<path fill="none" stroke="black" d="M1481.59,-84.92C1481.59,-87.77 1481.59,-89.8 1481.59,-89.8 1481.59,-89.8 995.68,-89.8 995.68,-89.8 995.68,-89.8 995.68,-114.56 995.68,-114.56"/>
<polygon fill="black" stroke="black" points="992.18,-114.56 995.68,-124.56 999.18,-114.56 992.18,-114.56"/>
</g>
<!-- MobileMenuOpenBtnComponent -->
<g id="node17" class="node">
<title>MobileMenuOpenBtnComponent</title>
<polygon fill="#ffffb3" stroke="black" points="1432.48,-84.8 1227.52,-84.8 1227.52,-48.8 1432.48,-48.8 1432.48,-84.8"/>
<text text-anchor="middle" x="1330" y="-62.6" font-family="Times,serif" font-size="14.00">MobileMenuOpenBtnComponent</text>
</g>
<!-- MobileMenuOpenBtnComponent&#45;&gt;LayoutModule -->
<g id="edge16" class="edge">
<title>MobileMenuOpenBtnComponent&#45;&gt;LayoutModule</title>
<path fill="none" stroke="black" d="M1230.8,-84.88C1230.8,-86.65 1230.8,-87.8 1230.8,-87.8 1230.8,-87.8 992.16,-87.8 992.16,-87.8 992.16,-87.8 992.16,-114.79 992.16,-114.79"/>
<polygon fill="black" stroke="black" points="988.66,-114.79 992.16,-124.79 995.66,-114.79 988.66,-114.79"/>
</g>
<!-- MobileMenuCloseBtnComponent -->
<g id="node18" class="node">
<title>MobileMenuCloseBtnComponent</title>
<polygon fill="#ffffb3" stroke="black" points="1209.05,-84.8 1002.95,-84.8 1002.95,-48.8 1209.05,-48.8 1209.05,-84.8"/>
<text text-anchor="middle" x="1106" y="-62.6" font-family="Times,serif" font-size="14.00">MobileMenuCloseBtnComponent</text>
</g>
<!-- MobileMenuCloseBtnComponent&#45;&gt;LayoutModule -->
<g id="edge17" class="edge">
<title>MobileMenuCloseBtnComponent&#45;&gt;LayoutModule</title>
<path fill="none" stroke="black" d="M1002.56,-66.8C994.05,-66.8 988.63,-66.8 988.63,-66.8 988.63,-66.8 988.63,-114.79 988.63,-114.79"/>
<polygon fill="black" stroke="black" points="985.13,-114.79 988.63,-124.79 992.13,-114.79 985.13,-114.79"/>
</g>
<!-- MenFlyoutMenuComponent -->
<g id="node19" class="node">
<title>MenFlyoutMenuComponent</title>
<polygon fill="#ffffb3" stroke="black" points="985.21,-84.8 808.79,-84.8 808.79,-48.8 985.21,-48.8 985.21,-84.8"/>
<text text-anchor="middle" x="897" y="-62.6" font-family="Times,serif" font-size="14.00">MenFlyoutMenuComponent</text>
</g>
<!-- MenFlyoutMenuComponent&#45;&gt;LayoutModule -->
<g id="edge18" class="edge">
<title>MenFlyoutMenuComponent&#45;&gt;LayoutModule</title>
<path fill="none" stroke="black" d="M974.15,-84.81C974.15,-84.81 974.15,-114.65 974.15,-114.65"/>
<polygon fill="black" stroke="black" points="970.65,-114.65 974.15,-124.65 977.65,-114.65 970.65,-114.65"/>
</g>
<!-- WomenFlyoutMenuComponent -->
<g id="node20" class="node">
<title>WomenFlyoutMenuComponent</title>
<polygon fill="#ffffb3" stroke="black" points="790.38,-84.8 595.62,-84.8 595.62,-48.8 790.38,-48.8 790.38,-84.8"/>
<text text-anchor="middle" x="693" y="-62.6" font-family="Times,serif" font-size="14.00">WomenFlyoutMenuComponent</text>
</g>
<!-- WomenFlyoutMenuComponent&#45;&gt;LayoutModule -->
<g id="edge19" class="edge">
<title>WomenFlyoutMenuComponent&#45;&gt;LayoutModule</title>
<path fill="none" stroke="black" d="M784.36,-84.95C784.36,-98.54 784.36,-114.8 784.36,-114.8 784.36,-114.8 963.19,-114.8 963.19,-114.8 963.19,-114.8 963.19,-115.78 963.19,-115.78"/>
<polygon fill="black" stroke="black" points="959.69,-114.59 963.19,-124.59 966.69,-114.59 959.69,-114.59"/>
</g>
<!-- BannerComponent -->
<g id="node21" class="node">
<title>BannerComponent</title>
<polygon fill="#ffffb3" stroke="black" points="577.76,-84.8 456.24,-84.8 456.24,-48.8 577.76,-48.8 577.76,-84.8"/>
<text text-anchor="middle" x="517" y="-62.6" font-family="Times,serif" font-size="14.00">BannerComponent</text>
</g>
<!-- BannerComponent&#45;&gt;LayoutModule -->
<g id="edge20" class="edge">
<title>BannerComponent&#45;&gt;LayoutModule</title>
<path fill="none" stroke="black" d="M517,-84.85C517,-99.17 517,-116.8 517,-116.8 517,-116.8 952.23,-116.8 952.23,-116.8 952.23,-116.8 952.23,-117.59 952.23,-117.59"/>
<polygon fill="black" stroke="black" points="948.73,-114.74 952.23,-124.74 955.73,-114.74 948.73,-114.74"/>
</g>
<!-- RouterModule -->
<g id="node22" class="node">
<title>RouterModule</title>
<polygon fill="#8dd3c7" stroke="black" points="281.65,-84.8 278.65,-88.8 257.65,-88.8 254.65,-84.8 184.35,-84.8 184.35,-48.8 281.65,-48.8 281.65,-84.8"/>
<text text-anchor="middle" x="233" y="-62.6" font-family="Times,serif" font-size="14.00">RouterModule</text>
</g>
<!-- RouterModule&#45;&gt;LayoutModule -->
<g id="edge22" class="edge">
<title>RouterModule&#45;&gt;LayoutModule</title>
<path fill="none" stroke="black" d="M233,-85.08C233,-100.75 233,-120.8 233,-120.8 233,-120.8 930.31,-120.8 930.31,-120.8 930.31,-120.8 930.31,-121.18 930.31,-121.18"/>
<polygon fill="black" stroke="black" points="926.81,-114.63 930.31,-124.63 933.81,-114.63 926.81,-114.63"/>
</g>
<!-- NotFoundPageComponent -->
<g id="node24" class="node">
<title>NotFoundPageComponent</title>
<polygon fill="#ffffb3" stroke="black" points="2546.82,-84.8 2381.18,-84.8 2381.18,-48.8 2546.82,-48.8 2546.82,-84.8"/>
<text text-anchor="middle" x="2464" y="-62.6" font-family="Times,serif" font-size="14.00">NotFoundPageComponent</text>
</g>
<!-- NotFoundPageComponent&#45;&gt;NotFoundPageModule -->
<g id="edge24" class="edge">
<title>NotFoundPageComponent&#45;&gt;NotFoundPageModule</title>
<path fill="none" stroke="black" d="M2464,-84.81C2464,-107.29 2464,-142.8 2464,-142.8 2464,-142.8 2344.71,-142.8 2344.71,-142.8"/>
<polygon fill="black" stroke="black" points="2344.71,-139.3 2334.71,-142.8 2344.71,-146.3 2344.71,-139.3"/>
</g>
<!-- NotFoundPageRoutingModule&#45;&gt;RouterModule  -->
<g id="edge28" class="edge">
<title>NotFoundPageRoutingModule&#45;&gt;RouterModule </title>
<path fill="none" stroke="black" stroke-dasharray="5,2" d="M2349.81,-84.84C2349.81,-92.55 2349.81,-99.8 2349.81,-99.8 2349.81,-99.8 3415.88,-99.8 3415.88,-99.8 3415.88,-99.8 3415.88,-94.84 3415.88,-94.84"/>
<polygon fill="black" stroke="black" points="3419.38,-94.84 3415.88,-84.84 3412.38,-94.84 3419.38,-94.84"/>
</g>
<!-- NotFoundPageRoutingModule&#45;&gt;NotFoundPageModule -->
<g id="edge26" class="edge">
<title>NotFoundPageRoutingModule&#45;&gt;NotFoundPageModule</title>
<path fill="none" stroke="black" d="M2263,-84.81C2263,-84.81 2263,-114.65 2263,-114.65"/>
<polygon fill="black" stroke="black" points="2259.5,-114.65 2263,-124.65 2266.5,-114.65 2259.5,-114.65"/>
</g>
<!-- ProductsListComponent -->
<g id="node27" class="node">
<title>ProductsListComponent</title>
<polygon fill="#ffffb3" stroke="black" points="2955.1,-84.8 2802.9,-84.8 2802.9,-48.8 2955.1,-48.8 2955.1,-84.8"/>
<text text-anchor="middle" x="2879" y="-62.6" font-family="Times,serif" font-size="14.00">ProductsListComponent</text>
</g>
<!-- ProductsListComponent&#45;&gt;ProductModule -->
<g id="edge29" class="edge">
<title>ProductsListComponent&#45;&gt;ProductModule</title>
<path fill="none" stroke="black" d="M2817.75,-84.81C2817.75,-84.81 2817.75,-114.65 2817.75,-114.65"/>
<polygon fill="black" stroke="black" points="2814.25,-114.65 2817.75,-124.65 2821.25,-114.65 2814.25,-114.65"/>
</g>
<!-- ProductsListElementComponent -->
<g id="node28" class="node">
<title>ProductsListElementComponent</title>
<polygon fill="#ffffb3" stroke="black" points="2785.26,-84.8 2586.74,-84.8 2586.74,-48.8 2785.26,-48.8 2785.26,-84.8"/>
<text text-anchor="middle" x="2686" y="-62.6" font-family="Times,serif" font-size="14.00">ProductsListElementComponent</text>
</g>
<!-- ProductsListElementComponent&#45;&gt;ProductModule -->
<g id="edge30" class="edge">
<title>ProductsListElementComponent&#45;&gt;ProductModule</title>
<path fill="none" stroke="black" d="M2766.74,-84.81C2766.74,-84.81 2766.74,-114.65 2766.74,-114.65"/>
<polygon fill="black" stroke="black" points="2763.24,-114.65 2766.74,-124.65 2770.24,-114.65 2763.24,-114.65"/>
</g>
<!-- ProductsListComponent  -->
<g id="node30" class="node">
<title>ProductsListComponent </title>
<polygon fill="#fb8072" stroke="black" points="2858.6,-228.8 2703.4,-228.8 2703.4,-192.8 2858.6,-192.8 2858.6,-228.8"/>
<text text-anchor="middle" x="2781" y="-206.6" font-family="Times,serif" font-size="14.00">ProductsListComponent </text>
</g>
<!-- ProductModule&#45;&gt;ProductsListComponent  -->
<g id="edge32" class="edge">
<title>ProductModule&#45;&gt;ProductsListComponent </title>
<path fill="none" stroke="black" stroke-dasharray="5,2" d="M2781,-161.02C2781,-161.02 2781,-182.53 2781,-182.53"/>
<polygon fill="black" stroke="black" points="2777.5,-182.53 2781,-192.53 2784.5,-182.53 2777.5,-182.53"/>
</g>
<!-- ProductModule&#45;&gt;ProductsPageModule -->
<g id="edge36" class="edge">
<title>ProductModule&#45;&gt;ProductsPageModule</title>
<path fill="none" stroke="black" d="M2832.58,-142.8C2867.36,-142.8 2906.93,-142.8 2906.93,-142.8 2906.93,-142.8 2906.93,-210.8 2906.93,-210.8 2906.93,-210.8 3372.04,-210.8 3372.04,-210.8"/>
<polygon fill="black" stroke="black" points="3372.04,-214.3 3382.04,-210.8 3372.04,-207.3 3372.04,-214.3"/>
</g>
<!-- ProductsPageComponent -->
<g id="node31" class="node">
<title>ProductsPageComponent</title>
<polygon fill="#ffffb3" stroke="black" points="3736.54,-160.8 3579.46,-160.8 3579.46,-124.8 3736.54,-124.8 3736.54,-160.8"/>
<text text-anchor="middle" x="3658" y="-138.6" font-family="Times,serif" font-size="14.00">ProductsPageComponent</text>
</g>
<!-- ProductsPageComponent&#45;&gt;ProductsPageModule -->
<g id="edge33" class="edge">
<title>ProductsPageComponent&#45;&gt;ProductsPageModule</title>
<path fill="none" stroke="black" d="M3658,-161.02C3658,-181.17 3658,-210.8 3658,-210.8 3658,-210.8 3527.82,-210.8 3527.82,-210.8"/>
<polygon fill="black" stroke="black" points="3527.82,-207.3 3517.82,-210.8 3527.82,-214.3 3527.82,-207.3"/>
</g>
<!-- ProductsPageRoutingModule&#45;&gt;RouterModule  -->
<g id="edge38" class="edge">
<title>ProductsPageRoutingModule&#45;&gt;RouterModule </title>
<path fill="none" stroke="black" stroke-dasharray="5,2" d="M3456.35,-124.79C3456.35,-124.79 3456.35,-94.95 3456.35,-94.95"/>
<polygon fill="black" stroke="black" points="3459.85,-94.95 3456.35,-84.95 3452.85,-94.95 3459.85,-94.95"/>
</g>
<!-- ProductsPageRoutingModule&#45;&gt;ProductsPageModule -->
<g id="edge35" class="edge">
<title>ProductsPageRoutingModule&#45;&gt;ProductsPageModule</title>
<path fill="none" stroke="black" d="M3472.63,-161.02C3472.63,-161.02 3472.63,-182.53 3472.63,-182.53"/>
<polygon fill="black" stroke="black" points="3469.13,-182.53 3472.63,-192.53 3476.13,-182.53 3469.13,-182.53"/>
</g>
<!-- ShopifyFooterComponent -->
<g id="node34" class="node">
<title>ShopifyFooterComponent</title>
<polygon fill="#ffffb3" stroke="black" points="1935.21,-228.8 1772.79,-228.8 1772.79,-192.8 1935.21,-192.8 1935.21,-228.8"/>
<text text-anchor="middle" x="1854" y="-206.6" font-family="Times,serif" font-size="14.00">ShopifyFooterComponent</text>
</g>
<!-- ShopifyFooterComponent&#45;&gt;ShopifyFooterModule -->
<g id="edge39" class="edge">
<title>ShopifyFooterComponent&#45;&gt;ShopifyFooterModule</title>
<path fill="none" stroke="black" d="M1795.78,-192.58C1795.78,-172.43 1795.78,-142.8 1795.78,-142.8 1795.78,-142.8 1553.44,-142.8 1553.44,-142.8"/>
<polygon fill="black" stroke="black" points="1553.44,-139.3 1543.44,-142.8 1553.44,-146.3 1553.44,-139.3"/>
</g>
<!-- SignInPageComponent -->
<g id="node36" class="node">
<title>SignInPageComponent</title>
<polygon fill="#ffffb3" stroke="black" points="3334.88,-84.8 3189.12,-84.8 3189.12,-48.8 3334.88,-48.8 3334.88,-84.8"/>
<text text-anchor="middle" x="3262" y="-62.6" font-family="Times,serif" font-size="14.00">SignInPageComponent</text>
</g>
<!-- SignInPageComponent&#45;&gt;SignInPageModule -->
<g id="edge42" class="edge">
<title>SignInPageComponent&#45;&gt;SignInPageModule</title>
<path fill="none" stroke="black" d="M3262,-84.81C3262,-107.29 3262,-142.8 3262,-142.8 3262,-142.8 3152.13,-142.8 3152.13,-142.8"/>
<polygon fill="black" stroke="black" points="3152.13,-139.3 3142.13,-142.8 3152.13,-146.3 3152.13,-139.3"/>
</g>
<!-- SignInPageRoutingModule&#45;&gt;RouterModule  -->
<g id="edge46" class="edge">
<title>SignInPageRoutingModule&#45;&gt;RouterModule </title>
<path fill="none" stroke="black" stroke-dasharray="5,2" d="M3157.09,-84.83C3157.09,-91.65 3157.09,-97.8 3157.09,-97.8 3157.09,-97.8 3395.65,-97.8 3395.65,-97.8 3395.65,-97.8 3395.65,-94.83 3395.65,-94.83"/>
<polygon fill="black" stroke="black" points="3399.15,-94.83 3395.65,-84.83 3392.15,-94.83 3399.15,-94.83"/>
</g>
<!-- SignInPageRoutingModule&#45;&gt;SignInPageModule -->
<g id="edge44" class="edge">
<title>SignInPageRoutingModule&#45;&gt;SignInPageModule</title>
<path fill="none" stroke="black" d="M3100.68,-84.81C3100.68,-84.81 3100.68,-114.65 3100.68,-114.65"/>
<polygon fill="black" stroke="black" points="3097.18,-114.65 3100.68,-124.65 3104.18,-114.65 3097.18,-114.65"/>
</g>
</g>
</svg>
