<?xml version="1.0" encoding="UTF-8" standalone="no"?>
<!DOCTYPE svg PUBLIC "-//W3C//DTD SVG 1.1//EN"
 "http://www.w3.org/Graphics/SVG/1.1/DTD/svg11.dtd">
<!-- Generated by graphviz version 2.47.3 (20210619.1520)
 -->
<!-- Title: dependencies Pages: 1 -->
<svg width="2680pt" height="323pt"
 viewBox="0.00 0.00 2680.00 322.80" xmlns="http://www.w3.org/2000/svg" xmlns:xlink="http://www.w3.org/1999/xlink">
<g id="graph0" class="graph" transform="scale(1 1) rotate(0) translate(4 318.8)">
<title>dependencies</title>
<polygon fill="white" stroke="transparent" points="-4,4 -4,-318.8 2676,-318.8 2676,4 -4,4"/>
<text text-anchor="middle" x="1336" y="-8.2" font-family="sans-serif" font-size="14.00">dependencies</text>
<g id="clust1" class="cluster">
<title>cluster_AppModule</title>
<polygon fill="none" stroke="black" stroke-dasharray="1,5" points="469,-108.8 469,-306.8 1002,-306.8 1002,-108.8 469,-108.8"/>
</g>
<g id="clust2" class="cluster">
<title>cluster_AppModule_declarations</title>
<polygon fill="none" stroke="black" points="872,-116.8 872,-168.8 994,-168.8 994,-116.8 872,-116.8"/>
</g>
<g id="clust4" class="cluster">
<title>cluster_AppModule_imports</title>
<polygon fill="none" stroke="black" points="477,-116.8 477,-168.8 864,-168.8 864,-116.8 477,-116.8"/>
</g>
<g id="clust6" class="cluster">
<title>cluster_AppModule_bootstrap</title>
<polygon fill="none" stroke="black" points="683,-246.8 683,-298.8 807,-298.8 807,-246.8 683,-246.8"/>
</g>
<g id="clust8" class="cluster">
<title>cluster_LayoutModule</title>
<polygon fill="none" stroke="black" stroke-dasharray="1,5" points="8,-32.8 8,-100.8 1496,-100.8 1496,-32.8 8,-32.8"/>
</g>
<g id="clust9" class="cluster">
<title>cluster_LayoutModule_declarations</title>
<polygon fill="none" stroke="black" points="176,-40.8 176,-92.8 1352,-92.8 1352,-40.8 176,-40.8"/>
</g>
<g id="clust16" class="cluster">
<title>cluster_LayoutModule_imports</title>
<polygon fill="none" stroke="black" points="1360,-40.8 1360,-92.8 1488,-92.8 1488,-40.8 1360,-40.8"/>
</g>
<g id="clust17" class="cluster">
<title>cluster_LayoutModule_exports</title>
<polygon fill="none" stroke="black" points="16,-40.8 16,-92.8 168,-92.8 168,-40.8 16,-40.8"/>
</g>
<g id="clust20" class="cluster">
<title>cluster_NotFoundPageModule</title>
<polygon fill="none" stroke="black" stroke-dasharray="1,5" points="1504,-32.8 1504,-168.8 1914,-168.8 1914,-32.8 1504,-32.8"/>
</g>
<g id="clust21" class="cluster">
<title>cluster_NotFoundPageModule_declarations</title>
<polygon fill="none" stroke="black" points="1512,-40.8 1512,-92.8 1694,-92.8 1694,-40.8 1512,-40.8"/>
</g>
<g id="clust23" class="cluster">
<title>cluster_NotFoundPageModule_imports</title>
<polygon fill="none" stroke="black" points="1702,-40.8 1702,-92.8 1906,-92.8 1906,-40.8 1702,-40.8"/>
</g>
<g id="clust27" class="cluster">
<title>cluster_NotFoundPageRoutingModule</title>
<polygon fill="none" stroke="black" stroke-dasharray="1,5" points="1922,-108.8 1922,-176.8 2262,-176.8 2262,-108.8 1922,-108.8"/>
</g>
<g id="clust29" class="cluster">
<title>cluster_NotFoundPageRoutingModule_imports</title>
<polygon fill="none" stroke="black" points="2056,-116.8 2056,-168.8 2254,-168.8 2254,-116.8 2056,-116.8"/>
</g>
<g id="clust30" class="cluster">
<title>cluster_NotFoundPageRoutingModule_exports</title>
<polygon fill="none" stroke="black" points="1930,-116.8 1930,-168.8 2048,-168.8 2048,-116.8 1930,-116.8"/>
</g>
<g id="clust33" class="cluster">
<title>cluster_ProductsPageModule</title>
<polygon fill="none" stroke="black" stroke-dasharray="1,5" points="2270,-32.8 2270,-168.8 2664,-168.8 2664,-32.8 2270,-32.8"/>
</g>
<g id="clust34" class="cluster">
<title>cluster_ProductsPageModule_declarations</title>
<polygon fill="none" stroke="black" points="2482,-40.8 2482,-92.8 2656,-92.8 2656,-40.8 2482,-40.8"/>
</g>
<g id="clust36" class="cluster">
<title>cluster_ProductsPageModule_imports</title>
<polygon fill="none" stroke="black" points="2278,-40.8 2278,-92.8 2474,-92.8 2474,-40.8 2278,-40.8"/>
</g>
<!-- AppComponent -->
<g id="node1" class="node">
<title>AppComponent</title>
<polygon fill="#ffffb3" stroke="black" points="985.94,-160.8 880.06,-160.8 880.06,-124.8 985.94,-124.8 985.94,-160.8"/>
<text text-anchor="middle" x="933" y="-138.6" font-family="Times,serif" font-size="14.00">AppComponent</text>
</g>
<!-- AppModule -->
<g id="node2" class="node">
<title>AppModule</title>
<polygon fill="#8dd3c7" stroke="black" points="786.66,-225.8 783.66,-229.8 762.66,-229.8 759.66,-225.8 703.34,-225.8 703.34,-189.8 786.66,-189.8 786.66,-225.8"/>
<text text-anchor="middle" x="745" y="-203.6" font-family="Times,serif" font-size="14.00">AppModule</text>
</g>
<!-- AppComponent&#45;&gt;AppModule -->
<g id="edge1" class="edge">
<title>AppComponent&#45;&gt;AppModule</title>
<path fill="none" stroke="black" d="M933,-160.91C933,-180.14 933,-207.8 933,-207.8 933,-207.8 796.72,-207.8 796.72,-207.8"/>
<polygon fill="black" stroke="black" points="796.72,-204.3 786.72,-207.8 796.72,-211.3 796.72,-204.3"/>
</g>
<!-- AppComponent  -->
<g id="node6" class="node">
<title>AppComponent </title>
<polygon fill="#80b1d3" stroke="black" points="799.44,-290.8 690.56,-290.8 690.56,-254.8 799.44,-254.8 799.44,-290.8"/>
<text text-anchor="middle" x="745" y="-268.6" font-family="Times,serif" font-size="14.00">AppComponent </text>
</g>
<!-- AppModule&#45;&gt;AppComponent  -->
<g id="edge5" class="edge">
<title>AppModule&#45;&gt;AppComponent </title>
<path fill="none" stroke="black" stroke-dasharray="1,5" d="M745,-225.91C745,-225.91 745,-244.79 745,-244.79"/>
<polygon fill="black" stroke="black" points="741.5,-244.79 745,-254.79 748.5,-244.79 741.5,-244.79"/>
</g>
<!-- BrowserModule -->
<g id="node3" class="node">
<title>BrowserModule</title>
<polygon fill="#8dd3c7" stroke="black" points="738.47,-160.8 735.47,-164.8 714.47,-164.8 711.47,-160.8 631.53,-160.8 631.53,-124.8 738.47,-124.8 738.47,-160.8"/>
<text text-anchor="middle" x="685" y="-138.6" font-family="Times,serif" font-size="14.00">BrowserModule</text>
</g>
<!-- BrowserModule&#45;&gt;AppModule -->
<g id="edge2" class="edge">
<title>BrowserModule&#45;&gt;AppModule</title>
<path fill="none" stroke="black" d="M720.83,-160.91C720.83,-160.91 720.83,-179.79 720.83,-179.79"/>
<polygon fill="black" stroke="black" points="717.33,-179.79 720.83,-189.79 724.33,-179.79 717.33,-179.79"/>
</g>
<!-- AppRoutingModule -->
<g id="node4" class="node">
<title>AppRoutingModule</title>
<polygon fill="#8dd3c7" stroke="black" points="613.27,-160.8 610.27,-164.8 589.27,-164.8 586.27,-160.8 484.73,-160.8 484.73,-124.8 613.27,-124.8 613.27,-160.8"/>
<text text-anchor="middle" x="549" y="-138.6" font-family="Times,serif" font-size="14.00">AppRoutingModule</text>
</g>
<!-- AppRoutingModule&#45;&gt;AppModule -->
<g id="edge3" class="edge">
<title>AppRoutingModule&#45;&gt;AppModule</title>
<path fill="none" stroke="black" d="M549,-160.91C549,-180.14 549,-207.8 549,-207.8 549,-207.8 692.95,-207.8 692.95,-207.8"/>
<polygon fill="black" stroke="black" points="692.95,-211.3 702.95,-207.8 692.95,-204.3 692.95,-211.3"/>
</g>
<!-- LayoutModule -->
<g id="node5" class="node">
<title>LayoutModule</title>
<polygon fill="#8dd3c7" stroke="black" points="855.71,-160.8 852.71,-164.8 831.71,-164.8 828.71,-160.8 756.29,-160.8 756.29,-124.8 855.71,-124.8 855.71,-160.8"/>
<text text-anchor="middle" x="806" y="-138.6" font-family="Times,serif" font-size="14.00">LayoutModule</text>
</g>
<!-- LayoutModule&#45;&gt;AppModule -->
<g id="edge4" class="edge">
<title>LayoutModule&#45;&gt;AppModule</title>
<path fill="none" stroke="black" d="M771.61,-160.91C771.61,-160.91 771.61,-179.79 771.61,-179.79"/>
<polygon fill="black" stroke="black" points="768.11,-179.79 771.61,-189.79 775.11,-179.79 768.11,-179.79"/>
</g>
<!-- StructureComponent  -->
<g id="node14" class="node">
<title>StructureComponent </title>
<polygon fill="#fb8072" stroke="black" points="160.15,-84.8 23.85,-84.8 23.85,-48.8 160.15,-48.8 160.15,-84.8"/>
<text text-anchor="middle" x="92" y="-62.6" font-family="Times,serif" font-size="14.00">StructureComponent </text>
</g>
<!-- LayoutModule&#45;&gt;StructureComponent  -->
<g id="edge13" class="edge">
<title>LayoutModule&#45;&gt;StructureComponent </title>
<path fill="none" stroke="black" stroke-dasharray="5,2" d="M764.57,-124.69C764.57,-114.9 764.57,-104.8 764.57,-104.8 764.57,-104.8 92,-104.8 92,-104.8 92,-104.8 92,-94.91 92,-94.91"/>
<polygon fill="black" stroke="black" points="95.5,-94.91 92,-84.91 88.5,-94.91 95.5,-94.91"/>
</g>
<!-- StructureComponent -->
<g id="node7" class="node">
<title>StructureComponent</title>
<polygon fill="#ffffb3" stroke="black" points="1344.15,-84.8 1211.85,-84.8 1211.85,-48.8 1344.15,-48.8 1344.15,-84.8"/>
<text text-anchor="middle" x="1278" y="-62.6" font-family="Times,serif" font-size="14.00">StructureComponent</text>
</g>
<!-- StructureComponent&#45;&gt;LayoutModule -->
<g id="edge6" class="edge">
<title>StructureComponent&#45;&gt;LayoutModule</title>
<path fill="none" stroke="black" d="M1278,-84.95C1278,-98.54 1278,-114.8 1278,-114.8 1278,-114.8 839.57,-114.8 839.57,-114.8 839.57,-114.8 839.57,-115.78 839.57,-115.78"/>
<polygon fill="black" stroke="black" points="836.07,-114.59 839.57,-124.59 843.07,-114.59 836.07,-114.59"/>
</g>
<!-- MobileMenuComponent -->
<g id="node8" class="node">
<title>MobileMenuComponent</title>
<polygon fill="#ffffb3" stroke="black" points="1193.43,-84.8 1038.57,-84.8 1038.57,-48.8 1193.43,-48.8 1193.43,-84.8"/>
<text text-anchor="middle" x="1116" y="-62.6" font-family="Times,serif" font-size="14.00">MobileMenuComponent</text>
</g>
<!-- MobileMenuComponent&#45;&gt;LayoutModule -->
<g id="edge7" class="edge">
<title>MobileMenuComponent&#45;&gt;LayoutModule</title>
<path fill="none" stroke="black" d="M1116,-85.29C1116,-96.94 1116,-109.8 1116,-109.8 1116,-109.8 831.55,-109.8 831.55,-109.8 831.55,-109.8 831.55,-114.76 831.55,-114.76"/>
<polygon fill="black" stroke="black" points="828.05,-114.76 831.55,-124.76 835.05,-114.76 828.05,-114.76"/>
</g>
<!-- MobileMenuOpenBtnComponent -->
<g id="node9" class="node">
<title>MobileMenuOpenBtnComponent</title>
<polygon fill="#ffffb3" stroke="black" points="1020.48,-84.8 815.52,-84.8 815.52,-48.8 1020.48,-48.8 1020.48,-84.8"/>
<text text-anchor="middle" x="918" y="-62.6" font-family="Times,serif" font-size="14.00">MobileMenuOpenBtnComponent</text>
</g>
<!-- MobileMenuOpenBtnComponent&#45;&gt;LayoutModule -->
<g id="edge8" class="edge">
<title>MobileMenuOpenBtnComponent&#45;&gt;LayoutModule</title>
<path fill="none" stroke="black" d="M823.53,-84.81C823.53,-84.81 823.53,-114.65 823.53,-114.65"/>
<polygon fill="black" stroke="black" points="820.03,-114.65 823.53,-124.65 827.03,-114.65 820.03,-114.65"/>
</g>
<!-- MobileMenuCloseBtnComponent -->
<g id="node10" class="node">
<title>MobileMenuCloseBtnComponent</title>
<polygon fill="#ffffb3" stroke="black" points="797.05,-84.8 590.95,-84.8 590.95,-48.8 797.05,-48.8 797.05,-84.8"/>
<text text-anchor="middle" x="694" y="-62.6" font-family="Times,serif" font-size="14.00">MobileMenuCloseBtnComponent</text>
</g>
<!-- MobileMenuCloseBtnComponent&#45;&gt;LayoutModule -->
<g id="edge9" class="edge">
<title>MobileMenuCloseBtnComponent&#45;&gt;LayoutModule</title>
<path fill="none" stroke="black" d="M789.1,-84.81C789.1,-84.81 789.1,-114.65 789.1,-114.65"/>
<polygon fill="black" stroke="black" points="785.6,-114.65 789.1,-124.65 792.6,-114.65 785.6,-114.65"/>
</g>
<!-- MenFlyoutMenuComponent -->
<g id="node11" class="node">
<title>MenFlyoutMenuComponent</title>
<polygon fill="#ffffb3" stroke="black" points="573.21,-84.8 396.79,-84.8 396.79,-48.8 573.21,-48.8 573.21,-84.8"/>
<text text-anchor="middle" x="485" y="-62.6" font-family="Times,serif" font-size="14.00">MenFlyoutMenuComponent</text>
</g>
<!-- MenFlyoutMenuComponent&#45;&gt;LayoutModule -->
<g id="edge10" class="edge">
<title>MenFlyoutMenuComponent&#45;&gt;LayoutModule</title>
<path fill="none" stroke="black" d="M528.86,-85.01C528.86,-90.35 528.86,-94.8 528.86,-94.8 528.86,-94.8 780.92,-94.8 780.92,-94.8 780.92,-94.8 780.92,-114.65 780.92,-114.65"/>
<polygon fill="black" stroke="black" points="777.42,-114.65 780.92,-124.65 784.42,-114.65 777.42,-114.65"/>
</g>
<!-- WomenFlyoutMenuComponent -->
<g id="node12" class="node">
<title>WomenFlyoutMenuComponent</title>
<polygon fill="#ffffb3" stroke="black" points="378.38,-84.8 183.62,-84.8 183.62,-48.8 378.38,-48.8 378.38,-84.8"/>
<text text-anchor="middle" x="281" y="-62.6" font-family="Times,serif" font-size="14.00">WomenFlyoutMenuComponent</text>
</g>
<!-- WomenFlyoutMenuComponent&#45;&gt;LayoutModule -->
<g id="edge11" class="edge">
<title>WomenFlyoutMenuComponent&#45;&gt;LayoutModule</title>
<path fill="none" stroke="black" d="M281,-84.84C281,-92.55 281,-99.8 281,-99.8 281,-99.8 772.75,-99.8 772.75,-99.8 772.75,-99.8 772.75,-114.31 772.75,-114.31"/>
<polygon fill="black" stroke="black" points="769.25,-114.31 772.75,-124.31 776.25,-114.31 769.25,-114.31"/>
</g>
<!-- CommonModule -->
<g id="node13" class="node">
<title>CommonModule</title>
<polygon fill="#8dd3c7" stroke="black" points="1479.67,-84.8 1476.67,-88.8 1455.67,-88.8 1452.67,-84.8 1368.33,-84.8 1368.33,-48.8 1479.67,-48.8 1479.67,-84.8"/>
<text text-anchor="middle" x="1424" y="-62.6" font-family="Times,serif" font-size="14.00">CommonModule</text>
</g>
<!-- CommonModule&#45;&gt;LayoutModule -->
<g id="edge12" class="edge">
<title>CommonModule&#45;&gt;LayoutModule</title>
<path fill="none" stroke="black" d="M1396.08,-85.04C1396.08,-100.37 1396.08,-119.8 1396.08,-119.8 1396.08,-119.8 847.59,-119.8 847.59,-119.8 847.59,-119.8 847.59,-120.29 847.59,-120.29"/>
<polygon fill="black" stroke="black" points="844.09,-114.68 847.59,-124.68 851.09,-114.68 844.09,-114.68"/>
</g>
<!-- NotFoundPageModule -->
<g id="node16" class="node">
<title>NotFoundPageModule</title>
<polygon fill="#8dd3c7" stroke="black" points="1674.54,-160.8 1671.54,-164.8 1650.54,-164.8 1647.54,-160.8 1531.46,-160.8 1531.46,-124.8 1674.54,-124.8 1674.54,-160.8"/>
<text text-anchor="middle" x="1603" y="-138.6" font-family="Times,serif" font-size="14.00">NotFoundPageModule</text>
</g>
<!-- CommonModule&#45;&gt;NotFoundPageModule -->
<g id="edge15" class="edge">
<title>CommonModule&#45;&gt;NotFoundPageModule</title>
<path fill="none" stroke="black" d="M1451.92,-84.81C1451.92,-107.29 1451.92,-142.8 1451.92,-142.8 1451.92,-142.8 1521.44,-142.8 1521.44,-142.8"/>
<polygon fill="black" stroke="black" points="1521.44,-146.3 1531.44,-142.8 1521.44,-139.3 1521.44,-146.3"/>
</g>
<!-- ProductsPageModule -->
<g id="node21" class="node">
<title>ProductsPageModule</title>
<polygon fill="#8dd3c7" stroke="black" points="2443.75,-160.8 2440.75,-164.8 2419.75,-164.8 2416.75,-160.8 2308.25,-160.8 2308.25,-124.8 2443.75,-124.8 2443.75,-160.8"/>
<text text-anchor="middle" x="2376" y="-138.6" font-family="Times,serif" font-size="14.00">ProductsPageModule</text>
</g>
<!-- CommonModule&#45;&gt;ProductsPageModule -->
<g id="edge20" class="edge">
<title>CommonModule&#45;&gt;ProductsPageModule</title>
<path fill="none" stroke="black" d="M1424,-84.92C1424,-87.77 1424,-89.8 1424,-89.8 1424,-89.8 2353.37,-89.8 2353.37,-89.8 2353.37,-89.8 2353.37,-114.56 2353.37,-114.56"/>
<polygon fill="black" stroke="black" points="2349.87,-114.56 2353.37,-124.56 2356.87,-114.56 2349.87,-114.56"/>
</g>
<!-- NotFoundPageComponent -->
<g id="node15" class="node">
<title>NotFoundPageComponent</title>
<polygon fill="#ffffb3" stroke="black" points="1685.82,-84.8 1520.18,-84.8 1520.18,-48.8 1685.82,-48.8 1685.82,-84.8"/>
<text text-anchor="middle" x="1603" y="-62.6" font-family="Times,serif" font-size="14.00">NotFoundPageComponent</text>
</g>
<!-- NotFoundPageComponent&#45;&gt;NotFoundPageModule -->
<g id="edge14" class="edge">
<title>NotFoundPageComponent&#45;&gt;NotFoundPageModule</title>
<path fill="none" stroke="black" d="M1603,-84.81C1603,-84.81 1603,-114.65 1603,-114.65"/>
<polygon fill="black" stroke="black" points="1599.5,-114.65 1603,-124.65 1606.5,-114.65 1599.5,-114.65"/>
</g>
<!-- NotFoundPageRoutingModule -->
<g id="node17" class="node">
<title>NotFoundPageRoutingModule</title>
<polygon fill="#8dd3c7" stroke="black" points="1898.16,-84.8 1895.16,-88.8 1874.16,-88.8 1871.16,-84.8 1709.84,-84.8 1709.84,-48.8 1898.16,-48.8 1898.16,-84.8"/>
<text text-anchor="middle" x="1804" y="-62.6" font-family="Times,serif" font-size="14.00">NotFoundPageRoutingModule</text>
</g>
<!-- NotFoundPageRoutingModule&#45;&gt;NotFoundPageModule -->
<g id="edge16" class="edge">
<title>NotFoundPageRoutingModule&#45;&gt;NotFoundPageModule</title>
<path fill="none" stroke="black" d="M1804,-84.81C1804,-107.29 1804,-142.8 1804,-142.8 1804,-142.8 1684.71,-142.8 1684.71,-142.8"/>
<polygon fill="black" stroke="black" points="1684.71,-139.3 1674.71,-142.8 1684.71,-146.3 1684.71,-139.3"/>
</g>
<!-- RouterModule  -->
<g id="node19" class="node">
<title>RouterModule </title>
<polygon fill="#fb8072" stroke="black" points="2039.65,-160.8 1938.35,-160.8 1938.35,-124.8 2039.65,-124.8 2039.65,-160.8"/>
<text text-anchor="middle" x="1989" y="-138.6" font-family="Times,serif" font-size="14.00">RouterModule </text>
</g>
<!-- NotFoundPageRoutingModule&#45;&gt;RouterModule  -->
<g id="edge18" class="edge">
<title>NotFoundPageRoutingModule&#45;&gt;RouterModule </title>
<path fill="none" stroke="black" stroke-dasharray="5,2" d="M1898.39,-75.8C1936.72,-75.8 1972.14,-75.8 1972.14,-75.8 1972.14,-75.8 1972.14,-114.49 1972.14,-114.49"/>
<polygon fill="black" stroke="black" points="1968.64,-114.49 1972.14,-124.49 1975.64,-114.49 1968.64,-114.49"/>
</g>
<!-- RouterModule.forChild(args) -->
<g id="node18" class="node">
<title>RouterModule.forChild(args)</title>
<polygon fill="#8dd3c7" stroke="black" points="2245.73,-160.8 2242.73,-164.8 2221.73,-164.8 2218.73,-160.8 2064.27,-160.8 2064.27,-124.8 2245.73,-124.8 2245.73,-160.8"/>
<text text-anchor="middle" x="2155" y="-138.6" font-family="Times,serif" font-size="14.00">RouterModule.forChild(args)</text>
</g>
<!-- RouterModule.forChild(args)&#45;&gt;NotFoundPageRoutingModule -->
<g id="edge17" class="edge">
<title>RouterModule.forChild(args)&#45;&gt;NotFoundPageRoutingModule</title>
<path fill="none" stroke="black" d="M2155,-124.79C2155,-102.31 2155,-66.8 2155,-66.8 2155,-66.8 1908.52,-66.8 1908.52,-66.8"/>
<polygon fill="black" stroke="black" points="1908.52,-63.3 1898.52,-66.8 1908.52,-70.3 1908.52,-63.3"/>
</g>
<!-- ProductsPageRoutingModule -->
<g id="node22" class="node">
<title>ProductsPageRoutingModule</title>
<polygon fill="#8dd3c7" stroke="black" points="2466.37,-84.8 2463.37,-88.8 2442.37,-88.8 2439.37,-84.8 2285.63,-84.8 2285.63,-48.8 2466.37,-48.8 2466.37,-84.8"/>
<text text-anchor="middle" x="2376" y="-62.6" font-family="Times,serif" font-size="14.00">ProductsPageRoutingModule</text>
</g>
<!-- RouterModule.forChild(args)&#45;&gt;ProductsPageRoutingModule -->
<g id="edge22" class="edge">
<title>RouterModule.forChild(args)&#45;&gt;ProductsPageRoutingModule</title>
<path fill="none" stroke="black" d="M2245.63,-142.8C2273.43,-142.8 2296.84,-142.8 2296.84,-142.8 2296.84,-142.8 2296.84,-94.81 2296.84,-94.81"/>
<polygon fill="black" stroke="black" points="2300.34,-94.81 2296.84,-84.81 2293.34,-94.81 2300.34,-94.81"/>
</g>
<!-- ProductsPageComponent -->
<g id="node20" class="node">
<title>ProductsPageComponent</title>
<polygon fill="#ffffb3" stroke="black" points="2647.54,-84.8 2490.46,-84.8 2490.46,-48.8 2647.54,-48.8 2647.54,-84.8"/>
<text text-anchor="middle" x="2569" y="-62.6" font-family="Times,serif" font-size="14.00">ProductsPageComponent</text>
</g>
<!-- ProductsPageComponent&#45;&gt;ProductsPageModule -->
<g id="edge19" class="edge">
<title>ProductsPageComponent&#45;&gt;ProductsPageModule</title>
<path fill="none" stroke="black" d="M2569,-84.81C2569,-107.29 2569,-142.8 2569,-142.8 2569,-142.8 2453.77,-142.8 2453.77,-142.8"/>
<polygon fill="black" stroke="black" points="2453.77,-139.3 2443.77,-142.8 2453.77,-146.3 2453.77,-139.3"/>
</g>
<!-- ProductsPageRoutingModule&#45;&gt;RouterModule  -->
<g id="edge23" class="edge">
<title>ProductsPageRoutingModule&#45;&gt;RouterModule </title>
<path fill="none" stroke="black" stroke-dasharray="5,2" d="M2285.45,-57.8C2175.87,-57.8 2005.86,-57.8 2005.86,-57.8 2005.86,-57.8 2005.86,-114.77 2005.86,-114.77"/>
<polygon fill="black" stroke="black" points="2002.36,-114.77 2005.86,-124.77 2009.36,-114.77 2002.36,-114.77"/>
</g>
<!-- ProductsPageRoutingModule&#45;&gt;ProductsPageModule -->
<g id="edge21" class="edge">
<title>ProductsPageRoutingModule&#45;&gt;ProductsPageModule</title>
<path fill="none" stroke="black" d="M2398.63,-84.81C2398.63,-84.81 2398.63,-114.65 2398.63,-114.65"/>
<polygon fill="black" stroke="black" points="2395.13,-114.65 2398.63,-124.65 2402.13,-114.65 2395.13,-114.65"/>
</g>
</g>
</svg>
