<?xml version="1.0" encoding="UTF-8" standalone="no"?>
<!DOCTYPE svg PUBLIC "-//W3C//DTD SVG 1.1//EN"
 "http://www.w3.org/Graphics/SVG/1.1/DTD/svg11.dtd">
<!-- Generated by graphviz version 2.47.3 (20210619.1520)
 -->
<!-- Title: dependencies Pages: 1 -->
<svg width="4412pt" height="337pt"
 viewBox="0.00 0.00 4412.00 336.80" xmlns="http://www.w3.org/2000/svg" xmlns:xlink="http://www.w3.org/1999/xlink">
<g id="graph0" class="graph" transform="scale(1 1) rotate(0) translate(4 332.8)">
<title>dependencies</title>
<polygon fill="white" stroke="transparent" points="-4,4 -4,-332.8 4408,-332.8 4408,4 -4,4"/>
<text text-anchor="middle" x="2202" y="-8.2" font-family="sans-serif" font-size="14.00">dependencies</text>
<g id="clust1" class="cluster">
<title>cluster_AppModule</title>
<polygon fill="none" stroke="black" stroke-dasharray="1,5" points="289,-108.8 289,-320.8 1222,-320.8 1222,-108.8 289,-108.8"/>
</g>
<g id="clust2" class="cluster">
<title>cluster_AppModule_declarations</title>
<polygon fill="none" stroke="black" points="297,-116.8 297,-168.8 419,-168.8 419,-116.8 297,-116.8"/>
</g>
<g id="clust4" class="cluster">
<title>cluster_AppModule_imports</title>
<polygon fill="none" stroke="black" points="427,-116.8 427,-168.8 1214,-168.8 1214,-116.8 427,-116.8"/>
</g>
<g id="clust6" class="cluster">
<title>cluster_AppModule_bootstrap</title>
<polygon fill="none" stroke="black" points="680,-260.8 680,-312.8 804,-312.8 804,-260.8 680,-260.8"/>
</g>
<g id="clust8" class="cluster">
<title>cluster_CoreModule</title>
<polygon fill="none" stroke="black" stroke-dasharray="1,5" points="2000,-32.8 2000,-100.8 2144,-100.8 2144,-32.8 2000,-32.8"/>
</g>
<g id="clust10" class="cluster">
<title>cluster_CoreModule_imports</title>
<polygon fill="none" stroke="black" points="2008,-40.8 2008,-92.8 2136,-92.8 2136,-40.8 2008,-40.8"/>
</g>
<g id="clust14" class="cluster">
<title>cluster_HomePageModule</title>
<polygon fill="none" stroke="black" stroke-dasharray="1,5" points="2886,-32.8 2886,-168.8 3250,-168.8 3250,-32.8 2886,-32.8"/>
</g>
<g id="clust15" class="cluster">
<title>cluster_HomePageModule_declarations</title>
<polygon fill="none" stroke="black" points="2894,-40.8 2894,-92.8 3052,-92.8 3052,-40.8 2894,-40.8"/>
</g>
<g id="clust17" class="cluster">
<title>cluster_HomePageModule_imports</title>
<polygon fill="none" stroke="black" points="3060,-40.8 3060,-92.8 3242,-92.8 3242,-40.8 3060,-40.8"/>
</g>
<g id="clust21" class="cluster">
<title>cluster_HomePageRoutingModule</title>
<polygon fill="none" stroke="black" stroke-dasharray="1,5" points="3676,-108.8 3676,-176.8 4016,-176.8 4016,-108.8 3676,-108.8"/>
</g>
<g id="clust23" class="cluster">
<title>cluster_HomePageRoutingModule_imports</title>
<polygon fill="none" stroke="black" points="3810,-116.8 3810,-168.8 4008,-168.8 4008,-116.8 3810,-116.8"/>
</g>
<g id="clust24" class="cluster">
<title>cluster_HomePageRoutingModule_exports</title>
<polygon fill="none" stroke="black" points="3684,-116.8 3684,-168.8 3802,-168.8 3802,-116.8 3684,-116.8"/>
</g>
<g id="clust27" class="cluster">
<title>cluster_LayoutModule</title>
<polygon fill="none" stroke="black" stroke-dasharray="1,5" points="8,-32.8 8,-100.8 1621,-100.8 1621,-32.8 8,-32.8"/>
</g>
<g id="clust28" class="cluster">
<title>cluster_LayoutModule_declarations</title>
<polygon fill="none" stroke="black" points="16,-40.8 16,-92.8 1331,-92.8 1331,-40.8 16,-40.8"/>
</g>
<g id="clust36" class="cluster">
<title>cluster_LayoutModule_imports</title>
<polygon fill="none" stroke="black" points="1499,-40.8 1499,-92.8 1613,-92.8 1613,-40.8 1499,-40.8"/>
</g>
<g id="clust37" class="cluster">
<title>cluster_LayoutModule_exports</title>
<polygon fill="none" stroke="black" points="1339,-40.8 1339,-92.8 1491,-92.8 1491,-40.8 1339,-40.8"/>
</g>
<g id="clust40" class="cluster">
<title>cluster_NotFoundPageModule</title>
<polygon fill="none" stroke="black" stroke-dasharray="1,5" points="3258,-32.8 3258,-168.8 3668,-168.8 3668,-32.8 3258,-32.8"/>
</g>
<g id="clust41" class="cluster">
<title>cluster_NotFoundPageModule_declarations</title>
<polygon fill="none" stroke="black" points="3266,-40.8 3266,-92.8 3448,-92.8 3448,-40.8 3266,-40.8"/>
</g>
<g id="clust43" class="cluster">
<title>cluster_NotFoundPageModule_imports</title>
<polygon fill="none" stroke="black" points="3456,-40.8 3456,-92.8 3660,-92.8 3660,-40.8 3456,-40.8"/>
</g>
<g id="clust53" class="cluster">
<title>cluster_ProductModule</title>
<polygon fill="none" stroke="black" stroke-dasharray="1,5" points="2084,-108.8 2084,-320.8 2850,-320.8 2850,-108.8 2084,-108.8"/>
</g>
<g id="clust54" class="cluster">
<title>cluster_ProductModule_declarations</title>
<polygon fill="none" stroke="black" points="2092,-116.8 2092,-168.8 2842,-168.8 2842,-116.8 2092,-116.8"/>
</g>
<g id="clust60" class="cluster">
<title>cluster_ProductModule_exports</title>
<polygon fill="none" stroke="black" points="2096,-260.8 2096,-312.8 2470,-312.8 2470,-260.8 2096,-260.8"/>
</g>
<g id="clust63" class="cluster">
<title>cluster_ProductOverviewPageModule</title>
<polygon fill="none" stroke="black" stroke-dasharray="1,5" points="3246,-184.8 3246,-312.8 3740,-312.8 3740,-184.8 3246,-184.8"/>
</g>
<g id="clust64" class="cluster">
<title>cluster_ProductOverviewPageModule_declarations</title>
<polygon fill="none" stroke="black" points="3508,-192.8 3508,-244.8 3732,-244.8 3732,-192.8 3508,-192.8"/>
</g>
<g id="clust66" class="cluster">
<title>cluster_ProductOverviewPageModule_imports</title>
<polygon fill="none" stroke="black" points="3254,-192.8 3254,-244.8 3500,-244.8 3500,-192.8 3254,-192.8"/>
</g>
<g id="clust76" class="cluster">
<title>cluster_ProductsPageModule</title>
<polygon fill="none" stroke="black" stroke-dasharray="1,5" points="1682,-184.8 1682,-312.8 2076,-312.8 2076,-184.8 1682,-184.8"/>
</g>
<g id="clust77" class="cluster">
<title>cluster_ProductsPageModule_declarations</title>
<polygon fill="none" stroke="black" points="1894,-192.8 1894,-244.8 2068,-244.8 2068,-192.8 1894,-192.8"/>
</g>
<g id="clust79" class="cluster">
<title>cluster_ProductsPageModule_imports</title>
<polygon fill="none" stroke="black" points="1690,-192.8 1690,-244.8 1886,-244.8 1886,-192.8 1690,-192.8"/>
</g>
<g id="clust83" class="cluster">
<title>cluster_ShopifyFooterModule</title>
<polygon fill="none" stroke="black" stroke-dasharray="1,5" points="1230,-184.8 1230,-252.8 1614,-252.8 1614,-184.8 1230,-184.8"/>
</g>
<g id="clust84" class="cluster">
<title>cluster_ShopifyFooterModule_declarations</title>
<polygon fill="none" stroke="black" points="1428,-192.8 1428,-244.8 1606,-244.8 1606,-192.8 1428,-192.8"/>
</g>
<g id="clust87" class="cluster">
<title>cluster_ShopifyFooterModule_exports</title>
<polygon fill="none" stroke="black" points="1238,-192.8 1238,-244.8 1420,-244.8 1420,-192.8 1238,-192.8"/>
</g>
<g id="clust90" class="cluster">
<title>cluster_SignInPageModule</title>
<polygon fill="none" stroke="black" stroke-dasharray="1,5" points="4024,-32.8 4024,-168.8 4396,-168.8 4396,-32.8 4024,-32.8"/>
</g>
<g id="clust91" class="cluster">
<title>cluster_SignInPageModule_declarations</title>
<polygon fill="none" stroke="black" points="4226,-40.8 4226,-92.8 4388,-92.8 4388,-40.8 4226,-40.8"/>
</g>
<g id="clust93" class="cluster">
<title>cluster_SignInPageModule_imports</title>
<polygon fill="none" stroke="black" points="4032,-40.8 4032,-92.8 4218,-92.8 4218,-40.8 4032,-40.8"/>
</g>
<!-- AppComponent -->
<g id="node1" class="node">
<title>AppComponent</title>
<polygon fill="#ffffb3" stroke="black" points="410.94,-160.8 305.06,-160.8 305.06,-124.8 410.94,-124.8 410.94,-160.8"/>
<text text-anchor="middle" x="358" y="-138.6" font-family="Times,serif" font-size="14.00">AppComponent</text>
</g>
<!-- AppModule -->
<g id="node2" class="node">
<title>AppModule</title>
<polygon fill="#8dd3c7" stroke="black" points="783.66,-236.8 780.66,-240.8 759.66,-240.8 756.66,-236.8 700.34,-236.8 700.34,-200.8 783.66,-200.8 783.66,-236.8"/>
<text text-anchor="middle" x="742" y="-214.6" font-family="Times,serif" font-size="14.00">AppModule</text>
</g>
<!-- AppComponent&#45;&gt;AppModule -->
<g id="edge1" class="edge">
<title>AppComponent&#45;&gt;AppModule</title>
<path fill="none" stroke="black" d="M358,-160.83C358,-185.78 358,-227.8 358,-227.8 358,-227.8 690.17,-227.8 690.17,-227.8"/>
<polygon fill="black" stroke="black" points="690.17,-231.3 700.17,-227.8 690.17,-224.3 690.17,-231.3"/>
</g>
<!-- AppComponent  -->
<g id="node9" class="node">
<title>AppComponent </title>
<polygon fill="#80b1d3" stroke="black" points="796.44,-304.8 687.56,-304.8 687.56,-268.8 796.44,-268.8 796.44,-304.8"/>
<text text-anchor="middle" x="742" y="-282.6" font-family="Times,serif" font-size="14.00">AppComponent </text>
</g>
<!-- AppModule&#45;&gt;AppComponent  -->
<g id="edge8" class="edge">
<title>AppModule&#45;&gt;AppComponent </title>
<path fill="none" stroke="black" stroke-dasharray="1,5" d="M742,-237.02C742,-237.02 742,-258.53 742,-258.53"/>
<polygon fill="black" stroke="black" points="738.5,-258.53 742,-268.53 745.5,-258.53 738.5,-258.53"/>
</g>
<!-- BrowserModule -->
<g id="node3" class="node">
<title>BrowserModule</title>
<polygon fill="#8dd3c7" stroke="black" points="910.47,-160.8 907.47,-164.8 886.47,-164.8 883.47,-160.8 803.53,-160.8 803.53,-124.8 910.47,-124.8 910.47,-160.8"/>
<text text-anchor="middle" x="857" y="-138.6" font-family="Times,serif" font-size="14.00">BrowserModule</text>
</g>
<!-- BrowserModule&#45;&gt;AppModule -->
<g id="edge2" class="edge">
<title>BrowserModule&#45;&gt;AppModule</title>
<path fill="none" stroke="black" d="M857,-160.84C857,-182.46 857,-215.8 857,-215.8 857,-215.8 793.84,-215.8 793.84,-215.8"/>
<polygon fill="black" stroke="black" points="793.84,-212.3 783.84,-215.8 793.84,-219.3 793.84,-212.3"/>
</g>
<!-- HttpClientModule -->
<g id="node4" class="node">
<title>HttpClientModule</title>
<polygon fill="#8dd3c7" stroke="black" points="1206.16,-160.8 1203.16,-164.8 1182.16,-164.8 1179.16,-160.8 1087.84,-160.8 1087.84,-124.8 1206.16,-124.8 1206.16,-160.8"/>
<text text-anchor="middle" x="1147" y="-138.6" font-family="Times,serif" font-size="14.00">HttpClientModule</text>
</g>
<!-- HttpClientModule&#45;&gt;AppModule -->
<g id="edge3" class="edge">
<title>HttpClientModule&#45;&gt;AppModule</title>
<path fill="none" stroke="black" d="M1127.22,-160.83C1127.22,-186.31 1127.22,-229.8 1127.22,-229.8 1127.22,-229.8 793.96,-229.8 793.96,-229.8"/>
<polygon fill="black" stroke="black" points="793.96,-226.3 783.96,-229.8 793.96,-233.3 793.96,-226.3"/>
</g>
<!-- ProductModule -->
<g id="node32" class="node">
<title>ProductModule</title>
<polygon fill="#8dd3c7" stroke="black" points="2250.6,-236.8 2247.6,-240.8 2226.6,-240.8 2223.6,-236.8 2147.4,-236.8 2147.4,-200.8 2250.6,-200.8 2250.6,-236.8"/>
<text text-anchor="middle" x="2199" y="-214.6" font-family="Times,serif" font-size="14.00">ProductModule</text>
</g>
<!-- HttpClientModule&#45;&gt;ProductModule -->
<g id="edge36" class="edge">
<title>HttpClientModule&#45;&gt;ProductModule</title>
<path fill="none" stroke="black" d="M1206.35,-142.8C1409.97,-142.8 2067.74,-142.8 2067.74,-142.8 2067.74,-142.8 2067.74,-218.8 2067.74,-218.8 2067.74,-218.8 2137.12,-218.8 2137.12,-218.8"/>
<polygon fill="black" stroke="black" points="2137.12,-222.3 2147.12,-218.8 2137.12,-215.3 2137.12,-222.3"/>
</g>
<!-- ProductsPageModule -->
<g id="node39" class="node">
<title>ProductsPageModule</title>
<polygon fill="#8dd3c7" stroke="black" points="1840.75,-304.8 1837.75,-308.8 1816.75,-308.8 1813.75,-304.8 1705.25,-304.8 1705.25,-268.8 1840.75,-268.8 1840.75,-304.8"/>
<text text-anchor="middle" x="1773" y="-282.6" font-family="Times,serif" font-size="14.00">ProductsPageModule</text>
</g>
<!-- HttpClientModule&#45;&gt;ProductsPageModule -->
<g id="edge49" class="edge">
<title>HttpClientModule&#45;&gt;ProductsPageModule</title>
<path fill="none" stroke="black" d="M1166.78,-160.89C1166.78,-200.79 1166.78,-292.8 1166.78,-292.8 1166.78,-292.8 1695.22,-292.8 1695.22,-292.8"/>
<polygon fill="black" stroke="black" points="1695.22,-296.3 1705.22,-292.8 1695.22,-289.3 1695.22,-296.3"/>
</g>
<!-- CoreModule -->
<g id="node5" class="node">
<title>CoreModule</title>
<polygon fill="#8dd3c7" stroke="black" points="785.26,-160.8 782.26,-164.8 761.26,-164.8 758.26,-160.8 698.74,-160.8 698.74,-124.8 785.26,-124.8 785.26,-160.8"/>
<text text-anchor="middle" x="742" y="-138.6" font-family="Times,serif" font-size="14.00">CoreModule</text>
</g>
<!-- CoreModule&#45;&gt;AppModule -->
<g id="edge4" class="edge">
<title>CoreModule&#45;&gt;AppModule</title>
<path fill="none" stroke="black" d="M742,-160.81C742,-160.81 742,-190.65 742,-190.65"/>
<polygon fill="black" stroke="black" points="738.5,-190.65 742,-200.65 745.5,-190.65 738.5,-190.65"/>
</g>
<!-- AppRoutingModule -->
<g id="node6" class="node">
<title>AppRoutingModule</title>
<polygon fill="#8dd3c7" stroke="black" points="563.27,-160.8 560.27,-164.8 539.27,-164.8 536.27,-160.8 434.73,-160.8 434.73,-124.8 563.27,-124.8 563.27,-160.8"/>
<text text-anchor="middle" x="499" y="-138.6" font-family="Times,serif" font-size="14.00">AppRoutingModule</text>
</g>
<!-- AppRoutingModule&#45;&gt;AppModule -->
<g id="edge5" class="edge">
<title>AppRoutingModule&#45;&gt;AppModule</title>
<path fill="none" stroke="black" d="M499,-160.81C499,-183.29 499,-218.8 499,-218.8 499,-218.8 690.23,-218.8 690.23,-218.8"/>
<polygon fill="black" stroke="black" points="690.23,-222.3 700.23,-218.8 690.23,-215.3 690.23,-222.3"/>
</g>
<!-- LayoutModule -->
<g id="node7" class="node">
<title>LayoutModule</title>
<polygon fill="#8dd3c7" stroke="black" points="680.71,-160.8 677.71,-164.8 656.71,-164.8 653.71,-160.8 581.29,-160.8 581.29,-124.8 680.71,-124.8 680.71,-160.8"/>
<text text-anchor="middle" x="631" y="-138.6" font-family="Times,serif" font-size="14.00">LayoutModule</text>
</g>
<!-- LayoutModule&#45;&gt;AppModule -->
<g id="edge6" class="edge">
<title>LayoutModule&#45;&gt;AppModule</title>
<path fill="none" stroke="black" d="M631,-161.11C631,-180.95 631,-209.8 631,-209.8 631,-209.8 690.04,-209.8 690.04,-209.8"/>
<polygon fill="black" stroke="black" points="690.04,-213.3 700.04,-209.8 690.04,-206.3 690.04,-213.3"/>
</g>
<!-- StructureComponent  -->
<g id="node24" class="node">
<title>StructureComponent </title>
<polygon fill="#fb8072" stroke="black" points="1483.15,-84.8 1346.85,-84.8 1346.85,-48.8 1483.15,-48.8 1483.15,-84.8"/>
<text text-anchor="middle" x="1415" y="-62.6" font-family="Times,serif" font-size="14.00">StructureComponent </text>
</g>
<!-- LayoutModule&#45;&gt;StructureComponent  -->
<g id="edge24" class="edge">
<title>LayoutModule&#45;&gt;StructureComponent </title>
<path fill="none" stroke="black" stroke-dasharray="5,2" d="M626.49,-124.69C626.49,-114.9 626.49,-104.8 626.49,-104.8 626.49,-104.8 1379.39,-104.8 1379.39,-104.8 1379.39,-104.8 1379.39,-94.91 1379.39,-94.91"/>
<polygon fill="black" stroke="black" points="1382.89,-94.91 1379.39,-84.91 1375.89,-94.91 1382.89,-94.91"/>
</g>
<!-- ShopifyFooterModule -->
<g id="node8" class="node">
<title>ShopifyFooterModule</title>
<polygon fill="#8dd3c7" stroke="black" points="1069.43,-160.8 1066.43,-164.8 1045.43,-164.8 1042.43,-160.8 928.57,-160.8 928.57,-124.8 1069.43,-124.8 1069.43,-160.8"/>
<text text-anchor="middle" x="999" y="-138.6" font-family="Times,serif" font-size="14.00">ShopifyFooterModule</text>
</g>
<!-- ShopifyFooterModule&#45;&gt;AppModule -->
<g id="edge7" class="edge">
<title>ShopifyFooterModule&#45;&gt;AppModule</title>
<path fill="none" stroke="black" d="M999,-160.95C999,-184.56 999,-222.8 999,-222.8 999,-222.8 793.86,-222.8 793.86,-222.8"/>
<polygon fill="black" stroke="black" points="793.86,-219.3 783.86,-222.8 793.86,-226.3 793.86,-219.3"/>
</g>
<!-- ShopifyFooterComponent  -->
<g id="node42" class="node">
<title>ShopifyFooterComponent </title>
<polygon fill="#fb8072" stroke="black" points="1411.71,-236.8 1246.29,-236.8 1246.29,-200.8 1411.71,-200.8 1411.71,-236.8"/>
<text text-anchor="middle" x="1329" y="-214.6" font-family="Times,serif" font-size="14.00">ShopifyFooterComponent </text>
</g>
<!-- ShopifyFooterModule&#45;&gt;ShopifyFooterComponent  -->
<g id="edge53" class="edge">
<title>ShopifyFooterModule&#45;&gt;ShopifyFooterComponent </title>
<path fill="none" stroke="black" stroke-dasharray="5,2" d="M1034.11,-160.83C1034.11,-180.38 1034.11,-208.8 1034.11,-208.8 1034.11,-208.8 1236.07,-208.8 1236.07,-208.8"/>
<polygon fill="black" stroke="black" points="1236.07,-212.3 1246.07,-208.8 1236.07,-205.3 1236.07,-212.3"/>
</g>
<!-- CommonModule -->
<g id="node10" class="node">
<title>CommonModule</title>
<polygon fill="#8dd3c7" stroke="black" points="2127.67,-84.8 2124.67,-88.8 2103.67,-88.8 2100.67,-84.8 2016.33,-84.8 2016.33,-48.8 2127.67,-48.8 2127.67,-84.8"/>
<text text-anchor="middle" x="2072" y="-62.6" font-family="Times,serif" font-size="14.00">CommonModule</text>
</g>
<!-- CommonModule&#45;&gt;CoreModule -->
<g id="edge9" class="edge">
<title>CommonModule&#45;&gt;CoreModule</title>
<path fill="none" stroke="black" d="M2037.97,-84.98C2037.97,-97.84 2037.97,-112.8 2037.97,-112.8 2037.97,-112.8 760.11,-112.8 760.11,-112.8 760.11,-112.8 760.11,-114.66 760.11,-114.66"/>
<polygon fill="black" stroke="black" points="756.61,-114.66 760.11,-124.66 763.61,-114.66 756.61,-114.66"/>
</g>
<!-- CommonModule&#45;&gt;LayoutModule -->
<g id="edge22" class="edge">
<title>CommonModule&#45;&gt;LayoutModule</title>
<path fill="none" stroke="black" d="M2027.07,-85.29C2027.07,-96.94 2027.07,-109.8 2027.07,-109.8 2027.07,-109.8 671.58,-109.8 671.58,-109.8 671.58,-109.8 671.58,-114.76 671.58,-114.76"/>
<polygon fill="black" stroke="black" points="668.09,-114.76 671.58,-124.76 675.09,-114.76 668.09,-114.76"/>
</g>
<!-- CommonModule&#45;&gt;ShopifyFooterModule -->
<g id="edge52" class="edge">
<title>CommonModule&#45;&gt;ShopifyFooterModule</title>
<path fill="none" stroke="black" d="M2048.87,-84.95C2048.87,-98.54 2048.87,-114.8 2048.87,-114.8 2048.87,-114.8 1022.41,-114.8 1022.41,-114.8 1022.41,-114.8 1022.41,-115.78 1022.41,-115.78"/>
<polygon fill="black" stroke="black" points="1018.91,-114.59 1022.41,-124.59 1025.91,-114.59 1018.91,-114.59"/>
</g>
<!-- HomePageModule -->
<g id="node12" class="node">
<title>HomePageModule</title>
<polygon fill="#8dd3c7" stroke="black" points="3033.47,-160.8 3030.47,-164.8 3009.47,-164.8 3006.47,-160.8 2912.53,-160.8 2912.53,-124.8 3033.47,-124.8 3033.47,-160.8"/>
<text text-anchor="middle" x="2973" y="-138.6" font-family="Times,serif" font-size="14.00">HomePageModule</text>
</g>
<!-- CommonModule&#45;&gt;HomePageModule -->
<g id="edge11" class="edge">
<title>CommonModule&#45;&gt;HomePageModule</title>
<path fill="none" stroke="black" d="M2127.79,-60.8C2310.48,-60.8 2879.09,-60.8 2879.09,-60.8 2879.09,-60.8 2879.09,-142.8 2879.09,-142.8 2879.09,-142.8 2902.47,-142.8 2902.47,-142.8"/>
<polygon fill="black" stroke="black" points="2902.47,-146.3 2912.47,-142.8 2902.47,-139.3 2902.47,-146.3"/>
</g>
<!-- NotFoundPageModule -->
<g id="node26" class="node">
<title>NotFoundPageModule</title>
<polygon fill="#8dd3c7" stroke="black" points="3428.54,-160.8 3425.54,-164.8 3404.54,-164.8 3401.54,-160.8 3285.46,-160.8 3285.46,-124.8 3428.54,-124.8 3428.54,-160.8"/>
<text text-anchor="middle" x="3357" y="-138.6" font-family="Times,serif" font-size="14.00">NotFoundPageModule</text>
</g>
<!-- CommonModule&#45;&gt;NotFoundPageModule -->
<g id="edge26" class="edge">
<title>CommonModule&#45;&gt;NotFoundPageModule</title>
<path fill="none" stroke="black" d="M2109.03,-85.01C2109.03,-90.35 2109.03,-94.8 2109.03,-94.8 2109.03,-94.8 3333.08,-94.8 3333.08,-94.8 3333.08,-94.8 3333.08,-114.65 3333.08,-114.65"/>
<polygon fill="black" stroke="black" points="3329.58,-114.65 3333.08,-124.65 3336.58,-114.65 3329.58,-114.65"/>
</g>
<!-- CommonModule&#45;&gt;ProductModule -->
<g id="edge34" class="edge">
<title>CommonModule&#45;&gt;ProductModule</title>
<path fill="none" stroke="black" d="M2091.65,-84.91C2091.65,-123.39 2091.65,-209.8 2091.65,-209.8 2091.65,-209.8 2137.21,-209.8 2137.21,-209.8"/>
<polygon fill="black" stroke="black" points="2137.21,-213.3 2147.21,-209.8 2137.21,-206.3 2137.21,-213.3"/>
</g>
<!-- ProductOverviewPageModule -->
<g id="node36" class="node">
<title>ProductOverviewPageModule</title>
<polygon fill="#8dd3c7" stroke="black" points="3454.5,-304.8 3451.5,-308.8 3430.5,-308.8 3427.5,-304.8 3269.5,-304.8 3269.5,-268.8 3454.5,-268.8 3454.5,-304.8"/>
<text text-anchor="middle" x="3362" y="-282.6" font-family="Times,serif" font-size="14.00">ProductOverviewPageModule</text>
</g>
<!-- CommonModule&#45;&gt;ProductOverviewPageModule -->
<g id="edge40" class="edge">
<title>CommonModule&#45;&gt;ProductOverviewPageModule</title>
<path fill="none" stroke="black" d="M2127.8,-72.8C2307.04,-72.8 2856.57,-72.8 2856.57,-72.8 2856.57,-72.8 2856.57,-280.8 2856.57,-280.8 2856.57,-280.8 3259.3,-280.8 3259.3,-280.8"/>
<polygon fill="black" stroke="black" points="3259.3,-284.3 3269.3,-280.8 3259.3,-277.3 3259.3,-284.3"/>
</g>
<!-- CommonModule&#45;&gt;ProductsPageModule -->
<g id="edge46" class="edge">
<title>CommonModule&#45;&gt;ProductsPageModule</title>
<path fill="none" stroke="black" d="M2075.71,-84.8C2075.71,-137.35 2075.71,-286.8 2075.71,-286.8 2075.71,-286.8 1850.93,-286.8 1850.93,-286.8"/>
<polygon fill="black" stroke="black" points="1850.93,-283.3 1840.93,-286.8 1850.93,-290.3 1850.93,-283.3"/>
</g>
<!-- SignInPageModule -->
<g id="node44" class="node">
<title>SignInPageModule</title>
<polygon fill="#8dd3c7" stroke="black" points="4187.1,-160.8 4184.1,-164.8 4163.1,-164.8 4160.1,-160.8 4062.9,-160.8 4062.9,-124.8 4187.1,-124.8 4187.1,-160.8"/>
<text text-anchor="middle" x="4125" y="-138.6" font-family="Times,serif" font-size="14.00">SignInPageModule</text>
</g>
<!-- CommonModule&#45;&gt;SignInPageModule -->
<g id="edge55" class="edge">
<title>CommonModule&#45;&gt;SignInPageModule</title>
<path fill="none" stroke="black" d="M2118.43,-84.88C2118.43,-86.65 2118.43,-87.8 2118.43,-87.8 2118.43,-87.8 4104.32,-87.8 4104.32,-87.8 4104.32,-87.8 4104.32,-114.79 4104.32,-114.79"/>
<polygon fill="black" stroke="black" points="4100.82,-114.79 4104.32,-124.79 4107.82,-114.79 4100.82,-114.79"/>
</g>
<!-- HomePageComponent -->
<g id="node11" class="node">
<title>HomePageComponent</title>
<polygon fill="#ffffb3" stroke="black" points="3044.26,-84.8 2901.74,-84.8 2901.74,-48.8 3044.26,-48.8 3044.26,-84.8"/>
<text text-anchor="middle" x="2973" y="-62.6" font-family="Times,serif" font-size="14.00">HomePageComponent</text>
</g>
<!-- HomePageComponent&#45;&gt;HomePageModule -->
<g id="edge10" class="edge">
<title>HomePageComponent&#45;&gt;HomePageModule</title>
<path fill="none" stroke="black" d="M2973,-84.81C2973,-84.81 2973,-114.65 2973,-114.65"/>
<polygon fill="black" stroke="black" points="2969.5,-114.65 2973,-124.65 2976.5,-114.65 2969.5,-114.65"/>
</g>
<!-- HomePageRoutingModule -->
<g id="node13" class="node">
<title>HomePageRoutingModule</title>
<polygon fill="#8dd3c7" stroke="black" points="3234.09,-84.8 3231.09,-88.8 3210.09,-88.8 3207.09,-84.8 3067.91,-84.8 3067.91,-48.8 3234.09,-48.8 3234.09,-84.8"/>
<text text-anchor="middle" x="3151" y="-62.6" font-family="Times,serif" font-size="14.00">HomePageRoutingModule</text>
</g>
<!-- HomePageRoutingModule&#45;&gt;HomePageModule -->
<g id="edge12" class="edge">
<title>HomePageRoutingModule&#45;&gt;HomePageModule</title>
<path fill="none" stroke="black" d="M3192.52,-84.81C3192.52,-107.29 3192.52,-142.8 3192.52,-142.8 3192.52,-142.8 3043.57,-142.8 3043.57,-142.8"/>
<polygon fill="black" stroke="black" points="3043.57,-139.3 3033.57,-142.8 3043.57,-146.3 3043.57,-139.3"/>
</g>
<!-- RouterModule  -->
<g id="node15" class="node">
<title>RouterModule </title>
<polygon fill="#fb8072" stroke="black" points="3793.65,-160.8 3692.35,-160.8 3692.35,-124.8 3793.65,-124.8 3793.65,-160.8"/>
<text text-anchor="middle" x="3743" y="-138.6" font-family="Times,serif" font-size="14.00">RouterModule </text>
</g>
<!-- HomePageRoutingModule&#45;&gt;RouterModule  -->
<g id="edge14" class="edge">
<title>HomePageRoutingModule&#45;&gt;RouterModule </title>
<path fill="none" stroke="black" stroke-dasharray="5,2" d="M3151,-84.86C3151,-89.29 3151,-92.8 3151,-92.8 3151,-92.8 3717.71,-92.8 3717.71,-92.8 3717.71,-92.8 3717.71,-114.75 3717.71,-114.75"/>
<polygon fill="black" stroke="black" points="3714.21,-114.75 3717.71,-124.75 3721.21,-114.75 3714.21,-114.75"/>
</g>
<!-- RouterModule.forChild(args) -->
<g id="node14" class="node">
<title>RouterModule.forChild(args)</title>
<polygon fill="#8dd3c7" stroke="black" points="3999.73,-160.8 3996.73,-164.8 3975.73,-164.8 3972.73,-160.8 3818.27,-160.8 3818.27,-124.8 3999.73,-124.8 3999.73,-160.8"/>
<text text-anchor="middle" x="3909" y="-138.6" font-family="Times,serif" font-size="14.00">RouterModule.forChild(args)</text>
</g>
<!-- RouterModule.forChild(args)&#45;&gt;HomePageRoutingModule -->
<g id="edge13" class="edge">
<title>RouterModule.forChild(args)&#45;&gt;HomePageRoutingModule</title>
<path fill="none" stroke="black" d="M3939.21,-124.56C3939.21,-109.23 3939.21,-89.8 3939.21,-89.8 3939.21,-89.8 3109.48,-89.8 3109.48,-89.8 3109.48,-89.8 3109.48,-89.31 3109.48,-89.31"/>
<polygon fill="black" stroke="black" points="3112.98,-94.92 3109.48,-84.92 3105.98,-94.92 3112.98,-94.92"/>
</g>
<!-- NotFoundPageRoutingModule -->
<g id="node27" class="node">
<title>NotFoundPageRoutingModule</title>
<polygon fill="#8dd3c7" stroke="black" points="3652.16,-84.8 3649.16,-88.8 3628.16,-88.8 3625.16,-84.8 3463.84,-84.8 3463.84,-48.8 3652.16,-48.8 3652.16,-84.8"/>
<text text-anchor="middle" x="3558" y="-62.6" font-family="Times,serif" font-size="14.00">NotFoundPageRoutingModule</text>
</g>
<!-- RouterModule.forChild(args)&#45;&gt;NotFoundPageRoutingModule -->
<g id="edge28" class="edge">
<title>RouterModule.forChild(args)&#45;&gt;NotFoundPageRoutingModule</title>
<path fill="none" stroke="black" d="M3878.79,-124.79C3878.79,-102.31 3878.79,-66.8 3878.79,-66.8 3878.79,-66.8 3662.51,-66.8 3662.51,-66.8"/>
<polygon fill="black" stroke="black" points="3662.51,-63.3 3652.51,-66.8 3662.51,-70.3 3662.51,-63.3"/>
</g>
<!-- ProductOverviewPageRoutingModule -->
<g id="node37" class="node">
<title>ProductOverviewPageRoutingModule</title>
<polygon fill="#8dd3c7" stroke="black" points="3492.12,-236.8 3489.12,-240.8 3468.12,-240.8 3465.12,-236.8 3261.88,-236.8 3261.88,-200.8 3492.12,-200.8 3492.12,-236.8"/>
<text text-anchor="middle" x="3377" y="-214.6" font-family="Times,serif" font-size="14.00">ProductOverviewPageRoutingModule</text>
</g>
<!-- RouterModule.forChild(args)&#45;&gt;ProductOverviewPageRoutingModule -->
<g id="edge43" class="edge">
<title>RouterModule.forChild(args)&#45;&gt;ProductOverviewPageRoutingModule</title>
<path fill="none" stroke="black" d="M3909,-160.91C3909,-170.7 3909,-180.8 3909,-180.8 3909,-180.8 3485.15,-180.8 3485.15,-180.8 3485.15,-180.8 3485.15,-190.69 3485.15,-190.69"/>
<polygon fill="black" stroke="black" points="3481.65,-190.69 3485.15,-200.69 3488.65,-190.69 3481.65,-190.69"/>
</g>
<!-- SignInPageRoutingModule -->
<g id="node45" class="node">
<title>SignInPageRoutingModule</title>
<polygon fill="#8dd3c7" stroke="black" points="4209.71,-84.8 4206.71,-88.8 4185.71,-88.8 4182.71,-84.8 4040.29,-84.8 4040.29,-48.8 4209.71,-48.8 4209.71,-84.8"/>
<text text-anchor="middle" x="4125" y="-62.6" font-family="Times,serif" font-size="14.00">SignInPageRoutingModule</text>
</g>
<!-- RouterModule.forChild(args)&#45;&gt;SignInPageRoutingModule -->
<g id="edge57" class="edge">
<title>RouterModule.forChild(args)&#45;&gt;SignInPageRoutingModule</title>
<path fill="none" stroke="black" d="M3999.76,-142.8C4027.9,-142.8 4051.67,-142.8 4051.67,-142.8 4051.67,-142.8 4051.67,-94.81 4051.67,-94.81"/>
<polygon fill="black" stroke="black" points="4055.17,-94.81 4051.67,-84.81 4048.17,-94.81 4055.17,-94.81"/>
</g>
<!-- StructureComponent -->
<g id="node16" class="node">
<title>StructureComponent</title>
<polygon fill="#ffffb3" stroke="black" points="552.15,-84.8 419.85,-84.8 419.85,-48.8 552.15,-48.8 552.15,-84.8"/>
<text text-anchor="middle" x="486" y="-62.6" font-family="Times,serif" font-size="14.00">StructureComponent</text>
</g>
<!-- StructureComponent&#45;&gt;LayoutModule -->
<g id="edge15" class="edge">
<title>StructureComponent&#45;&gt;LayoutModule</title>
<path fill="none" stroke="black" d="M493.47,-84.92C493.47,-99.58 493.47,-117.8 493.47,-117.8 493.47,-117.8 608.45,-117.8 608.45,-117.8 608.45,-117.8 608.45,-118.48 608.45,-118.48"/>
<polygon fill="black" stroke="black" points="604.95,-114.63 608.45,-124.63 611.95,-114.63 604.95,-114.63"/>
</g>
<!-- MobileMenuComponent -->
<g id="node17" class="node">
<title>MobileMenuComponent</title>
<polygon fill="#ffffb3" stroke="black" points="401.43,-84.8 246.57,-84.8 246.57,-48.8 401.43,-48.8 401.43,-84.8"/>
<text text-anchor="middle" x="324" y="-62.6" font-family="Times,serif" font-size="14.00">MobileMenuComponent</text>
</g>
<!-- MobileMenuComponent&#45;&gt;LayoutModule -->
<g id="edge16" class="edge">
<title>MobileMenuComponent&#45;&gt;LayoutModule</title>
<path fill="none" stroke="black" d="M353.25,-85.04C353.25,-100.37 353.25,-119.8 353.25,-119.8 353.25,-119.8 599.43,-119.8 599.43,-119.8 599.43,-119.8 599.43,-120.29 599.43,-120.29"/>
<polygon fill="black" stroke="black" points="595.93,-114.68 599.43,-124.68 602.93,-114.68 595.93,-114.68"/>
</g>
<!-- MobileMenuOpenBtnComponent -->
<g id="node18" class="node">
<title>MobileMenuOpenBtnComponent</title>
<polygon fill="#ffffb3" stroke="black" points="228.48,-84.8 23.52,-84.8 23.52,-48.8 228.48,-48.8 228.48,-84.8"/>
<text text-anchor="middle" x="126" y="-62.6" font-family="Times,serif" font-size="14.00">MobileMenuOpenBtnComponent</text>
</g>
<!-- MobileMenuOpenBtnComponent&#45;&gt;LayoutModule -->
<g id="edge17" class="edge">
<title>MobileMenuOpenBtnComponent&#45;&gt;LayoutModule</title>
<path fill="none" stroke="black" d="M126,-84.83C126,-101.2 126,-122.8 126,-122.8 126,-122.8 590.42,-122.8 590.42,-122.8 590.42,-122.8 590.42,-122.98 590.42,-122.98"/>
<polygon fill="black" stroke="black" points="586.92,-114.65 590.42,-124.65 593.92,-114.65 586.92,-114.65"/>
</g>
<!-- MobileMenuCloseBtnComponent -->
<g id="node19" class="node">
<title>MobileMenuCloseBtnComponent</title>
<polygon fill="#ffffb3" stroke="black" points="1323.05,-84.8 1116.95,-84.8 1116.95,-48.8 1323.05,-48.8 1323.05,-84.8"/>
<text text-anchor="middle" x="1220" y="-62.6" font-family="Times,serif" font-size="14.00">MobileMenuCloseBtnComponent</text>
</g>
<!-- MobileMenuCloseBtnComponent&#45;&gt;LayoutModule -->
<g id="edge18" class="edge">
<title>MobileMenuCloseBtnComponent&#45;&gt;LayoutModule</title>
<path fill="none" stroke="black" d="M1161.53,-85.22C1161.53,-94.08 1161.53,-102.8 1161.53,-102.8 1161.53,-102.8 653.55,-102.8 653.55,-102.8 653.55,-102.8 653.55,-114.67 653.55,-114.67"/>
<polygon fill="black" stroke="black" points="650.05,-114.67 653.55,-124.67 657.05,-114.67 650.05,-114.67"/>
</g>
<!-- MenFlyoutMenuComponent -->
<g id="node20" class="node">
<title>MenFlyoutMenuComponent</title>
<polygon fill="#ffffb3" stroke="black" points="1099.21,-84.8 922.79,-84.8 922.79,-48.8 1099.21,-48.8 1099.21,-84.8"/>
<text text-anchor="middle" x="1011" y="-62.6" font-family="Times,serif" font-size="14.00">MenFlyoutMenuComponent</text>
</g>
<!-- MenFlyoutMenuComponent&#45;&gt;LayoutModule -->
<g id="edge19" class="edge">
<title>MenFlyoutMenuComponent&#45;&gt;LayoutModule</title>
<path fill="none" stroke="black" d="M975.59,-84.84C975.59,-92.55 975.59,-99.8 975.59,-99.8 975.59,-99.8 644.53,-99.8 644.53,-99.8 644.53,-99.8 644.53,-114.31 644.53,-114.31"/>
<polygon fill="black" stroke="black" points="641.03,-114.31 644.53,-124.31 648.03,-114.31 641.03,-114.31"/>
</g>
<!-- WomenFlyoutMenuComponent -->
<g id="node21" class="node">
<title>WomenFlyoutMenuComponent</title>
<polygon fill="#ffffb3" stroke="black" points="904.38,-84.8 709.62,-84.8 709.62,-48.8 904.38,-48.8 904.38,-84.8"/>
<text text-anchor="middle" x="807" y="-62.6" font-family="Times,serif" font-size="14.00">WomenFlyoutMenuComponent</text>
</g>
<!-- WomenFlyoutMenuComponent&#45;&gt;LayoutModule -->
<g id="edge20" class="edge">
<title>WomenFlyoutMenuComponent&#45;&gt;LayoutModule</title>
<path fill="none" stroke="black" d="M734.84,-84.83C734.84,-91.65 734.84,-97.8 734.84,-97.8 734.84,-97.8 635.51,-97.8 635.51,-97.8 635.51,-97.8 635.51,-114.76 635.51,-114.76"/>
<polygon fill="black" stroke="black" points="632.01,-114.76 635.51,-124.76 639.01,-114.76 632.01,-114.76"/>
</g>
<!-- BannerComponent -->
<g id="node22" class="node">
<title>BannerComponent</title>
<polygon fill="#ffffb3" stroke="black" points="691.76,-84.8 570.24,-84.8 570.24,-48.8 691.76,-48.8 691.76,-84.8"/>
<text text-anchor="middle" x="631" y="-62.6" font-family="Times,serif" font-size="14.00">BannerComponent</text>
</g>
<!-- BannerComponent&#45;&gt;LayoutModule -->
<g id="edge21" class="edge">
<title>BannerComponent&#45;&gt;LayoutModule</title>
<path fill="none" stroke="black" d="M617.47,-84.81C617.47,-84.81 617.47,-114.65 617.47,-114.65"/>
<polygon fill="black" stroke="black" points="613.97,-114.65 617.47,-124.65 620.97,-114.65 613.97,-114.65"/>
</g>
<!-- RouterModule -->
<g id="node23" class="node">
<title>RouterModule</title>
<polygon fill="#8dd3c7" stroke="black" points="1604.65,-84.8 1601.65,-88.8 1580.65,-88.8 1577.65,-84.8 1507.35,-84.8 1507.35,-48.8 1604.65,-48.8 1604.65,-84.8"/>
<text text-anchor="middle" x="1556" y="-62.6" font-family="Times,serif" font-size="14.00">RouterModule</text>
</g>
<!-- RouterModule&#45;&gt;LayoutModule -->
<g id="edge23" class="edge">
<title>RouterModule&#45;&gt;LayoutModule</title>
<path fill="none" stroke="black" d="M1537.49,-84.9C1537.49,-95.89 1537.49,-107.8 1537.49,-107.8 1537.49,-107.8 662.57,-107.8 662.57,-107.8 662.57,-107.8 662.57,-114.48 662.57,-114.48"/>
<polygon fill="black" stroke="black" points="659.07,-114.48 662.57,-124.48 666.07,-114.48 659.07,-114.48"/>
</g>
<!-- RouterModule&#45;&gt;ProductModule -->
<g id="edge35" class="edge">
<title>RouterModule&#45;&gt;ProductModule</title>
<path fill="none" stroke="black" d="M1567.8,-84.92C1567.8,-114.71 1567.8,-170.8 1567.8,-170.8 1567.8,-170.8 2181.82,-170.8 2181.82,-170.8 2181.82,-170.8 2181.82,-190.65 2181.82,-190.65"/>
<polygon fill="black" stroke="black" points="2178.32,-190.65 2181.82,-200.65 2185.32,-190.65 2178.32,-190.65"/>
</g>
<!-- RouterModule&#45;&gt;ProductsPageModule -->
<g id="edge50" class="edge">
<title>RouterModule&#45;&gt;ProductsPageModule</title>
<path fill="none" stroke="black" d="M1604.71,-66.8C1628.13,-66.8 1651.19,-66.8 1651.19,-66.8 1651.19,-66.8 1651.19,-280.8 1651.19,-280.8 1651.19,-280.8 1694.97,-280.8 1694.97,-280.8"/>
<polygon fill="black" stroke="black" points="1694.98,-284.3 1704.97,-280.8 1694.97,-277.3 1694.98,-284.3"/>
</g>
<!-- NotFoundPageComponent -->
<g id="node25" class="node">
<title>NotFoundPageComponent</title>
<polygon fill="#ffffb3" stroke="black" points="3439.82,-84.8 3274.18,-84.8 3274.18,-48.8 3439.82,-48.8 3439.82,-84.8"/>
<text text-anchor="middle" x="3357" y="-62.6" font-family="Times,serif" font-size="14.00">NotFoundPageComponent</text>
</g>
<!-- NotFoundPageComponent&#45;&gt;NotFoundPageModule -->
<g id="edge25" class="edge">
<title>NotFoundPageComponent&#45;&gt;NotFoundPageModule</title>
<path fill="none" stroke="black" d="M3380.92,-84.81C3380.92,-84.81 3380.92,-114.65 3380.92,-114.65"/>
<polygon fill="black" stroke="black" points="3377.42,-114.65 3380.92,-124.65 3384.42,-114.65 3377.42,-114.65"/>
</g>
<!-- NotFoundPageRoutingModule&#45;&gt;RouterModule  -->
<g id="edge29" class="edge">
<title>NotFoundPageRoutingModule&#45;&gt;RouterModule </title>
<path fill="none" stroke="black" stroke-dasharray="5,2" d="M3652.4,-75.8C3698.01,-75.8 3743,-75.8 3743,-75.8 3743,-75.8 3743,-114.49 3743,-114.49"/>
<polygon fill="black" stroke="black" points="3739.5,-114.49 3743,-124.49 3746.5,-114.49 3739.5,-114.49"/>
</g>
<!-- NotFoundPageRoutingModule&#45;&gt;NotFoundPageModule -->
<g id="edge27" class="edge">
<title>NotFoundPageRoutingModule&#45;&gt;NotFoundPageModule</title>
<path fill="none" stroke="black" d="M3470.83,-84.83C3470.83,-105.57 3470.83,-136.8 3470.83,-136.8 3470.83,-136.8 3438.77,-136.8 3438.77,-136.8"/>
<polygon fill="black" stroke="black" points="3438.77,-133.3 3428.77,-136.8 3438.77,-140.3 3438.77,-133.3"/>
</g>
<!-- ProductsListComponent -->
<g id="node28" class="node">
<title>ProductsListComponent</title>
<polygon fill="#ffffb3" stroke="black" points="2468.1,-160.8 2315.9,-160.8 2315.9,-124.8 2468.1,-124.8 2468.1,-160.8"/>
<text text-anchor="middle" x="2392" y="-138.6" font-family="Times,serif" font-size="14.00">ProductsListComponent</text>
</g>
<!-- ProductsListComponent&#45;&gt;ProductModule -->
<g id="edge30" class="edge">
<title>ProductsListComponent&#45;&gt;ProductModule</title>
<path fill="none" stroke="black" d="M2388.88,-160.97C2388.88,-179.89 2388.88,-206.8 2388.88,-206.8 2388.88,-206.8 2260.88,-206.8 2260.88,-206.8"/>
<polygon fill="black" stroke="black" points="2260.88,-203.3 2250.88,-206.8 2260.88,-210.3 2260.88,-203.3"/>
</g>
<!-- ProductsListElementComponent -->
<g id="node29" class="node">
<title>ProductsListElementComponent</title>
<polygon fill="#ffffb3" stroke="black" points="2298.26,-160.8 2099.74,-160.8 2099.74,-124.8 2298.26,-124.8 2298.26,-160.8"/>
<text text-anchor="middle" x="2199" y="-138.6" font-family="Times,serif" font-size="14.00">ProductsListElementComponent</text>
</g>
<!-- ProductsListElementComponent&#45;&gt;ProductModule -->
<g id="edge31" class="edge">
<title>ProductsListElementComponent&#45;&gt;ProductModule</title>
<path fill="none" stroke="black" d="M2216.18,-160.81C2216.18,-160.81 2216.18,-190.65 2216.18,-190.65"/>
<polygon fill="black" stroke="black" points="2212.68,-190.65 2216.18,-200.65 2219.68,-190.65 2212.68,-190.65"/>
</g>
<!-- ProductOverviewComponent -->
<g id="node30" class="node">
<title>ProductOverviewComponent</title>
<polygon fill="#ffffb3" stroke="black" points="2834.07,-160.8 2653.93,-160.8 2653.93,-124.8 2834.07,-124.8 2834.07,-160.8"/>
<text text-anchor="middle" x="2744" y="-138.6" font-family="Times,serif" font-size="14.00">ProductOverviewComponent</text>
</g>
<!-- ProductOverviewComponent&#45;&gt;ProductModule -->
<g id="edge32" class="edge">
<title>ProductOverviewComponent&#45;&gt;ProductModule</title>
<path fill="none" stroke="black" d="M2744,-160.81C2744,-183.29 2744,-218.8 2744,-218.8 2744,-218.8 2260.76,-218.8 2260.76,-218.8"/>
<polygon fill="black" stroke="black" points="2260.76,-215.3 2250.76,-218.8 2260.76,-222.3 2260.76,-215.3"/>
</g>
<!-- ProductPathComponent -->
<g id="node31" class="node">
<title>ProductPathComponent</title>
<polygon fill="#ffffb3" stroke="black" points="2635.77,-160.8 2486.23,-160.8 2486.23,-124.8 2635.77,-124.8 2635.77,-160.8"/>
<text text-anchor="middle" x="2561" y="-138.6" font-family="Times,serif" font-size="14.00">ProductPathComponent</text>
</g>
<!-- ProductPathComponent&#45;&gt;ProductModule -->
<g id="edge33" class="edge">
<title>ProductPathComponent&#45;&gt;ProductModule</title>
<path fill="none" stroke="black" d="M2585.96,-160.83C2585.96,-181.57 2585.96,-212.8 2585.96,-212.8 2585.96,-212.8 2260.79,-212.8 2260.79,-212.8"/>
<polygon fill="black" stroke="black" points="2260.79,-209.3 2250.79,-212.8 2260.79,-216.3 2260.79,-209.3"/>
</g>
<!-- ProductsListComponent  -->
<g id="node33" class="node">
<title>ProductsListComponent </title>
<polygon fill="#fb8072" stroke="black" points="2461.6,-304.8 2306.4,-304.8 2306.4,-268.8 2461.6,-268.8 2461.6,-304.8"/>
<text text-anchor="middle" x="2384" y="-282.6" font-family="Times,serif" font-size="14.00">ProductsListComponent </text>
</g>
<!-- ProductModule&#45;&gt;ProductsListComponent  -->
<g id="edge37" class="edge">
<title>ProductModule&#45;&gt;ProductsListComponent </title>
<path fill="none" stroke="black" stroke-dasharray="5,2" d="M2250.77,-230.8C2280.14,-230.8 2311.07,-230.8 2311.07,-230.8 2311.07,-230.8 2311.07,-258.77 2311.07,-258.77"/>
<polygon fill="black" stroke="black" points="2307.57,-258.77 2311.07,-268.77 2314.57,-258.77 2307.57,-258.77"/>
</g>
<!-- ProductOverviewComponent  -->
<g id="node34" class="node">
<title>ProductOverviewComponent </title>
<polygon fill="#fb8072" stroke="black" points="2287.57,-304.8 2104.43,-304.8 2104.43,-268.8 2287.57,-268.8 2287.57,-304.8"/>
<text text-anchor="middle" x="2196" y="-282.6" font-family="Times,serif" font-size="14.00">ProductOverviewComponent </text>
</g>
<!-- ProductModule&#45;&gt;ProductOverviewComponent  -->
<g id="edge38" class="edge">
<title>ProductModule&#45;&gt;ProductOverviewComponent </title>
<path fill="none" stroke="black" stroke-dasharray="5,2" d="M2199,-237.02C2199,-237.02 2199,-258.53 2199,-258.53"/>
<polygon fill="black" stroke="black" points="2195.5,-258.53 2199,-268.53 2202.5,-258.53 2195.5,-258.53"/>
</g>
<!-- ProductModule&#45;&gt;ProductOverviewPageModule -->
<g id="edge42" class="edge">
<title>ProductModule&#45;&gt;ProductOverviewPageModule</title>
<path fill="none" stroke="black" d="M2250.56,-224.8C2344.97,-224.8 2536.04,-224.8 2536.04,-224.8 2536.04,-224.8 2536.04,-292.8 2536.04,-292.8 2536.04,-292.8 3259.26,-292.8 3259.26,-292.8"/>
<polygon fill="black" stroke="black" points="3259.26,-296.3 3269.26,-292.8 3259.26,-289.3 3259.26,-296.3"/>
</g>
<!-- ProductModule&#45;&gt;ProductsPageModule -->
<g id="edge48" class="edge">
<title>ProductModule&#45;&gt;ProductsPageModule</title>
<path fill="none" stroke="black" d="M2147.41,-227.8C2116.71,-227.8 2083.68,-227.8 2083.68,-227.8 2083.68,-227.8 2083.68,-295.8 2083.68,-295.8 2083.68,-295.8 1850.8,-295.8 1850.8,-295.8"/>
<polygon fill="black" stroke="black" points="1850.8,-292.3 1840.8,-295.8 1850.8,-299.3 1850.8,-292.3"/>
</g>
<!-- ProductOverviewPageComponent -->
<g id="node35" class="node">
<title>ProductOverviewPageComponent</title>
<polygon fill="#ffffb3" stroke="black" points="3723.79,-236.8 3516.21,-236.8 3516.21,-200.8 3723.79,-200.8 3723.79,-236.8"/>
<text text-anchor="middle" x="3620" y="-214.6" font-family="Times,serif" font-size="14.00">ProductOverviewPageComponent</text>
</g>
<!-- ProductOverviewPageComponent&#45;&gt;ProductOverviewPageModule -->
<g id="edge39" class="edge">
<title>ProductOverviewPageComponent&#45;&gt;ProductOverviewPageModule</title>
<path fill="none" stroke="black" d="M3620,-237.02C3620,-257.17 3620,-286.8 3620,-286.8 3620,-286.8 3464.78,-286.8 3464.78,-286.8"/>
<polygon fill="black" stroke="black" points="3464.78,-283.3 3454.78,-286.8 3464.78,-290.3 3464.78,-283.3"/>
</g>
<!-- ProductOverviewPageRoutingModule&#45;&gt;RouterModule  -->
<g id="edge44" class="edge">
<title>ProductOverviewPageRoutingModule&#45;&gt;RouterModule </title>
<path fill="none" stroke="black" stroke-dasharray="5,2" d="M3477.99,-200.77C3477.99,-180.03 3477.99,-148.8 3477.99,-148.8 3477.99,-148.8 3682.22,-148.8 3682.22,-148.8"/>
<polygon fill="black" stroke="black" points="3682.22,-152.3 3692.22,-148.8 3682.22,-145.3 3682.22,-152.3"/>
</g>
<!-- ProductOverviewPageRoutingModule&#45;&gt;ProductOverviewPageModule -->
<g id="edge41" class="edge">
<title>ProductOverviewPageRoutingModule&#45;&gt;ProductOverviewPageModule</title>
<path fill="none" stroke="black" d="M3362,-237.02C3362,-237.02 3362,-258.53 3362,-258.53"/>
<polygon fill="black" stroke="black" points="3358.5,-258.53 3362,-268.53 3365.5,-258.53 3358.5,-258.53"/>
</g>
<!-- ProductsPageComponent -->
<g id="node38" class="node">
<title>ProductsPageComponent</title>
<polygon fill="#ffffb3" stroke="black" points="2059.54,-236.8 1902.46,-236.8 1902.46,-200.8 2059.54,-200.8 2059.54,-236.8"/>
<text text-anchor="middle" x="1981" y="-214.6" font-family="Times,serif" font-size="14.00">ProductsPageComponent</text>
</g>
<!-- ProductsPageComponent&#45;&gt;ProductsPageModule -->
<g id="edge45" class="edge">
<title>ProductsPageComponent&#45;&gt;ProductsPageModule</title>
<path fill="none" stroke="black" d="M1981,-236.82C1981,-254.17 1981,-277.8 1981,-277.8 1981,-277.8 1850.82,-277.8 1850.82,-277.8"/>
<polygon fill="black" stroke="black" points="1850.82,-274.3 1840.82,-277.8 1850.82,-281.3 1850.82,-274.3"/>
</g>
<!-- ProductsPageRoutingModule -->
<g id="node40" class="node">
<title>ProductsPageRoutingModule</title>
<polygon fill="#8dd3c7" stroke="black" points="1878.37,-236.8 1875.37,-240.8 1854.37,-240.8 1851.37,-236.8 1697.63,-236.8 1697.63,-200.8 1878.37,-200.8 1878.37,-236.8"/>
<text text-anchor="middle" x="1788" y="-214.6" font-family="Times,serif" font-size="14.00">ProductsPageRoutingModule</text>
</g>
<!-- ProductsPageRoutingModule&#45;&gt;ProductsPageModule -->
<g id="edge47" class="edge">
<title>ProductsPageRoutingModule&#45;&gt;ProductsPageModule</title>
<path fill="none" stroke="black" d="M1773,-237.02C1773,-237.02 1773,-258.53 1773,-258.53"/>
<polygon fill="black" stroke="black" points="1769.5,-258.53 1773,-268.53 1776.5,-258.53 1769.5,-258.53"/>
</g>
<!-- ShopifyFooterComponent -->
<g id="node41" class="node">
<title>ShopifyFooterComponent</title>
<polygon fill="#ffffb3" stroke="black" points="1598.21,-236.8 1435.79,-236.8 1435.79,-200.8 1598.21,-200.8 1598.21,-236.8"/>
<text text-anchor="middle" x="1517" y="-214.6" font-family="Times,serif" font-size="14.00">ShopifyFooterComponent</text>
</g>
<!-- ShopifyFooterComponent&#45;&gt;ShopifyFooterModule -->
<g id="edge51" class="edge">
<title>ShopifyFooterComponent&#45;&gt;ShopifyFooterModule</title>
<path fill="none" stroke="black" d="M1459.48,-200.59C1459.48,-195.25 1459.48,-190.8 1459.48,-190.8 1459.48,-190.8 963.89,-190.8 963.89,-190.8 963.89,-190.8 963.89,-170.95 963.89,-170.95"/>
<polygon fill="black" stroke="black" points="967.39,-170.95 963.89,-160.95 960.39,-170.95 967.39,-170.95"/>
</g>
<!-- SignInPageComponent -->
<g id="node43" class="node">
<title>SignInPageComponent</title>
<polygon fill="#ffffb3" stroke="black" points="4379.88,-84.8 4234.12,-84.8 4234.12,-48.8 4379.88,-48.8 4379.88,-84.8"/>
<text text-anchor="middle" x="4307" y="-62.6" font-family="Times,serif" font-size="14.00">SignInPageComponent</text>
</g>
<!-- SignInPageComponent&#45;&gt;SignInPageModule -->
<g id="edge54" class="edge">
<title>SignInPageComponent&#45;&gt;SignInPageModule</title>
<path fill="none" stroke="black" d="M4307,-84.81C4307,-107.29 4307,-142.8 4307,-142.8 4307,-142.8 4197.13,-142.8 4197.13,-142.8"/>
<polygon fill="black" stroke="black" points="4197.13,-139.3 4187.13,-142.8 4197.13,-146.3 4197.13,-139.3"/>
</g>
<!-- SignInPageRoutingModule&#45;&gt;RouterModule  -->
<g id="edge58" class="edge">
<title>SignInPageRoutingModule&#45;&gt;RouterModule </title>
<path fill="none" stroke="black" stroke-dasharray="5,2" d="M4040.01,-57.8C3934.5,-57.8 3768.29,-57.8 3768.29,-57.8 3768.29,-57.8 3768.29,-114.77 3768.29,-114.77"/>
<polygon fill="black" stroke="black" points="3764.79,-114.77 3768.29,-124.77 3771.79,-114.77 3764.79,-114.77"/>
</g>
<!-- SignInPageRoutingModule&#45;&gt;SignInPageModule -->
<g id="edge56" class="edge">
<title>SignInPageRoutingModule&#45;&gt;SignInPageModule</title>
<path fill="none" stroke="black" d="M4145.68,-84.81C4145.68,-84.81 4145.68,-114.65 4145.68,-114.65"/>
<polygon fill="black" stroke="black" points="4142.18,-114.65 4145.68,-124.65 4149.18,-114.65 4142.18,-114.65"/>
</g>
</g>
</svg>
