<?xml version="1.0" encoding="UTF-8" standalone="no"?>
<!DOCTYPE svg PUBLIC "-//W3C//DTD SVG 1.1//EN"
 "http://www.w3.org/Graphics/SVG/1.1/DTD/svg11.dtd">
<!-- Generated by graphviz version 2.47.3 (20210619.1520)
 -->
<!-- Title: dependencies Pages: 1 -->
<svg width="2690pt" height="312pt"
 viewBox="0.00 0.00 2690.00 311.80" xmlns="http://www.w3.org/2000/svg" xmlns:xlink="http://www.w3.org/1999/xlink">
<g id="graph0" class="graph" transform="scale(1 1) rotate(0) translate(4 307.8)">
<title>dependencies</title>
<polygon fill="white" stroke="transparent" points="-4,4 -4,-307.8 2686,-307.8 2686,4 -4,4"/>
<text text-anchor="middle" x="1341" y="-8.2" font-family="sans-serif" font-size="14.00">dependencies</text>
<g id="clust1" class="cluster">
<title>cluster_ProductModule</title>
<polygon fill="none" stroke="black" stroke-dasharray="1,5" points="8,-32.8 8,-295.8 2674,-295.8 2674,-32.8 8,-32.8"/>
</g>
<g id="clust11" class="cluster">
<title>cluster_ProductModule_imports</title>
<polygon fill="none" stroke="black" points="1623,-105.8 1623,-157.8 2666,-157.8 2666,-105.8 1623,-105.8"/>
</g>
<g id="clust12" class="cluster">
<title>cluster_ProductModule_exports</title>
<polygon fill="none" stroke="black" points="1003,-235.8 1003,-287.8 2009,-287.8 2009,-235.8 1003,-235.8"/>
</g>
<g id="clust2" class="cluster">
<title>cluster_ProductModule_declarations</title>
<polygon fill="none" stroke="black" points="16,-105.8 16,-157.8 1615,-157.8 1615,-105.8 16,-105.8"/>
</g>
<g id="clust9" class="cluster">
<title>cluster_ProductModule_ProductFormComponent_providers</title>
<polygon fill="none" stroke="black" points="88,-40.8 88,-92.8 606,-92.8 606,-40.8 88,-40.8"/>
</g>
<!-- ProductsListComponent -->
<g id="node1" class="node">
<title>ProductsListComponent</title>
<polygon fill="#ffffb3" stroke="black" points="1607.1,-149.8 1454.9,-149.8 1454.9,-113.8 1607.1,-113.8 1607.1,-149.8"/>
<text text-anchor="middle" x="1531" y="-127.6" font-family="Times,serif" font-size="14.00">ProductsListComponent</text>
</g>
<!-- ProductModule -->
<g id="node9" class="node">
<title>ProductModule</title>
<polygon fill="#8dd3c7" stroke="black" points="1582.6,-214.8 1579.6,-218.8 1558.6,-218.8 1555.6,-214.8 1479.4,-214.8 1479.4,-178.8 1582.6,-178.8 1582.6,-214.8"/>
<text text-anchor="middle" x="1531" y="-192.6" font-family="Times,serif" font-size="14.00">ProductModule</text>
</g>
<!-- ProductsListComponent&#45;&gt;ProductModule -->
<g id="edge1" class="edge">
<title>ProductsListComponent&#45;&gt;ProductModule</title>
<path fill="none" stroke="black" d="M1531,-149.91C1531,-149.91 1531,-168.79 1531,-168.79"/>
<polygon fill="black" stroke="black" points="1527.5,-168.79 1531,-178.79 1534.5,-168.79 1527.5,-168.79"/>
</g>
<!-- ProductsListElementComponent -->
<g id="node2" class="node">
<title>ProductsListElementComponent</title>
<polygon fill="#ffffb3" stroke="black" points="1437.26,-149.8 1238.74,-149.8 1238.74,-113.8 1437.26,-113.8 1437.26,-149.8"/>
<text text-anchor="middle" x="1338" y="-127.6" font-family="Times,serif" font-size="14.00">ProductsListElementComponent</text>
</g>
<!-- ProductsListElementComponent&#45;&gt;ProductModule -->
<g id="edge2" class="edge">
<title>ProductsListElementComponent&#45;&gt;ProductModule</title>
<path fill="none" stroke="black" d="M1428.31,-149.92C1428.31,-164.58 1428.31,-182.8 1428.31,-182.8 1428.31,-182.8 1469.35,-182.8 1469.35,-182.8"/>
<polygon fill="black" stroke="black" points="1469.35,-186.3 1479.35,-182.8 1469.35,-179.3 1469.35,-186.3"/>
</g>
<!-- ProductOverviewComponent -->
<g id="node3" class="node">
<title>ProductOverviewComponent</title>
<polygon fill="#ffffb3" stroke="black" points="1221.07,-149.8 1040.93,-149.8 1040.93,-113.8 1221.07,-113.8 1221.07,-149.8"/>
<text text-anchor="middle" x="1131" y="-127.6" font-family="Times,serif" font-size="14.00">ProductOverviewComponent</text>
</g>
<!-- ProductOverviewComponent&#45;&gt;ProductModule -->
<g id="edge3" class="edge">
<title>ProductOverviewComponent&#45;&gt;ProductModule</title>
<path fill="none" stroke="black" d="M1131,-149.81C1131,-165.85 1131,-186.8 1131,-186.8 1131,-186.8 1469.12,-186.8 1469.12,-186.8"/>
<polygon fill="black" stroke="black" points="1469.12,-190.3 1479.12,-186.8 1469.12,-183.3 1469.12,-190.3"/>
</g>
<!-- ProductPathComponent -->
<g id="node4" class="node">
<title>ProductPathComponent</title>
<polygon fill="#ffffb3" stroke="black" points="1022.77,-149.8 873.23,-149.8 873.23,-113.8 1022.77,-113.8 1022.77,-149.8"/>
<text text-anchor="middle" x="948" y="-127.6" font-family="Times,serif" font-size="14.00">ProductPathComponent</text>
</g>
<!-- ProductPathComponent&#45;&gt;ProductModule -->
<g id="edge4" class="edge">
<title>ProductPathComponent&#45;&gt;ProductModule</title>
<path fill="none" stroke="black" d="M1017.19,-149.83C1017.19,-166.86 1017.19,-189.8 1017.19,-189.8 1017.19,-189.8 1469.38,-189.8 1469.38,-189.8"/>
<polygon fill="black" stroke="black" points="1469.38,-193.3 1479.38,-189.8 1469.38,-186.3 1469.38,-193.3"/>
</g>
<!-- ProductsListTableComponent -->
<g id="node5" class="node">
<title>ProductsListTableComponent</title>
<polygon fill="#ffffb3" stroke="black" points="854.98,-149.8 671.02,-149.8 671.02,-113.8 854.98,-113.8 854.98,-149.8"/>
<text text-anchor="middle" x="763" y="-127.6" font-family="Times,serif" font-size="14.00">ProductsListTableComponent</text>
</g>
<!-- ProductsListTableComponent&#45;&gt;ProductModule -->
<g id="edge5" class="edge">
<title>ProductsListTableComponent&#45;&gt;ProductModule</title>
<path fill="none" stroke="black" d="M763,-150.07C763,-168.36 763,-193.8 763,-193.8 763,-193.8 1469.42,-193.8 1469.42,-193.8"/>
<polygon fill="black" stroke="black" points="1469.42,-197.3 1479.42,-193.8 1469.42,-190.3 1469.42,-197.3"/>
</g>
<!-- ProductsListTableRowComponent -->
<g id="node6" class="node">
<title>ProductsListTableRowComponent</title>
<polygon fill="#ffffb3" stroke="black" points="653.42,-149.8 442.58,-149.8 442.58,-113.8 653.42,-113.8 653.42,-149.8"/>
<text text-anchor="middle" x="548" y="-127.6" font-family="Times,serif" font-size="14.00">ProductsListTableRowComponent</text>
</g>
<!-- ProductsListTableRowComponent&#45;&gt;ProductModule -->
<g id="edge6" class="edge">
<title>ProductsListTableRowComponent&#45;&gt;ProductModule</title>
<path fill="none" stroke="black" d="M548,-149.91C548,-169.14 548,-196.8 548,-196.8 548,-196.8 1469.19,-196.8 1469.19,-196.8"/>
<polygon fill="black" stroke="black" points="1469.19,-200.3 1479.19,-196.8 1469.19,-193.3 1469.19,-200.3"/>
</g>
<!-- ProductFormComponent -->
<g id="node7" class="node">
<title>ProductFormComponent</title>
<polygon fill="#ffffb3" stroke="black" points="424.71,-149.8 269.29,-149.8 269.29,-113.8 424.71,-113.8 424.71,-149.8"/>
<text text-anchor="middle" x="347" y="-127.6" font-family="Times,serif" font-size="14.00">ProductFormComponent</text>
</g>
<!-- ProductFormComponent&#45;&gt;ProductModule -->
<g id="edge7" class="edge">
<title>ProductFormComponent&#45;&gt;ProductModule</title>
<path fill="none" stroke="black" d="M347,-149.93C347,-170.37 347,-200.8 347,-200.8 347,-200.8 1469.36,-200.8 1469.36,-200.8"/>
<polygon fill="black" stroke="black" points="1469.36,-204.3 1479.36,-200.8 1469.36,-197.3 1469.36,-204.3"/>
</g>
<!-- ProductsListTableActionsComponent -->
<g id="node8" class="node">
<title>ProductsListTableActionsComponent</title>
<polygon fill="#ffffb3" stroke="black" points="251.52,-149.8 24.48,-149.8 24.48,-113.8 251.52,-113.8 251.52,-149.8"/>
<text text-anchor="middle" x="138" y="-127.6" font-family="Times,serif" font-size="14.00">ProductsListTableActionsComponent</text>
</g>
<!-- ProductsListTableActionsComponent&#45;&gt;ProductModule -->
<g id="edge9" class="edge">
<title>ProductsListTableActionsComponent&#45;&gt;ProductModule</title>
<path fill="none" stroke="black" d="M138,-149.84C138,-171.46 138,-204.8 138,-204.8 138,-204.8 1469.35,-204.8 1469.35,-204.8"/>
<polygon fill="black" stroke="black" points="1469.35,-208.3 1479.35,-204.8 1469.35,-201.3 1469.35,-208.3"/>
</g>
<!-- ProductsListComponent  -->
<g id="node18" class="node">
<title>ProductsListComponent </title>
<polygon fill="#fb8072" stroke="black" points="2000.6,-279.8 1845.4,-279.8 1845.4,-243.8 2000.6,-243.8 2000.6,-279.8"/>
<text text-anchor="middle" x="1923" y="-257.6" font-family="Times,serif" font-size="14.00">ProductsListComponent </text>
</g>
<!-- ProductModule&#45;&gt;ProductsListComponent  -->
<g id="edge17" class="edge">
<title>ProductModule&#45;&gt;ProductsListComponent </title>
<path fill="none" stroke="black" stroke-dasharray="5,2" d="M1582.73,-207.8C1684.96,-207.8 1903.04,-207.8 1903.04,-207.8 1903.04,-207.8 1903.04,-233.52 1903.04,-233.52"/>
<polygon fill="black" stroke="black" points="1899.54,-233.52 1903.04,-243.52 1906.54,-233.52 1899.54,-233.52"/>
</g>
<!-- ProductOverviewComponent  -->
<g id="node19" class="node">
<title>ProductOverviewComponent </title>
<polygon fill="#fb8072" stroke="black" points="1826.57,-279.8 1643.43,-279.8 1643.43,-243.8 1826.57,-243.8 1826.57,-279.8"/>
<text text-anchor="middle" x="1735" y="-257.6" font-family="Times,serif" font-size="14.00">ProductOverviewComponent </text>
</g>
<!-- ProductModule&#45;&gt;ProductOverviewComponent  -->
<g id="edge18" class="edge">
<title>ProductModule&#45;&gt;ProductOverviewComponent </title>
<path fill="none" stroke="black" stroke-dasharray="5,2" d="M1582.57,-211.8C1635.75,-211.8 1710.97,-211.8 1710.97,-211.8 1710.97,-211.8 1710.97,-233.75 1710.97,-233.75"/>
<polygon fill="black" stroke="black" points="1707.47,-233.75 1710.97,-243.75 1714.47,-233.75 1707.47,-233.75"/>
</g>
<!-- ProductsListTableComponent  -->
<g id="node20" class="node">
<title>ProductsListTableComponent </title>
<polygon fill="#fb8072" stroke="black" points="1624.98,-279.8 1437.02,-279.8 1437.02,-243.8 1624.98,-243.8 1624.98,-279.8"/>
<text text-anchor="middle" x="1531" y="-257.6" font-family="Times,serif" font-size="14.00">ProductsListTableComponent </text>
</g>
<!-- ProductModule&#45;&gt;ProductsListTableComponent  -->
<g id="edge19" class="edge">
<title>ProductModule&#45;&gt;ProductsListTableComponent </title>
<path fill="none" stroke="black" stroke-dasharray="5,2" d="M1531,-214.91C1531,-214.91 1531,-233.79 1531,-233.79"/>
<polygon fill="black" stroke="black" points="1527.5,-233.79 1531,-243.79 1534.5,-233.79 1527.5,-233.79"/>
</g>
<!-- ProductFormComponent  -->
<g id="node21" class="node">
<title>ProductFormComponent </title>
<polygon fill="#fb8072" stroke="black" points="1419.21,-279.8 1260.79,-279.8 1260.79,-243.8 1419.21,-243.8 1419.21,-279.8"/>
<text text-anchor="middle" x="1340" y="-257.6" font-family="Times,serif" font-size="14.00">ProductFormComponent </text>
</g>
<!-- ProductModule&#45;&gt;ProductFormComponent  -->
<g id="edge20" class="edge">
<title>ProductModule&#45;&gt;ProductFormComponent </title>
<path fill="none" stroke="black" stroke-dasharray="5,2" d="M1479.31,-211.8C1422.75,-211.8 1340,-211.8 1340,-211.8 1340,-211.8 1340,-233.75 1340,-233.75"/>
<polygon fill="black" stroke="black" points="1336.5,-233.75 1340,-243.75 1343.5,-233.75 1336.5,-233.75"/>
</g>
<!-- ProductsListTableActionsComponent  -->
<g id="node22" class="node">
<title>ProductsListTableActionsComponent </title>
<polygon fill="#fb8072" stroke="black" points="1242.52,-279.8 1011.48,-279.8 1011.48,-243.8 1242.52,-243.8 1242.52,-279.8"/>
<text text-anchor="middle" x="1127" y="-257.6" font-family="Times,serif" font-size="14.00">ProductsListTableActionsComponent </text>
</g>
<!-- ProductModule&#45;&gt;ProductsListTableActionsComponent  -->
<g id="edge21" class="edge">
<title>ProductModule&#45;&gt;ProductsListTableActionsComponent </title>
<path fill="none" stroke="black" stroke-dasharray="5,2" d="M1479.23,-207.8C1393.12,-207.8 1229.83,-207.8 1229.83,-207.8 1229.83,-207.8 1229.83,-233.52 1229.83,-233.52"/>
<polygon fill="black" stroke="black" points="1226.33,-233.52 1229.83,-243.52 1233.33,-233.52 1226.33,-233.52"/>
</g>
<!-- { provide: NG_VALUE_ACCESSOR, useExisting: , multi: &#160;} -->
<g id="node10" class="node">
<title>{ provide: NG_VALUE_ACCESSOR, useExisting: , multi: &#160;}</title>
<ellipse fill="#fdb462" stroke="black" cx="347" cy="-66.8" rx="251.5" ry="18"/>
<text text-anchor="middle" x="347" y="-62.6" font-family="Times,serif" font-size="14.00">{ provide: NG_VALUE_ACCESSOR, useExisting: , multi: &#160;}</text>
</g>
<!-- { provide: NG_VALUE_ACCESSOR, useExisting: , multi: &#160;}&#45;&gt;ProductFormComponent -->
<g id="edge8" class="edge">
<title>{ provide: NG_VALUE_ACCESSOR, useExisting: , multi: &#160;}&#45;&gt;ProductFormComponent</title>
<path fill="none" stroke="black" d="M347,-84.91C347,-84.91 347,-103.79 347,-103.79"/>
<polygon fill="black" stroke="black" points="343.5,-103.79 347,-113.79 350.5,-103.79 343.5,-103.79"/>
</g>
<!-- CommonModule -->
<g id="node11" class="node">
<title>CommonModule</title>
<polygon fill="#8dd3c7" stroke="black" points="2657.67,-149.8 2654.67,-153.8 2633.67,-153.8 2630.67,-149.8 2546.33,-149.8 2546.33,-113.8 2657.67,-113.8 2657.67,-149.8"/>
<text text-anchor="middle" x="2602" y="-127.6" font-family="Times,serif" font-size="14.00">CommonModule</text>
</g>
<!-- CommonModule&#45;&gt;ProductModule -->
<g id="edge10" class="edge">
<title>CommonModule&#45;&gt;ProductModule</title>
<path fill="none" stroke="black" d="M2602,-149.84C2602,-171.46 2602,-204.8 2602,-204.8 2602,-204.8 1592.66,-204.8 1592.66,-204.8"/>
<polygon fill="black" stroke="black" points="1592.66,-201.3 1582.66,-204.8 1592.66,-208.3 1592.66,-201.3"/>
</g>
<!-- RouterModule -->
<g id="node12" class="node">
<title>RouterModule</title>
<polygon fill="#8dd3c7" stroke="black" points="2527.65,-149.8 2524.65,-153.8 2503.65,-153.8 2500.65,-149.8 2430.35,-149.8 2430.35,-113.8 2527.65,-113.8 2527.65,-149.8"/>
<text text-anchor="middle" x="2479" y="-127.6" font-family="Times,serif" font-size="14.00">RouterModule</text>
</g>
<!-- RouterModule&#45;&gt;ProductModule -->
<g id="edge11" class="edge">
<title>RouterModule&#45;&gt;ProductModule</title>
<path fill="none" stroke="black" d="M2479,-149.93C2479,-170.37 2479,-200.8 2479,-200.8 2479,-200.8 1592.64,-200.8 1592.64,-200.8"/>
<polygon fill="black" stroke="black" points="1592.64,-197.3 1582.64,-200.8 1592.64,-204.3 1592.64,-197.3"/>
</g>
<!-- ReactiveFormsModule -->
<g id="node13" class="node">
<title>ReactiveFormsModule</title>
<polygon fill="#8dd3c7" stroke="black" points="2412.3,-149.8 2409.3,-153.8 2388.3,-153.8 2385.3,-149.8 2267.7,-149.8 2267.7,-113.8 2412.3,-113.8 2412.3,-149.8"/>
<text text-anchor="middle" x="2340" y="-127.6" font-family="Times,serif" font-size="14.00">ReactiveFormsModule</text>
</g>
<!-- ReactiveFormsModule&#45;&gt;ProductModule -->
<g id="edge12" class="edge">
<title>ReactiveFormsModule&#45;&gt;ProductModule</title>
<path fill="none" stroke="black" d="M2340,-149.91C2340,-169.14 2340,-196.8 2340,-196.8 2340,-196.8 1592.84,-196.8 1592.84,-196.8"/>
<polygon fill="black" stroke="black" points="1592.84,-193.3 1582.84,-196.8 1592.84,-200.3 1592.84,-193.3"/>
</g>
<!-- HttpClientModule -->
<g id="node14" class="node">
<title>HttpClientModule</title>
<polygon fill="#8dd3c7" stroke="black" points="2250.16,-149.8 2247.16,-153.8 2226.16,-153.8 2223.16,-149.8 2131.84,-149.8 2131.84,-113.8 2250.16,-113.8 2250.16,-149.8"/>
<text text-anchor="middle" x="2191" y="-127.6" font-family="Times,serif" font-size="14.00">HttpClientModule</text>
</g>
<!-- HttpClientModule&#45;&gt;ProductModule -->
<g id="edge13" class="edge">
<title>HttpClientModule&#45;&gt;ProductModule</title>
<path fill="none" stroke="black" d="M2191,-150.07C2191,-168.36 2191,-193.8 2191,-193.8 2191,-193.8 1592.79,-193.8 1592.79,-193.8"/>
<polygon fill="black" stroke="black" points="1592.79,-190.3 1582.79,-193.8 1592.79,-197.3 1592.79,-190.3"/>
</g>
<!-- StatusWidgetModule -->
<g id="node15" class="node">
<title>StatusWidgetModule</title>
<polygon fill="#8dd3c7" stroke="black" points="2113.48,-149.8 2110.48,-153.8 2089.48,-153.8 2086.48,-149.8 1978.52,-149.8 1978.52,-113.8 2113.48,-113.8 2113.48,-149.8"/>
<text text-anchor="middle" x="2046" y="-127.6" font-family="Times,serif" font-size="14.00">StatusWidgetModule</text>
</g>
<!-- StatusWidgetModule&#45;&gt;ProductModule -->
<g id="edge14" class="edge">
<title>StatusWidgetModule&#45;&gt;ProductModule</title>
<path fill="none" stroke="black" d="M1989.66,-149.83C1989.66,-166.86 1989.66,-189.8 1989.66,-189.8 1989.66,-189.8 1592.72,-189.8 1592.72,-189.8"/>
<polygon fill="black" stroke="black" points="1592.72,-186.3 1582.72,-189.8 1592.72,-193.3 1592.72,-186.3"/>
</g>
<!-- ShopifyPaginationModule -->
<g id="node16" class="node">
<title>ShopifyPaginationModule</title>
<polygon fill="#8dd3c7" stroke="black" points="1960.77,-149.8 1957.77,-153.8 1936.77,-153.8 1933.77,-149.8 1797.23,-149.8 1797.23,-113.8 1960.77,-113.8 1960.77,-149.8"/>
<text text-anchor="middle" x="1879" y="-127.6" font-family="Times,serif" font-size="14.00">ShopifyPaginationModule</text>
</g>
<!-- ShopifyPaginationModule&#45;&gt;ProductModule -->
<g id="edge15" class="edge">
<title>ShopifyPaginationModule&#45;&gt;ProductModule</title>
<path fill="none" stroke="black" d="M1811.95,-149.81C1811.95,-165.85 1811.95,-186.8 1811.95,-186.8 1811.95,-186.8 1592.86,-186.8 1592.86,-186.8"/>
<polygon fill="black" stroke="black" points="1592.86,-183.3 1582.86,-186.8 1592.86,-190.3 1592.86,-183.3"/>
</g>
<!-- ShopifyButtonsModule -->
<g id="node17" class="node">
<title>ShopifyButtonsModule</title>
<polygon fill="#8dd3c7" stroke="black" points="1778.95,-149.8 1775.95,-153.8 1754.95,-153.8 1751.95,-149.8 1631.05,-149.8 1631.05,-113.8 1778.95,-113.8 1778.95,-149.8"/>
<text text-anchor="middle" x="1705" y="-127.6" font-family="Times,serif" font-size="14.00">ShopifyButtonsModule</text>
</g>
<!-- ShopifyButtonsModule&#45;&gt;ProductModule -->
<g id="edge16" class="edge">
<title>ShopifyButtonsModule&#45;&gt;ProductModule</title>
<path fill="none" stroke="black" d="M1637.24,-149.92C1637.24,-164.58 1637.24,-182.8 1637.24,-182.8 1637.24,-182.8 1592.57,-182.8 1592.57,-182.8"/>
<polygon fill="black" stroke="black" points="1592.57,-179.3 1582.57,-182.8 1592.57,-186.3 1592.57,-179.3"/>
</g>
</g>
</svg>
