<?xml version="1.0" encoding="UTF-8" standalone="no"?>
<!DOCTYPE svg PUBLIC "-//W3C//DTD SVG 1.1//EN"
 "http://www.w3.org/Graphics/SVG/1.1/DTD/svg11.dtd">
<!-- Generated by graphviz version 2.47.3 (20210619.1520)
 -->
<!-- Title: dependencies Pages: 1 -->
<svg width="2868pt" height="312pt"
 viewBox="0.00 0.00 2868.00 311.80" xmlns="http://www.w3.org/2000/svg" xmlns:xlink="http://www.w3.org/1999/xlink">
<g id="graph0" class="graph" transform="scale(1 1) rotate(0) translate(4 307.8)">
<title>dependencies</title>
<polygon fill="white" stroke="transparent" points="-4,4 -4,-307.8 2864,-307.8 2864,4 -4,4"/>
<text text-anchor="middle" x="1430" y="-8.2" font-family="sans-serif" font-size="14.00">dependencies</text>
<g id="clust1" class="cluster">
<title>cluster_ProductModule</title>
<polygon fill="none" stroke="black" stroke-dasharray="1,5" points="8,-32.8 8,-295.8 2852,-295.8 2852,-32.8 8,-32.8"/>
</g>
<g id="clust12" class="cluster">
<title>cluster_ProductModule_imports</title>
<polygon fill="none" stroke="black" points="1801,-105.8 1801,-157.8 2844,-157.8 2844,-105.8 1801,-105.8"/>
</g>
<g id="clust2" class="cluster">
<title>cluster_ProductModule_declarations</title>
<polygon fill="none" stroke="black" points="16,-105.8 16,-157.8 1793,-157.8 1793,-105.8 16,-105.8"/>
</g>
<g id="clust13" class="cluster">
<title>cluster_ProductModule_exports</title>
<polygon fill="none" stroke="black" points="960,-235.8 960,-287.8 2169,-287.8 2169,-235.8 960,-235.8"/>
</g>
<g id="clust9" class="cluster">
<title>cluster_ProductModule_ProductFormComponent_providers</title>
<polygon fill="none" stroke="black" points="310,-40.8 310,-92.8 828,-92.8 828,-40.8 310,-40.8"/>
</g>
<!-- ProductsListComponent -->
<g id="node1" class="node">
<title>ProductsListComponent</title>
<polygon fill="#ffffb3" stroke="black" points="1785.1,-149.8 1632.9,-149.8 1632.9,-113.8 1785.1,-113.8 1785.1,-149.8"/>
<text text-anchor="middle" x="1709" y="-127.6" font-family="Times,serif" font-size="14.00">ProductsListComponent</text>
</g>
<!-- ProductModule -->
<g id="node10" class="node">
<title>ProductModule</title>
<polygon fill="#8dd3c7" stroke="black" points="1663.6,-214.8 1660.6,-218.8 1639.6,-218.8 1636.6,-214.8 1560.4,-214.8 1560.4,-178.8 1663.6,-178.8 1663.6,-214.8"/>
<text text-anchor="middle" x="1612" y="-192.6" font-family="Times,serif" font-size="14.00">ProductModule</text>
</g>
<!-- ProductsListComponent&#45;&gt;ProductModule -->
<g id="edge1" class="edge">
<title>ProductsListComponent&#45;&gt;ProductModule</title>
<path fill="none" stroke="black" d="M1648.25,-149.91C1648.25,-149.91 1648.25,-168.79 1648.25,-168.79"/>
<polygon fill="black" stroke="black" points="1644.75,-168.79 1648.25,-178.79 1651.75,-168.79 1644.75,-168.79"/>
</g>
<!-- ProductsListElementComponent -->
<g id="node2" class="node">
<title>ProductsListElementComponent</title>
<polygon fill="#ffffb3" stroke="black" points="1615.26,-149.8 1416.74,-149.8 1416.74,-113.8 1615.26,-113.8 1615.26,-149.8"/>
<text text-anchor="middle" x="1516" y="-127.6" font-family="Times,serif" font-size="14.00">ProductsListElementComponent</text>
</g>
<!-- ProductsListElementComponent&#45;&gt;ProductModule -->
<g id="edge2" class="edge">
<title>ProductsListElementComponent&#45;&gt;ProductModule</title>
<path fill="none" stroke="black" d="M1587.91,-149.91C1587.91,-149.91 1587.91,-168.79 1587.91,-168.79"/>
<polygon fill="black" stroke="black" points="1584.41,-168.79 1587.91,-178.79 1591.41,-168.79 1584.41,-168.79"/>
</g>
<!-- ProductOverviewComponent -->
<g id="node3" class="node">
<title>ProductOverviewComponent</title>
<polygon fill="#ffffb3" stroke="black" points="1399.07,-149.8 1218.93,-149.8 1218.93,-113.8 1399.07,-113.8 1399.07,-149.8"/>
<text text-anchor="middle" x="1309" y="-127.6" font-family="Times,serif" font-size="14.00">ProductOverviewComponent</text>
</g>
<!-- ProductOverviewComponent&#45;&gt;ProductModule -->
<g id="edge3" class="edge">
<title>ProductOverviewComponent&#45;&gt;ProductModule</title>
<path fill="none" stroke="black" d="M1309,-149.92C1309,-164.58 1309,-182.8 1309,-182.8 1309,-182.8 1550.26,-182.8 1550.26,-182.8"/>
<polygon fill="black" stroke="black" points="1550.26,-186.3 1560.26,-182.8 1550.26,-179.3 1550.26,-186.3"/>
</g>
<!-- ProductPathComponent -->
<g id="node4" class="node">
<title>ProductPathComponent</title>
<polygon fill="#ffffb3" stroke="black" points="1200.77,-149.8 1051.23,-149.8 1051.23,-113.8 1200.77,-113.8 1200.77,-149.8"/>
<text text-anchor="middle" x="1126" y="-127.6" font-family="Times,serif" font-size="14.00">ProductPathComponent</text>
</g>
<!-- ProductPathComponent&#45;&gt;ProductModule -->
<g id="edge4" class="edge">
<title>ProductPathComponent&#45;&gt;ProductModule</title>
<path fill="none" stroke="black" d="M1148.86,-149.81C1148.86,-165.85 1148.86,-186.8 1148.86,-186.8 1148.86,-186.8 1550.22,-186.8 1550.22,-186.8"/>
<polygon fill="black" stroke="black" points="1550.22,-190.3 1560.22,-186.8 1550.22,-183.3 1550.22,-190.3"/>
</g>
<!-- ProductsTableComponent -->
<g id="node5" class="node">
<title>ProductsTableComponent</title>
<polygon fill="#ffffb3" stroke="black" points="1033.2,-149.8 870.8,-149.8 870.8,-113.8 1033.2,-113.8 1033.2,-149.8"/>
<text text-anchor="middle" x="952" y="-127.6" font-family="Times,serif" font-size="14.00">ProductsTableComponent</text>
</g>
<!-- ProductsTableComponent&#45;&gt;ProductModule -->
<g id="edge5" class="edge">
<title>ProductsTableComponent&#45;&gt;ProductModule</title>
<path fill="none" stroke="black" d="M1000.68,-149.83C1000.68,-166.86 1000.68,-189.8 1000.68,-189.8 1000.68,-189.8 1550.41,-189.8 1550.41,-189.8"/>
<polygon fill="black" stroke="black" points="1550.41,-193.3 1560.41,-189.8 1550.41,-186.3 1550.41,-193.3"/>
</g>
<!-- ProductsTableRowComponent -->
<g id="node6" class="node">
<title>ProductsTableRowComponent</title>
<polygon fill="#ffffb3" stroke="black" points="853.14,-149.8 664.86,-149.8 664.86,-113.8 853.14,-113.8 853.14,-149.8"/>
<text text-anchor="middle" x="759" y="-127.6" font-family="Times,serif" font-size="14.00">ProductsTableRowComponent</text>
</g>
<!-- ProductsTableRowComponent&#45;&gt;ProductModule -->
<g id="edge6" class="edge">
<title>ProductsTableRowComponent&#45;&gt;ProductModule</title>
<path fill="none" stroke="black" d="M759,-150.07C759,-168.36 759,-193.8 759,-193.8 759,-193.8 1550.24,-193.8 1550.24,-193.8"/>
<polygon fill="black" stroke="black" points="1550.24,-197.3 1560.24,-193.8 1550.24,-190.3 1550.24,-197.3"/>
</g>
<!-- ProductFormComponent -->
<g id="node7" class="node">
<title>ProductFormComponent</title>
<polygon fill="#ffffb3" stroke="black" points="646.71,-149.8 491.29,-149.8 491.29,-113.8 646.71,-113.8 646.71,-149.8"/>
<text text-anchor="middle" x="569" y="-127.6" font-family="Times,serif" font-size="14.00">ProductFormComponent</text>
</g>
<!-- ProductFormComponent&#45;&gt;ProductModule -->
<g id="edge7" class="edge">
<title>ProductFormComponent&#45;&gt;ProductModule</title>
<path fill="none" stroke="black" d="M569,-149.91C569,-169.14 569,-196.8 569,-196.8 569,-196.8 1550.28,-196.8 1550.28,-196.8"/>
<polygon fill="black" stroke="black" points="1550.28,-200.3 1560.28,-196.8 1550.28,-193.3 1550.28,-200.3"/>
</g>
<!-- ProductsTableActionsComponent -->
<g id="node8" class="node">
<title>ProductsTableActionsComponent</title>
<polygon fill="#ffffb3" stroke="black" points="473.74,-149.8 268.26,-149.8 268.26,-113.8 473.74,-113.8 473.74,-149.8"/>
<text text-anchor="middle" x="371" y="-127.6" font-family="Times,serif" font-size="14.00">ProductsTableActionsComponent</text>
</g>
<!-- ProductsTableActionsComponent&#45;&gt;ProductModule -->
<g id="edge9" class="edge">
<title>ProductsTableActionsComponent&#45;&gt;ProductModule</title>
<path fill="none" stroke="black" d="M371,-149.93C371,-170.37 371,-200.8 371,-200.8 371,-200.8 1550.26,-200.8 1550.26,-200.8"/>
<polygon fill="black" stroke="black" points="1550.26,-204.3 1560.26,-200.8 1550.26,-197.3 1550.26,-204.3"/>
</g>
<!-- AvailableProductsWidgetComponent -->
<g id="node9" class="node">
<title>AvailableProductsWidgetComponent</title>
<polygon fill="#ffffb3" stroke="black" points="249.96,-149.8 24.04,-149.8 24.04,-113.8 249.96,-113.8 249.96,-149.8"/>
<text text-anchor="middle" x="137" y="-127.6" font-family="Times,serif" font-size="14.00">AvailableProductsWidgetComponent</text>
</g>
<!-- AvailableProductsWidgetComponent&#45;&gt;ProductModule -->
<g id="edge10" class="edge">
<title>AvailableProductsWidgetComponent&#45;&gt;ProductModule</title>
<path fill="none" stroke="black" d="M137,-149.84C137,-171.46 137,-204.8 137,-204.8 137,-204.8 1550.37,-204.8 1550.37,-204.8"/>
<polygon fill="black" stroke="black" points="1550.37,-208.3 1560.37,-204.8 1550.37,-201.3 1550.37,-208.3"/>
</g>
<!-- ProductsListComponent  -->
<g id="node19" class="node">
<title>ProductsListComponent </title>
<polygon fill="#fb8072" stroke="black" points="2160.6,-279.8 2005.4,-279.8 2005.4,-243.8 2160.6,-243.8 2160.6,-279.8"/>
<text text-anchor="middle" x="2083" y="-257.6" font-family="Times,serif" font-size="14.00">ProductsListComponent </text>
</g>
<!-- ProductModule&#45;&gt;ProductsListComponent  -->
<g id="edge18" class="edge">
<title>ProductModule&#45;&gt;ProductsListComponent </title>
<path fill="none" stroke="black" stroke-dasharray="5,2" d="M1663.88,-207.8C1784.19,-207.8 2072.04,-207.8 2072.04,-207.8 2072.04,-207.8 2072.04,-233.52 2072.04,-233.52"/>
<polygon fill="black" stroke="black" points="2068.54,-233.52 2072.04,-243.52 2075.54,-233.52 2068.54,-233.52"/>
</g>
<!-- ProductOverviewComponent  -->
<g id="node20" class="node">
<title>ProductOverviewComponent </title>
<polygon fill="#fb8072" stroke="black" points="1986.57,-279.8 1803.43,-279.8 1803.43,-243.8 1986.57,-243.8 1986.57,-279.8"/>
<text text-anchor="middle" x="1895" y="-257.6" font-family="Times,serif" font-size="14.00">ProductOverviewComponent </text>
</g>
<!-- ProductModule&#45;&gt;ProductOverviewComponent  -->
<g id="edge19" class="edge">
<title>ProductModule&#45;&gt;ProductOverviewComponent </title>
<path fill="none" stroke="black" stroke-dasharray="5,2" d="M1663.66,-211.8C1735.92,-211.8 1858.43,-211.8 1858.43,-211.8 1858.43,-211.8 1858.43,-233.75 1858.43,-233.75"/>
<polygon fill="black" stroke="black" points="1854.93,-233.75 1858.43,-243.75 1861.93,-233.75 1854.93,-233.75"/>
</g>
<!-- ProductsTableComponent  -->
<g id="node21" class="node">
<title>ProductsTableComponent </title>
<polygon fill="#fb8072" stroke="black" points="1784.7,-279.8 1619.3,-279.8 1619.3,-243.8 1784.7,-243.8 1784.7,-279.8"/>
<text text-anchor="middle" x="1702" y="-257.6" font-family="Times,serif" font-size="14.00">ProductsTableComponent </text>
</g>
<!-- ProductModule&#45;&gt;ProductsTableComponent  -->
<g id="edge20" class="edge">
<title>ProductModule&#45;&gt;ProductsTableComponent </title>
<path fill="none" stroke="black" stroke-dasharray="5,2" d="M1641.35,-214.91C1641.35,-214.91 1641.35,-233.79 1641.35,-233.79"/>
<polygon fill="black" stroke="black" points="1637.85,-233.79 1641.35,-243.79 1644.85,-233.79 1637.85,-233.79"/>
</g>
<!-- ProductFormComponent  -->
<g id="node22" class="node">
<title>ProductFormComponent </title>
<polygon fill="#fb8072" stroke="black" points="1601.21,-279.8 1442.79,-279.8 1442.79,-243.8 1601.21,-243.8 1601.21,-279.8"/>
<text text-anchor="middle" x="1522" y="-257.6" font-family="Times,serif" font-size="14.00">ProductFormComponent </text>
</g>
<!-- ProductModule&#45;&gt;ProductFormComponent  -->
<g id="edge21" class="edge">
<title>ProductModule&#45;&gt;ProductFormComponent </title>
<path fill="none" stroke="black" stroke-dasharray="5,2" d="M1580.9,-214.91C1580.9,-214.91 1580.9,-233.79 1580.9,-233.79"/>
<polygon fill="black" stroke="black" points="1577.4,-233.79 1580.9,-243.79 1584.4,-233.79 1577.4,-233.79"/>
</g>
<!-- ProductsTableActionsComponent  -->
<g id="node23" class="node">
<title>ProductsTableActionsComponent </title>
<polygon fill="#fb8072" stroke="black" points="1424.74,-279.8 1215.26,-279.8 1215.26,-243.8 1424.74,-243.8 1424.74,-279.8"/>
<text text-anchor="middle" x="1320" y="-257.6" font-family="Times,serif" font-size="14.00">ProductsTableActionsComponent </text>
</g>
<!-- ProductModule&#45;&gt;ProductsTableActionsComponent  -->
<g id="edge22" class="edge">
<title>ProductModule&#45;&gt;ProductsTableActionsComponent </title>
<path fill="none" stroke="black" stroke-dasharray="5,2" d="M1560.21,-211.8C1503.53,-211.8 1420.62,-211.8 1420.62,-211.8 1420.62,-211.8 1420.62,-233.75 1420.62,-233.75"/>
<polygon fill="black" stroke="black" points="1417.12,-233.75 1420.62,-243.75 1424.12,-233.75 1417.12,-233.75"/>
</g>
<!-- AvailableProductsWidgetComponent  -->
<g id="node24" class="node">
<title>AvailableProductsWidgetComponent </title>
<polygon fill="#fb8072" stroke="black" points="1197.96,-279.8 968.04,-279.8 968.04,-243.8 1197.96,-243.8 1197.96,-279.8"/>
<text text-anchor="middle" x="1083" y="-257.6" font-family="Times,serif" font-size="14.00">AvailableProductsWidgetComponent </text>
</g>
<!-- ProductModule&#45;&gt;AvailableProductsWidgetComponent  -->
<g id="edge23" class="edge">
<title>ProductModule&#45;&gt;AvailableProductsWidgetComponent </title>
<path fill="none" stroke="black" stroke-dasharray="5,2" d="M1560.09,-207.8C1429.92,-207.8 1099.99,-207.8 1099.99,-207.8 1099.99,-207.8 1099.99,-233.52 1099.99,-233.52"/>
<polygon fill="black" stroke="black" points="1096.49,-233.52 1099.99,-243.52 1103.49,-233.52 1096.49,-233.52"/>
</g>
<!-- { provide: NG_VALUE_ACCESSOR, useExisting: , multi: &#160;} -->
<g id="node11" class="node">
<title>{ provide: NG_VALUE_ACCESSOR, useExisting: , multi: &#160;}</title>
<ellipse fill="#fdb462" stroke="black" cx="569" cy="-66.8" rx="251.5" ry="18"/>
<text text-anchor="middle" x="569" y="-62.6" font-family="Times,serif" font-size="14.00">{ provide: NG_VALUE_ACCESSOR, useExisting: , multi: &#160;}</text>
</g>
<!-- { provide: NG_VALUE_ACCESSOR, useExisting: , multi: &#160;}&#45;&gt;ProductFormComponent -->
<g id="edge8" class="edge">
<title>{ provide: NG_VALUE_ACCESSOR, useExisting: , multi: &#160;}&#45;&gt;ProductFormComponent</title>
<path fill="none" stroke="black" d="M569,-84.91C569,-84.91 569,-103.79 569,-103.79"/>
<polygon fill="black" stroke="black" points="565.5,-103.79 569,-113.79 572.5,-103.79 565.5,-103.79"/>
</g>
<!-- CommonModule -->
<g id="node12" class="node">
<title>CommonModule</title>
<polygon fill="#8dd3c7" stroke="black" points="2835.67,-149.8 2832.67,-153.8 2811.67,-153.8 2808.67,-149.8 2724.33,-149.8 2724.33,-113.8 2835.67,-113.8 2835.67,-149.8"/>
<text text-anchor="middle" x="2780" y="-127.6" font-family="Times,serif" font-size="14.00">CommonModule</text>
</g>
<!-- CommonModule&#45;&gt;ProductModule -->
<g id="edge11" class="edge">
<title>CommonModule&#45;&gt;ProductModule</title>
<path fill="none" stroke="black" d="M2780,-149.84C2780,-171.46 2780,-204.8 2780,-204.8 2780,-204.8 1673.69,-204.8 1673.69,-204.8"/>
<polygon fill="black" stroke="black" points="1673.69,-201.3 1663.69,-204.8 1673.69,-208.3 1673.69,-201.3"/>
</g>
<!-- RouterModule -->
<g id="node13" class="node">
<title>RouterModule</title>
<polygon fill="#8dd3c7" stroke="black" points="2705.65,-149.8 2702.65,-153.8 2681.65,-153.8 2678.65,-149.8 2608.35,-149.8 2608.35,-113.8 2705.65,-113.8 2705.65,-149.8"/>
<text text-anchor="middle" x="2657" y="-127.6" font-family="Times,serif" font-size="14.00">RouterModule</text>
</g>
<!-- RouterModule&#45;&gt;ProductModule -->
<g id="edge12" class="edge">
<title>RouterModule&#45;&gt;ProductModule</title>
<path fill="none" stroke="black" d="M2657,-149.93C2657,-170.37 2657,-200.8 2657,-200.8 2657,-200.8 1673.82,-200.8 1673.82,-200.8"/>
<polygon fill="black" stroke="black" points="1673.82,-197.3 1663.82,-200.8 1673.82,-204.3 1673.82,-197.3"/>
</g>
<!-- ReactiveFormsModule -->
<g id="node14" class="node">
<title>ReactiveFormsModule</title>
<polygon fill="#8dd3c7" stroke="black" points="2590.3,-149.8 2587.3,-153.8 2566.3,-153.8 2563.3,-149.8 2445.7,-149.8 2445.7,-113.8 2590.3,-113.8 2590.3,-149.8"/>
<text text-anchor="middle" x="2518" y="-127.6" font-family="Times,serif" font-size="14.00">ReactiveFormsModule</text>
</g>
<!-- ReactiveFormsModule&#45;&gt;ProductModule -->
<g id="edge13" class="edge">
<title>ReactiveFormsModule&#45;&gt;ProductModule</title>
<path fill="none" stroke="black" d="M2518,-149.91C2518,-169.14 2518,-196.8 2518,-196.8 2518,-196.8 1673.64,-196.8 1673.64,-196.8"/>
<polygon fill="black" stroke="black" points="1673.64,-193.3 1663.64,-196.8 1673.63,-200.3 1673.64,-193.3"/>
</g>
<!-- HttpClientModule -->
<g id="node15" class="node">
<title>HttpClientModule</title>
<polygon fill="#8dd3c7" stroke="black" points="2428.16,-149.8 2425.16,-153.8 2404.16,-153.8 2401.16,-149.8 2309.84,-149.8 2309.84,-113.8 2428.16,-113.8 2428.16,-149.8"/>
<text text-anchor="middle" x="2369" y="-127.6" font-family="Times,serif" font-size="14.00">HttpClientModule</text>
</g>
<!-- HttpClientModule&#45;&gt;ProductModule -->
<g id="edge14" class="edge">
<title>HttpClientModule&#45;&gt;ProductModule</title>
<path fill="none" stroke="black" d="M2369,-150.07C2369,-168.36 2369,-193.8 2369,-193.8 2369,-193.8 1673.73,-193.8 1673.73,-193.8"/>
<polygon fill="black" stroke="black" points="1673.73,-190.3 1663.73,-193.8 1673.73,-197.3 1673.73,-190.3"/>
</g>
<!-- StatusWidgetModule -->
<g id="node16" class="node">
<title>StatusWidgetModule</title>
<polygon fill="#8dd3c7" stroke="black" points="2291.48,-149.8 2288.48,-153.8 2267.48,-153.8 2264.48,-149.8 2156.52,-149.8 2156.52,-113.8 2291.48,-113.8 2291.48,-149.8"/>
<text text-anchor="middle" x="2224" y="-127.6" font-family="Times,serif" font-size="14.00">StatusWidgetModule</text>
</g>
<!-- StatusWidgetModule&#45;&gt;ProductModule -->
<g id="edge15" class="edge">
<title>StatusWidgetModule&#45;&gt;ProductModule</title>
<path fill="none" stroke="black" d="M2226.15,-149.83C2226.15,-166.86 2226.15,-189.8 2226.15,-189.8 2226.15,-189.8 1673.57,-189.8 1673.57,-189.8"/>
<polygon fill="black" stroke="black" points="1673.57,-186.3 1663.57,-189.8 1673.57,-193.3 1673.57,-186.3"/>
</g>
<!-- ShopifyPaginationModule -->
<g id="node17" class="node">
<title>ShopifyPaginationModule</title>
<polygon fill="#8dd3c7" stroke="black" points="2138.77,-149.8 2135.77,-153.8 2114.77,-153.8 2111.77,-149.8 1975.23,-149.8 1975.23,-113.8 2138.77,-113.8 2138.77,-149.8"/>
<text text-anchor="middle" x="2057" y="-127.6" font-family="Times,serif" font-size="14.00">ShopifyPaginationModule</text>
</g>
<!-- ShopifyPaginationModule&#45;&gt;ProductModule -->
<g id="edge16" class="edge">
<title>ShopifyPaginationModule&#45;&gt;ProductModule</title>
<path fill="none" stroke="black" d="M1980.95,-149.81C1980.95,-165.85 1980.95,-186.8 1980.95,-186.8 1980.95,-186.8 1673.69,-186.8 1673.69,-186.8"/>
<polygon fill="black" stroke="black" points="1673.69,-183.3 1663.69,-186.8 1673.69,-190.3 1673.69,-183.3"/>
</g>
<!-- ShopifyButtonsModule -->
<g id="node18" class="node">
<title>ShopifyButtonsModule</title>
<polygon fill="#8dd3c7" stroke="black" points="1956.95,-149.8 1953.95,-153.8 1932.95,-153.8 1929.95,-149.8 1809.05,-149.8 1809.05,-113.8 1956.95,-113.8 1956.95,-149.8"/>
<text text-anchor="middle" x="1883" y="-127.6" font-family="Times,serif" font-size="14.00">ShopifyButtonsModule</text>
</g>
<!-- ShopifyButtonsModule&#45;&gt;ProductModule -->
<g id="edge17" class="edge">
<title>ShopifyButtonsModule&#45;&gt;ProductModule</title>
<path fill="none" stroke="black" d="M1907.57,-149.92C1907.57,-164.58 1907.57,-182.8 1907.57,-182.8 1907.57,-182.8 1673.82,-182.8 1673.82,-182.8"/>
<polygon fill="black" stroke="black" points="1673.82,-179.3 1663.82,-182.8 1673.82,-186.3 1673.82,-179.3"/>
</g>
</g>
</svg>
