<?xml version="1.0" encoding="UTF-8" standalone="no"?>
<!DOCTYPE svg PUBLIC "-//W3C//DTD SVG 1.1//EN"
 "http://www.w3.org/Graphics/SVG/1.1/DTD/svg11.dtd">
<!-- Generated by graphviz version 2.47.3 (20210619.1520)
 -->
<!-- Title: dependencies Pages: 1 -->
<svg width="758pt" height="247pt"
 viewBox="0.00 0.00 758.00 246.80" xmlns="http://www.w3.org/2000/svg" xmlns:xlink="http://www.w3.org/1999/xlink">
<g id="graph0" class="graph" transform="scale(1 1) rotate(0) translate(4 242.8)">
<title>dependencies</title>
<polygon fill="white" stroke="transparent" points="-4,4 -4,-242.8 754,-242.8 754,4 -4,4"/>
<text text-anchor="middle" x="375" y="-8.2" font-family="sans-serif" font-size="14.00">dependencies</text>
<g id="clust1" class="cluster">
<title>cluster_ProductModule</title>
<polygon fill="none" stroke="black" stroke-dasharray="1,5" points="8,-32.8 8,-230.8 742,-230.8 742,-32.8 8,-32.8"/>
</g>
<g id="clust7" class="cluster">
<title>cluster_ProductModule_exports</title>
<polygon fill="none" stroke="black" points="159,-170.8 159,-222.8 533,-222.8 533,-170.8 159,-170.8"/>
</g>
<g id="clust2" class="cluster">
<title>cluster_ProductModule_declarations</title>
<polygon fill="none" stroke="black" points="152,-40.8 152,-92.8 734,-92.8 734,-40.8 152,-40.8"/>
</g>
<g id="clust6" class="cluster">
<title>cluster_ProductModule_imports</title>
<polygon fill="none" stroke="black" points="16,-40.8 16,-92.8 144,-92.8 144,-40.8 16,-40.8"/>
</g>
<!-- ProductsListComponent -->
<g id="node1" class="node">
<title>ProductsListComponent</title>
<polygon fill="#ffffb3" stroke="black" points="726.1,-84.8 573.9,-84.8 573.9,-48.8 726.1,-48.8 726.1,-84.8"/>
<text text-anchor="middle" x="650" y="-62.6" font-family="Times,serif" font-size="14.00">ProductsListComponent</text>
</g>
<!-- ProductModule -->
<g id="node4" class="node">
<title>ProductModule</title>
<polygon fill="#8dd3c7" stroke="black" points="404.6,-149.8 401.6,-153.8 380.6,-153.8 377.6,-149.8 301.4,-149.8 301.4,-113.8 404.6,-113.8 404.6,-149.8"/>
<text text-anchor="middle" x="353" y="-127.6" font-family="Times,serif" font-size="14.00">ProductModule</text>
</g>
<!-- ProductsListComponent&#45;&gt;ProductModule -->
<g id="edge1" class="edge">
<title>ProductsListComponent&#45;&gt;ProductModule</title>
<path fill="none" stroke="black" d="M650,-84.91C650,-104.14 650,-131.8 650,-131.8 650,-131.8 414.73,-131.8 414.73,-131.8"/>
<polygon fill="black" stroke="black" points="414.73,-128.3 404.73,-131.8 414.73,-135.3 414.73,-128.3"/>
</g>
<!-- ProductsListElementComponent -->
<g id="node2" class="node">
<title>ProductsListElementComponent</title>
<polygon fill="#ffffb3" stroke="black" points="556.26,-84.8 357.74,-84.8 357.74,-48.8 556.26,-48.8 556.26,-84.8"/>
<text text-anchor="middle" x="457" y="-62.6" font-family="Times,serif" font-size="14.00">ProductsListElementComponent</text>
</g>
<!-- ProductsListElementComponent&#45;&gt;ProductModule -->
<g id="edge2" class="edge">
<title>ProductsListElementComponent&#45;&gt;ProductModule</title>
<path fill="none" stroke="black" d="M381.09,-84.91C381.09,-84.91 381.09,-103.79 381.09,-103.79"/>
<polygon fill="black" stroke="black" points="377.59,-103.79 381.09,-113.79 384.59,-103.79 377.59,-103.79"/>
</g>
<!-- ProductOverviewComponent -->
<g id="node3" class="node">
<title>ProductOverviewComponent</title>
<polygon fill="#ffffb3" stroke="black" points="340.07,-84.8 159.93,-84.8 159.93,-48.8 340.07,-48.8 340.07,-84.8"/>
<text text-anchor="middle" x="250" y="-62.6" font-family="Times,serif" font-size="14.00">ProductOverviewComponent</text>
</g>
<!-- ProductOverviewComponent&#45;&gt;ProductModule -->
<g id="edge3" class="edge">
<title>ProductOverviewComponent&#45;&gt;ProductModule</title>
<path fill="none" stroke="black" d="M320.74,-84.91C320.74,-84.91 320.74,-103.79 320.74,-103.79"/>
<polygon fill="black" stroke="black" points="317.24,-103.79 320.74,-113.79 324.24,-103.79 317.24,-103.79"/>
</g>
<!-- ProductsListComponent  -->
<g id="node6" class="node">
<title>ProductsListComponent </title>
<polygon fill="#fb8072" stroke="black" points="524.6,-214.8 369.4,-214.8 369.4,-178.8 524.6,-178.8 524.6,-214.8"/>
<text text-anchor="middle" x="447" y="-192.6" font-family="Times,serif" font-size="14.00">ProductsListComponent </text>
</g>
<!-- ProductModule&#45;&gt;ProductsListComponent  -->
<g id="edge5" class="edge">
<title>ProductModule&#45;&gt;ProductsListComponent </title>
<path fill="none" stroke="black" stroke-dasharray="5,2" d="M386.87,-149.91C386.87,-149.91 386.87,-168.79 386.87,-168.79"/>
<polygon fill="black" stroke="black" points="383.37,-168.79 386.87,-178.79 390.37,-168.79 383.37,-168.79"/>
</g>
<!-- ProductOverviewComponent  -->
<g id="node7" class="node">
<title>ProductOverviewComponent </title>
<polygon fill="#fb8072" stroke="black" points="350.57,-214.8 167.43,-214.8 167.43,-178.8 350.57,-178.8 350.57,-214.8"/>
<text text-anchor="middle" x="259" y="-192.6" font-family="Times,serif" font-size="14.00">ProductOverviewComponent </text>
</g>
<!-- ProductModule&#45;&gt;ProductOverviewComponent  -->
<g id="edge6" class="edge">
<title>ProductModule&#45;&gt;ProductOverviewComponent </title>
<path fill="none" stroke="black" stroke-dasharray="5,2" d="M326.12,-149.91C326.12,-149.91 326.12,-168.79 326.12,-168.79"/>
<polygon fill="black" stroke="black" points="322.62,-168.79 326.12,-178.79 329.62,-168.79 322.62,-168.79"/>
</g>
<!-- CommonModule -->
<g id="node5" class="node">
<title>CommonModule</title>
<polygon fill="#8dd3c7" stroke="black" points="135.67,-84.8 132.67,-88.8 111.67,-88.8 108.67,-84.8 24.33,-84.8 24.33,-48.8 135.67,-48.8 135.67,-84.8"/>
<text text-anchor="middle" x="80" y="-62.6" font-family="Times,serif" font-size="14.00">CommonModule</text>
</g>
<!-- CommonModule&#45;&gt;ProductModule -->
<g id="edge4" class="edge">
<title>CommonModule&#45;&gt;ProductModule</title>
<path fill="none" stroke="black" d="M80,-84.91C80,-104.14 80,-131.8 80,-131.8 80,-131.8 291.33,-131.8 291.33,-131.8"/>
<polygon fill="black" stroke="black" points="291.33,-135.3 301.33,-131.8 291.33,-128.3 291.33,-135.3"/>
</g>
</g>
</svg>
