<?xml version="1.0" encoding="UTF-8" standalone="no"?>
<!DOCTYPE svg PUBLIC "-//W3C//DTD SVG 1.1//EN"
 "http://www.w3.org/Graphics/SVG/1.1/DTD/svg11.dtd">
<!-- Generated by graphviz version 2.47.3 (20210619.1520)
 -->
<!-- Title: dependencies Pages: 1 -->
<svg width="1178pt" height="247pt"
 viewBox="0.00 0.00 1178.00 246.80" xmlns="http://www.w3.org/2000/svg" xmlns:xlink="http://www.w3.org/1999/xlink">
<g id="graph0" class="graph" transform="scale(1 1) rotate(0) translate(4 242.8)">
<title>dependencies</title>
<polygon fill="white" stroke="transparent" points="-4,4 -4,-242.8 1174,-242.8 1174,4 -4,4"/>
<text text-anchor="middle" x="585" y="-8.2" font-family="sans-serif" font-size="14.00">dependencies</text>
<g id="clust1" class="cluster">
<title>cluster_ProductModule</title>
<polygon fill="none" stroke="black" stroke-dasharray="1,5" points="8,-32.8 8,-230.8 1162,-230.8 1162,-32.8 8,-32.8"/>
</g>
<g id="clust8" class="cluster">
<title>cluster_ProductModule_exports</title>
<polygon fill="none" stroke="black" points="488,-170.8 488,-222.8 862,-222.8 862,-170.8 488,-170.8"/>
</g>
<g id="clust7" class="cluster">
<title>cluster_ProductModule_imports</title>
<polygon fill="none" stroke="black" points="774,-40.8 774,-92.8 1154,-92.8 1154,-40.8 774,-40.8"/>
</g>
<g id="clust2" class="cluster">
<title>cluster_ProductModule_declarations</title>
<polygon fill="none" stroke="black" points="16,-40.8 16,-92.8 766,-92.8 766,-40.8 16,-40.8"/>
</g>
<!-- ProductsListComponent -->
<g id="node1" class="node">
<title>ProductsListComponent</title>
<polygon fill="#ffffb3" stroke="black" points="758.1,-84.8 605.9,-84.8 605.9,-48.8 758.1,-48.8 758.1,-84.8"/>
<text text-anchor="middle" x="682" y="-62.6" font-family="Times,serif" font-size="14.00">ProductsListComponent</text>
</g>
<!-- ProductModule -->
<g id="node5" class="node">
<title>ProductModule</title>
<polygon fill="#8dd3c7" stroke="black" points="733.6,-149.8 730.6,-153.8 709.6,-153.8 706.6,-149.8 630.4,-149.8 630.4,-113.8 733.6,-113.8 733.6,-149.8"/>
<text text-anchor="middle" x="682" y="-127.6" font-family="Times,serif" font-size="14.00">ProductModule</text>
</g>
<!-- ProductsListComponent&#45;&gt;ProductModule -->
<g id="edge1" class="edge">
<title>ProductsListComponent&#45;&gt;ProductModule</title>
<path fill="none" stroke="black" d="M682,-84.91C682,-84.91 682,-103.79 682,-103.79"/>
<polygon fill="black" stroke="black" points="678.5,-103.79 682,-113.79 685.5,-103.79 678.5,-103.79"/>
</g>
<!-- ProductsListElementComponent -->
<g id="node2" class="node">
<title>ProductsListElementComponent</title>
<polygon fill="#ffffb3" stroke="black" points="588.26,-84.8 389.74,-84.8 389.74,-48.8 588.26,-48.8 588.26,-84.8"/>
<text text-anchor="middle" x="489" y="-62.6" font-family="Times,serif" font-size="14.00">ProductsListElementComponent</text>
</g>
<!-- ProductsListElementComponent&#45;&gt;ProductModule -->
<g id="edge2" class="edge">
<title>ProductsListElementComponent&#45;&gt;ProductModule</title>
<path fill="none" stroke="black" d="M542.3,-84.83C542.3,-101.2 542.3,-122.8 542.3,-122.8 542.3,-122.8 620.38,-122.8 620.38,-122.8"/>
<polygon fill="black" stroke="black" points="620.38,-126.3 630.38,-122.8 620.38,-119.3 620.38,-126.3"/>
</g>
<!-- ProductOverviewComponent -->
<g id="node3" class="node">
<title>ProductOverviewComponent</title>
<polygon fill="#ffffb3" stroke="black" points="372.07,-84.8 191.93,-84.8 191.93,-48.8 372.07,-48.8 372.07,-84.8"/>
<text text-anchor="middle" x="282" y="-62.6" font-family="Times,serif" font-size="14.00">ProductOverviewComponent</text>
</g>
<!-- ProductOverviewComponent&#45;&gt;ProductModule -->
<g id="edge3" class="edge">
<title>ProductOverviewComponent&#45;&gt;ProductModule</title>
<path fill="none" stroke="black" d="M282,-84.91C282,-104.14 282,-131.8 282,-131.8 282,-131.8 620.12,-131.8 620.12,-131.8"/>
<polygon fill="black" stroke="black" points="620.12,-135.3 630.12,-131.8 620.12,-128.3 620.12,-135.3"/>
</g>
<!-- ProductPathComponent -->
<g id="node4" class="node">
<title>ProductPathComponent</title>
<polygon fill="#ffffb3" stroke="black" points="173.77,-84.8 24.23,-84.8 24.23,-48.8 173.77,-48.8 173.77,-84.8"/>
<text text-anchor="middle" x="99" y="-62.6" font-family="Times,serif" font-size="14.00">ProductPathComponent</text>
</g>
<!-- ProductPathComponent&#45;&gt;ProductModule -->
<g id="edge4" class="edge">
<title>ProductPathComponent&#45;&gt;ProductModule</title>
<path fill="none" stroke="black" d="M99,-85.09C99,-107.01 99,-140.8 99,-140.8 99,-140.8 620.26,-140.8 620.26,-140.8"/>
<polygon fill="black" stroke="black" points="620.26,-144.3 630.26,-140.8 620.26,-137.3 620.26,-144.3"/>
</g>
<!-- ProductsListComponent  -->
<g id="node9" class="node">
<title>ProductsListComponent </title>
<polygon fill="#fb8072" stroke="black" points="853.6,-214.8 698.4,-214.8 698.4,-178.8 853.6,-178.8 853.6,-214.8"/>
<text text-anchor="middle" x="776" y="-192.6" font-family="Times,serif" font-size="14.00">ProductsListComponent </text>
</g>
<!-- ProductModule&#45;&gt;ProductsListComponent  -->
<g id="edge8" class="edge">
<title>ProductModule&#45;&gt;ProductsListComponent </title>
<path fill="none" stroke="black" stroke-dasharray="5,2" d="M715.87,-149.91C715.87,-149.91 715.87,-168.79 715.87,-168.79"/>
<polygon fill="black" stroke="black" points="712.37,-168.79 715.87,-178.79 719.37,-168.79 712.37,-168.79"/>
</g>
<!-- ProductOverviewComponent  -->
<g id="node10" class="node">
<title>ProductOverviewComponent </title>
<polygon fill="#fb8072" stroke="black" points="679.57,-214.8 496.43,-214.8 496.43,-178.8 679.57,-178.8 679.57,-214.8"/>
<text text-anchor="middle" x="588" y="-192.6" font-family="Times,serif" font-size="14.00">ProductOverviewComponent </text>
</g>
<!-- ProductModule&#45;&gt;ProductOverviewComponent  -->
<g id="edge9" class="edge">
<title>ProductModule&#45;&gt;ProductOverviewComponent </title>
<path fill="none" stroke="black" stroke-dasharray="5,2" d="M655.12,-149.91C655.12,-149.91 655.12,-168.79 655.12,-168.79"/>
<polygon fill="black" stroke="black" points="651.62,-168.79 655.12,-178.79 658.62,-168.79 651.62,-168.79"/>
</g>
<!-- CommonModule -->
<g id="node6" class="node">
<title>CommonModule</title>
<polygon fill="#8dd3c7" stroke="black" points="1145.67,-84.8 1142.67,-88.8 1121.67,-88.8 1118.67,-84.8 1034.33,-84.8 1034.33,-48.8 1145.67,-48.8 1145.67,-84.8"/>
<text text-anchor="middle" x="1090" y="-62.6" font-family="Times,serif" font-size="14.00">CommonModule</text>
</g>
<!-- CommonModule&#45;&gt;ProductModule -->
<g id="edge5" class="edge">
<title>CommonModule&#45;&gt;ProductModule</title>
<path fill="none" stroke="black" d="M1090,-85.09C1090,-107.01 1090,-140.8 1090,-140.8 1090,-140.8 743.67,-140.8 743.67,-140.8"/>
<polygon fill="black" stroke="black" points="743.67,-137.3 733.67,-140.8 743.67,-144.3 743.67,-137.3"/>
</g>
<!-- RouterModule -->
<g id="node7" class="node">
<title>RouterModule</title>
<polygon fill="#8dd3c7" stroke="black" points="1015.65,-84.8 1012.65,-88.8 991.65,-88.8 988.65,-84.8 918.35,-84.8 918.35,-48.8 1015.65,-48.8 1015.65,-84.8"/>
<text text-anchor="middle" x="967" y="-62.6" font-family="Times,serif" font-size="14.00">RouterModule</text>
</g>
<!-- RouterModule&#45;&gt;ProductModule -->
<g id="edge6" class="edge">
<title>RouterModule&#45;&gt;ProductModule</title>
<path fill="none" stroke="black" d="M967,-84.91C967,-104.14 967,-131.8 967,-131.8 967,-131.8 743.61,-131.8 743.61,-131.8"/>
<polygon fill="black" stroke="black" points="743.61,-128.3 733.61,-131.8 743.61,-135.3 743.61,-128.3"/>
</g>
<!-- HttpClientModule -->
<g id="node8" class="node">
<title>HttpClientModule</title>
<polygon fill="#8dd3c7" stroke="black" points="900.16,-84.8 897.16,-88.8 876.16,-88.8 873.16,-84.8 781.84,-84.8 781.84,-48.8 900.16,-48.8 900.16,-84.8"/>
<text text-anchor="middle" x="841" y="-62.6" font-family="Times,serif" font-size="14.00">HttpClientModule</text>
</g>
<!-- HttpClientModule&#45;&gt;ProductModule -->
<g id="edge7" class="edge">
<title>HttpClientModule&#45;&gt;ProductModule</title>
<path fill="none" stroke="black" d="M817.74,-84.83C817.74,-101.2 817.74,-122.8 817.74,-122.8 817.74,-122.8 743.7,-122.8 743.7,-122.8"/>
<polygon fill="black" stroke="black" points="743.7,-119.3 733.7,-122.8 743.7,-126.3 743.7,-119.3"/>
</g>
</g>
</svg>
