<?xml version="1.0" encoding="UTF-8" standalone="no"?>
<!DOCTYPE svg PUBLIC "-//W3C//DTD SVG 1.1//EN"
 "http://www.w3.org/Graphics/SVG/1.1/DTD/svg11.dtd">
<!-- Generated by graphviz version 2.47.3 (20210619.1520)
 -->
<!-- Title: dependencies Pages: 1 -->
<svg width="560pt" height="247pt"
 viewBox="0.00 0.00 560.00 246.80" xmlns="http://www.w3.org/2000/svg" xmlns:xlink="http://www.w3.org/1999/xlink">
<g id="graph0" class="graph" transform="scale(1 1) rotate(0) translate(4 242.8)">
<title>dependencies</title>
<polygon fill="white" stroke="transparent" points="-4,4 -4,-242.8 556,-242.8 556,4 -4,4"/>
<text text-anchor="middle" x="276" y="-8.2" font-family="sans-serif" font-size="14.00">dependencies</text>
<g id="clust1" class="cluster">
<title>cluster_ProductModule</title>
<polygon fill="none" stroke="black" stroke-dasharray="1,5" points="8,-32.8 8,-230.8 544,-230.8 544,-32.8 8,-32.8"/>
</g>
<g id="clust5" class="cluster">
<title>cluster_ProductModule_imports</title>
<polygon fill="none" stroke="black" points="408,-40.8 408,-92.8 536,-92.8 536,-40.8 408,-40.8"/>
</g>
<g id="clust2" class="cluster">
<title>cluster_ProductModule_declarations</title>
<polygon fill="none" stroke="black" points="16,-40.8 16,-92.8 400,-92.8 400,-40.8 16,-40.8"/>
</g>
<g id="clust6" class="cluster">
<title>cluster_ProductModule_exports</title>
<polygon fill="none" stroke="black" points="230,-170.8 230,-222.8 402,-222.8 402,-170.8 230,-170.8"/>
</g>
<!-- ProductsListComponent -->
<g id="node1" class="node">
<title>ProductsListComponent</title>
<polygon fill="#ffffb3" stroke="black" points="392.1,-84.8 239.9,-84.8 239.9,-48.8 392.1,-48.8 392.1,-84.8"/>
<text text-anchor="middle" x="316" y="-62.6" font-family="Times,serif" font-size="14.00">ProductsListComponent</text>
</g>
<!-- ProductModule -->
<g id="node3" class="node">
<title>ProductModule</title>
<polygon fill="#8dd3c7" stroke="black" points="367.6,-149.8 364.6,-153.8 343.6,-153.8 340.6,-149.8 264.4,-149.8 264.4,-113.8 367.6,-113.8 367.6,-149.8"/>
<text text-anchor="middle" x="316" y="-127.6" font-family="Times,serif" font-size="14.00">ProductModule</text>
</g>
<!-- ProductsListComponent&#45;&gt;ProductModule -->
<g id="edge1" class="edge">
<title>ProductsListComponent&#45;&gt;ProductModule</title>
<path fill="none" stroke="black" d="M316,-84.91C316,-84.91 316,-103.79 316,-103.79"/>
<polygon fill="black" stroke="black" points="312.5,-103.79 316,-113.79 319.5,-103.79 312.5,-103.79"/>
</g>
<!-- ProductsListElementComponent -->
<g id="node2" class="node">
<title>ProductsListElementComponent</title>
<polygon fill="#ffffb3" stroke="black" points="222.26,-84.8 23.74,-84.8 23.74,-48.8 222.26,-48.8 222.26,-84.8"/>
<text text-anchor="middle" x="123" y="-62.6" font-family="Times,serif" font-size="14.00">ProductsListElementComponent</text>
</g>
<!-- ProductsListElementComponent&#45;&gt;ProductModule -->
<g id="edge2" class="edge">
<title>ProductsListElementComponent&#45;&gt;ProductModule</title>
<path fill="none" stroke="black" d="M123,-84.91C123,-104.14 123,-131.8 123,-131.8 123,-131.8 254.28,-131.8 254.28,-131.8"/>
<polygon fill="black" stroke="black" points="254.28,-135.3 264.28,-131.8 254.28,-128.3 254.28,-135.3"/>
</g>
<!-- ProductsListComponent  -->
<g id="node5" class="node">
<title>ProductsListComponent </title>
<polygon fill="#fb8072" stroke="black" points="393.6,-214.8 238.4,-214.8 238.4,-178.8 393.6,-178.8 393.6,-214.8"/>
<text text-anchor="middle" x="316" y="-192.6" font-family="Times,serif" font-size="14.00">ProductsListComponent </text>
</g>
<!-- ProductModule&#45;&gt;ProductsListComponent  -->
<g id="edge4" class="edge">
<title>ProductModule&#45;&gt;ProductsListComponent </title>
<path fill="none" stroke="black" stroke-dasharray="5,2" d="M316,-149.91C316,-149.91 316,-168.79 316,-168.79"/>
<polygon fill="black" stroke="black" points="312.5,-168.79 316,-178.79 319.5,-168.79 312.5,-168.79"/>
</g>
<!-- CommonModule -->
<g id="node4" class="node">
<title>CommonModule</title>
<polygon fill="#8dd3c7" stroke="black" points="527.67,-84.8 524.67,-88.8 503.67,-88.8 500.67,-84.8 416.33,-84.8 416.33,-48.8 527.67,-48.8 527.67,-84.8"/>
<text text-anchor="middle" x="472" y="-62.6" font-family="Times,serif" font-size="14.00">CommonModule</text>
</g>
<!-- CommonModule&#45;&gt;ProductModule -->
<g id="edge3" class="edge">
<title>CommonModule&#45;&gt;ProductModule</title>
<path fill="none" stroke="black" d="M472,-84.91C472,-104.14 472,-131.8 472,-131.8 472,-131.8 377.95,-131.8 377.95,-131.8"/>
<polygon fill="black" stroke="black" points="377.95,-128.3 367.95,-131.8 377.95,-135.3 377.95,-128.3"/>
</g>
</g>
</svg>
