<?xml version="1.0" encoding="UTF-8" standalone="no"?>
<!DOCTYPE svg PUBLIC "-//W3C//DTD SVG 1.1//EN"
 "http://www.w3.org/Graphics/SVG/1.1/DTD/svg11.dtd">
<!-- Generated by graphviz version 2.47.3 (20210619.1520)
 -->
<!-- Title: dependencies Pages: 1 -->
<svg width="3043pt" height="312pt"
 viewBox="0.00 0.00 3043.00 311.80" xmlns="http://www.w3.org/2000/svg" xmlns:xlink="http://www.w3.org/1999/xlink">
<g id="graph0" class="graph" transform="scale(1 1) rotate(0) translate(4 307.8)">
<title>dependencies</title>
<polygon fill="white" stroke="transparent" points="-4,4 -4,-307.8 3039,-307.8 3039,4 -4,4"/>
<text text-anchor="middle" x="1517.5" y="-8.2" font-family="sans-serif" font-size="14.00">dependencies</text>
<g id="clust1" class="cluster">
<title>cluster_ProductModule</title>
<polygon fill="none" stroke="black" stroke-dasharray="1,5" points="8,-32.8 8,-295.8 3027,-295.8 3027,-32.8 8,-32.8"/>
</g>
<g id="clust12" class="cluster">
<title>cluster_ProductModule_exports</title>
<polygon fill="none" stroke="black" points="1181,-235.8 1181,-287.8 2187,-287.8 2187,-235.8 1181,-235.8"/>
</g>
<g id="clust11" class="cluster">
<title>cluster_ProductModule_imports</title>
<polygon fill="none" stroke="black" points="1976,-105.8 1976,-157.8 3019,-157.8 3019,-105.8 1976,-105.8"/>
</g>
<g id="clust9" class="cluster">
<title>cluster_ProductModule_ProductFormComponent_providers</title>
<polygon fill="none" stroke="black" points="1450,-40.8 1450,-157.8 1968,-157.8 1968,-40.8 1450,-40.8"/>
</g>
<g id="clust2" class="cluster">
<title>cluster_ProductModule_declarations</title>
<polygon fill="none" stroke="black" points="16,-105.8 16,-157.8 1442,-157.8 1442,-105.8 16,-105.8"/>
</g>
<!-- ProductsListComponent -->
<g id="node1" class="node">
<title>ProductsListComponent</title>
<polygon fill="#ffffb3" stroke="black" points="1434.1,-149.8 1281.9,-149.8 1281.9,-113.8 1434.1,-113.8 1434.1,-149.8"/>
<text text-anchor="middle" x="1358" y="-127.6" font-family="Times,serif" font-size="14.00">ProductsListComponent</text>
</g>
<!-- ProductModule -->
<g id="node9" class="node">
<title>ProductModule</title>
<polygon fill="#8dd3c7" stroke="black" points="1760.6,-214.8 1757.6,-218.8 1736.6,-218.8 1733.6,-214.8 1657.4,-214.8 1657.4,-178.8 1760.6,-178.8 1760.6,-214.8"/>
<text text-anchor="middle" x="1709" y="-192.6" font-family="Times,serif" font-size="14.00">ProductModule</text>
</g>
<!-- ProductsListComponent&#45;&gt;ProductModule -->
<g id="edge1" class="edge">
<title>ProductsListComponent&#45;&gt;ProductModule</title>
<path fill="none" stroke="black" d="M1427.28,-149.92C1427.28,-164.58 1427.28,-182.8 1427.28,-182.8 1427.28,-182.8 1647.33,-182.8 1647.33,-182.8"/>
<polygon fill="black" stroke="black" points="1647.33,-186.3 1657.33,-182.8 1647.33,-179.3 1647.33,-186.3"/>
</g>
<!-- ProductsListElementComponent -->
<g id="node2" class="node">
<title>ProductsListElementComponent</title>
<polygon fill="#ffffb3" stroke="black" points="1264.26,-149.8 1065.74,-149.8 1065.74,-113.8 1264.26,-113.8 1264.26,-149.8"/>
<text text-anchor="middle" x="1165" y="-127.6" font-family="Times,serif" font-size="14.00">ProductsListElementComponent</text>
</g>
<!-- ProductsListElementComponent&#45;&gt;ProductModule -->
<g id="edge2" class="edge">
<title>ProductsListElementComponent&#45;&gt;ProductModule</title>
<path fill="none" stroke="black" d="M1226.93,-149.81C1226.93,-165.85 1226.93,-186.8 1226.93,-186.8 1226.93,-186.8 1647.41,-186.8 1647.41,-186.8"/>
<polygon fill="black" stroke="black" points="1647.41,-190.3 1657.41,-186.8 1647.41,-183.3 1647.41,-190.3"/>
</g>
<!-- ProductOverviewComponent -->
<g id="node3" class="node">
<title>ProductOverviewComponent</title>
<polygon fill="#ffffb3" stroke="black" points="1048.07,-149.8 867.93,-149.8 867.93,-113.8 1048.07,-113.8 1048.07,-149.8"/>
<text text-anchor="middle" x="958" y="-127.6" font-family="Times,serif" font-size="14.00">ProductOverviewComponent</text>
</g>
<!-- ProductOverviewComponent&#45;&gt;ProductModule -->
<g id="edge3" class="edge">
<title>ProductOverviewComponent&#45;&gt;ProductModule</title>
<path fill="none" stroke="black" d="M958,-149.83C958,-166.86 958,-189.8 958,-189.8 958,-189.8 1647.38,-189.8 1647.38,-189.8"/>
<polygon fill="black" stroke="black" points="1647.38,-193.3 1657.38,-189.8 1647.38,-186.3 1647.38,-193.3"/>
</g>
<!-- ProductPathComponent -->
<g id="node4" class="node">
<title>ProductPathComponent</title>
<polygon fill="#ffffb3" stroke="black" points="849.77,-149.8 700.23,-149.8 700.23,-113.8 849.77,-113.8 849.77,-149.8"/>
<text text-anchor="middle" x="775" y="-127.6" font-family="Times,serif" font-size="14.00">ProductPathComponent</text>
</g>
<!-- ProductPathComponent&#45;&gt;ProductModule -->
<g id="edge4" class="edge">
<title>ProductPathComponent&#45;&gt;ProductModule</title>
<path fill="none" stroke="black" d="M775,-150.07C775,-168.36 775,-193.8 775,-193.8 775,-193.8 1647.12,-193.8 1647.12,-193.8"/>
<polygon fill="black" stroke="black" points="1647.12,-197.3 1657.12,-193.8 1647.12,-190.3 1647.12,-197.3"/>
</g>
<!-- ProductsTableComponent -->
<g id="node5" class="node">
<title>ProductsListTableComponent</title>
<polygon fill="#ffffb3" stroke="black" points="681.98,-149.8 498.02,-149.8 498.02,-113.8 681.98,-113.8 681.98,-149.8"/>
<text text-anchor="middle" x="590" y="-127.6" font-family="Times,serif" font-size="14.00">ProductsListTableComponent</text>
</g>
<!-- ProductsTableComponent&#45;&gt;ProductModule -->
<g id="edge5" class="edge">
<title>ProductsListTableComponent&#45;&gt;ProductModule</title>
<path fill="none" stroke="black" d="M590,-149.91C590,-169.14 590,-196.8 590,-196.8 590,-196.8 1647.27,-196.8 1647.27,-196.8"/>
<polygon fill="black" stroke="black" points="1647.27,-200.3 1657.27,-196.8 1647.27,-193.3 1647.27,-200.3"/>
</g>
<!-- ProductsTableRowComponent -->
<g id="node6" class="node">
<title>ProductsListTableRowComponent</title>
<polygon fill="#ffffb3" stroke="black" points="480.42,-149.8 269.58,-149.8 269.58,-113.8 480.42,-113.8 480.42,-149.8"/>
<text text-anchor="middle" x="375" y="-127.6" font-family="Times,serif" font-size="14.00">ProductsListTableRowComponent</text>
</g>
<!-- ProductsTableRowComponent&#45;&gt;ProductModule -->
<g id="edge6" class="edge">
<title>ProductsListTableRowComponent&#45;&gt;ProductModule</title>
<path fill="none" stroke="black" d="M375,-149.93C375,-170.37 375,-200.8 375,-200.8 375,-200.8 1647.12,-200.8 1647.12,-200.8"/>
<polygon fill="black" stroke="black" points="1647.12,-204.3 1657.12,-200.8 1647.12,-197.3 1647.12,-204.3"/>
</g>
<!-- ProductFormComponent -->
<g id="node7" class="node">
<title>ProductFormComponent</title>
<polygon fill="#ffffb3" stroke="black" points="1786.71,-149.8 1631.29,-149.8 1631.29,-113.8 1786.71,-113.8 1786.71,-149.8"/>
<text text-anchor="middle" x="1709" y="-127.6" font-family="Times,serif" font-size="14.00">ProductFormComponent</text>
</g>
<!-- ProductFormComponent&#45;&gt;ProductModule -->
<g id="edge7" class="edge">
<title>ProductFormComponent&#45;&gt;ProductModule</title>
<path fill="none" stroke="black" d="M1709,-149.91C1709,-149.91 1709,-168.79 1709,-168.79"/>
<polygon fill="black" stroke="black" points="1705.5,-168.79 1709,-178.79 1712.5,-168.79 1705.5,-168.79"/>
</g>
<!-- ProductsTableActionsComponent -->
<g id="node8" class="node">
<title>ProductsListTableActionsComponent</title>
<polygon fill="#ffffb3" stroke="black" points="251.52,-149.8 24.48,-149.8 24.48,-113.8 251.52,-113.8 251.52,-149.8"/>
<text text-anchor="middle" x="138" y="-127.6" font-family="Times,serif" font-size="14.00">ProductsListTableActionsComponent</text>
</g>
<!-- ProductsTableActionsComponent&#45;&gt;ProductModule -->
<g id="edge9" class="edge">
<title>ProductsListTableActionsComponent&#45;&gt;ProductModule</title>
<path fill="none" stroke="black" d="M138,-149.84C138,-171.46 138,-204.8 138,-204.8 138,-204.8 1647.18,-204.8 1647.18,-204.8"/>
<polygon fill="black" stroke="black" points="1647.18,-208.3 1657.18,-204.8 1647.18,-201.3 1647.18,-208.3"/>
</g>
<!-- ProductsListComponent  -->
<g id="node18" class="node">
<title>ProductsListComponent </title>
<polygon fill="#fb8072" stroke="black" points="2178.6,-279.8 2023.4,-279.8 2023.4,-243.8 2178.6,-243.8 2178.6,-279.8"/>
<text text-anchor="middle" x="2101" y="-257.6" font-family="Times,serif" font-size="14.00">ProductsListComponent </text>
</g>
<!-- ProductModule&#45;&gt;ProductsListComponent  -->
<g id="edge17" class="edge">
<title>ProductModule&#45;&gt;ProductsListComponent </title>
<path fill="none" stroke="black" stroke-dasharray="5,2" d="M1760.62,-207.8C1862.03,-207.8 2077.46,-207.8 2077.46,-207.8 2077.46,-207.8 2077.46,-233.52 2077.46,-233.52"/>
<polygon fill="black" stroke="black" points="2073.96,-233.52 2077.46,-243.52 2080.96,-233.52 2073.96,-233.52"/>
</g>
<!-- ProductOverviewComponent  -->
<g id="node19" class="node">
<title>ProductOverviewComponent </title>
<polygon fill="#fb8072" stroke="black" points="2004.57,-279.8 1821.43,-279.8 1821.43,-243.8 2004.57,-243.8 2004.57,-279.8"/>
<text text-anchor="middle" x="1913" y="-257.6" font-family="Times,serif" font-size="14.00">ProductOverviewComponent </text>
</g>
<!-- ProductModule&#45;&gt;ProductOverviewComponent  -->
<g id="edge18" class="edge">
<title>ProductModule&#45;&gt;ProductOverviewComponent </title>
<path fill="none" stroke="black" stroke-dasharray="5,2" d="M1760.59,-211.8C1814.32,-211.8 1890.73,-211.8 1890.73,-211.8 1890.73,-211.8 1890.73,-233.75 1890.73,-233.75"/>
<polygon fill="black" stroke="black" points="1887.23,-233.75 1890.73,-243.75 1894.23,-233.75 1887.23,-233.75"/>
</g>
<!-- ProductsTableComponent  -->
<g id="node20" class="node">
<title>ProductsListTableComponent </title>
<polygon fill="#fb8072" stroke="black" points="1802.98,-279.8 1615.02,-279.8 1615.02,-243.8 1802.98,-243.8 1802.98,-279.8"/>
<text text-anchor="middle" x="1709" y="-257.6" font-family="Times,serif" font-size="14.00">ProductsListTableComponent </text>
</g>
<!-- ProductModule&#45;&gt;ProductsTableComponent  -->
<g id="edge19" class="edge">
<title>ProductModule&#45;&gt;ProductsListTableComponent </title>
<path fill="none" stroke="black" stroke-dasharray="5,2" d="M1709,-214.91C1709,-214.91 1709,-233.79 1709,-233.79"/>
<polygon fill="black" stroke="black" points="1705.5,-233.79 1709,-243.79 1712.5,-233.79 1705.5,-233.79"/>
</g>
<!-- ProductFormComponent  -->
<g id="node21" class="node">
<title>ProductFormComponent </title>
<polygon fill="#fb8072" stroke="black" points="1597.21,-279.8 1438.79,-279.8 1438.79,-243.8 1597.21,-243.8 1597.21,-279.8"/>
<text text-anchor="middle" x="1518" y="-257.6" font-family="Times,serif" font-size="14.00">ProductFormComponent </text>
</g>
<!-- ProductModule&#45;&gt;ProductFormComponent  -->
<g id="edge20" class="edge">
<title>ProductModule&#45;&gt;ProductFormComponent </title>
<path fill="none" stroke="black" stroke-dasharray="5,2" d="M1657,-211.8C1603.39,-211.8 1527.55,-211.8 1527.55,-211.8 1527.55,-211.8 1527.55,-233.75 1527.55,-233.75"/>
<polygon fill="black" stroke="black" points="1524.05,-233.75 1527.55,-243.75 1531.05,-233.75 1524.05,-233.75"/>
</g>
<!-- ProductsTableActionsComponent  -->
<g id="node22" class="node">
<title>ProductsListTableActionsComponent </title>
<polygon fill="#fb8072" stroke="black" points="1420.52,-279.8 1189.48,-279.8 1189.48,-243.8 1420.52,-243.8 1420.52,-279.8"/>
<text text-anchor="middle" x="1305" y="-257.6" font-family="Times,serif" font-size="14.00">ProductsListTableActionsComponent </text>
</g>
<!-- ProductModule&#45;&gt;ProductsTableActionsComponent  -->
<g id="edge21" class="edge">
<title>ProductModule&#45;&gt;ProductsListTableActionsComponent </title>
<path fill="none" stroke="black" stroke-dasharray="5,2" d="M1657.36,-207.8C1558.28,-207.8 1351.23,-207.8 1351.23,-207.8 1351.23,-207.8 1351.23,-233.52 1351.23,-233.52"/>
<polygon fill="black" stroke="black" points="1347.73,-233.52 1351.23,-243.52 1354.73,-233.52 1347.73,-233.52"/>
</g>
<!-- { provide: NG_VALUE_ACCESSOR, useExisting: , multi: &#160;} -->
<g id="node10" class="node">
<title>{ provide: NG_VALUE_ACCESSOR, useExisting: , multi: &#160;}</title>
<ellipse fill="#fdb462" stroke="black" cx="1709" cy="-66.8" rx="251.5" ry="18"/>
<text text-anchor="middle" x="1709" y="-62.6" font-family="Times,serif" font-size="14.00">{ provide: NG_VALUE_ACCESSOR, useExisting: , multi: &#160;}</text>
</g>
<!-- { provide: NG_VALUE_ACCESSOR, useExisting: , multi: &#160;}&#45;&gt;ProductFormComponent -->
<g id="edge8" class="edge">
<title>{ provide: NG_VALUE_ACCESSOR, useExisting: , multi: &#160;}&#45;&gt;ProductFormComponent</title>
<path fill="none" stroke="black" d="M1709,-84.91C1709,-84.91 1709,-103.79 1709,-103.79"/>
<polygon fill="black" stroke="black" points="1705.5,-103.79 1709,-113.79 1712.5,-103.79 1705.5,-103.79"/>
</g>
<!-- CommonModule -->
<g id="node11" class="node">
<title>CommonModule</title>
<polygon fill="#8dd3c7" stroke="black" points="3010.67,-149.8 3007.67,-153.8 2986.67,-153.8 2983.67,-149.8 2899.33,-149.8 2899.33,-113.8 3010.67,-113.8 3010.67,-149.8"/>
<text text-anchor="middle" x="2955" y="-127.6" font-family="Times,serif" font-size="14.00">CommonModule</text>
</g>
<!-- CommonModule&#45;&gt;ProductModule -->
<g id="edge10" class="edge">
<title>CommonModule&#45;&gt;ProductModule</title>
<path fill="none" stroke="black" d="M2955,-149.84C2955,-171.46 2955,-204.8 2955,-204.8 2955,-204.8 1770.56,-204.8 1770.56,-204.8"/>
<polygon fill="black" stroke="black" points="1770.56,-201.3 1760.56,-204.8 1770.56,-208.3 1770.56,-201.3"/>
</g>
<!-- RouterModule -->
<g id="node12" class="node">
<title>RouterModule</title>
<polygon fill="#8dd3c7" stroke="black" points="2880.65,-149.8 2877.65,-153.8 2856.65,-153.8 2853.65,-149.8 2783.35,-149.8 2783.35,-113.8 2880.65,-113.8 2880.65,-149.8"/>
<text text-anchor="middle" x="2832" y="-127.6" font-family="Times,serif" font-size="14.00">RouterModule</text>
</g>
<!-- RouterModule&#45;&gt;ProductModule -->
<g id="edge11" class="edge">
<title>RouterModule&#45;&gt;ProductModule</title>
<path fill="none" stroke="black" d="M2832,-149.93C2832,-170.37 2832,-200.8 2832,-200.8 2832,-200.8 1770.91,-200.8 1770.91,-200.8"/>
<polygon fill="black" stroke="black" points="1770.91,-197.3 1760.91,-200.8 1770.91,-204.3 1770.91,-197.3"/>
</g>
<!-- ReactiveFormsModule -->
<g id="node13" class="node">
<title>ReactiveFormsModule</title>
<polygon fill="#8dd3c7" stroke="black" points="2765.3,-149.8 2762.3,-153.8 2741.3,-153.8 2738.3,-149.8 2620.7,-149.8 2620.7,-113.8 2765.3,-113.8 2765.3,-149.8"/>
<text text-anchor="middle" x="2693" y="-127.6" font-family="Times,serif" font-size="14.00">ReactiveFormsModule</text>
</g>
<!-- ReactiveFormsModule&#45;&gt;ProductModule -->
<g id="edge12" class="edge">
<title>ReactiveFormsModule&#45;&gt;ProductModule</title>
<path fill="none" stroke="black" d="M2693,-149.91C2693,-169.14 2693,-196.8 2693,-196.8 2693,-196.8 1770.86,-196.8 1770.86,-196.8"/>
<polygon fill="black" stroke="black" points="1770.86,-193.3 1760.86,-196.8 1770.86,-200.3 1770.86,-193.3"/>
</g>
<!-- HttpClientModule -->
<g id="node14" class="node">
<title>HttpClientModule</title>
<polygon fill="#8dd3c7" stroke="black" points="2603.16,-149.8 2600.16,-153.8 2579.16,-153.8 2576.16,-149.8 2484.84,-149.8 2484.84,-113.8 2603.16,-113.8 2603.16,-149.8"/>
<text text-anchor="middle" x="2544" y="-127.6" font-family="Times,serif" font-size="14.00">HttpClientModule</text>
</g>
<!-- HttpClientModule&#45;&gt;ProductModule -->
<g id="edge13" class="edge">
<title>HttpClientModule&#45;&gt;ProductModule</title>
<path fill="none" stroke="black" d="M2544,-150.07C2544,-168.36 2544,-193.8 2544,-193.8 2544,-193.8 1770.6,-193.8 1770.6,-193.8"/>
<polygon fill="black" stroke="black" points="1770.6,-190.3 1760.6,-193.8 1770.6,-197.3 1770.6,-190.3"/>
</g>
<!-- StatusWidgetModule -->
<g id="node15" class="node">
<title>StatusWidgetModule</title>
<polygon fill="#8dd3c7" stroke="black" points="2466.48,-149.8 2463.48,-153.8 2442.48,-153.8 2439.48,-149.8 2331.52,-149.8 2331.52,-113.8 2466.48,-113.8 2466.48,-149.8"/>
<text text-anchor="middle" x="2399" y="-127.6" font-family="Times,serif" font-size="14.00">StatusWidgetModule</text>
</g>
<!-- StatusWidgetModule&#45;&gt;ProductModule -->
<g id="edge14" class="edge">
<title>StatusWidgetModule&#45;&gt;ProductModule</title>
<path fill="none" stroke="black" d="M2399,-149.83C2399,-166.86 2399,-189.8 2399,-189.8 2399,-189.8 1770.58,-189.8 1770.58,-189.8"/>
<polygon fill="black" stroke="black" points="1770.58,-186.3 1760.58,-189.8 1770.58,-193.3 1770.58,-186.3"/>
</g>
<!-- ShopifyPaginationModule -->
<g id="node16" class="node">
<title>ShopifyPaginationModule</title>
<polygon fill="#8dd3c7" stroke="black" points="2313.77,-149.8 2310.77,-153.8 2289.77,-153.8 2286.77,-149.8 2150.23,-149.8 2150.23,-113.8 2313.77,-113.8 2313.77,-149.8"/>
<text text-anchor="middle" x="2232" y="-127.6" font-family="Times,serif" font-size="14.00">ShopifyPaginationModule</text>
</g>
<!-- ShopifyPaginationModule&#45;&gt;ProductModule -->
<g id="edge15" class="edge">
<title>ShopifyPaginationModule&#45;&gt;ProductModule</title>
<path fill="none" stroke="black" d="M2164.46,-149.81C2164.46,-165.85 2164.46,-186.8 2164.46,-186.8 2164.46,-186.8 1770.8,-186.8 1770.8,-186.8"/>
<polygon fill="black" stroke="black" points="1770.8,-183.3 1760.8,-186.8 1770.8,-190.3 1770.8,-183.3"/>
</g>
<!-- ShopifyButtonsModule -->
<g id="node17" class="node">
<title>ShopifyButtonsModule</title>
<polygon fill="#8dd3c7" stroke="black" points="2131.95,-149.8 2128.95,-153.8 2107.95,-153.8 2104.95,-149.8 1984.05,-149.8 1984.05,-113.8 2131.95,-113.8 2131.95,-149.8"/>
<text text-anchor="middle" x="2058" y="-127.6" font-family="Times,serif" font-size="14.00">ShopifyButtonsModule</text>
</g>
<!-- ShopifyButtonsModule&#45;&gt;ProductModule -->
<g id="edge16" class="edge">
<title>ShopifyButtonsModule&#45;&gt;ProductModule</title>
<path fill="none" stroke="black" d="M1994.53,-149.92C1994.53,-164.58 1994.53,-182.8 1994.53,-182.8 1994.53,-182.8 1770.71,-182.8 1770.71,-182.8"/>
<polygon fill="black" stroke="black" points="1770.71,-179.3 1760.71,-182.8 1770.71,-186.3 1770.71,-179.3"/>
</g>
</g>
</svg>
