<?xml version="1.0" encoding="UTF-8" standalone="no"?>
<!DOCTYPE svg PUBLIC "-//W3C//DTD SVG 1.1//EN"
 "http://www.w3.org/Graphics/SVG/1.1/DTD/svg11.dtd">
<!-- Generated by graphviz version 2.47.3 (20210619.1520)
 -->
<!-- Title: dependencies Pages: 1 -->
<svg width="354pt" height="247pt"
 viewBox="0.00 0.00 354.00 246.80" xmlns="http://www.w3.org/2000/svg" xmlns:xlink="http://www.w3.org/1999/xlink">
<g id="graph0" class="graph" transform="scale(1 1) rotate(0) translate(4 242.8)">
<title>dependencies</title>
<polygon fill="white" stroke="transparent" points="-4,4 -4,-242.8 350,-242.8 350,4 -4,4"/>
<text text-anchor="middle" x="173" y="-8.2" font-family="sans-serif" font-size="14.00">dependencies</text>
<g id="clust1" class="cluster">
<title>cluster_ShopifyFooterModule</title>
<polygon fill="none" stroke="black" stroke-dasharray="1,5" points="8,-32.8 8,-230.8 338,-230.8 338,-32.8 8,-32.8"/>
</g>
<g id="clust5" class="cluster">
<title>cluster_ShopifyFooterModule_exports</title>
<polygon fill="none" stroke="black" points="82,-170.8 82,-222.8 264,-222.8 264,-170.8 82,-170.8"/>
</g>
<g id="clust2" class="cluster">
<title>cluster_ShopifyFooterModule_declarations</title>
<polygon fill="none" stroke="black" points="152,-40.8 152,-92.8 330,-92.8 330,-40.8 152,-40.8"/>
</g>
<g id="clust4" class="cluster">
<title>cluster_ShopifyFooterModule_imports</title>
<polygon fill="none" stroke="black" points="16,-40.8 16,-92.8 144,-92.8 144,-40.8 16,-40.8"/>
</g>
<!-- ShopifyFooterComponent -->
<g id="node1" class="node">
<title>ShopifyFooterComponent</title>
<polygon fill="#ffffb3" stroke="black" points="322.21,-84.8 159.79,-84.8 159.79,-48.8 322.21,-48.8 322.21,-84.8"/>
<text text-anchor="middle" x="241" y="-62.6" font-family="Times,serif" font-size="14.00">ShopifyFooterComponent</text>
</g>
<!-- ShopifyFooterModule -->
<g id="node2" class="node">
<title>ShopifyFooterModule</title>
<polygon fill="#8dd3c7" stroke="black" points="243.43,-149.8 240.43,-153.8 219.43,-153.8 216.43,-149.8 102.57,-149.8 102.57,-113.8 243.43,-113.8 243.43,-149.8"/>
<text text-anchor="middle" x="173" y="-127.6" font-family="Times,serif" font-size="14.00">ShopifyFooterModule</text>
</g>
<!-- ShopifyFooterComponent&#45;&gt;ShopifyFooterModule -->
<g id="edge1" class="edge">
<title>ShopifyFooterComponent&#45;&gt;ShopifyFooterModule</title>
<path fill="none" stroke="black" d="M201.55,-84.91C201.55,-84.91 201.55,-103.79 201.55,-103.79"/>
<polygon fill="black" stroke="black" points="198.05,-103.79 201.55,-113.79 205.05,-103.79 198.05,-103.79"/>
</g>
<!-- ShopifyFooterComponent  -->
<g id="node4" class="node">
<title>ShopifyFooterComponent </title>
<polygon fill="#fb8072" stroke="black" points="255.71,-214.8 90.29,-214.8 90.29,-178.8 255.71,-178.8 255.71,-214.8"/>
<text text-anchor="middle" x="173" y="-192.6" font-family="Times,serif" font-size="14.00">ShopifyFooterComponent </text>
</g>
<!-- ShopifyFooterModule&#45;&gt;ShopifyFooterComponent  -->
<g id="edge3" class="edge">
<title>ShopifyFooterModule&#45;&gt;ShopifyFooterComponent </title>
<path fill="none" stroke="black" stroke-dasharray="5,2" d="M173,-149.91C173,-149.91 173,-168.79 173,-168.79"/>
<polygon fill="black" stroke="black" points="169.5,-168.79 173,-178.79 176.5,-168.79 169.5,-168.79"/>
</g>
<!-- CommonModule -->
<g id="node3" class="node">
<title>CommonModule</title>
<polygon fill="#8dd3c7" stroke="black" points="135.67,-84.8 132.67,-88.8 111.67,-88.8 108.67,-84.8 24.33,-84.8 24.33,-48.8 135.67,-48.8 135.67,-84.8"/>
<text text-anchor="middle" x="80" y="-62.6" font-family="Times,serif" font-size="14.00">CommonModule</text>
</g>
<!-- CommonModule&#45;&gt;ShopifyFooterModule -->
<g id="edge2" class="edge">
<title>CommonModule&#45;&gt;ShopifyFooterModule</title>
<path fill="none" stroke="black" d="M119.31,-84.91C119.31,-84.91 119.31,-103.79 119.31,-103.79"/>
<polygon fill="black" stroke="black" points="115.81,-103.79 119.31,-113.79 122.81,-103.79 115.81,-103.79"/>
</g>
</g>
</svg>
